<?xml version="1.0" encoding="UTF-8" standalone="no"?>
<!-- Created with Inkscape (http://www.inkscape.org/) -->

<svg
   xmlns:dc="http://purl.org/dc/elements/1.1/"
   xmlns:cc="http://creativecommons.org/ns#"
   xmlns:rdf="http://www.w3.org/1999/02/22-rdf-syntax-ns#"
   xmlns:svg="http://www.w3.org/2000/svg"
   xmlns="http://www.w3.org/2000/svg"
   xmlns:sodipodi="http://sodipodi.sourceforge.net/DTD/sodipodi-0.dtd"
   xmlns:inkscape="http://www.inkscape.org/namespaces/inkscape"
   width="32"
   height="32"
   viewBox="0 0 8.4666665 8.4666665"
   version="1.1"
   id="svg8"
   inkscape:version="0.92.1 r15371"
   sodipodi:docname="world.svg">
  <defs
     id="defs2" />
  <sodipodi:namedview
     id="base"
     pagecolor="#ffffff"
     bordercolor="#666666"
     borderopacity="1.0"
     inkscape:pageopacity="0.0"
     inkscape:pageshadow="2"
     inkscape:zoom="31.678384"
     inkscape:cx="-0.33662156"
     inkscape:cy="14.922884"
     inkscape:document-units="mm"
     inkscape:current-layer="layer1"
     showgrid="false"
     units="px"
     inkscape:window-width="1920"
     inkscape:window-height="1017"
     inkscape:window-x="-8"
     inkscape:window-y="-8"
     inkscape:window-maximized="1" />
  <metadata
     id="metadata5">
    <rdf:RDF>
      <cc:Work
         rdf:about="">
        <dc:format>image/svg+xml</dc:format>
        <dc:type
           rdf:resource="http://purl.org/dc/dcmitype/StillImage" />
        <dc:title />
      </cc:Work>
    </rdf:RDF>
  </metadata>
  <g
     inkscape:label="Livello 1"
     inkscape:groupmode="layer"
     id="layer1"
     transform="translate(0,-288.53334)">
    <path
       style="opacity:1;vector-effect:none;fill:#eeeeee;fill-opacity:0.50202429;fill-rule:nonzero;stroke:none;stroke-width:0.004;stroke-linecap:butt;stroke-linejoin:miter;stroke-miterlimit:4;stroke-dasharray:none;stroke-dashoffset:0;stroke-opacity:0.94117647"
       d="M 7.7627167e-4,290.42961 C 0.29215858,290.32023 0.37225182,290.72605 0.0375218,290.58053 -0.17009361,290.91945 0.52625735,290.79122 0.31450886,291.05081 0.21502637,291.15795 0.20922939,291.65803 0.48407154,291.70835 0.67363342,291.69578 0.57227246,291.96206 0.7180222,291.75916 0.79771553,291.93142 0.70881076,291.95571 0.62295045,292.07964 0.4119053,292.24191 0.71443671,292.12036 0.76753699,292.12899 0.87598006,292.28121 1.3050256,292.6119 1.3794416,292.34092 1.6325986,292.24124 1.5970381,292.70833 1.8176174,292.6965 2.1065162,292.93383 1.4274376,292.59671 1.4634731,292.85042 1.6266361,292.94088 1.8097229,292.74112 1.9066605,292.9381 2.0864671,293.08382 2.1952396,292.82981 2.258897,293.04548 2.4087874,292.90374 2.0797104,292.69798 2.1328081,292.51511 2.1927243,292.33197 1.971848,292.22325 2.1657,292.11991 2.1325687,291.90095 2.4101906,292.12325 2.3649466,291.91479 2.3950327,291.74308 2.399777,291.64089 2.4197316,291.58204 2.2394996,291.3068 2.3775234,291.55481 2.5069628,291.61225 2.3375364,291.35498 2.6425065,291.48634 2.7272772,291.27241 2.7943714,291.42848 2.8200897,291.05373 2.9277113,291.18663 3.0647548,291.2892 2.6606278,291.19882 2.9259198,291.3334 3.0905639,291.52493 3.3552016,291.26902 3.5011205,291.10055 3.5230085,290.91558 3.3538868,290.9364 3.3194343,290.81453 3.2171311,290.90826 3.3174625,291.25922 3.112799,291.1914 3.3763835,291.01158 2.8679062,290.99997 3.1332695,290.93203 3.100202,290.85064 3.3190919,290.61739 3.4166397,290.8069 3.3848919,291.03671 3.480194,290.61321 3.6259179,290.60074 3.8556104,290.54245 3.6737106,290.43833 3.7955925,290.30593 4.0977169,290.43074 4.0562635,289.83386 3.7796074,290.04318 3.6774771,290.29999 3.4064965,290.40481 3.2600109,290.10449 3.1805179,290.02905 3.2139382,290.23019 3.3623596,290.33168 3.2495758,290.4754 3.0912541,289.88817 3.024866,290.04845 3.1277024,290.22928 2.8115917,290.10832 2.9106925,290.35637 2.8646046,290.54825 2.7056343,290.24628 2.7458444,290.45664 2.656883,290.539 2.6951716,290.31957 2.5276559,290.2929 2.6460106,290.26955 3.1558219,290.17327 2.8240534,290.00731 2.4868297,290.15853 2.6367497,289.6706 2.9248575,289.80577 3.1036622,289.83865 3.2800894,289.68127 3.4222551,289.89855 3.3590468,290.15107 3.8711579,289.95037 3.9737109,289.93145 4.199236,289.69543 4.5442967,289.49698 4.489741,289.10447 4.415127,288.71135 4.0782757,288.55673 3.725652,288.72471 3.5872665,288.68945 3.4986202,288.62944 3.4444856,288.53412 3.0295488,288.53412 2.6146119,288.53412 2.1996751,288.53412 2.0935687,288.68688 1.5949434,289.12974 1.8394272,289.18758 2.0760164,289.01614 2.328484,289.28001 2.4520308,289.48029 2.703516,289.66641 2.6993928,289.88655 2.4653673,289.59877 2.2433692,289.3974 2.0716185,289.02536 1.7837868,289.36302 1.6088508,289.45848 1.5660981,289.79048 1.8117015,289.8105 1.7963372,289.73559 1.962682,289.68824 1.982264,289.71193 2.2415647,289.87098 2.0957746,289.93376 1.8987415,289.81337 1.7130033,289.89659 1.4541273,289.97917 1.2612477,289.95146 1.1949241,289.96364 0.68639412,289.55411 0.75907969,289.87272 0.94492538,290.04044 0.84790905,290.34841 0.78433892,290.54863 0.49999863,290.42429 0.40959282,290.63972 0.17519252,290.37141 0.1131843,290.38854 0.05356244,290.35904 7.7627167e-4,290.33065 M 7.0768307,288.53412 C 6.924051,288.60933 6.7973793,288.95102 6.9749057,289.00756 7.0197575,289.15562 7.1142027,288.91259 7.2195839,288.97804 7.4042509,288.84856 7.3055502,289.27262 7.1857758,289.3376 6.7272452,289.46885 7.3603724,289.82406 7.4734649,289.82103 7.7039229,289.76236 7.9285401,289.79653 8.0535033,289.60163 8.3472596,289.59402 8.0273411,289.05196 8.307334,289.28246 8.4538973,289.17488 8.5404836,288.99663 8.3798594,288.84927 8.4264189,288.80049 8.2691125,288.57863 8.206797,288.53412 M 7.669092,288.53412 C 7.5194709,288.59485 7.4776477,288.67458 7.3344867,288.53412 M 7.4308916,288.53412 C 7.4076344,288.59904 7.5193658,288.52081 7.4308916,288.53412 Z M 7.5022579,288.53412 C 7.5076085,288.57413 7.6181353,288.50735 7.5022579,288.53412 Z M 5.8642701,288.60184 C 5.7816148,288.61485 5.9194138,288.68665 5.8642701,288.60184 Z M 6.9167458,288.69291 C 6.852699,288.74186 6.9426014,288.73036 6.9167458,288.69291 Z M 6.8812295,288.75913 C 6.846882,288.7697 6.9021652,288.77868 6.8812295,288.75913 Z M 7.7627167e-4,289.13675 C 0.06642318,289.10265 0.01216991,289.04267 7.7627167e-4,288.99631 M 7.0879334,289.06545 C 6.9946676,289.11634 7.1017859,289.11236 7.0879334,289.06545 Z M 0.62551263,289.78519 C 0.48254549,289.90243 0.93610893,289.93608 0.62551263,289.78519 Z M 6.7291854,289.90141 C 6.6867388,290.138 6.5763741,290.48753 6.4129948,290.58959 6.3871705,290.56948 6.0977098,290.60547 6.0616625,290.76945 6.0416435,291.053 6.3369813,291.32709 6.6265731,291.2206 6.7879479,291.18702 7.194939,291.36639 6.8815994,291.08648 6.8309877,290.88327 7.1134044,290.96275 7.1309491,291.00536 7.3089711,290.89174 7.1369607,290.70255 7.2619123,290.54018 7.1653055,290.38717 7.2740624,290.14152 7.1922734,289.94001 7.0915781,289.87767 6.8741926,289.98857 6.7291854,289.90141 Z M 2.9543331,289.93986 C 2.8589606,289.9648 3.1471437,289.9575 2.9543331,289.93986 Z M 2.7119044,289.95671 C 2.6116307,290.00441 2.772259,289.99149 2.7119044,289.95671 Z M 3.2776061,289.98896 C 3.2151703,290.11234 3.48051,290.02921 3.2776061,289.98896 Z M 3.466979,290.08997 C 3.3613507,290.1607 3.53574,290.24567 3.466979,290.08997 Z M 8.4658905,290.20475 C 8.246755,290.08052 7.8069921,290.26813 8.2180249,290.29032 8.3042364,290.32491 8.3813913,290.29473 8.4658905,290.27255 M 2.1760321,290.17785 C 2.2980897,290.21999 2.5066047,290.65084 2.2794153,290.52004 2.3522906,290.38929 2.1209519,290.41409 2.1489937,290.29263 2.099517,290.25923 2.0807037,290.17028 2.1760321,290.17785 Z M 7.986574,290.18208 C 7.7982965,290.23034 7.51633,290.54619 7.8533817,290.32346 7.8592588,290.24652 8.0383238,290.2731 7.986574,290.18208 Z M 3.4532307,290.19766 C 3.4090789,290.24441 3.4982364,290.27225 3.4532307,290.19766 Z M 7.7627167e-4,290.27255 C 0.16280299,290.28648 0.27274328,290.15383 7.7627167e-4,290.20475 M 8.4658905,290.33065 C 8.1678592,290.29993 8.3118729,290.38909 8.4658905,290.42961 M 7.9959685,290.42132 C 7.7490622,290.46407 7.8386222,290.79899 8.0188327,290.79319 8.1685271,291.09158 8.1135485,290.63738 8.1650983,290.51272 8.142471,290.43308 8.0490802,290.45864 7.9959685,290.42132 Z M 7.6195771,290.44465 C 7.5470781,290.56774 7.6462747,290.54248 7.6195771,290.44465 Z M 7.5517104,290.50721 C 7.4568094,290.52422 7.5440295,290.58869 7.5517104,290.50721 Z M 7.5721452,290.55585 C 7.4626006,290.68462 7.5410744,290.68936 7.5721452,290.55585 Z M 3.7954806,290.58393 C 3.5019031,290.5561 3.7003632,290.81054 3.6888059,290.89856 3.7562056,291.02191 3.7170663,290.71953 3.7722126,290.66923 3.7563729,290.62817 3.7677022,290.63152 3.7954806,290.58393 Z M 5.9408858,290.62622 C 5.7849853,290.8275 6.1854421,290.64459 5.9408858,290.62622 Z M 7.6843608,290.62705 C 7.8127341,290.78556 7.6645422,290.69338 7.6234445,290.75433 7.8277716,290.79293 7.7047548,290.8737 7.8490073,290.78447 7.7184949,291.008 7.8442949,291.00328 7.8547764,290.77792 7.8223304,290.68028 7.7506165,290.67924 7.6843608,290.62705 Z M 7.4471814,290.63117 C 7.3710769,290.8774 7.5031035,290.80436 7.4471814,290.63117 Z M 3.8772413,290.65877 C 3.6355678,290.77157 3.9005141,290.87792 3.8772413,290.65877 Z M 3.3703449,290.77847 C 3.3175673,290.86022 3.436881,290.82538 3.3703449,290.77847 Z M 7.6090575,290.895 C 7.5368178,290.94835 7.6324742,290.93919 7.6090575,290.895 Z M 8.2055889,290.94943 C 8.1968127,291.09607 8.2801153,291.09639 8.2055889,290.94943 Z M 0.25309969,290.95343 C 0.14482395,291.06721 0.36574193,291.07086 0.25309969,290.95343 Z M 7.5719994,290.9642 C 7.4395275,291.07074 7.5692651,291.07748 7.5719994,290.9642 Z M 5.4362182,290.97101 C 5.2311399,290.98996 5.4979273,291.46722 5.4453003,291.10918 5.4314846,291.07601 5.4831365,290.99923 5.4362182,290.97101 Z M 7.6610719,291.02806 C 7.6572318,291.10898 7.8413406,291.1062 7.6610719,291.02806 Z M 8.0448794,291.04321 C 7.9447919,291.11313 7.8808735,291.18204 8.0395676,291.20244 8.001763,291.13855 8.1209854,291.10256 8.0448794,291.04321 Z M 7.3286542,291.08206 C 7.3282651,291.14869 7.3977369,291.11242 7.3286542,291.08206 Z M 7.5817901,291.1072 C 7.456009,291.10552 7.4260804,291.17958 7.2268911,291.2215 7.1053573,291.10834 7.0752805,291.52143 6.8719598,291.50475 6.8807685,291.58564 7.3859307,291.50864 7.4166435,291.24168 7.4037002,291.12677 7.6124498,291.2826 7.5817901,291.1072 Z M 8.1051428,291.12293 C 8.0419996,291.21448 8.2281099,291.1989 8.1051428,291.12293 Z M 8.1621359,291.13749 C 8.1151992,291.22212 8.2763687,291.16842 8.1621359,291.13749 Z M 8.2318983,291.15663 C 8.2776579,291.22651 8.335656,291.14373 8.2318983,291.15663 Z M 8.3018062,291.18652 C 8.0792672,291.28518 8.3747234,291.22761 8.4413517,291.33025 8.4856359,291.26373 8.3537996,291.19419 8.3018062,291.18652 Z M 8.0984978,291.21646 C 8.104827,291.33544 8.2247966,291.23707 8.0984978,291.21646 Z M 5.3788708,291.25503 C 5.2397121,291.48994 5.8174705,291.48379 5.4620481,291.32421 5.4706048,291.28469 5.3866411,291.31549 5.3788708,291.25503 Z M 0.12913563,291.41041 C 0.17361109,291.60851 0.29349929,291.47232 0.12913563,291.41041 Z M 2.6676388,291.45255 C 2.6412071,291.45092 2.531254,291.93416 2.6845118,291.60868 2.6820123,291.55989 2.7526271,291.46028 2.6676388,291.45255 Z M 7.0306281,291.58695 C 6.8882901,291.65432 6.9909845,291.90823 7.0306281,291.58695 Z M 3.6503733,291.62099 C 3.5769653,291.72815 3.7357234,291.87859 3.7456117,291.72135 3.7419153,291.66939 3.6984168,291.63009 3.6503733,291.62099 Z M 3.0596119,291.68229 C 2.8887219,291.78372 3.1052711,291.8979 3.0596119,291.68229 Z M 6.177732,291.68519 C 5.9612603,291.70821 6.3417275,291.7237 6.177732,291.68519 Z M 3.0029313,291.68771 C 2.9494041,291.70145 3.0146613,291.76219 3.0029313,291.68771 Z M 7.0636031,291.73904 C 6.9015294,291.75408 6.9618051,291.81855 7.0636031,291.73904 Z M 2.9558746,291.76701 C 2.8686717,291.826 3.0783363,291.82814 2.9558746,291.76701 Z M 2.7920195,291.7918 C 2.7364544,291.83413 2.8219929,291.82384 2.7920195,291.7918 Z M 6.8593572,291.79886 C 6.6812348,291.8583 6.9967822,291.80815 6.8593572,291.79886 Z M 3.5046202,291.83396 C 3.4424267,291.90766 3.3207876,291.84627 3.2075312,291.93664 3.0649318,291.99156 3.1086487,292.02816 3.0848598,292.14019 3.161622,292.22362 3.1973976,292.42393 3.3099697,292.38054 3.3939055,292.21399 3.6014595,292.29792 3.6377707,292.27268 3.8479996,292.41469 4.12737,292.10937 3.7678584,292.08341 3.6908706,291.96163 3.5148081,291.82474 3.5046202,291.83396 Z M 6.7860745,291.84528 C 6.7296695,291.85895 6.815149,291.86223 6.7860745,291.84528 Z M 6.6232192,291.88769 C 6.5496569,291.92354 6.6596302,291.9264 6.6232192,291.88769 Z M 6.7251444,291.89323 C 6.6041482,291.92865 6.6877285,291.94424 6.7251444,291.89323 Z M 6.2503898,291.90635 C 6.2103433,291.91901 6.2970319,291.91994 6.2503898,291.90635 Z M 6.2812193,291.91391 C 6.279664,291.95765 6.3417226,291.94275 6.2812193,291.91391 Z M 6.5537902,291.91637 C 6.4864874,291.9443 6.5924033,291.93359 6.5537902,291.91637 Z M 6.5902233,291.94297 C 6.5605775,291.96914 6.7285011,291.95459 6.5902233,291.94297 Z M 2.4868275,291.9477 C 2.3446422,292.01526 2.6648986,291.99797 2.4868275,291.9477 Z M 2.4173985,291.96691 C 2.371089,292.03527 2.502096,292.00091 2.4173985,291.96691 Z M 0.50508982,292.24266 C 0.3506888,292.37515 0.68351128,292.28153 0.537815,292.36211 0.62281545,292.37166 0.61727273,292.67583 0.86775393,292.57614 0.92732814,292.47521 0.58349658,292.47979 0.58455928,292.28666 0.55823504,292.27171 0.53107726,292.25821 0.50508982,292.24266 Z M 3.0968991,292.2476 C 2.9199875,292.4088 3.2136426,292.41898 3.0500088,292.46478 3.1670304,292.5588 3.1258297,292.40157 3.2055733,292.54423 3.3187523,292.45542 3.1317017,292.35154 3.0968991,292.2476 Z M 2.2454195,292.26699 C 2.1520203,292.36218 2.3582467,292.36618 2.2454195,292.26699 Z M 2.1760737,292.31122 C 2.136535,292.36227 2.2123545,292.34086 2.1760737,292.31122 Z M 2.2593136,292.35771 C 2.2105259,292.39362 2.2845122,292.4306 2.2593136,292.35771 Z M 3.677474,292.44518 C 3.5577692,292.50013 3.3385233,292.52127 3.3274541,292.61889 3.2306007,292.7548 3.4834889,292.62172 3.5911601,292.58872 3.624933,292.86812 3.9725838,292.45247 3.6687251,292.54046 3.648026,292.48712 3.8139598,292.51258 3.677474,292.44518 Z M 1.3492995,292.44906 C 0.94965202,292.50044 1.1801057,292.58701 1.3712343,292.47891 1.4590187,292.46249 1.3666772,292.45876 1.3492995,292.44906 Z M 4.4379646,292.46378 C 4.3215265,292.53681 4.226432,292.49212 4.4242659,292.62781 4.4400158,292.5391 4.5255673,292.4829 4.4379646,292.46378 Z M 4.2206578,292.47932 C 4.0966863,292.5978 3.8642576,292.51326 3.9202986,292.6707 3.5148673,292.6941 3.9855016,292.89338 4.0717593,293.02246 3.8765732,292.96177 3.5046028,293.28821 3.5490363,292.86308 3.5819818,292.71923 3.3737152,292.57923 3.4630835,292.78045 3.2965496,292.71373 3.2838263,292.77365 3.3468257,292.85548 3.2494927,292.9372 3.1873078,293.05345 3.042718,293.00832 2.9137976,292.99696 2.8133911,293.13799 2.6589941,293.00376 2.5130288,292.82306 2.3881472,293.08534 2.4031281,293.0676 2.2493297,293.07423 2.5410981,293.22224 2.2996377,293.23 2.2897416,293.39313 2.5341688,293.50915 2.1967378,293.50445 2.382382,293.64402 2.5753356,293.27352 2.5539651,293.45266 2.8146941,293.3842 2.953072,293.79045 3.21565,293.80012 3.174952,293.91157 3.506843,294.2992 3.8214571,294.31231 3.9263313,294.40478 4.3773004,294.49401 3.9989479,294.34579 3.5839483,294.15431 4.3259615,294.35588 4.413697,294.444 4.7063351,294.45291 4.9256279,294.0917 5.178791,294.19559 5.3954673,294.28621 5.4003658,293.91929 5.573139,294.18149 5.6203855,294.42557 5.6244444,294.59843 5.9121842,294.66091 6.2302789,294.75013 6.5322175,294.76803 6.6476646,295.15123 6.7976607,295.42897 6.8598731,295.57339 6.8856456,295.75996 6.9426819,295.94263 7.0217612,296.05663 7.2021655,295.98719 7.0345019,295.90027 7.0847335,295.92935 7.1285326,295.66943 7.042752,295.56228 7.1276211,295.40816 7.1484677,295.3071 7.3541882,295.26141 7.2055222,295.07446 7.1689861,295.06022 7.3942971,294.84405 7.0683898,294.45755 7.301949,294.2164 7.1708136,293.95749 7.3095598,293.34772 6.8469837,293.61568 6.6178074,293.75786 6.5051253,293.63963 6.2793625,293.58845 6.0954172,293.71021 5.8840629,293.55047 5.8289202,293.60294 5.7239944,293.72004 5.5034915,293.71717 5.5983649,293.86299 5.4593952,293.54911 5.5204591,294.31379 5.2190134,294.11764 5.1393939,293.78266 4.914233,294.30024 4.8850353,293.94094 4.7689791,293.9199 4.7943089,294.42127 4.5239371,294.16039 4.288521,293.92618 4.5893724,293.75967 4.7143116,293.60279 5.0154551,293.67149 4.9208861,293.59411 4.7364465,293.47466 4.7845135,293.23631 4.5557719,293.22254 4.5799265,293.17688 4.5776954,293.04806 4.4583974,292.93967 4.4871252,292.81936 4.5966437,292.90622 4.4300976,292.50113 4.4357235,292.77602 4.2129545,292.65087 4.4060201,293.09411 4.2723471,292.74818 4.3171092,292.67288 4.332843,292.49588 4.2206578,292.47932 Z M 0.93937021,292.48353 C 0.87952534,292.66479 1.2091239,292.62738 0.97542832,292.50136 L 0.95937702,292.48737 Z M 3.2831679,292.50797 C 3.0174116,292.58609 3.2453274,292.7177 3.2831679,292.50797 Z M 3.3679076,292.52301 C 3.2630244,292.56088 3.4236611,292.57675 3.3679076,292.52301 Z M 3.0878167,292.53609 C 3.0680856,292.57496 3.1484554,292.55291 3.0878167,292.53609 Z M 3.1348528,292.55219 C 3.1026841,292.56157 3.1415678,292.56911 3.1348528,292.55219 Z M 3.0514879,292.55542 C 2.9819325,292.59298 3.1543282,292.58381 3.0514879,292.55542 Z M 3.0032437,292.6015 C 2.9683605,292.61649 3.0234219,292.61976 3.0032437,292.6015 Z M 3.5475941,292.61179 C 3.5157772,292.65855 3.6123004,292.64335 3.5475941,292.61179 Z M 3.1330613,292.6161 C 3.0474326,292.68703 3.2512089,292.70407 3.1330613,292.6161 Z M 3.1862423,292.61987 C 3.1352432,292.68172 3.2596458,292.64794 3.1862423,292.61987 Z M 3.0109304,292.6302 C 2.9570322,292.6727 3.0560238,292.65709 3.0109304,292.6302 Z M 3.2539841,292.64018 C 3.1607388,292.70322 3.3441452,292.76771 3.2539841,292.64018 Z M 1.0897894,292.66176 C 1.0914117,292.73588 1.1950268,292.71211 1.0897894,292.66176 Z M 3.0517794,292.6733 C 2.9349123,292.77882 3.1284659,292.79058 3.0517794,292.6733 Z M 4.3419346,292.67574 C 4.2600154,292.72075 4.3156581,292.74425 4.3419346,292.67574 Z M 2.9729143,292.67667 C 2.8855045,292.76255 2.996433,292.79553 2.9729143,292.67667 Z M 3.2068232,292.70255 C 3.104668,292.81102 3.3704417,292.81074 3.2068232,292.70255 Z M 4.454296,292.71738 C 4.3751457,292.78852 4.4904414,292.76947 4.454296,292.71738 Z M 1.1589477,292.73223 C 1.1783879,292.78 1.2096986,292.73877 1.1589477,292.73223 Z M 2.3186605,292.76304 C 2.2994327,292.80666 2.3810565,292.79027 2.3186605,292.76304 Z M 3.1411229,292.76529 C 3.1763202,292.83911 2.9501147,292.85025 3.0508423,292.93208 3.0354689,292.9699 3.2289099,293.03382 3.2590593,292.84958 3.1949155,292.85437 3.1709077,292.80591 3.1411229,292.76529 Z M 3.6439365,292.77125 C 3.4083144,292.79411 3.6732804,292.95009 3.6439365,292.77125 Z M 1.2285642,292.77312 C 1.2071389,292.79207 1.2625809,292.78465 1.2285642,292.77312 Z M 3.7044499,292.7876 C 3.6841541,292.81827 3.7500854,292.80218 3.7044499,292.7876 Z M 1.3527991,292.8102 C 1.4222619,292.87367 1.4237136,292.80587 1.3527991,292.8102 Z M 3.3016033,292.81509 C 3.2212085,292.90038 3.4170585,292.82466 3.3016033,292.81509 Z M 3.0092014,292.81728 C 2.8045837,292.83913 3.0700477,293.11849 3.0092014,292.81728 Z M 3.664809,292.81859 C 3.6223789,292.83845 3.699673,292.88618 3.664809,292.81859 Z M 2.24769,293.10006 C 2.2243419,293.12224 2.3378103,293.16757 2.24769,293.10006 Z M 2.2546683,293.27031 C 2.2351554,293.29865 2.318676,293.30472 2.2546683,293.27031 Z M 5.5274362,293.39479 C 5.4381655,293.42965 5.5365334,293.44941 5.5274362,293.39479 Z M 5.4413217,293.44556 C 5.168077,293.52282 5.3730882,293.70765 5.4413217,293.44556 Z M 4.9920431,293.48839 C 4.9443355,293.49814 5.0389026,293.50437 4.9920431,293.48839 Z M 2.4722251,293.5012 C 2.3740301,293.53303 2.529492,293.55342 2.4722251,293.5012 Z M 4.971962,293.50722 C 4.9259182,293.53583 4.9465346,293.57011 4.971962,293.50722 Z M 5.0207896,293.54832 C 4.9776974,293.58839 5.1271943,293.56931 5.0207896,293.54832 Z M 5.2496367,293.54978 C 5.0255846,293.60996 4.7621364,293.95042 5.0848024,293.66813 5.1579548,293.63985 5.2383487,293.66349 5.2496367,293.54978 Z M 5.2541986,293.67926 C 5.1534951,293.69643 5.2210316,293.78086 5.2541986,293.67926 Z M 2.9369394,293.6857 C 2.8262772,293.70681 3.0239383,293.82043 2.9369394,293.6857 Z M 3.1010652,293.78283 C 2.9346996,293.82749 3.3753501,293.84104 3.1010652,293.78283 Z M 2.6196863,295.26144 C 2.5848348,295.27173 2.6404102,295.27595 2.6196863,295.26144 Z M 2.6737422,295.26338 C 2.6399496,295.28139 2.7070089,295.28231 2.6737422,295.26338 Z M 2.7412131,295.2684 C 2.7063649,295.2787 2.7619415,295.2829 2.7412131,295.2684 Z M 2.7748758,295.28723 C 2.7230924,295.36887 2.8651877,295.3006 2.7748758,295.28723 Z M 3.4923715,296.99923 C 3.4167757,296.80109 3.1093768,296.62325 3.240194,296.33798 3.0081049,296.16968 2.9737615,295.52493 2.6184817,295.70865 2.3605116,295.89331 2.3867646,296.18538 2.2854146,296.41041 1.979813,296.54046 2.3352773,296.82201 2.1996751,296.99923 M 7.335445,295.78977 C 7.1947328,295.82047 7.37909,295.86091 7.335445,295.78977 Z M 7.0601034,295.96852 C 7.1192631,295.97408 7.009165,295.98035 7.0601034,295.96852 Z M 1.9851804,296.10823 C 1.8395805,296.2191 1.7660496,296.54211 1.8423367,296.67851 1.9782681,296.519 2.1576,296.30801 1.9851804,296.10823 Z M 7.3344867,296.99923 C 7.3132296,296.85899 7.4716673,296.65289 7.333695,296.45838 7.5187965,296.11669 7.1485259,296.55805 7.3342494,296.70523 7.2871022,296.83534 6.8886091,296.89955 7.0762057,296.99775 L 7.0768307,296.99923 M 7.2607457,296.58034 C 7.1796295,296.77543 7.402012,296.7643 7.2607457,296.58034 Z M 8.206797,296.99923 C 8.1717836,296.91773 7.9798729,296.72914 7.8726733,296.86465 7.7766194,296.87469 7.5480716,296.90403 7.669092,296.99923 M 7.0300862,296.8877 C 6.9229494,296.9378 7.0085215,296.9752 7.0300862,296.8877 Z M 7.5560429,296.89651 C 7.3879636,297.05445 7.6546157,297.02362 7.5560429,296.89651 Z M 7.457451,296.97205 C 7.4148566,297.01664 7.484458,297.01109 7.457451,296.97205 Z M 7.4331204,296.99896 C 7.4254004,296.99938 7.4399511,296.9995 7.4331204,296.99896 Z"
       id="rect4579-3-4-4-83-1"
       inkscape:connector-curvature="0" />
  </g>
</svg>
