<?xml version="1.0" encoding="UTF-8" standalone="no"?>
<!-- Created with Inkscape (http://www.inkscape.org/) -->

<svg
   width="64"
   height="64"
   viewBox="0 0 16.933333 16.933333"
   version="1.1"
   id="svg5"
   xml:space="preserve"
   inkscape:version="1.2.2 (732a01da63, 2022-12-09)"
   sodipodi:docname="marker.svg"
   xmlns:inkscape="http://www.inkscape.org/namespaces/inkscape"
   xmlns:sodipodi="http://sodipodi.sourceforge.net/DTD/sodipodi-0.dtd"
   xmlns="http://www.w3.org/2000/svg"
   xmlns:svg="http://www.w3.org/2000/svg"><sodipodi:namedview
     id="namedview7"
     pagecolor="#ffffff"
     bordercolor="#000000"
     borderopacity="0.25"
     inkscape:showpageshadow="2"
     inkscape:pageopacity="0.0"
     inkscape:pagecheckerboard="0"
     inkscape:deskcolor="#d1d1d1"
     inkscape:document-units="mm"
     showgrid="false"
     inkscape:zoom="8.3553674"
     inkscape:cx="25.552437"
     inkscape:cy="19.029684"
     inkscape:window-width="1920"
     inkscape:window-height="1009"
     inkscape:window-x="1912"
     inkscape:window-y="-8"
     inkscape:window-maximized="1"
     inkscape:current-layer="layer1" /><defs
     id="defs2" /><g
     inkscape:label="Layer 1"
     inkscape:groupmode="layer"
     id="layer1"><path
       id="path6596"
       style="fill:#ffffff;fill-opacity:1;stroke-width:0.357302"
       d="M 8.4666667 0.21394043 L 7.395931 2.0686076 L 6.3246785 3.9237915 L 8.4666667 3.6307861 L 10.608655 3.9237915 L 9.5374023 2.0686076 L 8.4666667 0.21394043 z M 8.4666667 4.2333333 A 4.2333331 4.2333331 0 0 0 4.2333333 8.4666667 A 4.2333331 4.2333331 0 0 0 8.4666667 12.7 A 4.2333331 4.2333331 0 0 0 12.7 8.4666667 A 4.2333331 4.2333331 0 0 0 8.4666667 4.2333333 z M 8.4666667 5.2916667 A 3.175 3.175 0 0 1 11.641667 8.4666667 A 3.175 3.175 0 0 1 8.4666667 11.641667 A 3.175 3.175 0 0 1 5.2916667 8.4666667 A 3.175 3.175 0 0 1 8.4666667 5.2916667 z M 8.4666667 7.3468384 A 1.1195718 1.1195718 0 0 0 7.3468384 8.4666667 A 1.1195718 1.1195718 0 0 0 8.4666667 9.586495 A 1.1195718 1.1195718 0 0 0 9.586495 8.4666667 A 1.1195718 1.1195718 0 0 0 8.4666667 7.3468384 z " /></g></svg>
