<?xml version="1.0" standalone="no"?>
<!DOCTYPE svg PUBLIC "-//W3C//DTD SVG 1.1//EN" "http://www.w3.org/Graphics/SVG/1.1/DTD/svg11.dtd" >
<svg xmlns="http://www.w3.org/2000/svg" xmlns:xlink="http://www.w3.org/1999/xlink" version="1.1">
<metadata>
Created by FontForge 20170731 at Wed Jul 10 12:20:04 2019
 By stefano
</metadata>
<defs>
<font id="Mapstore" horiz-adv-x="1200" >
  <font-face 
    font-family="Mapstore"
    font-weight="300"
    font-stretch="normal"
    units-per-em="1200"
    panose-1="0 0 5 0 0 0 0 0 0 0"
    ascent="960"
    descent="-240"
    x-height="997"
    cap-height="1063"
    bbox="-217 -220 1478 1242"
    underline-thickness="50"
    underline-position="-1700"
    unicode-range="U+0021-1F6AA"
  />
<missing-glyph horiz-adv-x="440" 
d="M60 -70v800h320v-800h-320zM100 -30h240v720h-240v-720z" />
    <glyph glyph-name=".notdef" horiz-adv-x="440" 
d="M60 -70v800h320v-800h-320zM100 -30h240v720h-240v-720z" />
    <glyph glyph-name=".null" horiz-adv-x="0" 
 />
    <glyph glyph-name="nonmarkingreturn" 
 />
    <glyph glyph-name="exclam" unicode="!" 
d="M489 1079q200 0 343.5 -143.5t143.5 -344.5q0 -53 -12 -104h-66q13 51 13 104q0 175 -124.5 299.5t-298.5 124.5t-298.5 -124.5t-124.5 -299.5q0 -112 60 -216h445q0 -228 1 -264q-40 -7 -82 -7q-141 0 -257.5 74t-176.5 197q-55 101 -55 216q0 201 144.5 344.5
t344.5 143.5zM381 951q43 0 43 -43t-43 -43q-16 0 -28.5 12t-12.5 31q0 17 12.5 30t28.5 13zM593 951q44 0 44 -43q0 -19 -12.5 -31t-31.5 -12q-17 0 -29.5 12t-12.5 31q0 17 12.5 30t29.5 13zM709 901l-83 -233l-75 -218q0 -5 -7 -16q-10 -23 -36 -31t-47 2
q-24 14 -32.5 40t3.5 48q0 3 2.5 5.5t5.5 4.5l130 192zM215 820q18 0 30 -12.5t12 -33.5q0 -17 -12 -29t-30 -12q-20 0 -32 12t-12 29q0 46 44 46zM764 820q18 0 30 -12.5t12 -29.5q0 -42 -42.5 -42t-42.5 42t43 42zM812 640q21 0 33 -12.5t12 -30.5q0 -41 -45 -41
q-42 0 -42 41q0 18 13.5 30.5t28.5 12.5zM159 633q41 0 41 -42t-41 -42q-16 0 -29.5 13t-13.5 30t13.5 29t29.5 12zM635 457h466l6 -1q31 -30 89 -88q2 -2 2 -8q2 -148 2 -448q0 -14 -10 -23t-24 -9h-266h-265q-27 0 -33 24v10q-2 170 -2 508q0 17 11 26t24 9zM774 421
q-14 0 -23.5 -9.5t-9.5 -23.5v-109q0 -14 9.5 -23t23.5 -9h254q13 0 22.5 9t9.5 23v109q0 15 -9.5 24t-22.5 9h-254zM942 395h60v-123h-60v123zM686 189v-249h428v249h-428z" />
    <glyph glyph-name="quotedbl" unicode="&#x22;" 
d="M631 1032h16q48 0 94 -8l-124 -462l-333 333q61 54 163 94t184 43zM822 1003q51 -17 114.5 -55.5t101.5 -76.5q67 -67 114.5 -181.5t47.5 -209.5t-47.5 -209t-114.5 -181t-181.5 -114.5t-209 -47.5t-209 47.5t-181.5 114.5q-30 30 -63 79t-50 88l479 129v1q18 0 32 13.5
t15 32.5zM151 907l436 -436q-96 -26 -287 -77t-286 -77q-31 155 5 309.5t132 280.5z" />
    <glyph glyph-name="numbersign" unicode="#" 
d="M600 1080q45 0 77.5 -31.5t33.5 -76.5v-3v-289h403v-205h-55v-595h-918v595h-55v205h403v289v3q1 45 33.5 76.5t77.5 31.5zM246 475v-490h134v301h65v-301h123v301h64v-301h126v301h64v-301h132v490h-708z" />
    <glyph glyph-name="dollar" unicode="$" 
d="M689 138h-170v377l-107 -121q-48 -55 -102 -3q-56 50 -3 100l296 331l298 -331q18 -19 18 -49q0 -37 -21 -51q-54 -52 -101 3l-108 121v-377zM1146 914h-1094q-51 0 -51 52v61q0 19 15 36t36 17h1094q19 0 36 -17t17 -36v-61q0 -52 -53 -52z" />
    <glyph glyph-name="percent" unicode="%" 
d="M511 822h170v-377l107 121q48 55 102 3q56 -50 3 -100l-296 -331l-298 331q-18 19 -18 49q0 37 21 51q54 52 101 -3l108 -121v377zM54 46h1094q51 0 51 -52v-61q0 -19 -15 -36t-36 -17h-1094q-19 0 -36 17t-17 36v61q0 52 53 52z" />
    <glyph glyph-name="ampersand" unicode="&#x26;" 
d="M52 1080h1094q19 0 36 -17t17 -36v-61q0 -52 -53 -52h-1094q-51 0 -51 52v61q0 19 15 36t36 17zM600.5 813q22.5 0 39 -15.5t16.5 -38.5v-225h223q23 0 38.5 -15t15.5 -38.5t-15.5 -39.5t-38.5 -16h-223v-224q0 -23 -16.5 -38.5t-39 -15.5t-39 15.5t-16.5 38.5v224h-224
q-21 0 -37.5 16t-16.5 39.5t16.5 38.5t37.5 15h224v225q0 23 16.5 38.5t39 15.5z" />
    <glyph glyph-name="quotesingle" unicode="'" 
d="M1148 -120h-1094q-19 0 -36 17t-17 36v61q0 52 53 52h1094q51 0 51 -52v-61q0 -19 -15 -36t-36 -17zM599.5 147q-22.5 0 -39 15.5t-16.5 38.5v225h-223q-23 0 -38.5 15t-15.5 38.5t15.5 39.5t38.5 16h223v224q0 23 16.5 38.5t39 15.5t39 -15.5t16.5 -38.5v-224h224
q21 0 37.5 -16t16.5 -39.5t-16.5 -38.5t-37.5 -15h-224v-225q0 -23 -16.5 -38.5t-39 -15.5z" />
    <glyph glyph-name="parenleft" unicode="(" 
d="M574 1080h52v-149q-13 2 -26 2t-26 -1v148zM218 933l105 -105q-19 -18 -37 -37l-105 105zM982 933l37 -37l-105 -105q-18 19 -37 37zM600 862q95 0 175 -46.5t126.5 -126.5t46.5 -175q0 -104 -57 -191t-153 -128v-70q0 -15 -15 -26t-37 -11h-172q-22 0 -37 11t-15 26v69
q-96 42 -153 129t-57 191q0 95 46.5 175t126.5 126.5t175 46.5zM599 771h-6q-81 -2 -149 -54t-91 -130q-20 -68 0 -141t73 -121q14 -12 30.5 -23t39.5 -24t33 -20q28 -27 26 -77q8 0 40.5 -0.5t49.5 -0.5q1 58 35 85q12 9 43.5 25t44.5 30q58 51 79.5 128.5t-4.5 149.5
q-23 65 -77.5 111.5t-121.5 57.5q-23 3 -45 4zM34 540h148q-1 -13 -1 -26t1 -26h-148v52zM1018 540h148v-52h-148q1 13 1 26t-1 26zM286 237q18 -20 37 -37l-105 -105l-37 37zM914 237l105 -105l-37 -37l-105 105q19 17 37 37zM514 19h172q22 0 37 -4t15 -10v-54
q0 -5 -14 -9.5t-35 -4.5v-42q0 -6 -10 -10.5t-24 -4.5h-110q-14 0 -24 4.5t-10 10.5v42q-21 0 -35 4.5t-14 9.5v54q0 6 15 10t37 4z" />
    <glyph glyph-name="parenright" unicode=")" 
d="M600 862q95 0 175 -46.5t126.5 -126.5t46.5 -175q0 -104 -57 -191t-153 -128v-70q0 -15 -15 -26t-37 -11h-172q-22 0 -37 11t-15 26v69q-96 42 -153 129t-57 191q0 95 46.5 175t126.5 126.5t175 46.5zM599 771h-6q-81 -2 -149 -54t-91 -130q-20 -68 0 -141t73 -121
q14 -12 30.5 -23t39.5 -24t33 -20q28 -27 26 -77q8 0 40.5 -0.5t49.5 -0.5q1 58 35 85q12 9 43.5 25t44.5 30q58 51 79.5 128.5t-4.5 149.5q-23 65 -77.5 111.5t-121.5 57.5q-23 3 -45 4zM514 19h172q22 0 37 -4t15 -10v-54q0 -5 -14 -9.5t-35 -4.5v-42q0 -6 -10 -10.5
t-24 -4.5h-110q-14 0 -24 4.5t-10 10.5v42q-21 0 -35 4.5t-14 9.5v54q0 6 15 10t37 4z" />
    <glyph glyph-name="asterisk" unicode="*" 
d="M541 385q4 11 -4 15.5t-19 -0.5l-302 -217q-27 -19 -43 12l-61 104q-15 27 16 43l338 154q34 13 0 29l-341 157q-28 16 -13 43l61 100q20 31 43 9l302 -210q8 -3 13 -3t7.5 4.5t2.5 13.5l-28 366q0 35 28 35h116q31 0 31 -35l-31 -366q-3 -11 5 -15.5t20 0.5l301 210
q25 22 44 -9l60 -100q16 -27 -12 -43l-341 -157q-33 -16 0 -29l338 -154q31 -16 15 -43l-60 -104q-15 -31 -44 -12l-301 217q-10 3 -14.5 3t-7.5 -4.5t-3 -13.5l31 -366q0 -35 -31 -35h-116q-28 0 -28 35z" />
    <glyph glyph-name="plus" unicode="+" 
d="M1070 399h-376v-379q0 -39 -27.5 -65t-66 -26t-66 26t-27.5 65v379h-379q-35 0 -62.5 27t-27.5 66t27.5 64.5t62.5 25.5h379v380q0 38 27.5 64.5t66 26.5t66 -26.5t27.5 -64.5v-380h376q39 0 65 -25.5t26 -64.5t-26 -66t-65 -27z" />
    <glyph glyph-name="comma" unicode="," 
d="M950 1080q17 0 29 -12t12 -28v-170h169q16 0 28 -11t12 -28.5t-12 -29.5t-28 -12h-169v-169q0 -17 -12 -28.5t-29 -11.5t-29.5 11.5t-12.5 28.5v169h-167q-17 0 -29 12t-12 29.5t12 28.5t29 11h167v170q0 16 12.5 28t29.5 12zM404 778l535 -268l-404 -422l-535 270z
M876 360l95 -53l-414 -427l-550 280l77 70l454 -226z" />
    <glyph glyph-name="hyphen" unicode="-" 
d="M1148 46q51 0 51 -52v-61q0 -19 -15 -36t-36 -17h-1094q-19 0 -36 17t-17 36v61q0 52 53 52h1094zM1148 734q51 0 51 -50v-63q0 -47 -51 -47h-1094q-53 0 -53 47v63q0 50 53 50h1094zM1148 1080q21 0 36 -17t15 -35v-62q0 -52 -51 -52h-1094q-53 0 -53 52v62q0 18 17 35
t36 17h1094zM832 273q-14 0 -23 9.5t-9 23.5t9 23t23 9h134v135q0 14 10 23.5t23.5 9.5t23.5 -9.5t10 -23.5v-135h134q13 0 22.5 -9t9.5 -23t-9.5 -23.5t-22.5 -9.5h-134v-135q0 -14 -10 -23t-23.5 -9t-23.5 9t-10 23v135h-134z" />
    <glyph glyph-name="period" unicode="." 
d="M1148 46q51 0 51 -52v-61q0 -19 -15 -36t-36 -17h-1094q-19 0 -36 17t-17 36v61q0 52 53 52h1094zM1148 734q51 0 51 -50v-63q0 -47 -51 -47h-1094q-53 0 -53 47v63q0 50 53 50h1094zM1148 1080q21 0 36 -17t15 -35v-62q0 -52 -51 -52h-1094q-53 0 -53 52v62q0 18 17 35
t36 17h1094zM858 401q-10 10 -9.5 23t10 23t22.5 10t23 -10l95 -95l95 96q10 9 23.5 9t23 -9.5t10 -23.5t-9.5 -23l-95 -96l95 -95q9 -9 9.5 -22.5t-9.5 -23t-23.5 -9.5t-22.5 9l-95 95l-96 -95q-9 -10 -22.5 -9.5t-23.5 10t-10 23t9 23.5l96 95z" />
    <glyph glyph-name="slash" unicode="/" 
d="M0 1080h1200v-500v-700h-1200v700v500zM62 932v-196h1076v196h-1076zM62 580v-288h313v288h-313zM438 580v-288h324v288h-324zM825 580v-288h313v288h-313zM62 230v-288h313v288h-313zM438 230v-288h324v288h-324zM825 230v-288h313v288h-313z" />
    <glyph glyph-name="zero" unicode="0" 
d="M0 1080h1200v-500v-700h-1200v700v500zM62 932v-196h1076v196h-1076zM437 580v-638h700v0h1v288h-1v62h1v288h-1v0h-700zM62 580v-288h313v288h-313zM62 230v-288h313v288h-313zM1070 292q5 -30 0 -63q0 -16 -16 -16l-3 2q-42 0 -59 -40q-16 -40 17 -71q11 -9 2 -21
q-22 -24 -47 -47q-11 -9 -21 3q-31 32 -71 15.5t-40 -60.5q0 -15 -14 -15q-22 -4 -31 -4t-33 4q-14 0 -14 17q3 43 -38 61q-43 17 -71 -18q-10 -9 -22 -1q-26 26 -45 47q-9 13 2 21q31 30 15 71q-18 42 -57 38q-19 0 -19 15q-5 32 0 65q0 14 17 14q44 0 61 39q17 40 -15 71
q-13 9 -4 21q31 33 47 47q12 9 21 -4q32 -31 71.5 -14.5t39.5 60.5q0 15 13 15q31 5 64 0q15 0 15 -17q-3 -44 39 -61q43 -18 71 17q10 9 21 2q26 -26 45 -47q9 -14 -2 -21q-31 -31 -15 -71q14 -38 59 -38q17 0 17 -16zM787 166q40 0 68.5 27.5t28.5 68.5q0 38 -28.5 65.5
t-68.5 27.5q-38 0 -65.5 -27.5t-27.5 -65.5q0 -41 27.5 -68.5t65.5 -27.5z" />
    <glyph glyph-name="one" unicode="1" 
d="M0 805l275 275l634 -635l291 -565l-554 283zM679 253l14 -13l232 -118q4 9 13 18q12 10 19 15l-117 231l-16 17q-12 -5 -23.5 -12t-20 -18t-12.5 -25.5t-1 -34.5q-19 2 -33 -3t-24.5 -13.5t-18 -20t-12.5 -23.5zM180 899l522 -521q5 15 15 29q8 12 22 23.5t35 18.5
l-521 521z" />
    <glyph glyph-name="two" unicode="2" 
d="M0 805l275 275l634 -635l291 -565l-554 283zM679 253l14 -13l232 -118q4 9 13 18q12 10 19 15l-117 231l-16 17q-12 -5 -23.5 -12t-20 -18t-12.5 -25.5t-1 -34.5q-19 2 -33 -3t-24.5 -13.5t-18 -20t-12.5 -23.5zM180 899l522 -521q5 15 15 29q8 12 22 23.5t35 18.5
l-521 521zM741 789q-17 0 -29 12t-12 29.5t12 28.5t29 11h167v170q0 16 12.5 28t29.5 12t29 -12t12 -28v-170h169q16 0 28 -11t12 -28.5t-12 -29.5t-28 -12h-169v-169q0 -17 -12 -28.5t-29 -11.5t-29.5 11.5t-12.5 28.5v169h-167z" />
    <glyph glyph-name="three" unicode="3" 
d="M4 837l242 243l561 -561l257 -499l-490 250zM603 350l13 -12l205 -105q4 8 12 16q10 9 16 14l-104 204l-14 15q-10 -4 -20.5 -10.5t-18 -16t-11 -22.5t-0.5 -30q-17 1 -29 -3t-21.5 -11.5t-16 -18t-11.5 -20.5zM162 920l462 -460q4 13 13 26q7 10 19.5 20t30.5 17
l-460 460zM840 543h356v-663h-662v373l21 -21q39 -20 79 -37v-215h462v462h-206q-23 51 -50 101z" />
    <glyph glyph-name="four" unicode="4" 
d="M484 314q-58 0 -109.5 20.5t-90.5 61.5q-41 42 -62 94t-21 106.5t21 106t62 92.5q39 41 90.5 63t109.5 22q56 0 107 -22t92 -63q42 -41 62.5 -92.5t20.5 -106t-20.5 -106.5t-62.5 -94q-41 -41 -92 -61.5t-107 -20.5zM484 803q-44 0 -81 -16t-64 -46q-31 -30 -46.5 -68
t-15.5 -77.5t15.5 -77.5t46.5 -68q27 -29 64 -44t81 -15q41 0 78 15t67 44.5t44.5 67.5t14.5 77.5t-14.5 77.5t-44.5 68t-67 46t-78 16zM999 172l-91 -92l-193 194l-27 63l55 54l63 -27zM0 1080h351l-100 -100h-151v-151l-100 -100v351zM849 1080h351v-351l-100 100v151
h-151zM0 231l100 -100v-151h151l100 -100h-351v351zM1200 231v-351h-351l100 100h151v151z" />
    <glyph glyph-name="five" unicode="5" 
d="M299 421q-25 0 -42 17.5t-17 42.5t17 41t42 16h240v244q0 24 18 41t42.5 17t42 -17t17.5 -41v-244h243q22 0 40 -16t18 -41t-18 -42.5t-40 -17.5h-243v-243q0 -25 -17.5 -41.5t-42 -16.5t-42.5 16.5t-18 41.5v243h-240zM0 1080h1200v-1200h-1200v1200zM109 971v-982h982
v982h-982z" />
    <glyph glyph-name="six" unicode="6" 
d="M345 651q-17 18 -17 42t18 41.5t41 17.5t41 -18l170 -170l173 172q17 17 41.5 16.5t42 -17.5t17.5 -41.5t-17 -42.5l-172 -172l172 -171q16 -16 16.5 -40t-17 -42t-42 -17.5t-40.5 16.5l-172 171l-171 -171q-18 -18 -42.5 -17.5t-41.5 18t-18 42t17 41.5l172 172zM0 1080
h1200v-1200h-1200v1200zM109 971v-982h982v982h-982z" />
    <glyph glyph-name="seven" unicode="7" 
d="M0 1080h1200v-1200h-1200v1200zM109 971v-982h982v982h-982zM846 747q26 0 26 -27t-26 -27h-493q-25 0 -25 27t25 27h73v26q0 28 15.5 47.5t36.5 19.5h243q23 0 38.5 -19.5t15.5 -47.5v-26h71zM452 747h296v26q0 40 -27 40h-243q-26 0 -26 -40v-26zM833 625l-68 -505
h-332l-67 505h467zM505 157q20 4 20 25l-41 387q-6 25 -26 21q-19 0 -19 -23l43 -391q0 -19 20 -19h3zM622 569q0 21 -22.5 21t-22.5 -21v-390q0 -22 22.5 -22t22.5 22v390zM760 567q0 23 -18 23q-21 4 -25 -21l-42 -387q0 -21 20 -25h1q23 0 23 19z" />
    <glyph glyph-name="eight" unicode="8" 
d="M0 1080h1200v-500v-700h-1200v700v500zM62 932v-196h1076v196h-1076zM437 580v-638h700h1v288h-1v62h1v288h-1h-700zM62 580v-288h313v288h-313zM62 230v-288h313v288h-313zM785 -1l-245 269q-13 16 -13 42q0 27 20 45q42 39 79 -8l90 -96v272h127v-286l100 110
q41 47 79 8q49 -40 5 -87z" />
    <glyph glyph-name="nine" unicode="9" 
d="M1143 1080h57v-85l-284 -284l118 -118q24 -25 20.5 -62.5t-32.5 -67.5l-185 -185l-71 71l-29 -29l70 -71l-184 -185q-30 -29 -68 -32.5t-62 20.5l-118 118l-290 -290h-85v57l304 304l-118 118q-24 24 -20.5 62t32.5 68l185 184l71 -70l29 29l-71 71l185 185
q30 29 67.5 32.5t62.5 -20.5l118 -118zM554 561l-29 -29l141 -141l29 29z" />
    <glyph glyph-name="colon" unicode=":" 
d="M1196 1078q2 -3 3 -7.5t1 -8.5v-12v-11l-203 -203l103 -102q31 -22 35.5 -61t-19.5 -69q-37 -40 -109.5 -111.5t-88.5 -88.5q-71 71 -212.5 212t-211.5 212l159 160q19 22 40.5 36.5t49 21t52.5 -10.5q27 -23 73.5 -70.5t57.5 -57.5l172 172h76q16 5 22 -1zM479 672
l35.5 -35.5l35.5 -35.5l-171 -170l142 -141l170 170l71 -71l-170 -170l70 -71l-159 -159q-19 -23 -40.5 -37.5t-49 -21t-52.5 10.5q-27 23 -73.5 70.5t-57.5 57.5l-172 -172q-4 -7 -8.5 -11t-12 -5.5t-11 -2t-14.5 0t-12 0.5v101l159 160l-103 103q-30 22 -35 61t19 68
q37 40 109.5 112t88.5 88q35 -35 71 -70z" />
    <glyph glyph-name="semicolon" unicode=";" 
d="M760 1080l-149 -135q144 -36 249 -141q76 -76 117 -175.5t41 -207.5t-41 -207t-117 -175.5t-175.5 -117.5t-207.5 -41v53q90 13 166 81.5t117.5 163.5t41.5 189q0 124 -73.5 223.5t-190.5 137.5l18 -198l-374 452z" />
    <glyph glyph-name="less" unicode="&#x3c;" 
d="M676 870v-23l-192 -258l716 -35v-74v-74l-716 -35l192 -258v-23l-338 195l-338 195l338 195z" />
    <glyph glyph-name="equal" unicode="=" 
d="M223 1080h754q92 0 157.5 -65.5t65.5 -157.5v-754q0 -92 -65.5 -157.5t-157.5 -65.5h-754q-92 0 -157.5 65.5t-65.5 157.5v754q0 92 65.5 157.5t157.5 65.5zM570 884q-2 -36 -17 -57q-14 -20 -39 -34q-20 -10 -59 -16t-73 -6v-73h168v-539h-168v-83h436v83h-165v725h-83z
" />
    <glyph glyph-name="greater" unicode="&#x3e;" 
d="M524 90v23l192 258l-716 35v74v74l716 35l-192 258v23l338 -195l338 -195l-338 -195z" />
    <glyph glyph-name="question" unicode="?" 
d="M440 1080l578 -98l-374 -452l18 198q-117 -38 -190.5 -137.5t-73.5 -223.5q0 -94 41.5 -189t117.5 -163.5t166 -81.5v-53q-108 0 -207.5 41t-175.5 117q-50 51 -86 112.5t-54 130.5t-18 140q0 108 41 207.5t117 175.5q105 105 249 141z" />
    <glyph glyph-name="at" unicode="@" 
d="M559 1080q206 0 355 -59q72 -28 113.5 -65.5t46.5 -78.5h1v-501q-5 1 -9 2q-33 5 -61 -24q-6 1 -3 11q0 19 -13 36q0 55 0.5 172.5t-0.5 171.5q-1 92 -3 124q-2 6 -5.5 11.5t-10.5 11t-10 7.5t-12.5 8.5t-10.5 6.5q-86 50 -244 72q-65 8 -140 7h-9q-188 -2 -323 -59
q-20 -9 -32 -14.5t-27.5 -17.5t-25.5 -25q-9 -14 -8 -51q2 -7 1.5 -37.5t-0.5 -37.5q0 -61 -0.5 -198t-0.5 -210q5 -6 17.5 -16t17.5 -16q12 -12 60.5 -58t66.5 -62.5l60 -55t68.5 -60t64 -50.5t71.5 -52q45 29 97 72q14 -6 31 -6q4 -7 -7 -16q-13 -15 -14 -36t10 -37
q-90 -70 -117 -70q-22 0 -79.5 41.5t-124.5 100t-131 117.5t-106 100l-43 42q-29 23 -29 59q0 9 2 17v520h1q5 41 46.5 78.5t113.5 65.5q149 59 355 59zM559 893.5q69 0.5 132 -27t109 -73.5t73 -109t27 -132q0 -65 -24 -124q-36 -8 -50 -36q-2 -5 -3 -16.5t-3 -15.5
q-6 -8 -13 2q-7 7 -16 12q1 2 3 5q10 18 12 37q-8 5 -22 5t-21 5q-9 4 -29.5 8.5t-30.5 11.5q-11 0 -24.5 -0.5t-25.5 -1t-25 -4t-22 -9.5q-31 -21 -40 -7q-2 0 -1.5 15l0.5 15q-4 8 -16 10.5t-15 3.5q1 9 0 18.5t-4 16.5t-11 6.5t-18 -12.5q-14 -14 -25 3q-12 16 -5 34
q4 10 13 13q4 0 15.5 -0.5t19.5 -2.5t12 -8q4 -7 10.5 -14t13 -12.5t12 -9t8.5 -6.5l3 -1q2 7 5 18t4.5 20.5t-0.5 18.5q-2 11 2 17.5t11 13t9 14.5q4 9 6.5 21t4.5 18t9 13.5t20 13.5q-3 11 6 21q5 0 14.5 -0.5t14.5 -0.5t12 2.5t12 8.5q-6 14 -18.5 25.5t-22 17.5t-29 16
t-25.5 14l1 4.5t1.5 7t1 6t-0.5 5.5t-2 3q18 -8 34 -9t23 2l7 3q3 16 -5.5 27t-21.5 14.5t-30 8.5t-24 12q-11 -2 -22 0q-9 -7 -22 -12t-21 -7t-25.5 -5t-23.5 -4q-8 -2 -26.5 0t-27.5 -1q-11 -4 -30 -15.5t-21 -20.5q-1 -7 4.5 -13.5t4.5 -11.5q-1 -20 -15.5 -53.5
t-17.5 -46.5q-6 -21 2.5 -55.5t4.5 -51.5q0 -5 10 -26.5t10 -35.5q7 0 13.5 -3t14 -9t11.5 -8q9 -5 19.5 -9t24.5 -8.5t20 -7.5q12 -5 31 -18.5t36 -22.5t34 -7q4 -9 -2 -20t-13.5 -23.5t-5.5 -22.5q8 -13 14 -21t16 -16t22 -11q0 -4 -2 -9.5t-2 -8t2 -10.5q24 0 49 10
q5 -18 17 -32q-58 -23 -121 -23q-69 0 -132 27.5t-109 73.5t-73.5 109t-27.5 132t27.5 132t73.5 109t109 73t132 27.5zM566 786q0 -11 5 -25.5t10.5 -26.5t5.5 -14q-5 1 -23.5 3.5t-31 6t-22.5 9.5q2 7 9.5 18t9.5 15q6 -6 11.5 -6t8.5 3.5t8 8.5t9 8zM910 380q14 0 28 -2
q13 0 13 -15q-2 -39 34 -54q38 -15 62 15q9 8 19 2q22 -22 39 -41q8 -12 -2 -18q-27 -27 -13 -63q12 -33 52 -33q15 0 15 -14q4 -26 0 -55q0 -14 -15 -14l-2 2q-37 0 -52 -35q-13 -36 15 -62q10 -9 2 -19q-19 -21 -41 -41q-10 -8 -18 3q-28 28 -62.5 13.5t-34.5 -53.5
q0 -13 -12 -13q-20 -3 -28 -3t-29 3q-12 0 -12 15q3 38 -33 53q-38 16 -63 -15q-8 -8 -19 -1q-23 22 -39 41q-8 11 2 18q27 27 13 62q-15 37 -50 34q-17 0 -17 13q-4 28 0 57q0 12 15 12q39 0 53 34q15 36 -12 62q-12 8 -4 19q27 29 41 40q10 9 19 -3q27 -27 62 -12.5
t35 52.5q0 14 11 14q14 2 28 2zM909 213q-33 0 -57.5 -24.5t-24.5 -57.5q0 -36 24.5 -60t57.5 -24q35 0 60 24t25 60q0 33 -25 57.5t-60 24.5z" />
    <glyph glyph-name="A" unicode="A" 
d="M623 758q0 -107 -74 -197.5t-172.5 -90.5t-170.5 90.5t-72 197.5q0 100 70.5 171t172.5 71t174 -71t72 -171zM-114 -50q0 130 139 248t351 118q215 0 354 -118t139 -248h-983zM1270 729q0 77 -55.5 130t-129 53t-128.5 -53t-55 -130q0 -76 55 -130.5t128.5 -54.5
t129 54.5t55.5 130.5zM1247 889q68 -66 68 -161.5t-67 -160.5t-163 -65t-163 65t-67 160.5t67 163.5t163 68t162 -70zM1201 762q7 -16 -12 -21l-97 -37h-6l-2 -3q-19 0 -19 18v158q0 16 17 16t17 -16v-131l79 24q18 7 23 -8z" />
    <glyph glyph-name="B" unicode="B" horiz-adv-x="1202" 
d="M638 755q0 -106 -74.5 -196.5t-172.5 -90.5t-170 90.5t-72 196.5q0 102 70 174t172.5 72t174.5 -72t72 -174zM-97 -47q0 129 138.5 246.5t350.5 117.5q213 0 352.5 -117.5t139.5 -246.5h-981zM1251 801q49 0 49 -51q0 -53 -49 -53h-128v-127q0 -50 -51 -50t-51 50v127
h-127q-53 0 -53 53q0 51 53 51h127v126q0 50 51 50t51 -50v-126h128z" />
    <glyph glyph-name="C" unicode="C" 
d="M647 756q0 -104 -74.5 -194.5t-172.5 -90.5t-170 90.5t-72 194.5q0 101 70 171.5t172.5 70.5t174.5 -70.5t72 -171.5zM-88 -49q0 129 138.5 245.5t350.5 116.5q213 0 352.5 -116.5t139.5 -245.5h-981zM1240 696h-317q-53 0 -53 51t53 51h317q49 0 49 -51t-49 -51z" />
    <glyph glyph-name="D" unicode="D" 
d="M627 757q0 -104 -72.5 -194.5t-170.5 -90.5t-172 90.5t-74 194.5q0 101 72 171.5t173 70.5q99 0 171.5 -70.5t72.5 -171.5zM-110 -48q0 129 139 245.5t354 116.5q210 0 352 -116.5t142 -245.5h-987zM882 765l105 78l-89 120q22 22 89 -11.5t73 -78.5q13 -68 -36 -135
t-132 -61q-52 1 -78 49.5t-20 87t6 48.5zM1311 391l-112 -79l-207 292l-5 8q43 15 78 48q12 17 32 53l9 -26z" />
    <glyph glyph-name="E" unicode="E" horiz-adv-x="1202" 
d="M269 407q-38 0 -71.5 19t-58.5 50t-39.5 69t-14.5 76t14.5 72t39.5 59t58.5 39.5t71.5 14.5q17 0 33.5 -4t30.5 -9q-2 -15 -4 -29.5t-2 -30.5q0 -60 24 -120.5t67 -107.5q-25 -42 -64 -70t-85 -28zM792 492q48 48 76 111.5t28 129.5q0 17 -2.5 33.5t-5.5 32.5
q11 3 22.5 5t23.5 2q38 0 71.5 -14.5t58 -39.5t39 -59t14.5 -72t-14.5 -76t-39 -69t-58 -50t-71.5 -19q-43 0 -79.5 23.5t-62.5 61.5zM258 289q-72 -57 -112 -129t-40 -144h-209q0 43 25 90.5t72 87.5t114 66.5t150 28.5zM966 288q78 -5 141 -33t107 -67t67.5 -85t23.5 -87
h-188q0 72 -39.5 143.5t-111.5 128.5zM612 478q-50 0 -93 28t-72 70q-25 35 -39 75.5t-14 81.5q0 5 1 10t1 11q4 41 22 77t47 62.5t66.5 42t80.5 15.5q40 0 76 -14t64.5 -38.5t47.5 -58t25 -71.5q2 -9 2.5 -18t0.5 -18q0 -47 -18 -93.5t-49 -83.5q-29 -35 -67.5 -56.5
t-81.5 -21.5zM853 282q47 -25 83.5 -57t62 -67t39 -71.5t13.5 -70.5h-412h-76h-391q0 33 13 69t37.5 71t60.5 66.5t81 56.5q51 28 113 44.5t135 16.5q70 0 130 -16t111 -42z" />
    <glyph glyph-name="F" unicode="F" 
d="M245 408q-39 0 -72.5 19t-58.5 50t-39.5 69t-14.5 77q0 38 14.5 71.5t39.5 59t58.5 40t72.5 14.5q18 0 34 -4t31 -11q-5 -28 -5 -58q0 -60 24 -121.5t66 -107.5q-25 -43 -63.5 -70.5t-86.5 -27.5zM770 493q50 48 77.5 112t27.5 130q0 34 -8 64q11 4 22 6.5t25 2.5
q38 0 71.5 -14.5t58 -40t39 -59t14.5 -71.5q0 -39 -14.5 -77t-39 -69t-58 -50t-71.5 -19q-45 0 -81.5 23.5t-62.5 61.5zM235 289q-72 -57 -112.5 -129t-40.5 -145h-209q0 43 25 90.5t72 87.5t114 67t151 29zM946 287q78 -5 141 -32.5t107 -67t67.5 -85t23.5 -87.5h-188
q0 72 -40 144t-111 128zM588 478q-49 0 -91.5 28t-72.5 70q-25 35 -38.5 76.5t-13.5 82.5q0 6 0.5 10t1.5 9q4 42 22 78.5t46.5 63.5t66 42.5t79.5 15.5q41 0 77.5 -14.5t65 -39t48 -58t26.5 -71.5q1 -11 1.5 -19.5t0.5 -16.5q0 -48 -18 -94.5t-50 -84.5q-30 -34 -68 -56
t-83 -22zM832 282q47 -25 84 -57.5t62.5 -68t38.5 -72t13 -69.5h-414h-77h-390q0 33 13 69.5t37.5 71.5t60.5 66.5t82 56.5q51 28 112.5 44.5t133.5 16.5t133 -15.5t111 -42.5zM1175 863l94 2l-4 105q11 1 24 -11.5t23 -31t14 -39.5t-2 -36q-9 -20 -29 -37t-45 -25.5
t-52.5 -5.5t-51.5 24q-24 20 -24.5 45t9 46.5t22 36.5t13.5 15zM1273 472h-97v251l-2 9q18 -7 35 -7t30 3q10 3 20 7t20 9l-5 -18z" />
    <glyph glyph-name="G" unicode="G" horiz-adv-x="1202" 
d="M231 410q-38 0 -72 19.5t-59 50t-39.5 69t-14.5 77.5q0 38 14.5 71.5t39.5 58.5t59 39.5t72 14.5q35 0 67 -13q-7 -28 -7 -61q0 -61 24 -120.5t67 -107.5q-25 -43 -64 -70.5t-87 -27.5zM758 494q49 48 77 113t28 129q0 19 -2.5 35t-6.5 32q21 7 47 7q38 0 71 -14.5
t58 -39.5t39 -58.5t14 -71.5q0 -39 -14 -77.5t-39 -69t-58 -50t-71 -19.5q-44 0 -80.5 23.5t-62.5 60.5zM222 291q-74 -57 -114 -129.5t-40 -145.5h-210q0 43 25 91t72.5 88t115 67t151.5 29zM933 290q79 -5 142 -33t107 -68t67.5 -86t23.5 -87h-187q0 73 -40.5 145
t-112.5 129zM577 481q-51 0 -93.5 27.5t-72.5 70.5q-25 35 -39 75.5t-14 81.5q0 7 0.5 11.5t1.5 9.5q4 42 22.5 78t47.5 62.5t66.5 42t80.5 15.5q40 0 76.5 -14t65 -38.5t48 -58t25.5 -72.5q3 -15 3 -36q0 -47 -18 -93t-50 -84q-29 -36 -67 -57t-83 -21zM819 285
q48 -26 85 -58.5t62.5 -68t38.5 -72t13 -70.5h-414h-77h-391q0 34 12.5 70t37.5 71t60.5 67t82.5 57q51 27 113.5 44t134.5 17q71 0 131.5 -16t110.5 -41zM1311 924q13 0 23.5 -10.5t10.5 -24.5t-10.5 -24.5t-23.5 -10.5h-81v-80q0 -13 -9.5 -23t-23.5 -10q-15 0 -24.5 10
t-9.5 23v80h-82q-14 0 -24 10.5t-10 24.5t10 24.5t24 10.5h82v81q0 14 9.5 23t24.5 9q14 0 23.5 -9t9.5 -23v-81h81z" />
    <glyph glyph-name="H" unicode="H" 
d="M233 410q-38 0 -72 19.5t-59 50t-39.5 69t-14.5 77.5q0 38 14.5 71.5t39.5 58.5t59 39.5t72 14.5q35 0 67 -13q-7 -28 -7 -61q0 -61 24 -120.5t67 -107.5q-25 -43 -64 -70.5t-87 -27.5zM760 494q49 48 77 113t28 129q0 19 -2.5 35t-6.5 32q21 7 47 7q38 0 71 -14.5
t58 -39.5t39 -58.5t14 -71.5q0 -39 -14 -77.5t-39 -69t-58 -50t-71 -19.5q-44 0 -80.5 23.5t-62.5 60.5zM224 291q-74 -57 -114 -129.5t-40 -145.5h-210q0 43 25 91t72.5 88t115 67t151.5 29zM935 290q79 -5 142 -33t107 -68t67.5 -86t23.5 -87h-187q0 73 -40.5 145
t-112.5 129zM579 481q-51 0 -93.5 27.5t-72.5 70.5q-25 35 -39 75.5t-14 81.5q0 7 0.5 11.5t1.5 9.5q4 42 22.5 78t47.5 62.5t66.5 42t80.5 15.5q40 0 76.5 -14t65 -38.5t48 -58t25.5 -72.5q3 -15 3 -36q0 -47 -18 -93t-50 -84q-29 -36 -67 -57t-83 -21zM821 285
q48 -26 85 -58.5t62.5 -68t38.5 -72t13 -70.5h-414h-77h-391q0 34 12.5 70t37.5 71t60.5 67t82.5 57q51 27 113.5 44t134.5 17q71 0 131.5 -16t110.5 -41zM1305 855h-221q-14 0 -24 10t-10 24t10 24t24 10h221q15 0 25 -10t10 -24t-10 -24t-25 -10z" />
    <glyph glyph-name="I" unicode="I" horiz-adv-x="1201" 
d="M353 -2l-182 48l-96 24v817l157 -40l121 -32v-817zM962 510q113 170 161 314l3 -2v-819l-159 43l-129 31v510q11 -17 26 -43t24 -34l38 -49zM796 935q0 54 39 91t92.5 37t91.5 -39t38 -89q0 -99 -131 -320q-130 202 -130 320zM926 852q63 0 63 61.5t-63 61.5
q-26 0 -46 -17t-20 -44t20 -44.5t46 -17.5zM716 887q2 -54 36 -134v-676l-310 -79v817z" />
    <glyph glyph-name="J" unicode="J" 
d="M1177 713v-591q0 -79 -56 -135t-138 -56h-538q-77 0 -134 56t-57 131h-232v515h232v206q0 80 57 136t134 56h470zM292 378q7 25 7 40q0 20 -12 33q-3 12 -16 33q-13 15 -35 23q-14 8 -35 8h-126v-300h57v102h74q25 0 34 8q21 14 31 24zM1081 679v4h-143q-37 0 -61.5 25
t-24.5 61v168h-407q-39 0 -66.5 -29.5t-27.5 -68.5v-206h654v-515h-654q0 -35 27.5 -64t66.5 -29h538q40 0 69 29t29 68v557zM499 215q37 0 61 14q24 5 45.5 29.5t29.5 44.5q12 32 12 64.5t-12 56.5q-3 23 -26 47q-26 28 -45 33q-36 11 -65 11h-110v-300h110zM797 388v75
h142v52h-198v-300h56v127h122v46h-122zM583 327q-3 -14 -17 -31q-2 -3 -7 -6.5t-11 -7.5t-12 -6q-10 -8 -37 -8h-54v195h54q17 0 37 -7q18 -3 30 -18q14 -20 17 -31q6 -27 6 -38q0 -20 -6 -42zM225 451q6 -5 8.5 -12.5t2.5 -20.5q0 -23 -9 -38q-11 -11 -26 -11h-69v94h66
q10 0 13 -2q11 0 14 -10z" />
    <glyph glyph-name="K" unicode="K" 
d="M1146 766v-580q0 -108 -74 -181.5t-182 -73.5h-578q-106 0 -180 73.5t-74 181.5v580q0 104 74 179t180 75h578q108 0 182 -75t74 -179zM142 186q0 -71 49 -120.5t121 -49.5h578q74 0 122.5 49.5t48.5 120.5v580q0 71 -48.5 120.5t-122.5 49.5h-578q-72 0 -121 -49.5
t-49 -120.5v-580zM728 292l-272 153q8 22 8 32.5t-8 32.5l272 155q34 -36 80 -36t78.5 33t32.5 77q0 51 -32.5 84t-78.5 33t-79.5 -33t-33.5 -84q0 -19 3 -30l-264 -153q-35 32 -84 32q-47 0 -79.5 -32.5t-32.5 -77t32.5 -79t79.5 -34.5q49 0 84 35l264 -154q-3 -10 -3 -30
q0 -50 33.5 -82.5t79.5 -32.5t78.5 32.5t32.5 82.5q0 46 -32.5 78.5t-78.5 32.5t-80 -35z" />
    <glyph glyph-name="L" unicode="L" 
d="M949 272q73 0 123.5 -52.5t50.5 -124t-50.5 -120.5t-121.5 -49t-121.5 49t-50.5 121q0 22 5 51l-410 240q-48 -60 -123 -60q-72 0 -123.5 52.5t-51.5 123.5t51.5 123t123.5 52q75 0 123 -58l410 239q-5 30 -5 52q0 71 50.5 120.5t121.5 49.5t121.5 -49.5t50.5 -120.5
t-50.5 -123.5t-121.5 -52.5t-126 53l-410 -236q8 -34 8 -48.5t-8 -50.5l410 -239q50 58 124 58z" />
    <glyph glyph-name="M" unicode="M" 
d="M601 640q-28 0 -52.5 -10.5t-43 -29t-29.5 -43.5t-11 -53t11 -52.5t29.5 -42.5t43 -28.5t52.5 -10.5t52.5 10.5t42.5 28.5t28.5 42.5t10.5 52.5t-10.5 53t-28.5 43.5t-42.5 29t-52.5 10.5zM1121 310q-18 0 -32 -13.5t-14 -33.5v-133l-165 166q-13 13 -32 13t-31 -13
q-14 -14 -14 -33t14 -32l164 -165h-134q-19 0 -33 -13.5t-14 -31.5q0 -20 14 -32.5t33 -12.5h288v287q0 20 -12.5 33.5t-31.5 13.5zM1121 700q-18 0 -32 13.5t-14 32.5v135l-165 -166q-13 -13 -32 -13t-31 13q-14 14 -14 32.5t14 30.5l164 165h-134q-19 0 -33 14t-14 33
q0 18 14 31t33 13h288v-288q0 -19 -12.5 -32.5t-31.5 -13.5zM81 310q19 0 32.5 -13.5t13.5 -33.5v-133l164 166q14 13 32.5 13t31.5 -13q14 -14 14 -33t-14 -32l-165 -165h136q18 0 31 -13.5t13 -31.5q0 -20 -13 -32.5t-31 -12.5h-291v287q0 20 13.5 33.5t32.5 13.5zM81 700
q19 0 32.5 13.5t13.5 32.5v135l164 -166q14 -13 32.5 -13t31.5 13q14 14 14 32.5t-14 30.5l-165 165h136q18 0 31 14t13 33q0 18 -13 31t-31 13h-291v-288q0 -19 13.5 -32.5t32.5 -13.5z" />
    <glyph glyph-name="N" unicode="N" 
d="M1144 699l-485 -505l-641 323l484 504zM686 -56l-660 336l93 84l544 -271l405 426l114 -63z" />
    <glyph glyph-name="O" unicode="O" 
d="M1083 966l96 -101l-1064 -993l-95 101z" />
    <glyph glyph-name="P" unicode="P" 
d="M912 806q127 -130 127 -312.5t-128.5 -311t-311.5 -128.5t-311 128.5t-128 311t128 312t311 129.5t313 -129zM633 154q122 13 208 98.5t97 208.5h-173v65h173q-11 124 -97 210.5t-208 96.5v-175h-66v175q-123 -10 -209 -96.5t-96 -210.5h173v-65h-173q10 -123 96 -208.5
t209 -98.5v177h66v-177zM1013 907q171 -173 171 -412t-172 -412.5t-412 -173.5t-412.5 173.5t-172.5 412.5t172.5 412t412.5 173t413 -173zM965 129q151 151 151 365t-150.5 365.5t-365 151.5t-366 -151.5t-151.5 -365.5t151.5 -364.5t366 -150.5t364.5 150z" />
    <glyph glyph-name="Q" unicode="Q" 
d="M1010 87q-174 -173 -412.5 -173t-409.5 171.5t-171 411t171 411.5t409.5 172t411.5 -172t173 -411.5t-172 -409.5zM942 840q-141 143 -342.5 143t-344.5 -142t-143 -344t143 -344.5t344.5 -142.5t343.5 142.5t142 344.5t-143 343zM890 205q-122 -121 -291.5 -121
t-291.5 121.5t-122 290.5t122 291t291.5 122t292 -122t122.5 -291t-123 -291zM844 742q-100 101 -245 101t-246.5 -100t-101.5 -246.5t101.5 -246t246.5 -99.5t245.5 99.5t100.5 246t-101 245.5zM778 504h-172v173q0 8 -8.5 8t-8.5 -8v-173h-171q-10 0 -10 -8t10 -8h171
v-172q0 -7 8.5 -7t8.5 7v172h172q9 0 9 8t-9 8z" />
    <glyph glyph-name="R" unicode="R" 
d="M1127 798h-1057q-22 0 -37 15.5t-15 37.5t15 36.5t37 14.5h1057q22 0 38.5 -14.5t16.5 -36.5t-16.5 -37.5t-38.5 -15.5zM1127 437h-1057q-22 0 -37 15.5t-15 38.5t15 38.5t37 15.5h1057q22 0 38.5 -15.5t16.5 -38.5t-16.5 -38.5t-38.5 -15.5zM1127 80h-1057q-22 0 -37 15
t-15 35.5t15 37.5t37 17h1057q22 0 38.5 -17t16.5 -37.5t-16.5 -35.5t-38.5 -15z" />
    <glyph glyph-name="S" unicode="S" 
d="M1113 804h-1070q-22 0 -39 16t-17 38t17 37t39 15h1070q22 0 37.5 -15t15.5 -37t-15.5 -38t-37.5 -16zM589 438h-546q-22 0 -39 16t-17 39q0 19 15 36t28 17h593zM649 76h-606q-22 0 -39 15.5t-17 37t17 38t39 16.5h556zM1211 385q-6 14 -19 14q-45 0 -61 39
q-16 41 16 74q9 7 3 19q-27 36 -49 49q-8 10 -22 -4q-27 -35 -70 -16q-45 24 -38 65q0 16 -17 16q-31 2 -63 0q-18 0 -18 -16q8 -45 -36 -63q-42 -16 -74 18q-7 10 -19 4q-28 -26 -48 -50q-11 -8 0 -22q35 -33 20 -69q-25 -44 -66 -44q-15 0 -15 -11q-7 -35 0 -66
q0 -14 15 -14q46 0 63 -42q13 -39 -17 -73q-11 -8 0 -18q20 -27 44 -48q9 -11 23 0q28 36 69 17q41 -17 41 -64q-8 -16 14 -16h36h28q17 0 17 16q0 41 38 64q39 13 73 -17q14 -11 22 -3q28 20 46 46q12 15 0 21q-38 33 -16 75q16 38 59 38h2q13 0 19 18v31q3 32 0 32z
M923 256q-42 0 -68.5 28t-26.5 69t26.5 68.5t68.5 27.5q39 0 67.5 -27.5t28.5 -68.5t-28.5 -69t-67.5 -28z" />
    <glyph glyph-name="T" unicode="T" 
d="M1016 948q169 -173 169 -416.5t-170.5 -414t-413.5 -170.5t-414.5 170.5t-171.5 414t171.5 414.5t414.5 171t415 -169zM646 82q162 15 276 128.5t130 279.5h-229v84h229q-16 165 -130 279.5t-276 128.5v-232h-87v232q-164 -14 -279 -128.5t-129 -279.5h231v-84h-231
q14 -166 129 -279.5t279 -128.5v232h87v-232z" />
    <glyph glyph-name="U" unicode="U" 
d="M1137 5q43 -41 0 -74q-10 -17 -34 -17q-25 0 -39 17l-465 461l-466 -461q-14 -17 -39 -17q-24 0 -35 17q-40 33 0 74l460 464l-460 467q-40 39 0 74q35 42 74 0l466 -461l465 461q39 42 73 0q43 -35 0 -74l-461 -467l461 -464v0z" />
    <glyph glyph-name="V" unicode="V" 
d="M692 -58h-241v582h-122v200h122v118q0 263 262 263h158v-201h-103q-34 0 -51 -10.5t-21 -24.5t-4 -45v-100h179l-21 -200h-158v-582z" />
    <glyph glyph-name="W" unicode="W" 
d="M1210 896q-36 -59 -124 -129v-27q0 -272 -195 -491t-514 -219q-202 0 -386 107h64q172 0 308 105q-79 2 -144 51t-87 123q12 -3 43 -3q48 0 66 8q-81 16 -139 83t-58 158v6q57 -29 110 -29q-107 66 -107 203q0 72 32 126q201 -246 512 -258q-8 33 -8 57q0 104 74 175
t179 71q109 0 181 -79q86 22 161 64q-35 -96 -115 -138q54 4 147 36z" />
    <glyph glyph-name="X" unicode="X" 
d="M620 377l-81 -305l-521 -158l255 256q64 -42 123 13q31 33 31 72t-32 70t-70 31t-72 -32q-54 -58 -11 -121l-256 -257l158 522l303 82zM1215 911l-454 -453l-97 -28l-163 161l29 101l454 453z" />
    <glyph glyph-name="Y" unicode="Y" horiz-adv-x="1202" 
d="M155 323q113 0 175.5 -79t68.5 -124.5t6 -79.5l-17 35q-14 38 -77 73.5t-156 35.5v-127l-204 188l204 181v-103zM1191 889v-797h-681v136h548v529h-848v-232h-133v364h1114z" />
    <glyph glyph-name="Z" unicode="Z" 
d="M1027 92v126q-90 0 -153.5 -41.5t-78 -64t-15.5 -39.5l7 69q6 71 68.5 141t171.5 75v102l203 -184zM161 226h542v-129h-673v791h1105v-362h-132v228h-842v-528z" />
    <glyph glyph-name="bracketleft" unicode="[" horiz-adv-x="1202" 
d="M823 656l-156 -274l-275 -160l157 278zM642 409q35 29 0 66q-31 28 -66 0q-37 -37 0 -66q35 -37 66 0zM680 1008q209 -31 352 -191.5t143 -375.5q0 -239 -169 -406.5t-404.5 -167.5t-405 167.5t-169.5 406.5q0 215 143 375.5t352 191.5q-20 27 -20 60q0 40 28.5 70
t71.5 30t72.5 -30t29.5 -70q0 -30 -24 -60zM601 1108q-39 0 -39 -40q0 -42 39 -42q44 0 44 42q0 40 -44 40zM148 441q0 -188 134 -321.5t320 -133.5t320.5 133.5t134.5 321.5q0 185 -134.5 320t-320.5 135t-320 -135t-134 -320z" />
    <glyph glyph-name="backslash" unicode="\" 
d="M300 202l386 210l210 388l-387 -210zM377 280l146 261l115 -118zM598 871q17 0 17 16v37q0 17 -17 17q-16 0 -16 -17v-37q0 -16 16 -16zM598 129q-16 0 -16 -17v-37q0 -7 4.5 -12t11.5 -5q8 0 12.5 5t4.5 12v37q0 17 -17 17zM1020 516h-37q-17 0 -17 -16q0 -17 17 -17h37
q6 0 11.5 4.5t5.5 12.5q0 7 -5.5 11.5t-11.5 4.5zM213 516h-37q-7 0 -12 -4.5t-5 -11.5q0 -8 5 -12.5t12 -4.5h37q7 0 12 4.5t5 12.5q0 7 -5 11.5t-12 4.5zM598 -78q-120 0 -225 45.5t-184 124.5t-124.5 184t-45.5 225t45.5 225t124.5 184t184 124.5t225 45.5
q119 0 224.5 -45.5t184.5 -124.5t125 -184t46 -225t-46 -225t-125 -184t-184.5 -124.5t-224.5 -45.5zM598 973q-98 0 -183.5 -37t-150 -101.5t-101.5 -150.5t-37 -183q0 -98 37 -183.5t101.5 -150t150 -101.5t183.5 -37q97 0 183 37t150.5 101.5t101.5 150t37 183.5
q0 97 -37 183t-101.5 150.5t-150.5 101.5t-183 37z" />
    <glyph glyph-name="bracketright" unicode="]" 
d="M391 718l816 398l-398 -817l-418 419v0zM391 718l-398 -817l816 398l-418 419v0zM408 618l301 -302l-589 -287l288 589v0z" />
    <glyph glyph-name="asciicircum" unicode="^" horiz-adv-x="1202" 
d="M271 -71h-220v157h220v-157zM492 86h-221v156h221v-156zM711 -71h-219v157h219v-157zM931 86h-220v156h220v-156zM1150 -71h-219v157h219v-157zM271 242h-220v157h220v-157zM492 399h-221v158h221v-158zM711 242h-219v157h219v-157zM931 399h-220v158h220v-158zM1150 242
h-219v157h219v-157zM271 557h-220v157h220v-157zM492 714h-221v156h221v-156zM711 557h-219v157h219v-157zM931 714h-220v156h220v-156zM1150 557h-219v157h219v-157zM271 870h-220v157h220v-157zM711 870h-219v157h219v-157zM1150 870h-219v157h219v-157z" />
    <glyph glyph-name="underscore" unicode="_" 
d="M1073 705l-48 -48l-129 130q-10 8 -22.5 8t-20.5 -8q-9 -10 -9 -22.5t9 -20.5l130 -130l-49 -48l-67 67q-8 8 -20.5 8t-22.5 -8q-8 -10 -8 -22.5t8 -20.5l67 -67l-49 -49l-129 131q-9 8 -21.5 8t-21.5 -8q-8 -10 -8 -22.5t8 -20.5l130 -131l-48 -47l-67 67q-8 8 -21 8
t-22 -8q-8 -10 -8 -22.5t8 -20.5l67 -67l-49 -49l-129 130q-9 9 -22 9t-21 -9t-8 -21.5t8 -21.5l130 -130l-48 -47l-67 66q-9 9 -21.5 9t-21.5 -9t-9 -21.5t9 -21.5l67 -66l-49 -49l-129 130q-10 8 -22 8t-21 -8q-9 -9 -9 -21.5t9 -21.5l130 -130l-49 -48l-66 67
q-9 8 -21.5 8t-21.5 -8q-9 -9 -9 -22t9 -21l66 -67l-55 -55l-242 242l883 882l242 -242l-56 -55l-66 67q-10 8 -22 8t-21 -8q-9 -9 -9 -22t9 -21z" />
    <glyph glyph-name="grave" unicode="`" horiz-adv-x="1202" 
d="M361 -73h-319v1122h319v-151h-65q-11 0 -18.5 -7.5t-7.5 -18.5t7.5 -18t18.5 -7h65v-82v-19v-7h-65h-49q-11 0 -18.5 -8t-7.5 -19t7.5 -18t18.5 -7h114v-93h-65q-11 0 -18.5 -7t-7.5 -18t7.5 -18.5t18.5 -7.5l65 -1v-89h-65q-11 0 -18.5 -7t-7.5 -18t7.5 -18.5t18.5 -7.5
h65v-109h-65q-11 0 -18.5 -7.5t-7.5 -18.5t7.5 -18t18.5 -7h65v-109h-114q-11 0 -18.5 -7.5t-7.5 -18.5t7.5 -18t18.5 -7h114v-155zM1034 730v66q0 10 -8 17.5t-19 7.5q-10 0 -17.5 -7.5t-7.5 -17.5v-66h-120v113q0 11 -7.5 19t-18.5 8t-18.5 -8t-7.5 -19v-113h-96v66
q0 10 -7.5 17.5t-18.5 7.5t-18.5 -7.5t-7.5 -17.5v-66h-97v66q0 10 -7.5 17.5t-18.5 7.5t-18.5 -7.5t-7.5 -17.5v-66h-97v319h748v-319h-130z" />
    <glyph glyph-name="a" unicode="a" horiz-adv-x="1202" 
d="M1 -67l-6 1213l142 -142l-43 -42q-8 -7 -8 -21q0 -13 8 -20q8 -9 20 -9t22 9l42 42l60 -58l-45 -44q-7 -9 -7 -21q0 -9 7 -21q10 -8 22 -8t20 8l44 45l59 -60l-43 -43q-9 -9 -9 -21q0 -11 9 -21q8 -9 20 -9t21 9l43 44l59 -59l-82 -83q-5 -4 -7 -9.5t-2 -10.5
q0 -12 9 -21q8 -9 20.5 -9t20.5 9l84 83l57 -59l-43 -44q-9 -11 -9 -20q0 -10 9 -21q9 -9 21 -9t20 9l44 44l59 -60l-43 -43q-5 -5 -7 -10t-2 -10q0 -16 9 -21q8 -9 20 -9t21 9l44 42l59 -58l-44 -44q-9 -11 -9 -20q0 -12 9 -21q9 -8 21 -8t20 8l44 43l60 -59l-83 -82
q-9 -8 -9 -21t9 -20q8 -9 20 -9t21 9l83 82l59 -60l-44 -43q-5 -3 -6.5 -9t-1.5 -12q0 -12 8 -20q9 -8 21.5 -8t20.5 8l43 43l60 -58l-43 -44q-9 -8 -9 -21q0 -12 9 -21q8 -8 19.5 -8t21.5 8l42 44l128 -127h-1209zM655 159l-455 455l2 -455h453z" />
    <glyph glyph-name="b" unicode="b" horiz-adv-x="1197" 
d="M431 1001q48 0 48 -44.5t-48 -44.5h-228l261 -259q29 -34 -2 -64.5t-63 -2.5l-261 261v-228q0 -48 -44 -48t-44 48v382h381zM763 912q-43 0 -43 44.5t43 44.5h383v-382q0 -48 -44 -48t-44 48v228l-260 -261q-35 -24 -65 0q-30 33 0 67l258 259h-228zM431 -6q48 0 48 -45
t-48 -45h-381v383q0 43 44 43t44 -43v-228l261 260q32 28 65 0q15 -17 15 -32q0 -19 -15 -35l-261 -258h228zM1058 287q0 43 44 43t44 -43v-383h-383q-43 0 -43 45t43 45h228l-258 258q-30 35 0 67q30 25 65 0l260 -260v228z" />
    <glyph glyph-name="c" unicode="c" horiz-adv-x="1202" 
d="M1133 205l57 -58l-254 -255l-351 352l-130 -127l-507 -259l267 517l120 120l-366 365l255 254l100 -101l-71 -70q-8 -10 -8 -22.5t8 -21.5q10 -10 23 -10q5 0 12 2.5t12 7.5l67 70l52 -51l-136 -136q-8 -9 -8 -22t8 -22q3 -5 10 -7.5t13 -2.5q5 0 12 2.5t12 7.5l134 135
l50 -52l-69 -69q-9 -9 -9 -21.5t9 -22.5q4 -5 10 -7t12 -2q5 0 11.5 2t11.5 7l69 70l29 -30l372 373l251 -252l-373 -370l59 -59l-70 -69q-11 -11 -11 -23.5t11 -22.5q8 -8 22 -8t22 8l70 71l51 -51l-136 -137q-11 -8 -11 -21t11 -22q7 -11 23 -11q11 0 21 11l137 135
l50 -51l-69 -70q-10 -9 -10 -22t10 -22q9 -10 22 -10q15 0 21 10zM425 199q-4 11 -10.5 22t-16.5 19.5t-23 12.5t-31 2q3 18 0 31t-10.5 23t-18.5 16.5t-22 10.5l-13 -15l-110 -211q5 -2 9.5 -6t6.5 -8q9 -6 15 -17l212 108zM1046 956l-65 63l-644 -640q20 -6 32.5 -17
t20.5 -22q8 -13 12 -27z" />
    <glyph glyph-name="d" unicode="d" 
d="M221 763q0 77 47 144q43 74 133 124q96 50 209 50q108 0 193 -42q86 -46 130 -113q46 -71 46 -149q0 -64 -26 -113q-20 -42 -64 -85q-33 -29 -128 -118q-31 -29 -39 -43q-22 -22 -26 -32q-10 -23 -10 -28q-6 -11 -11 -52q-22 -81 -93 -81q-38 0 -70 27q-21 22 -21 76
q0 58 19 112q15 39 53 82q49 50 83 82t72 65q25 15 38 48q11 23 11 60q0 60 -43 100q-44 41 -114 41q-87 0 -124 -41q-41 -40 -66 -127q-27 -81 -100 -81q-42 0 -70 31q-29 26 -29 63zM591 -70q-50 0 -81 31q-34 36 -34 82q0 50 34 82q34 35 81 35q43 0 78 -35.5t35 -81.5
t-33 -82q-31 -31 -80 -31z" />
    <glyph glyph-name="e" unicode="e" horiz-adv-x="1202" 
d="M115 537q-5 -63 6 -125l-102 -18q-13 73 -7 152zM181 745q-15 -28 -27.5 -56t-21.5 -59l-100 28q11 37 25.5 72.5t34.5 67.5zM146 322q25 -61 61 -110l-85 -60q-23 29 -40.5 63t-31.5 69zM332 903q-52 -34 -95 -82l-77 69q49 57 114 100zM270 142q22 -22 47.5 -40.5
t53.5 -32.5l-49 -93q-35 19 -65.5 41.5t-59.5 48.5zM1058 665q-5 11 -9.5 21.5t-9.5 21.5q23 15 42.5 35.5t32.5 46.5q13 -22 23 -44t19 -46zM878 96q25 19 48.5 39.5t44.5 45.5l78 -68q-24 -29 -52 -54.5t-60 -47.5zM1025 258q15 28 26.5 56.5t20.5 59.5l100 -27
q-10 -37 -23.5 -72.5t-33.5 -67.5zM536 980q-32 -4 -62 -12.5t-59 -20.5l-40 96q35 15 72 25t75 15zM1185 590q12 -75 3 -152l-103 11q7 62 -3 125zM458 33q29 -10 60 -15t63 -7l-4 -104l-36 3q-29 3 -57.5 8.5t-56.5 13.5zM783 1053q-40 -34 -60 -83q-23 5 -46.5 8.5
t-46.5 4.5l5 105q38 -3 75.5 -10t74.5 -19zM675 17q32 5 61.5 13t58.5 22l42 -96q-70 -31 -146 -42zM1067 860q-6 -29 -23 -52.5t-40.5 -39t-51.5 -21.5t-58 0q-9 2 -17.5 4.5t-16.5 6.5l-170 -206q8 -16 11.5 -34.5t-0.5 -37.5q-4 -21 -16 -37.5t-28.5 -27t-36 -14.5
t-40.5 0t-38 16t-27.5 28.5t-15 36.5t0.5 41q4 21 16 37.5t28.5 27.5t36.5 14.5t41 -0.5q5 -2 8 -2.5t8 -2.5l169 206q-18 25 -26 55.5t-1 62.5q6 29 23 52.5t40.5 39t52 21t57.5 -0.5q30 -6 54 -23t39 -40.5t21 -51.5t0 -58z" />
    <glyph glyph-name="f" unicode="f" 
d="M535 191h130v-105h-130v105zM355 136q0 26 -8 55h90v-105h-88q2 12 4 24.5t2 25.5zM852 191q-6 -27 -6 -55q0 -13 1 -25.5t4 -24.5h-88v105h89zM1114 345q-13 3 -26.5 5t-25.5 2q-14 0 -27.5 -2t-25.5 -5v79h105v-79zM1009 641h105v-125h-105v125zM1009 815
q12 -3 25.5 -5t27.5 -2q12 0 25.5 2t26.5 5v-82h-105v82zM782 680l-106 -101l-72 76l105 101zM789 831l87 84q14 -23 32.5 -42.5t41.5 -33.5l-89 -83zM597 502l-106 -101l-72 75l105 102zM326 244q-14 23 -32.5 42.5t-41.5 32.5l87 82l71 -75zM1208 1024q0 -30 -11.5 -57
t-31.5 -46.5t-46.5 -31t-56.5 -11.5q-31 0 -57.5 11.5t-46 31t-31 46.5t-11.5 57t11.5 57t31 46.5t46 31t57.5 11.5q30 0 56.5 -11.5t46.5 -31t31.5 -46.5t11.5 -57zM916 136q0 30 11.5 57t31 46.5t46 31t57.5 11.5q30 0 56.5 -11.5t46.5 -31t31.5 -46.5t11.5 -57t-11.5 -57
t-31.5 -47t-46.5 -31.5t-56.5 -11.5q-31 0 -57.5 11.5t-46 31.5t-31 47t-11.5 57zM138 282q31 0 58 -11.5t46.5 -31t31 -46.5t11.5 -57t-11.5 -57t-31 -47t-46.5 -31.5t-58 -11.5q-30 0 -57 11.5t-46.5 31.5t-31 47t-11.5 57t11.5 57t31 46.5t46.5 31t57 11.5z" />
    <glyph glyph-name="g" unicode="g" horiz-adv-x="1202" 
d="M1235 991q0 -27 -9 -51.5t-25 -44t-37.5 -33.5t-46.5 -20l-87 -635q35 -20 56.5 -55t21.5 -79q0 -32 -12 -59.5t-32.5 -48.5t-48 -33t-59.5 -12t-59.5 12t-48 33t-32.5 48.5t-12 59.5q0 42 22 78l-421 537q-10 -3 -20.5 -5.5t-21.5 -2.5l-147 -409q25 -21 40 -51.5
t15 -65.5q0 -32 -12 -60t-32.5 -49t-48 -33t-59.5 -12t-59.5 12t-48 33t-32.5 49t-12 60q0 30 11.5 57t31 47.5t46 32.5t56.5 14l150 413q-25 21 -39.5 50.5t-14.5 64.5q0 31 12 59t32.5 49t48.5 33t60 12q31 0 59 -12t48.5 -33t32.5 -49t12 -59q0 -21 -6 -41t-16 -37
l420 -536q5 0 11 2l87 637q-35 19 -56.5 54t-21.5 79q0 31 12 58.5t32.5 48.5t48 33t59.5 12t59.5 -12t48 -33t32.5 -48.5t12 -58.5z" />
    <glyph glyph-name="h" unicode="h" horiz-adv-x="1202" 
d="M1110 787q37 -64 56.5 -136t19.5 -151q0 -121 -46 -227.5t-125 -186t-185.5 -125.5t-227.5 -46t-228 46t-186.5 125.5t-125.5 186t-46 227.5t46 227.5t125.5 186t186.5 125.5t228 46q78 0 150 -20t136 -55q28 21 62 30.5t69 1.5q33 -7 58.5 -25.5t42 -44t23 -56.5
t-0.5 -63q-3 -19 -11.5 -35.5t-20.5 -30.5zM602 29q97 0 183 37t150 100.5t101 149.5t37 184q0 63 -15.5 121t-44.5 109q-30 -5 -58 1q-14 2 -26 7.5t-24 12.5l-204 -204q8 -16 11 -34t-1 -36q-5 -23 -17.5 -41.5t-30.5 -30.5t-40 -16.5t-44 0.5q-23 5 -41 17.5t-30 30.5
t-16.5 40t-0.5 45q5 23 18 41t31 29.5t39.5 15.5t43.5 0q8 -2 13.5 -3.5t12.5 -3.5l203 204q-30 46 -21 107q-51 28 -108.5 43.5t-120.5 15.5q-98 0 -184 -37t-150.5 -100.5t-101.5 -149.5t-37 -184t37 -184t101.5 -149.5t150.5 -100.5t184 -37z" />
    <glyph glyph-name="i" unicode="i" 
d="M1209 1030q0 -48 -26 -85t-68 -53v-616q42 -15 68 -52t26 -85q0 -30 -11.5 -56.5t-31 -47t-46.5 -32t-57 -11.5q-48 0 -85.5 27.5t-52.5 69.5h-649q-15 -42 -52 -69.5t-85 -27.5q-31 0 -57.5 11.5t-46.5 32t-31.5 47t-11.5 56.5q0 31 11.5 58t31.5 47t46.5 31.5
t57.5 11.5q17 0 32 -4t29 -10l729 695q-6 14 -9.5 29.5t-3.5 32.5q0 30 11.5 56.5t31.5 46.5t46.5 31.5t57.5 11.5q30 0 57 -11.5t46.5 -31.5t31 -46.5t11.5 -56.5zM927 194q11 29 32.5 50.5t50.5 31.5v616q-2 1 -3.5 1t-3.5 2l-729 -696q0 -2 0.5 -3t0.5 -2h652z" />
    <glyph glyph-name="j" unicode="j" horiz-adv-x="1202" 
d="M961 179q-196 -77 -308 -203v763l308 212v-772zM319 898q39 -26 115.5 -80t116.5 -79v-763q-60 70 -167 132q-65 43 -143 71v772zM1044 496v399v3h3q7 3 22.5 9t19.5 9h9v-824q-20 -6 -254 -84l16 18q75 47 167 87q17 3 17 21v362zM158 134q0 -18 16 -21q94 -40 161 -86
q-102 46 -228 65v824v0q35 -15 51 -18v-3v-89v-672zM1159 819h34v-830q-121 19 -243 -29v2q7 7 35 27q34 22 102 37q13 1 37 3t35 2v788zM41 31q77 -9 82 -9q65 -11 111 -42l18 -18q-125 46 -243 27v830h32v-788z" />
    <glyph glyph-name="k" unicode="k" horiz-adv-x="1202" 
d="M241 645q45 -29 101 -37l-30 -79l-98 35zM246 345q-22 14 -47 23.5t-53 11.5l33 91l100 -35zM514 554l-58 72q25 12 46.5 29t37.5 39l57 -74zM743 436l-85 -68l-82 105l84 68zM863 283q-24 -13 -46 -30t-39 -38l-57 73l84 66zM996 779q20 -7 41 -11.5t43 -4.5h12l12 1
l-13 -77l-104 13zM1061 462l-105 15l16 128l107 -14zM1037 286q-20 8 -40 12t-42 4h-13l-12 -1l12 81l107 -17zM366 980q31 0 58.5 -12t48 -32t32.5 -48t12 -59q0 -30 -12 -57t-32.5 -47.5t-48 -32.5t-58.5 -12q-32 0 -59 12t-47.5 32.5t-32 47.5t-11.5 57q0 31 11.5 59
t32 48t47.5 32t59 12zM1228 986q0 -31 -11.5 -58t-31.5 -47.5t-47 -32t-58 -11.5q-32 0 -59.5 11.5t-47.5 32t-32 47.5t-12 58t12 58.5t32 48t47.5 32t59.5 11.5q31 0 58 -11.5t47 -32t31.5 -48t11.5 -58.5zM802 79q0 31 12 58.5t32.5 48t48.5 32.5t60 12q31 0 58 -12
t47.5 -32.5t32 -48t11.5 -58.5t-11.5 -58.5t-32 -47.5t-47.5 -32t-58 -12q-32 0 -60 12t-48.5 32t-32.5 47.5t-12 58.5zM126 307q32 0 59.5 -11.5t48 -32t32 -48t11.5 -59.5q0 -31 -11.5 -58t-32 -47.5t-48 -32t-59.5 -11.5q-31 0 -58.5 11.5t-48 32t-32.5 47.5t-12 58
q0 32 12 59.5t32.5 48t48 32t58.5 11.5z" />
    <glyph glyph-name="l" unicode="l" horiz-adv-x="1205" 
d="M1277 348v-248h-1347v248h96q0 213 143 383l67 -66q17 -11 28 -11q17 0 26 11q25 24 0 55l-65 65q154 129 341 140v-105q0 -38 38.5 -38t38.5 38v105q183 -11 335 -140l-67 -65q-22 -31 0 -55q13 -11 30.5 -11t26.5 11l68 66q150 -166 150 -383h91zM947 348
q0 143 -101.5 244t-242 101t-242.5 -101t-102 -244h291q9 50 54 50t53 -50h290z" />
    <glyph glyph-name="m" unicode="m" 
d="M1165 -70h-1128q-56 0 -56 52q0 60 56 60h1128q54 0 54 -60q0 -52 -54 -52zM124 536q-91 79 -5 163l481 538l485 -538q29 -32 29 -80q0 -61 -35 -83q-87 -85 -164 5l-175 196v-614h-275v614l-175 -196q-77 -90 -166 -5z" />
    <glyph glyph-name="n" unicode="n" horiz-adv-x="1202" 
d="M1166 -70h-1128q-56 0 -56 52q0 60 56 60h1128q54 0 54 -60q0 -52 -54 -52zM1089 814q91 -79 5 -163l-481 -538l-485 538q-29 32 -29 80q0 61 35 83q87 85 164 -5l175 -196v614h275v-614l175 196q77 90 166 5z" />
    <glyph glyph-name="o" unicode="o" 
d="M683 -87q-16 -16 -37.5 -24.5t-44.5 -8.5t-45.5 8.5t-38.5 24.5q-33 33 -33 85.5t31 87.5q18 19 40.5 28.5t45.5 9.5t44.5 -9.5t37.5 -28.5q33 -33 33 -87q0 -53 -33 -86zM496 1022q0 58 65 58h80q61 0 61 -58v-646q0 -58 -61 -58h-80q-65 0 -65 58v646z" />
    <glyph glyph-name="p" unicode="p" 
d="M370 513q0 23 20 36q14 14 35 13.5t37 -17.5l136 -151l139 151q15 17 36 17.5t37 -13.5q17 -15 18 -36t-15 -36l-215 -237l-212 237q-16 15 -16 36z" />
    <glyph glyph-name="q" unicode="q" horiz-adv-x="1197" 
d="M1098 226q28 -6 51 -22t38 -39t20.5 -50.5t-0.5 -56.5t-22 -51.5t-39 -37.5t-50.5 -20t-55.5 1q-29 6 -52 22t-38 38.5t-20.5 50t0.5 56.5q2 5 3.5 10.5t3.5 10.5l-677 259q-9 -24 -25 -43t-37.5 -31t-46.5 -16t-51 1q-29 6 -51.5 22t-37.5 39t-21 50t0 56t22.5 52
t39 37.5t50 20.5t56.5 0q24 -5 43.5 -17.5t35.5 -29.5l361 309q-20 24 -29 55.5t-2 65.5q6 28 22.5 51t39 38t50 20t56.5 -1q28 -6 51 -22t38 -38.5t20.5 -50t-0.5 -55.5q-7 -35 -29.5 -61.5t-53.5 -39.5l252 -592q39 18 85 9z" />
    <glyph glyph-name="r" unicode="r" 
d="M1003 -99q30 0 57 11.5t47 31.5t31.5 46.5t11.5 57.5q0 30 -11.5 56.5t-31.5 46t-47 31t-57 11.5t-56.5 -11.5t-46.5 -31t-31.5 -46t-11.5 -56.5q0 -31 11.5 -57.5t31.5 -46.5t46.5 -31.5t56.5 -11.5zM81 648l-32 347l344 -54zM482 639l-75 -75l-154 154l76 76zM684 439
l-76 -76l-154 153l76 77zM887 236l-76 -76l-154 154l77 75z" />
    <glyph glyph-name="s" unicode="s" 
d="M778 675l-51 123q-25 -3 -49 1q-11 2 -20 7l-19 9l-60 -48l-52 62l55 44q-11 21 -14.5 44.5t1.5 49.5q6 28 22 51t38.5 38t50.5 20.5t57 -0.5q28 -6 51 -22t38 -39t20 -50.5t-1 -55.5q-4 -24 -15.5 -43t-28.5 -34l52 -126zM958 452l-75 -31l-80 194l75 32zM478 789
l50 -63l-163 -132l-52 64zM312 553l-55 -45q22 -43 12 -91q-6 -29 -22 -52t-39 -37.5t-50.5 -20.5t-55.5 0q-29 6 -52 22t-38 39t-20.5 50t0.5 56t22.5 52t39 38t50 20.5t56.5 -0.5q21 -4 41 -17l60 48zM1100 226q28 -6 51 -22.5t38 -39.5t20 -50.5t-1 -55.5q-6 -29 -22 -52
t-38.5 -38t-50.5 -20t-56 1q-29 6 -51.5 22t-37.5 39t-20.5 50t0.5 56q5 23 16.5 42.5t28.5 34.5l-68 166l75 31l67 -163q25 3 49 -1z" />
    <glyph glyph-name="t" unicode="t" horiz-adv-x="1202" 
d="M687 517q37 -36 37 -86.5t-37 -87.5t-87 -37t-86.5 37t-36.5 87.5t36.5 87.5t86.5 37t87 -38z" />
    <glyph glyph-name="u" unicode="u" 
d="M1166 -51l-1133 338l457 710l585 -251zM543 824l-294 -456l755 -225l-58 507z" />
    <glyph glyph-name="v" unicode="v" 
d="M601 658q-34 0 -64 -12.5t-52.5 -35t-35.5 -52.5t-13 -64t13 -64t35.5 -52.5t52.5 -35.5t64 -13t64 13t52.5 35.5t35.5 52.5t13 64t-13 64t-35.5 52.5t-52.5 35t-64 12.5zM599 -57q-113 0 -213 43.5t-174.5 118.5t-118 175t-43.5 214t43.5 214t118 175t174.5 118t213 43
q114 0 214.5 -43t175 -118t118 -175t43.5 -214t-43.5 -214t-118 -175t-175 -118.5t-214.5 -43.5zM599 993q-103 0 -193.5 -39t-158.5 -107t-107.5 -159t-39.5 -194q0 -104 39.5 -195t107.5 -158.5t158.5 -107t193.5 -39.5q69 0 133 18t119.5 50.5t101 78t78 101t50.5 119.5
t18 133q0 103 -39.5 194t-107 159t-159 107t-194.5 39z" />
    <glyph glyph-name="w" unicode="w" horiz-adv-x="1202" 
d="M931 787q37 -64 56.5 -136t19.5 -151q0 -121 -46 -227.5t-125 -186t-185.5 -125.5t-227.5 -46t-228 46t-186.5 125.5t-125.5 186t-46 227.5t46 227.5t125.5 186t186.5 125.5t228 46q78 0 150 -20t136 -55q28 21 62 30.5t69 1.5q33 -7 58.5 -25.5t42 -44t23 -56.5
t-0.5 -63q-3 -19 -11.5 -35.5t-20.5 -30.5zM423 29q97 0 183 37t150 100.5t101 149.5t37 184q0 63 -15.5 121t-44.5 109q-30 -5 -58 1q-14 2 -26 7.5t-24 12.5l-204 -204q8 -16 11 -34t-1 -36q-5 -23 -17.5 -41.5t-30.5 -30.5t-40 -16.5t-44 0.5q-23 5 -41 17.5t-30 30.5
t-16.5 40t-0.5 45q5 23 18 41t31 29.5t39.5 15.5t43.5 0q8 -2 13.5 -3.5t12.5 -3.5l203 204q-30 46 -21 107q-51 28 -108.5 43.5t-120.5 15.5q-98 0 -184 -37t-150.5 -100.5t-101.5 -149.5t-37 -184t37 -184t101.5 -149.5t150.5 -100.5t184 -37zM1420 865q27 0 27 -29
q0 -30 -27 -30h-112v-110q0 -28 -28 -28t-28 28v110h-111q-29 0 -29 30q0 29 29 29h111v110q0 28 28 28t28 -28v-110h112z" />
    <glyph glyph-name="x" unicode="x" 
d="M1023 1030q0 -48 -26 -85t-68 -53v-616q42 -15 68 -52t26 -85q0 -30 -11.5 -56.5t-31 -47t-46.5 -32t-57 -11.5q-48 0 -85.5 27.5t-52.5 69.5h-649q-15 -42 -52 -69.5t-85 -27.5q-31 0 -57.5 11.5t-46.5 32t-31.5 47t-11.5 56.5q0 31 11.5 58t31.5 47t46.5 31.5
t57.5 11.5q17 0 32 -4t29 -10l729 695q-6 14 -9.5 29.5t-3.5 32.5q0 30 11.5 56.5t31.5 46.5t46.5 31.5t57.5 11.5q30 0 57 -11.5t46.5 -31.5t31 -46.5t11.5 -56.5zM741 194q11 29 32.5 50.5t50.5 31.5v616q-2 1 -3.5 1t-3.5 2l-729 -696q0 -2 0.5 -3t0.5 -2h652zM1428 865
q27 0 27 -29q0 -30 -27 -30h-112v-110q0 -28 -28 -28t-28 28v110h-111q-29 0 -29 30q0 29 29 29h111v110q0 28 28 28t28 -28v-110h112z" />
    <glyph glyph-name="y" unicode="y" 
d="M1051 991q0 -27 -9 -51.5t-25 -44t-37.5 -33.5t-46.5 -20l-87 -635q35 -20 56.5 -55t21.5 -79q0 -32 -12 -59.5t-32.5 -48.5t-48 -33t-59.5 -12t-59.5 12t-48 33t-32.5 48.5t-12 59.5q0 42 22 78l-421 537q-10 -3 -20.5 -5.5t-21.5 -2.5l-147 -409q25 -21 40 -51.5
t15 -65.5q0 -32 -12 -60t-32.5 -49t-48 -33t-59.5 -12t-59.5 12t-48 33t-32.5 49t-12 60q0 30 11.5 57t31 47.5t46 32.5t56.5 14l150 413q-25 21 -39.5 50.5t-14.5 64.5q0 31 12 59t32.5 49t48.5 33t60 12q31 0 59 -12t48.5 -33t32.5 -49t12 -59q0 -21 -6 -41t-16 -37
l420 -536q5 0 11 2l87 637q-35 19 -56.5 54t-21.5 79q0 31 12 58.5t32.5 48.5t48 33t59.5 12t59.5 -12t48 -33t32.5 -48.5t12 -58.5zM1451 885q27 0 27 -29q0 -30 -27 -30h-112v-110q0 -28 -28 -28t-28 28v110h-111q-29 0 -29 30q0 29 29 29h111v110q0 28 28 28t28 -28v-110
h112z" />
    <glyph glyph-name="z" unicode="z" 
d="M423 658q-34 0 -64 -12.5t-52.5 -35t-35.5 -52.5t-13 -64t13 -64t35.5 -52.5t52.5 -35.5t64 -13t64 13t52.5 35.5t35.5 52.5t13 64t-13 64t-35.5 52.5t-52.5 35t-64 12.5zM421 -57q-113 0 -213 43.5t-174.5 118.5t-118 175t-43.5 214t43.5 214t118 175t174.5 118t213 43
q114 0 214.5 -43t175 -118t118 -175t43.5 -214t-43.5 -214t-118 -175t-175 -118.5t-214.5 -43.5zM421 993q-103 0 -193.5 -39t-158.5 -107t-107.5 -159t-39.5 -194q0 -104 39.5 -195t107.5 -158.5t158.5 -107t193.5 -39.5q69 0 133 18t119.5 50.5t101 78t78 101t50.5 119.5
t18 133q0 103 -39.5 194t-107 159t-159 107t-194.5 39zM1361 885h-112v110q0 28 -28 28t-28 -28v-110h-111q-29 0 -29 -29q0 -30 29 -30h111v-110q0 -28 28 -28t28 28v110h112q27 0 27 30q0 29 -27 29z" />
    <glyph glyph-name="braceleft" unicode="{" horiz-adv-x="1202" 
d="M601 663q-34 0 -64.5 -13t-53 -36t-36 -53.5t-13.5 -64.5q0 -35 13.5 -65.5t36 -53t53 -35.5t64.5 -13t64.5 13t53.5 35.5t36 53t13 65.5q0 34 -13 64.5t-36 53.5t-53.5 36t-64.5 13zM522 -55q-40 6 -78 16.5t-75 27.5l22 47q32 -16 67 -26t71 -15zM680 -55l-8 50
q37 6 71 15.5t68 25.5l20 -46q-35 -17 -73.5 -28t-77.5 -17zM236 74q-60 52 -103 120l42 28q40 -63 95 -109zM964 75l-33 38q56 49 94 110l44 -27q-43 -68 -105 -121zM66 338q-22 75 -22 157h50q0 -37 5.5 -72.5t16.5 -70.5zM1135 339l-49 14q9 35 14.5 70.5t5.5 72.5l51 2
v-2q0 -82 -22 -157zM115 637l-50 15q12 38 28.5 74.5t36.5 69.5l44 -28q-39 -60 -59 -131zM1085 640q-21 71 -61 130l43 28q44 -67 67 -143zM268 877l-33 38q29 27 62.5 48.5t69.5 38.5l22 -47q-32 -16 -63 -35t-58 -43zM930 879q-28 23 -58 43t-63 35l21 46q74 -33 133 -85
zM527 996l-7 50q20 4 39.5 5.5t39.5 1.5h1q40 0 78 -6l-8 -51l-34 4l-37 2q-17 0 -35.5 -2t-36.5 -4z" />
    <glyph glyph-name="bar" unicode="|" horiz-adv-x="1202" 
d="M1154 1034v-1103h-131h-71h-63h-71h-62h-71h-61h-72h-62h-71h-368v1103h1103zM122 2h161q0 45 5 113t23.5 146.5t53.5 161.5t95 158q42 54 95.5 92.5t111.5 65t117.5 42t114.5 23.5t102.5 10.5t81.5 2.5v146h-961v-961zM419 2v361q-21 -53 -34 -105t-19.5 -99t-9 -87.5
t-2.5 -69.5h65zM552 2v576q-10 -11 -19 -20t-17 -20q-7 -10 -13.5 -19t-12.5 -18v-499h62zM685 2v666q-16 -8 -31 -16t-30 -19v-631h61zM818 2v713q-15 -4 -30.5 -8.5t-31.5 -9.5v-695h62zM952 2v736q-15 -2 -30.5 -4t-32.5 -4v-728h63zM1083 2v744q-13 0 -28 -0.5t-32 -0.5
v-743h60z" />
    <glyph glyph-name="braceright" unicode="}" 
d="M261 775q5 0 11 2t11 4l11 -12q-14 -10 -33 -10q-29 0 -49 20t-20 49t20 49t49 20q28 0 48.5 -20t20.5 -49q0 -11 -3 -20t-8 -17l-13 13q7 10 7 24q0 22 -15 37t-37 15t-37.5 -15t-15.5 -37t15.5 -37.5t37.5 -15.5zM319 791q-10 -14 -25 -22l-11 12q16 7 23 23zM261 880
q22 0 37 -15t15 -37q0 -14 -7 -24l-12 14q2 6 2 10q0 14 -10.5 24.5t-24.5 10.5q-15 0 -25.5 -10.5t-10.5 -24.5q0 -15 10.5 -25.5t25.5 -10.5q2 0 4 0.5t5 1.5l13 -13q-5 -2 -11 -4t-11 -2q-22 0 -37.5 15.5t-15.5 37.5t15.5 37t37.5 15zM270 794q8 3 15 9t9 15l12 -14
q-7 -16 -23 -23zM883 155q11 16 25 23l12 -12q-16 -7 -24 -23zM942 67q-22 0 -37 15t-15 37q0 12 6 24l13 -14q-2 -6 -2 -10q0 -15 10 -25t25 -10q14 0 24.5 10t10.5 25q0 14 -10.5 24.5t-24.5 10.5q-2 0 -4.5 -0.5t-5.5 -0.5l-12 13q5 2 10 3.5t12 1.5q21 0 36 -15.5
t15 -36.5q0 -22 -15 -37t-36 -15zM942 171q-7 0 -12 -1.5t-10 -3.5l-12 12q15 9 34 9q29 0 48.5 -19.5t19.5 -48.5q0 -28 -19.5 -48.5t-48.5 -20.5q-28 0 -48.5 20.5t-20.5 48.5q0 19 10 36l13 -12q-6 -12 -6 -24q0 -22 15 -37t37 -15q21 0 36 15t15 37q0 21 -15 36.5
t-36 15.5zM1166 985q-2 -11 -9 -41t-18.5 -72.5t-28.5 -94t-38.5 -105t-48.5 -105.5t-59.5 -95.5t-70.5 -75t-82 -44.5q-33 -9 -62 -8l159 -166q-14 -7 -25 -23l-192 200q-20 7 -39.5 18.5t-39.5 26.5h-90v80q-21 15 -38.5 22t-30.5 8.5t-22.5 -0.5t-14.5 -3
q-43 -13 -83 -62t-74.5 -118t-62.5 -148t-47 -152q-5 -20 -9 -39l-8 -38q-4 -17 -18 -28.5t-31 -11.5q-7 0 -10 1q-20 5 -32 22t-7 37q2 11 9 41t18.5 72.5t28.5 94t38.5 105t48.5 105.5t59.5 95.5t70.5 75t82 44.5q14 5 28.5 6.5t28.5 1.5l-152 158q15 8 25 22l182 -189
q22 -7 43.5 -18.5t43.5 -28.5h90v-80q21 -15 38 -22t30.5 -8.5t22.5 0t14 2.5q43 13 83.5 62.5t75 118.5t62 148t46.5 152q5 20 9 39t9 38q5 20 22 31.5t37 6.5q20 -4 31.5 -21t7.5 -37zM644 522h-19h-47h-23v-6v-20v-45v-18h19h43h27v6v14v51v18zM932 153q-19 -7 -23 -24
l-13 14q8 16 24 23z" />
    <glyph glyph-name="asciitilde" unicode="~" 
d="M238 719q0 148 106 254.5t255.5 106.5t256 -106.5t106.5 -254.5q0 -311 -363 -839q-361 528 -361 839zM692 581q40 36 40 90.5t-38.5 93.5t-92.5 39t-92.5 -39t-38.5 -93.5t38.5 -92.5t92.5 -38t91 40z" />
    <glyph glyph-name="cent" unicode="&#xa2;" 
d="M660 1077q70 -7 133.5 -32.5t110 -61.5t73.5 -82.5t27 -94.5v-170v-7v-89h-344v88q14 6 26.5 16.5t19.5 23t7 24.5v40v6v2v2v22v14v2v2v14v8v16v2v15v31v41q0 17 -15.5 35.5t-37.5 27.5v105zM540 1077v-108q-19 -9 -32.5 -26.5t-13.5 -33.5v-41v-5v-2v-2v-22v-15v-2v-2
v-14v-8v-14v-2v-2v-14v-22v-2v-2v-6v-40q0 -11 6 -22.5t16.5 -22t23.5 -16.5v-91h-344v81v8v7v170q0 48 27 94.5t73.5 82.5t110 61.5t133.5 32.5zM603.5 901q24.5 0 42 -12t17.5 -29v-22v-18v-8v-9v-5v-7v-2v-1v-8v-12v-1v-1v-3v-22q0 -17 -17.5 -29t-42 -12t-42.5 12
t-18 29v22v3v1v1v12v8v1v2v7v5v7v2v8v12v2v1v3v22q0 17 18 29t42.5 12zM196 420h808v-81v-8v-7v-170q0 -56 -32 -106.5t-86 -87.5t-129 -58.5t-157 -21.5q-110 0 -203 36.5t-147 100t-54 137.5v170v7v8v81z" />
    <glyph glyph-name="sterling" unicode="&#xa3;" 
d="M805 1080h373q9 0 15.5 -6.5t6.5 -15.5q0 -20 -22 -20h-373q-20 0 -20 20q0 9 6 15.5t14 6.5zM805 996h373l-144 -208v-125l-83 -83v208zM842 776l48 -13q1 -23 0 -114t4 -114q8 -24 36.5 -29.5t45.5 14.5q10 11 118 118v72l26 -6v-817l-157 40l-121 32v817zM757 769
v-810h-1l-309 -79v812zM80 769l157 -40l121 -32v-817l-182 48l-96 24v817z" />
    <glyph glyph-name="currency" unicode="&#xa4;" 
d="M909 1080q123 0 197 -98l8 59q3 25 25 22q8 0 17 -10q4 -5 4 -16l-17 -144l-142 32q-10 0 -16 9t-2 17q4 23 29 18l51 -12q-61 74 -154 74q-82 0 -140.5 -58.5t-58.5 -139.5h-49q0 103 72.5 175t175.5 72zM1108 833h50q0 -103 -73 -175.5t-176 -72.5q-121 0 -196 94
l-5 -58q-3 -24 -28 -20q-9 0 -14 9q-8 7 -5 16l17 145l142 -31q23 -7 18 -28q-2 -10 -10.5 -16t-17.5 -2l-53 12q60 -72 152 -72q84 0 141.5 58.5t57.5 140.5zM40 769l157 -40l121 -32v-817l-182 48l-96 24v817zM607 742q-14 -104 -11 -145q10 -36 47 -54t73 -6h1v-578h-1
l-309 -79v812zM1081 566v-679l-157 40l-121 32v575q68 -24 142.5 -15.5t135.5 47.5z" />
    <glyph glyph-name="yen" unicode="&#xa5;" 
d="M825 1030h250q10 0 12.5 -5t-5.5 -13l-364 -364q-6 -6 -11 -18h268q10 0 13 -6t-3 -14l-120 -160q-6 -8 -18 -14t-22 -6h-125v-100h275q10 0 13 -6t-3 -14l-120 -160q-6 -8 -18 -14t-22 -6h-125v-174q0 -11 -7.5 -18.5t-18.5 -7.5h-148q-11 0 -18.5 7.5t-7.5 18.5v174
h-275q-10 0 -13 6t3 14l120 160q6 8 18 14t22 6h125v100h-275q-10 0 -13 6t3 14l120 160q6 8 18 14t22 6h118q-5 12 -11 18l-364 364q-8 8 -5.5 13t12.5 5h250q25 0 43 -18l164 -164q8 -8 18 -8t18 8l164 164q18 18 43 18z" />
    <glyph glyph-name="brokenbar" unicode="&#xa6;" 
d="M701 952v0q27 0 46.5 -19.5t19.5 -46.5q-1 -14 -6 -27l-167 -786q-1 -13 -6 -25t-14 -21t-21 -14t-25 -5q-18 0 -33 9t-24 24t-9 33q0 11 4 21q150 708 169 796v-5v-4v4v5q1 17 10.5 31t24 22t31.5 8zM635 891zM635 881q0 -3 1 -6q-1 3 -1 6zM636 875q0 -3 1 -6.5t2 -6.5
q-1 3 -2 6.5t-1 6.5zM639 862q1 -3 3 -6q-2 3 -3 6zM642 856q1 -2 3 -5q-2 2 -3 5zM645 851l4 -6zM649 845q2 -2 4 -5q-2 3 -4 5zM654 840l4 -4zM658 836q3 -2 5 -4q3 -2 6 -3q-3 1 -5.5 3t-5.5 4zM670 828l4 -2zM675 825q6 -2 12 -3q-6 1 -12 3zM688 822q3 -1 5 -1
q-2 0 -5 1zM711 821h-6h6zM695 821q3 -1 6 -1q-3 0 -6 1zM351 752q2 0 4 -1q29 1 50 -20q28 -25 20.5 -65t-41.5 -54q-41 -31 -117.5 -88.5t-94.5 -70.5q28 -21 91 -68t96 -71q2 -2 13 -10l14 -11l-2 1q26 -11 37.5 -38.5t1.5 -53.5q-11 -32 -45.5 -43.5t-62.5 8.5
q-17 14 -36 29.5t-43 34t-37 28.5q-9 8 -70.5 56.5t-95.5 72.5q-24 14 -31 43t5 56.5t38 38.5q61 48 255 201l20 15q18 10 31 10zM849 752q24 -1 51 -25q209 -165 255 -201q26 -11 38 -38.5t5 -56.5t-31 -43q-26 -18 -54 -39.5t-60.5 -47.5t-51.5 -42q-13 -10 -37 -28.5
t-43 -34t-36 -29.5q-28 -20 -62.5 -8.5t-45.5 43.5q-10 26 1.5 53.5t37.5 38.5q-5 -3 1 2q2 2 11 8l13 10q33 24 96 71t91 68q-18 13 -94.5 70.5t-117.5 88.5q-34 14 -41.5 54t20.5 65q21 21 50 20q2 1 4 1zM295 719zM905 719zM291 713zM909 713zM288 707zM912 707zM286 700
zM914 700zM284 693l-1 -3v-4v-4q0 6 1 11zM916 693q1 -5 1 -11v4v4zM283 673q0 -3 1 -7q0 -2 1 -7v0l2 -6l1 -1q1 -4 2 -6h1l-3 6l-3 7l-1 7zM290 646h1h-1zM917 673l-1 -7l-1 -7l-3 -7l-3 -6h1q1 2 2 6l1 1l2 6v0q1 5 1 7q1 4 1 7zM909 646h1h-1zM294 640zM906 640z
M298 634zM902 634zM303 628zM897 628zM308 623zM892 623zM327 612q4 -2 7 -3q1 0 5 -1q-7 2 -12 4zM873 612q-5 -2 -12 -4q4 1 5 1q3 1 7 3zM348 607zM332 296zM868 296zM528 140q3 0 6 -1q3 0 6 -1q-3 1 -6 1q-3 1 -6 1zM541 138q3 0 6 -1q-3 1 -6 1zM547 137l6 -2z
M554 134q2 -1 5 -2q-3 1 -5 2zM560 131q2 -1 5 -3q-2 2 -5 3zM565 128q3 -2 5 -4q-2 2 -5 4zM586 104q2 -3 3 -6q-1 3 -3 6zM589 98l2 -6zM591 91l2 -6zM593 85v-6v6z" />
    <glyph glyph-name="section" unicode="&#xa7;" 
d="M1148 1040v0l6 -6q50 -48 45.5 -121.5t-59.5 -115.5l-153 -152l54 -54q18 -19 15 -46t-21 -46q-20 -25 -52.5 -31t-53.5 20l-56 56l-572 -572q-30 -36 -75.5 -49.5t-89.5 0.5l-43 -43l-93 93l44 43q-13 38 -5 80t38 70q3 3 587 588l-52 51q-24 14 -25 43.5t17 49.5
q18 25 48 34.5t55 -7.5l58 -58l151 152q40 54 112 60.5t120 -39.5zM716 701l-107 -107q-52 -53 -215 -214t-247 -253q-2 -6 -2 -11q0 -12 8.5 -20.5t20.5 -8.5q5 0 10 1l306 306l1 2v-1q6 6 15 11t19 8t18 3q13 0 29 -6.5t25 -16.5q5 -5 10 -12l214 214z" />
    <glyph glyph-name="dieresis" unicode="&#xa8;" 
d="M600 1080h11q2 0 3 -0.5l1 -0.5h7v0h2.5h1.5l1 -1h6q1 0 5 -1h1q3 -1 5 -1q3 -1 6 -1q2 -1 4 -1h1q3 -1 5 -2h1l4 -1t7 -2l1 -0.5l1 -0.5q12 -3 23 -8h1q42 -19 74 -51l357 -357q71 -71 71 -172t-71 -172l-357 -357q-5 -5 -12 -11l-1 -1l-12 -10h-1q-6 -5 -13 -10
q-6 -4 -13 -8q-1 0 -1.5 -0.5l-0.5 -0.5q-7 -4 -14 -7v0l-14 -6l-2 -1q-7 -2 -13 -4q-1 -1 -2 -1q-19 -6 -38 -8q-12 -2 -23 -3h-12v0h-14q-1 1 -3 1h-1q-5 0 -10 1h-3h-1l-10 2l-10 2h-2q-4 1 -9 2q-1 0 -2 1q-4 1 -9 2l-1 1h-1q-5 2 -10 3v1l-10 4h-1q-4 2 -9 4q-1 0 -2 1
q-4 2 -9 5q-31 17 -55 41l-203 202l-55 56l-99 99q-71 71 -71 172q0 85 53 152l0.5 0.5l0.5 0.5q1 1 4 5q4 4 4.5 5l0.5 1l8 8l292 292l65 65q41 42 98 59v0l1 1q17 5 35 8h1q8 1 17 2h1h2q9 1 16 1h1zM538 1010q-39 -14 -69 -43l-33 -33q25 -10 25 -29q0 -17 -12 -32
t-26 -25t-25.5 -28t-11.5 -41q0 -17 17 -30t35.5 -19.5t32.5 -14.5t7.5 -21t-40.5 -33q-21 -13 -33 -26.5t-14.5 -25t-0.5 -24t7.5 -23.5t10.5 -22.5t9 -21t1.5 -20t-11.5 -19.5q-18 -20 -29 -10t-15.5 30.5t-14 37t-24.5 10.5q-38 -17 -55 -41t10 -42q2 -1 18.5 -9
t25.5 -13l27 -15t28 -18t23.5 -19.5t17.5 -22t6 -22.5t-6 -24t-25 -24q-17 -13 -39.5 -28t-37 -25t-30.5 -21.5t-26 -20.5l208 -209q48 -47 115 -53q70 20 119 30q15 10 27 23l236 235q-4 0 -18.5 -2.5t-21.5 -3t-18.5 -0.5t-20.5 3q-34 9 -12 54q23 49 82 84q18 11 37 17
q64 22 102 -20q43 49 45 115q-10 -2 -34 4q-29 7 -27 22q0 8 9 9q4 0 13.5 -2t20 -5.5t17.5 -7.5q-1 12 -3 23q-33 -8 -52 13q-54 58 -107 58q-25 -1 -24 -13q0 -4 6 -8q18 -12 12 -38t-32 -33q-20 -6 -40.5 5.5t-32.5 33t-12 46.5q0 22 -4.5 40t-10.5 29.5t-15 21.5t-16 15
t-15.5 10.5t-11.5 7.5q-14 12 -30.5 -2t-13.5 -23q3 -11 -9 -25.5t-29.5 -23t-36 -11.5t-28.5 7q-17 17 -13.5 26.5t12.5 17t19 12t6.5 12t-24.5 17.5q-16 7 33 33q9 5 28 14q46 24 55 32q7 6 5 15t-7.5 16t-10.5 20.5t-3 27.5q1 8 12.5 23t27.5 28l-45 45l-1 2l-1 1
q-17 -17 -38 -28.5t-39 -14.5t-31 1q-12 7 -12 20.5t5.5 26.5t-2.5 21.5t-36 4.5q-25 -3 -37 9zM663 808q8 -1 13 -3q14 -6 18 -20q2 -11 -10 -13q-28 -4 -46 18q-7 9 2 13.5t23 4.5zM656 603q21 0 40.5 -4t35 -11t26.5 -17.5t14 -23.5q5 -18 27.5 -24t47.5 -8t33 -12
t-7 -39t-36.5 -68.5t-24.5 -66.5q-2 -18 1 -43t4 -42t-12 -49.5t-43 -74.5q-48 -68 -95 -30q-35 28 -42 86q-4 35 8 57q26 49 -8.5 93.5t-91.5 50.5q-41 4 -44 53q-4 59 44 115q16 19 35 33q34 24 88 25zM89 581q-30 -46 -30 -101q0 -77 54 -131l37 -36q-12 27 -3 67.5
t36 68.5q22 22 24.5 51t-12 48.5t-38.5 19.5q-41 0 -68 13z" />
    <glyph glyph-name="copyright" unicode="&#xa9;" 
d="M1200 1080v-1200h-1200v1200h1200zM111 969v-978l977 978h-977z" />
    <glyph glyph-name="ordfeminine" unicode="&#xaa;" 
d="M0 -120v1200h300v-1200h-300zM450 -120v1200h300v-1200h-300zM900 -120v1200h300v-1200h-300z" />
    <glyph glyph-name="guillemotleft" unicode="&#xab;" 
d="M773 248q-12 12 -11.5 29t12.5 29t28.5 12t28.5 -12l118 -119l120 120q12 12 29 11.5t29 -12.5t12 -29t-12 -29l-119 -119l119 -120q11 -11 11.5 -27.5t-11.5 -29t-29 -12t-28 11.5l-120 119l-119 -119q-12 -13 -29 -12.5t-29 13t-12.5 29t11.5 29.5l120 119zM49 1074
h887q22 0 37 -16t15 -36q0 -48 -52 -48h-887q-49 0 -49 48q0 20 15 36t34 16zM593 380v-296l-198 -198v494l-346 496h887z" />
    <glyph glyph-name="logicalnot" unicode="&#xac;" 
d="M1062 712v-305t-1 -305q-5 -76 -68.5 -128t-138.5 -44h-272t-271 1q-75 6 -127.5 68.5t-44.5 137.5v355.5v355.5q2 78 66 134t142 48h453zM966 678q-4 4 -13 4.5t-18 -0.5t-18 0q-14 1 -40.5 0t-48 0t-39.5 6q-30 11 -43 41t-9 65v142h-208.5h-208.5q-41 -4 -65.5 -40.5
t-18.5 -77.5v-355v-355q4 -39 38 -64.5t73 -19.5h265.5h265.5q42 4 68 39.5t20 77.5v537zM349 787h502v-68h-502v68zM349 606h502v-69h-502v69zM349 424h502v-69h-502v69zM349 241h502v-68h-502v68z" />
    <glyph glyph-name="registered" unicode="&#xae;" 
d="M446 1030h470l262 -318v-591q0 -79 -56 -135t-138 -56h-538q-77 0 -134.5 56t-57.5 131h-232v515h232v206q0 80 57 136t135 56zM446 936q-40 0 -67 -29.5t-27 -68.5v-206h654v-515h-654q0 -35 27 -64t67 -29h538q40 0 68.5 29t29.5 68v557v4h-144q-37 0 -61 25t-25 61
v168h-406z" />
    <glyph glyph-name="macron" unicode="&#xaf;" 
d="M446 1030h470l262 -318v-591q0 -79 -56 -135t-138 -56h-538q-77 0 -134.5 56t-57.5 131h-232v515h232v206q0 80 57 136t135 56zM446 936q-40 0 -67 -29.5t-27 -68.5v-206h654v-515h-654q0 -35 27 -64t67 -29h538q40 0 68.5 29t29.5 68v557v4h-144q-37 0 -61 25t-25 61
v168h-406zM96 486v-223h45v97h89v-97h45v223h-45v-88h-89v88h-45zM306 486v-37h66v-186h45v186h67v37h-178zM512 486v-223h42v176l44 -176h44l44 176v-176h42v223h-68l-40 -152l-41 152h-67zM775 485v-222h157v37h-112v185h-45z" />
    <glyph glyph-name="degree" unicode="&#xb0;" 
d="M446 1030h470l262 -318v-591q0 -79 -56 -135t-138 -56h-538q-77 0 -134.5 56t-57.5 131h-232v515h232v206q0 80 57 136t135 56zM446 936q-40 0 -67 -29.5t-27 -68.5v-206h654v-515h-654q0 -35 27 -64t67 -29h538q40 0 68.5 29t29.5 68v557v4h-144q-37 0 -61 25t-25 61
v168h-406zM373 490q-26 0 -44 -7.5t-28 -22.5t-10 -32q0 -27 21 -45q15 -13 51 -22q28 -7 36 -10q12 -4 16.5 -9.5t4.5 -13.5q0 -13 -11 -22t-33 -9q-21 0 -33 10.5t-16 32.5l-44 -5q5 -37 27.5 -56.5t65.5 -19.5q29 0 48.5 8t30 25t10.5 36q0 21 -9 35.5t-24.5 23t-48.5 16
t-42 14.5q-7 6 -7 14q0 9 8 14q11 8 31 8q19 0 28.5 -7.5t12.5 -24.5l45 2q-1 30 -22.5 48.5t-63.5 18.5zM603 490q-28 0 -49 -8q-15 -7 -28.5 -20.5t-20.5 -30.5q-11 -24 -11 -58q0 -53 29.5 -83.5t79.5 -30.5t79.5 30.5t29.5 84.5q0 55 -30 85.5t-79 30.5zM201 487v-145
q0 -27 -6 -36t-21 -9t-23 12q-5 8 -5 28l-43 -5q0 -36 18 -54.5t51 -18.5q28 0 45.5 11.5t23.5 31.5q5 15 5 43v142h-45zM747 487v-224h42v146l91 -146h45v224h-42v-150l-92 150h-44zM603 452q28 0 45 -19t17 -58t-17.5 -58.5t-44.5 -19.5t-44.5 20t-17.5 58t17 57.5
t45 19.5z" />
    <glyph glyph-name="plusminus" unicode="&#xb1;" 
d="M446 1030h470l262 -318v-591q0 -79 -56 -135t-138 -56h-538q-77 0 -134.5 56t-57.5 131h-232v515h232v206q0 80 57 136t135 56zM446 936q-40 0 -67 -29.5t-27 -68.5v-206h654v-515h-654q0 -35 27 -64t67 -29h538q40 0 68.5 29t29.5 68v557v4h-144q-37 0 -61 25t-25 61
v168h-406zM220 486v-223h45v84h29q31 0 47 3q12 3 23.5 11t19 22t7.5 35q0 26 -13 43t-32 22q-13 3 -54 3h-72zM428 486v-223h85q26 0 40 4q21 7 32 18q16 15 24 40q7 20 7 47q0 32 -7.5 53.5t-21.5 36t-33 20.5q-15 4 -43 4h-83zM655 486v-223h45v95h94v38h-94v53h108v37
h-153zM265 449h22q24 0 32 -2q11 -2 18 -10t7 -20q0 -10 -5 -17.5t-14 -11t-36 -3.5h-24v64zM474 449h20q28 0 37 -3q13 -2 21 -10t12.5 -22t4.5 -40t-4.5 -41t-11.5 -21.5t-18 -9.5q-9 -2 -28 -2h-33v149z" />
    <glyph glyph-name="uni00B2" unicode="&#xb2;" 
d="M446 1030h470l262 -318v-591q0 -79 -56 -135t-138 -56h-538q-77 0 -134.5 56t-57.5 131h-232v515h232v206q0 80 57 136t135 56zM446 936q-40 0 -67 -29.5t-27 -68.5v-206h654v-515h-654q0 -35 27 -64t67 -29h538q40 0 68.5 29t29.5 68v557v4h-144q-37 0 -61 25t-25 61
v168h-406zM225 486v-37h67v-186h45v186h66v37h-178zM416 486l70 -107l-77 -116h54l50 77l50 -77h54l-76 115l69 108h-52l-44 -71l-45 71h-53zM625 486v-37h66v-186h46v186h66v37h-178z" />
    <glyph glyph-name="uni00B3" unicode="&#xb3;" 
d="M233 848q101 0 163 -65q51 -53 51 -120q0 -95 -104 -151q62 -14 99 -60t37 -111q0 -95 -69.5 -162t-172.5 -67q-98 0 -162 56q-65 57 -75 147l134 17q6 -51 34 -78.5t68 -27.5q43 0 72 33q29 32 29 87q0 53 -28 83.5t-68 30.5q-27 0 -63 -11l15 113q56 -2 85 24
q30 26 30 69q0 36 -21.5 58t-57.5 22t-61 -25t-30 -72l-128 22q14 65 40 104q27 39 75 61q48 23 108 23zM596 845h266q90 0 137 -14q63 -18 108.5 -66t68.5 -117q24 -69 24 -170q0 -89 -22 -154q-27 -78 -77 -127q-38 -37 -103 -58q-48 -15 -128 -15h-274v721zM741 723v-477
h109q61 0 88 7q35 8 58 30q24 21 39 69q15 49 15 132.5t-15 128t-41.5 69.5t-67.5 34q-30 7 -119 7h-66z" />
    <glyph glyph-name="Agrave" unicode="&#xc0;" 
d="M950 1080q17 0 29 -12t12 -28v-170h169q16 0 28 -11t12 -28.5t-12 -29.5t-28 -12h-169v-169q0 -17 -12 -28.5t-29 -11.5t-29.5 11.5t-12.5 28.5v169h-167q-17 0 -29 12t-12 29.5t12 28.5t29 11h167v170q0 16 12.5 28t29.5 12zM640.5 680q40.5 0 69 -29.5t28.5 -66.5
q0 -75 -99 -241q-97 152 -97 241q0 40 29 68t69.5 28zM639 614q-19 0 -34 -13t-15 -33t15 -33t34 -13q48 0 48 46t-48 46zM0 548l118 -30l91 -24v-614l-137 36l-72 18v614zM482 548q1 -41 27 -101v-508l-233 -59v614zM787 500l2 -1v-615l-119 32l-97 23v383
q8 -12 19.5 -31.5t18.5 -25.5l28 -37l27 37q85 127 121 235z" />
    <glyph glyph-name="Aacute" unicode="&#xc1;" 
d="M950 1080q17 0 29 -12t12 -28v-170h169q16 0 28 -11t12 -28.5t-12 -29.5t-28 -12h-169v-169q0 -17 -12 -28.5t-29 -11.5t-29.5 11.5t-12.5 28.5v169h-167q-17 0 -29 12t-12 29.5t12 28.5t29 11h167v170q0 16 12.5 28t29.5 12zM401 680q164 0 282 -118t118 -282
q0 -95 -45 -178q-48 -101 -143.5 -161.5t-211 -60.5t-211.5 60.5t-144 161.5q-46 83 -46 178q0 164 118.5 282t282.5 118zM400.5 627q-142.5 0 -244.5 -102t-102 -245q0 -93 48 -178h597q48 85 48 178q0 143 -102 245t-244.5 102zM313 575q34 0 34 -35.5t-34 -35.5
q-14 0 -24.5 10t-10.5 25q0 14 10.5 25t24.5 11zM487 575q36 0 36 -36q0 -15 -10.5 -25t-25.5 -10q-14 0 -24.5 10t-10.5 25q0 14 10.5 25t24.5 11zM582 533l-69 -190l-61 -179q0 -4 -5 -14q-9 -18 -30 -25t-39 1q-19 12 -26 33.5t2 39.5q0 2 2.5 4t4.5 4l106 158zM177 467
q14 0 24 -10.5t10 -26.5q0 -14 -10 -24.5t-24 -10.5q-17 0 -26.5 10.5t-9.5 24.5q0 37 36 37zM627 467q14 0 24 -10.5t10 -24.5q0 -34 -35 -34t-35 34.5t36 34.5zM666 319q18 0 27.5 -10t9.5 -25q0 -34 -37 -34q-35 0 -35 34q0 15 11 25t24 10zM131 314q33 0 33 -34.5
t-33 -34.5q-14 0 -25 10.5t-11 24.5t11 24t25 10z" />
    <glyph glyph-name="Atilde" unicode="&#xc3;" 
d="M150 1080h3h1v0h4q29 -2 55.5 -14t45.5 -32t30 -47t11 -57q0 -10 -2 -21v-2v-1q-4 -26 -17 -50l695 -695q35 19 74 19q62 0 106 -44t44 -106t-44 -106t-106 -44q-66 0 -110 48q-2 3 -5 6q-2 3 -5 6q-2 3 -4 5l-4 8q-2 2 -3 5q-3 4 -5 8q-1 3 -2 5q-2 5 -3 10q-9 24 -9 49
t8 49q3 6 6 13l-680 679l51 -191l3 -11l65 -240q39 -1 73 -20q54 -32 70 -92t-15 -113.5t-91 -69.5t-114 15q-56 33 -71 97q-1 3 -1 6q-1 5 -1 9q-1 3 -1 6q0 5 -1 9v6q1 5 1 9v6l2 10q5 25 17 47q13 21 32 38q5 4 11 8l-69 256l-60 225q-11 1 -21 4q-21 5 -39 15
q-21 12 -37 30q0 1 -1 1.5t-2 2.5q-1 1 -2 3q-1 0 -2 2q-8 11 -14.5 23.5t-10.5 26.5v0q-5 18 -6 37v4v0v4v8q1 1 1 3v4v1q1 1 1 3v1v2v1l1 1v2v1q1 2 1 3v1q0 1 1 2v1q0 2 1 3v1q0 1 1 3q5 16 13 30q23 40 65 60l1 1h0.5h1.5q24 12 51 14h1h3h1h2.5h2.5h1zM149 1005h-1h-3
h-1h-3q-2 -1 -3 -1h-1q-3 0 -7 -1q-1 -1 -3 -1.5t-3 -0.5l-1 -1h-1l-1 -1q-2 0 -4 -1q-12 -6 -21.5 -16.5t-15 -23.5t-5.5 -28q0 -31 22 -53t53 -22h8q1 0 3 1h1h1.5h2.5v1q33 7 49 35q16 27 8 57.5t-35 45.5q-15 9 -32 10h-1h-3h-3zM350 254q-9 0 -18 -3q-30 -8 -46 -35
t-7.5 -57t35.5 -45.5t57 -7.5t45.5 35t7.5 57t-35 46q-18 10 -39 10zM1050 105q-31 0 -53 -22t-22 -53t22 -53t53 -22t53 22t22 53q0 15 -6 29t-16 24t-24 16t-29 6z" />
    <glyph glyph-name="Adieresis" unicode="&#xc4;" 
d="M150 1080h3h1v0h4q59 -3 100.5 -46.5t41.5 -103.5q0 -10 -2 -21v-2v-1q-4 -26 -17 -50l100 -100l-66 -66l-81 81l17 -61l-90 -24l-26 95q-10 1 -20 3v0q-21 5 -40 16q-21 12 -37 30q0 1 -1 2q-2 2 -4 5q-4 4 -7 9q-1 2 -2 3q-2 3 -3 5q-3 4 -4 8q-1 0 -1 0.5v0.5
q0 1 -1 1q-3 7 -6 15v1q-1 1 -1 2l-2 6v1q-5 16 -6 33v4v4v0v4v8q1 1 1 3v1v3v1q1 1 1 3v1v2l1 2v2v1q1 2 1 3v1q0 1 1 2v1q0 2 1 3v1q0 1 1 3q5 16 13 30q23 40 65 60l1 0.5t2 0.5q24 12 51 14h1h3h1h2.5h2.5h1zM149 1005h-1h-3h-1h-3q-2 -1 -3 -1h-1q-3 0 -7 -1
q-1 -1 -3 -1.5t-3 -0.5l-1 -1h-1l-1 -1q-2 0 -4 -1q-12 -6 -21.5 -16.5t-15 -23.5t-5.5 -28q0 -31 22 -53t53 -22h8q1 0 3 1h1h1.5h2.5v1q33 7 49 35q16 27 8 57.5t-35 45.5q-15 9 -32 10h-1h-3h-3zM452 685l70 -70l-65 -66l-71 71zM276 613l9 -33l3 -11l14 -53l-89 -24
l-18 64l-8 33zM593 544l71 -71l-66 -66l-71 71zM328 420l25 -91q39 -1 73 -20q54 -32 70 -92t-15 -113.5t-91 -69.5t-114 15q-56 33 -71 97q-1 3 -1 6q-1 5 -1 9q-1 3 -1 6q0 5 -1 9v6q1 5 1 9v6l2 10q5 25 17 47q13 21 32 38q5 4 11 8l-26 96zM735 402l70 -70l-65 -66
l-71 71zM876 261l100 -100q35 19 74 19q62 0 106 -44t44 -106t-44 -106t-106 -44q-52 0 -93 32q-6 5 -11 10q0 1 -1 1q-5 5 -9 10l-2 2q-4 5 -7 10q-2 2 -3 4q-3 4 -5 8q-2 3 -3.5 6.5t-2.5 6.5q-2 5 -4 9q-9 25 -9 51q0 25 8 49q3 7 6 13l-104 103zM350 254q-9 0 -18 -3
q-30 -8 -46 -35t-7.5 -57t35.5 -45.5t57 -7.5t45.5 35t7.5 57t-35 46q-18 10 -39 10zM1050 105q-31 0 -53 -22t-22 -53t22 -53t53 -22t53 22t22 53t-22 53t-53 22z" />
    <glyph glyph-name="Aring" unicode="&#xc5;" 
d="M150 1080h3h1v0h4q29 -2 55.5 -14t45.5 -32t30 -47t11 -57q0 -10 -2 -21v-2v-1q-4 -26 -17 -50l695 -695q35 19 74 19q62 0 106 -44t44 -106t-44 -106t-106 -44q-66 0 -110 48q-2 3 -5 6q-2 3 -5 6q-2 3 -4 5l-4 8q-2 2 -3 5q-3 4 -5 8q-1 3 -2 5q-2 5 -3 10q-9 24 -9 49
t8 49q3 6 6 13l-680 679l51 -191l3 -11l65 -240q39 -1 73 -20q54 -32 70 -92t-15 -113.5t-91 -69.5t-114 15q-56 33 -71 97q-1 3 -1 6q-1 5 -1 9q-1 3 -1 6q0 5 -1 9v6q1 5 1 9v6l2 10q5 25 17 47q13 21 32 38q5 4 11 8l-69 256l-60 225q-11 1 -21 4q-21 5 -39 15
q-21 12 -37 30q0 1 -1 1.5t-2 2.5q-1 1 -2 3q-1 0 -2 2q-8 11 -14.5 23.5t-10.5 26.5v0q-5 18 -6 37v4v0v4v8q1 1 1 3v4v1q1 1 1 3v1v2v1l1 1v2v1q1 2 1 3v1q0 1 1 2v1q0 2 1 3v1q0 1 1 3q5 16 13 30q23 40 65 60l1 1h0.5h1.5q24 12 51 14h1h3h1h2.5h2.5h1zM149 1005h-1h-3
h-1h-3q-2 -1 -3 -1h-1q-3 0 -7 -1q-1 -1 -3 -1.5t-3 -0.5l-1 -1h-1l-1 -1q-2 0 -4 -1q-12 -6 -21.5 -16.5t-15 -23.5t-5.5 -28q0 -31 22 -53t53 -22h8q1 0 3 1h1h1.5h2.5v1q33 7 49 35q16 27 8 57.5t-35 45.5q-15 9 -32 10h-1h-3h-3zM350 254q-9 0 -18 -3q-30 -8 -46 -35
t-7.5 -57t35.5 -45.5t57 -7.5t45.5 35t7.5 57t-35 46q-18 10 -39 10zM1050 105q-31 0 -53 -22t-22 -53t22 -53t53 -22t53 22t22 53q0 15 -6 29t-16 24t-24 16t-29 6zM1176 994q24 0 24 -24.5t-24 -24.5h-453q-23 0 -23 24.5t23 24.5h67v25q0 25 14.5 43t33.5 18h223
q21 0 35 -18t14 -43v-25h66zM814 994h272v25q0 36 -25 36h-223q-24 0 -24 -36v-25zM1164 882l-62 -464h-306l-61 464h429zM863 452q18 4 18 23l-38 356q-5 22 -23 19q-18 0 -18 -21l39 -359q0 -18 19 -18h3zM970 831q0 19 -20.5 19t-20.5 -19v-359q0 -20 20.5 -20t20.5 20
v359zM1097 829q0 21 -17 21q-19 3 -22 -19l-39 -356q0 -19 18 -23h1q21 0 21 18z" />
    <glyph glyph-name="AE" unicode="&#xc6;" 
d="M150 1080h3h1v0h4q29 -2 55.5 -14t45.5 -32t30 -47t11 -57q0 -10 -2 -21v-2v-1q-4 -26 -17 -50l695 -695q35 19 74 19q62 0 106 -44t44 -106t-44 -106t-106 -44q-66 0 -110 48q-2 3 -5 6q-2 3 -5 6q-2 3 -4 5l-4 8q-2 2 -3 5q-3 4 -5 8q-1 3 -2 5q-2 5 -3 10q-9 24 -9 49
t8 49q3 6 6 13l-680 679l51 -191l3 -11l65 -240q39 -1 73 -20q54 -32 70 -92t-15 -113.5t-91 -69.5t-114 15q-56 33 -71 97q-1 3 -1 6q-1 5 -1 9q-1 3 -1 6q0 5 -1 9v6q1 5 1 9v6l2 10q5 25 17 47q13 21 32 38q5 4 11 8l-69 256l-60 225q-11 1 -21 4q-21 5 -39 15
q-21 12 -37 30q0 1 -1 1.5t-2 2.5q-1 1 -2 3q-1 0 -2 2q-8 11 -14.5 23.5t-10.5 26.5v0q-5 18 -6 37v4v0v4v8q1 1 1 3v4v1q1 1 1 3v1v2v1l1 1v2v1q1 2 1 3v1q0 1 1 2v1q0 2 1 3v1q0 1 1 3q5 16 13 30q23 40 65 60l1 1h0.5h1.5q24 12 51 14h1h3h1h2.5h2.5h1zM149 1005h-1h-3
h-1h-3q-2 -1 -3 -1h-1q-3 0 -7 -1q-1 -1 -3 -1.5t-3 -0.5l-1 -1h-1l-1 -1q-2 0 -4 -1q-12 -6 -21.5 -16.5t-15 -23.5t-5.5 -28q0 -31 22 -53t53 -22h8q1 0 3 1h1h1.5h2.5v1q33 7 49 35q16 27 8 57.5t-35 45.5q-15 9 -32 10h-1h-3h-3zM350 254q-9 0 -18 -3q-30 -8 -46 -35
t-7.5 -57t35.5 -45.5t57 -7.5t45.5 35t7.5 57t-35 46q-18 10 -39 10zM1050 105q-31 0 -53 -22t-22 -53t22 -53t53 -22t53 22t22 53q0 15 -6 29t-16 24t-24 16t-29 6zM1159 789h-418q-16 0 -28.5 12t-12.5 29t12.5 29t28.5 12h418q18 0 29.5 -12t11.5 -29t-11.5 -29
t-29.5 -12z" />
    <glyph glyph-name="Ccedilla" unicode="&#xc7;" 
d="M150 1080h3h1v0h4q29 -2 55.5 -14t45.5 -32t30 -47t11 -57q0 -10 -2 -21v-2v-1q-4 -26 -17 -50l695 -695q35 19 74 19q62 0 106 -44t44 -106t-44 -106t-106 -44q-66 0 -110 48q-2 3 -5 6q-2 3 -5 6q-2 3 -4 5l-4 8q-2 2 -3 5q-3 4 -5 8q-1 3 -2 5q-2 5 -3 10q-9 24 -9 49
t8 49q3 6 6 13l-680 679l51 -191l3 -11l65 -240q39 -1 73 -20q54 -32 70 -92t-15 -113.5t-91 -69.5t-114 15q-56 33 -71 97q-1 3 -1 6q-1 5 -1 9q-1 3 -1 6q0 5 -1 9v6q1 5 1 9v6l2 10q5 25 17 47q13 21 32 38q5 4 11 8l-69 256l-60 225q-11 1 -21 4q-21 5 -39 15
q-21 12 -37 30q0 1 -1 1.5t-2 2.5q-1 1 -2 3q-1 0 -2 2q-8 11 -14.5 23.5t-10.5 26.5v0q-5 18 -6 37v4v0v4v8q1 1 1 3v4v1q1 1 1 3v1v2v1l1 1v2v1q1 2 1 3v1q0 1 1 2v1q0 2 1 3v1q0 1 1 3q5 16 13 30q23 40 65 60l1 1h0.5h1.5q24 12 51 14h1h3h1h2.5h2.5h1zM149 1005h-1h-3
h-1h-3q-2 -1 -3 -1h-1q-3 0 -7 -1q-1 -1 -3 -1.5t-3 -0.5l-1 -1h-1l-1 -1q-2 0 -4 -1q-12 -6 -21.5 -16.5t-15 -23.5t-5.5 -28q0 -31 22 -53t53 -22h8q1 0 3 1h1h1.5h2.5v1q33 7 49 35q16 27 8 57.5t-35 45.5q-15 9 -32 10h-1h-3h-3zM350 254q-9 0 -18 -3q-30 -8 -46 -35
t-7.5 -57t35.5 -45.5t57 -7.5t45.5 35t7.5 57t-35 46q-18 10 -39 10zM1050 105q-31 0 -53 -22t-22 -53t22 -53t53 -22t53 22t22 53q0 15 -6 29t-16 24t-24 16t-29 6zM741 789q-17 0 -29 12t-12 29.5t12 28.5t29 11h167v170q0 16 12.5 28t29.5 12t29 -12t12 -28v-170h169
q16 0 28 -11t12 -28.5t-12 -29.5t-28 -12h-169v-169q0 -17 -12 -28.5t-29 -11.5t-29.5 11.5t-12.5 28.5v169h-167z" />
    <glyph glyph-name="Egrave" unicode="&#xc8;" 
d="M150 1080h3h1v0h4q29 -2 55.5 -14t45.5 -32t30 -47t11 -57q0 -10 -2 -21v-2v-1q-4 -26 -17 -50l695 -695q35 19 74 19q62 0 106 -44t44 -106t-44 -106t-106 -44q-66 0 -110 48q-2 3 -5 6q-2 3 -5 6q-2 3 -4 5l-4 8q-2 2 -3 5q-3 4 -5 8q-1 3 -2 5q-2 5 -3 10q-9 24 -9 49
t8 49q3 6 6 13l-680 679l51 -191l3 -11l65 -240q39 -1 73 -20q54 -32 70 -92t-15 -113.5t-91 -69.5t-114 15q-56 33 -71 97q-1 3 -1 6q-1 5 -1 9q-1 3 -1 6q0 5 -1 9v6q1 5 1 9v6l2 10q5 25 17 47q13 21 32 38q5 4 11 8l-69 256l-60 225q-11 1 -21 4q-21 5 -39 15
q-21 12 -37 30q0 1 -1 1.5t-2 2.5q-1 1 -2 3q-1 0 -2 2q-8 11 -14.5 23.5t-10.5 26.5v0q-5 18 -6 37v4v0v4v8q1 1 1 3v4v1q1 1 1 3v1v2v1l1 1v2v1q1 2 1 3v1q0 1 1 2v1q0 2 1 3v1q0 1 1 3q5 16 13 30q23 40 65 60l1 1h0.5h1.5q24 12 51 14h1h3h1h2.5h2.5h1zM149 1005h-1h-3
h-1h-3q-2 -1 -3 -1h-1q-3 0 -7 -1q-1 -1 -3 -1.5t-3 -0.5l-1 -1h-1l-1 -1q-2 0 -4 -1q-12 -6 -21.5 -16.5t-15 -23.5t-5.5 -28q0 -31 22 -53t53 -22h8q1 0 3 1h1h1.5h2.5v1q33 7 49 35q16 27 8 57.5t-35 45.5q-15 9 -32 10h-1h-3h-3zM350 254q-9 0 -18 -3q-30 -8 -46 -35
t-7.5 -57t35.5 -45.5t57 -7.5t45.5 35t7.5 57t-35 46q-18 10 -39 10zM1050 105q-31 0 -53 -22t-22 -53t22 -53t53 -22t53 22t22 53q0 15 -6 29t-16 24t-24 16t-29 6zM773 949q-12 12 -11.5 29t12.5 29t28.5 12t28.5 -12l118 -119l120 120q12 12 29 11.5t29 -12.5t12 -29
t-12 -29l-119 -119l119 -120q11 -11 11.5 -27.5t-11.5 -29t-29 -12t-28 11.5l-120 119l-119 -119q-12 -13 -29 -12.5t-29 13t-12.5 29t11.5 29.5l120 119z" />
    <glyph glyph-name="Ecircumflex" unicode="&#xca;" 
d="M599.5 1080q149.5 0 256 -106.5t106.5 -254.5q0 -311 -363 -839q-361 528 -361 839q0 148 106 254.5t255.5 106.5zM598 1011q-93 0 -172 -58.5t-105 -146.5q-25 -82 -1 -199q30 -151 142 -368q53 -101 138 -232q185 284 257 510q47 150 29 260q-16 84 -80.5 148
t-149.5 80q-29 6 -58 6zM603 874q70 0 126.5 -47.5t69.5 -115.5q12 -60 -15 -119t-79 -91q-38 -24 -83.5 -29t-87.5 10q-27 10 -51 27t-42 40t-28 50q-19 49 -10.5 104.5t43.5 95.5q28 35 68.5 55t84.5 20h4zM601 804q-54 0 -92.5 -39t-38.5 -93.5t38.5 -92.5t92.5 -38
t91 40q40 36 40 90.5t-38.5 93.5t-92.5 39z" />
    <glyph glyph-name="Edieresis" unicode="&#xcb;" 
d="M72 671q0 119 85 204t204.5 85t204.5 -85t85 -204q0 -248 -290 -671q-289 423 -289 671zM435 561q32 29 32 72.5t-30.5 74.5t-73.5 31t-74 -31t-31 -74.5t31 -74t74 -30.5t72 32zM1176 994q24 0 24 -24.5t-24 -24.5h-453q-23 0 -23 24.5t23 24.5h67v25q0 25 14.5 43
t33.5 18h223q21 0 35 -18t14 -43v-25h66zM814 994h272v25q0 36 -25 36h-223q-24 0 -24 -36v-25zM1164 882l-62 -464h-306l-61 464h429zM863 452q18 4 18 23l-38 356q-5 22 -23 19q-18 0 -18 -21l39 -359q0 -18 19 -18h3zM970 831q0 19 -20.5 19t-20.5 -19v-359
q0 -20 20.5 -20t20.5 20v359zM1097 829q0 21 -17 21q-19 3 -22 -19l-39 -356q0 -19 18 -23h1q21 0 21 18z" />
    <glyph glyph-name="Igrave" unicode="&#xcc;" 
d="M72 671q0 119 85 204t204.5 85t204.5 -85t85 -204q0 -248 -290 -671q-289 423 -289 671zM435 561q32 29 32 72.5t-30.5 74.5t-73.5 31t-74 -31t-31 -74.5t31 -74t74 -30.5t72 32zM1159 789h-418q-16 0 -28.5 12t-12.5 29t12.5 29t28.5 12h418q18 0 29.5 -12t11.5 -29
t-11.5 -29t-29.5 -12z" />
    <glyph glyph-name="Iacute" unicode="&#xcd;" 
d="M72 671q0 119 85 204t204.5 85t204.5 -85t85 -204q0 -248 -290 -671q-289 423 -289 671zM435 561q32 29 32 72.5t-30.5 74.5t-73.5 31t-74 -31t-31 -74.5t31 -74t74 -30.5t72 32zM741 789q-17 0 -29 12t-12 29.5t12 28.5t29 11h167v170q0 16 12.5 28t29.5 12t29 -12
t12 -28v-170h169q16 0 28 -11t12 -28.5t-12 -29.5t-28 -12h-169v-169q0 -17 -12 -28.5t-29 -11.5t-29.5 11.5t-12.5 28.5v169h-167z" />
    <glyph glyph-name="Icircumflex" unicode="&#xce;" 
d="M72 671q0 119 85 204t204.5 85t204.5 -85t85 -204q0 -248 -290 -671q-289 423 -289 671zM435 561q32 29 32 72.5t-30.5 74.5t-73.5 31t-74 -31t-31 -74.5t31 -74t74 -30.5t72 32zM773 949q-12 12 -11.5 29t12.5 29t28.5 12t28.5 -12l118 -119l120 120q12 12 29 11.5
t29 -12.5t12 -29t-12 -29l-119 -119l119 -120q11 -11 11.5 -27.5t-11.5 -29t-29 -12t-28 11.5l-120 119l-119 -119q-12 -13 -29 -12.5t-29 13t-12.5 29t11.5 29.5l120 119z" />
    <glyph glyph-name="Idieresis" unicode="&#xcf;" 
d="M150 1080q62 0 106 -44t44 -106q0 -39 -20 -74l696 -695q35 19 74 19q62 0 106 -44t44 -106t-44 -106t-106 -44q-66 0 -110 48q-2 3 -5 6q-2 3 -5 6q-2 3 -4 5l-4 8q-2 2 -3 5q-3 4 -5 8q-1 3 -2 5q-2 5 -3 10q-9 24 -9 49t8 49q3 6 6 13l-702 702q-6 -3 -13 -6
q-24 -8 -49 -8q-24 0 -46 8h-3q-3 1 -6 3q-5 2 -11 4q-1 1 -3 2q-4 2 -9 5q-2 1 -4 3q-4 2 -8 5q-2 2 -5 4q-4 4 -9 8l-1 1q-45 44 -45 107q0 62 44 106t106 44zM150 1005q-31 0 -53 -22t-22 -53t22 -53t53 -22t53 22t22 53t-22 53t-53 22zM1050 105q-31 0 -53 -22t-22 -53
t22 -53t53 -22t53 22t22 53q0 15 -6 29t-16 24t-24 16t-29 6z" />
    <glyph glyph-name="Eth" unicode="&#xd0;" 
d="M150 1080q62 0 106 -44t44 -106q0 -39 -20 -74l101 -100l-66 -66l-103 104q-6 -3 -13 -6q-24 -8 -49 -8q-24 0 -46 8q-2 0 -4 1t-5 2q-6 2 -11 5q-1 0 -3 1l-10 6q-1 1 -3 2q-4 2 -8 6q-2 1 -4 3q-56 45 -56 116q0 62 44 106t106 44zM150 1005q-31 0 -53 -22t-22 -53
t22 -53t53 -22t53 22t22 53t-22 53t-53 22zM452 685l70 -70l-65 -66l-71 71zM593 544l71 -71l-66 -66l-71 71zM735 402l70 -70l-65 -66l-71 71zM876 261l100 -100q35 19 74 19q62 0 106 -44t44 -106t-44 -106t-106 -44q-66 0 -111 49q-3 3 -5 7l-5 5q-2 3 -4 6.5t-4 6.5
t-3 6q-2 4 -4 7l-2 6q-2 4 -4 9q-8 23 -8 48q0 24 8 46v3q3 6 6 13l-104 103zM1050 105q-31 0 -53 -22t-22 -53t22 -53t53 -22t53 22t22 53q0 15 -6 29t-16 24t-24 16t-29 6z" />
    <glyph glyph-name="Ntilde" unicode="&#xd1;" 
d="M150 1080q62 0 106 -44t44 -106q0 -39 -20 -74l696 -695q35 19 74 19q62 0 106 -44t44 -106t-44 -106t-106 -44q-66 0 -110 48q-2 3 -5 6q-2 3 -5 6q-2 3 -4 5l-4 8q-2 2 -3 5q-3 4 -5 8q-1 3 -2 5q-2 5 -3 10q-9 24 -9 49t8 49q3 6 6 13l-702 702q-6 -3 -13 -6
q-24 -8 -49 -8q-24 0 -46 8h-3q-3 1 -6 3q-5 2 -11 4q-1 1 -3 2q-4 2 -9 5q-2 1 -4 3q-4 2 -8 5q-2 2 -5 4q-4 4 -9 8l-1 1q-45 44 -45 107q0 62 44 106t106 44zM150 1005q-31 0 -53 -22t-22 -53t22 -53t53 -22t53 22t22 53t-22 53t-53 22zM1050 105q-31 0 -53 -22t-22 -53
t22 -53t53 -22t53 22t22 53q0 15 -6 29t-16 24t-24 16t-29 6zM1176 994q24 0 24 -24.5t-24 -24.5h-453q-23 0 -23 24.5t23 24.5h67v25q0 25 14.5 43t33.5 18h223q21 0 35 -18t14 -43v-25h66zM814 994h272v25q0 36 -25 36h-223q-24 0 -24 -36v-25zM1164 882l-62 -464h-306
l-61 464h429zM863 452q18 4 18 23l-38 356q-5 22 -23 19q-18 0 -18 -21l39 -359q0 -18 19 -18h3zM970 831q0 19 -20.5 19t-20.5 -19v-359q0 -20 20.5 -20t20.5 20v359zM1097 829q0 21 -17 21q-19 3 -22 -19l-39 -356q0 -19 18 -23h1q21 0 21 18z" />
    <glyph glyph-name="Ograve" unicode="&#xd2;" 
d="M150 1080q62 0 106 -44t44 -106q0 -39 -20 -74l696 -695q35 19 74 19q62 0 106 -44t44 -106t-44 -106t-106 -44q-66 0 -110 48q-2 3 -5 6q-2 3 -5 6q-2 3 -4 5l-4 8q-2 2 -3 5q-3 4 -5 8q-1 3 -2 5q-2 5 -3 10q-9 24 -9 49t8 49q3 6 6 13l-702 702q-6 -3 -13 -6
q-24 -8 -49 -8q-24 0 -46 8h-3q-3 1 -6 3q-5 2 -11 4q-1 1 -3 2q-4 2 -9 5q-2 1 -4 3q-4 2 -8 5q-2 2 -5 4q-4 4 -9 8l-1 1q-45 44 -45 107q0 62 44 106t106 44zM150 1005q-31 0 -53 -22t-22 -53t22 -53t53 -22t53 22t22 53t-22 53t-53 22zM1050 105q-31 0 -53 -22t-22 -53
t22 -53t53 -22t53 22t22 53q0 15 -6 29t-16 24t-24 16t-29 6zM1159 789h-418q-16 0 -28.5 12t-12.5 29t12.5 29t28.5 12h418q18 0 29.5 -12t11.5 -29t-11.5 -29t-29.5 -12z" />
    <glyph glyph-name="Oacute" unicode="&#xd3;" 
d="M150 1080q62 0 106 -44t44 -106q0 -39 -20 -74l696 -695q35 19 74 19q62 0 106 -44t44 -106t-44 -106t-106 -44q-66 0 -110 48q-2 3 -5 6q-2 3 -5 6q-2 3 -4 5l-4 8q-2 2 -3 5q-3 4 -5 8q-1 3 -2 5q-2 5 -3 10q-9 24 -9 49t8 49q3 6 6 13l-702 702q-6 -3 -13 -6
q-24 -8 -49 -8q-24 0 -46 8h-3q-3 1 -6 3q-5 2 -11 4q-1 1 -3 2q-4 2 -9 5q-2 1 -4 3q-4 2 -8 5q-2 2 -5 4q-4 4 -9 8l-1 1q-45 44 -45 107q0 62 44 106t106 44zM150 1005q-31 0 -53 -22t-22 -53t22 -53t53 -22t53 22t22 53t-22 53t-53 22zM1050 105q-31 0 -53 -22t-22 -53
t22 -53t53 -22t53 22t22 53q0 15 -6 29t-16 24t-24 16t-29 6zM741 789q-17 0 -29 12t-12 29.5t12 28.5t29 11h167v170q0 16 12.5 28t29.5 12t29 -12t12 -28v-170h169q16 0 28 -11t12 -28.5t-12 -29.5t-28 -12h-169v-169q0 -17 -12 -28.5t-29 -11.5t-29.5 11.5t-12.5 28.5
v169h-167z" />
    <glyph glyph-name="Ocircumflex" unicode="&#xd4;" 
d="M150 1080q62 0 106 -44t44 -106q0 -39 -20 -74l696 -695q35 19 74 19q62 0 106 -44t44 -106t-44 -106t-106 -44q-66 0 -110 48q-2 3 -5 6q-2 3 -5 6q-2 3 -4 5l-4 8q-2 2 -3 5q-3 4 -5 8q-1 3 -2 5q-2 5 -3 10q-9 24 -9 49t8 49q3 6 6 13l-702 702q-6 -3 -13 -6
q-24 -8 -49 -8q-24 0 -46 8h-3q-3 1 -6 3q-5 2 -11 4q-1 1 -3 2q-4 2 -9 5q-2 1 -4 3q-4 2 -8 5q-2 2 -5 4q-4 4 -9 8l-1 1q-45 44 -45 107q0 62 44 106t106 44zM150 1005q-31 0 -53 -22t-22 -53t22 -53t53 -22t53 22t22 53t-22 53t-53 22zM1050 105q-31 0 -53 -22t-22 -53
t22 -53t53 -22t53 22t22 53q0 15 -6 29t-16 24t-24 16t-29 6zM773 949q-12 12 -11.5 29t12.5 29t28.5 12t28.5 -12l118 -119l120 120q12 12 29 11.5t29 -12.5t12 -29t-12 -29l-119 -119l119 -120q11 -11 11.5 -27.5t-11.5 -29t-29 -12t-28 11.5l-120 119l-119 -119
q-12 -13 -29 -12.5t-29 13t-12.5 29t11.5 29.5l120 119z" />
    <glyph glyph-name="Otilde" unicode="&#xd5;" 
d="M150 1080q62 0 106 -44t44 -106q0 -39 -20 -74l696 -695q35 19 74 19q62 0 106 -44t44 -106t-44 -106t-106 -44q-30 0 -59.5 14t-51.5 37.5t-32 52.5h-615q-14 -43 -55.5 -73.5t-86.5 -30.5q-62 0 -106 44t-44 106q0 45 30.5 87t73.5 56v615q-43 14 -73.5 55.5
t-30.5 86.5q0 62 44 106t106 44zM150 1005q-31 0 -53 -22t-22 -53t22 -53t53 -22q20 0 37.5 10t27.5 27.5t10 37.5q0 31 -22 53t-53 22zM212 794q-8 -4 -16 -7v-615q30 -9 58.5 -37.5t38.5 -58.5h615q2 8 6 16zM150 105q-31 0 -53 -22t-22 -53t22 -53t53 -22q20 0 37.5 10
t27.5 27.5t10 37.5q0 31 -22 53t-53 22zM1050 105q-31 0 -53 -22t-22 -53t22 -53t53 -22t53 22t22 53q0 20 -10 37.5t-27.5 27.5t-37.5 10z" />
    <glyph glyph-name="Odieresis" unicode="&#xd6;" 
d="M150 1080q62 0 106 -44t44 -106q0 -39 -20 -74l101 -100l-66 -66l-103 104q-8 -4 -16 -7v-7h-92v8q-43 14 -73.5 55.5t-30.5 86.5q0 62 44 106t106 44v0zM150 1005q-31 0 -53 -22t-22 -53t22 -53t53 -22q20 0 37.5 10t27.5 27.5t10 37.5q0 31 -22 53t-53 22zM104 730h92
v-100h-92v100zM452 685l70 -70l-65 -66l-71 71zM593 544l71 -71l-66 -66l-71 71zM104 530h92v-100h-92v100zM735 402l70 -70l-65 -66l-71 71zM104 330h92v-100h-92v100zM876 261l100 -100q35 19 74 19q62 0 106 -44t44 -106t-44 -106t-106 -44q-30 0 -59.5 14t-51.5 37.5
t-32 52.5h-7v92h8q2 8 6 16l-104 103zM104 180h92v-8q30 -9 58.5 -37.5t38.5 -58.5h7v-92h-8q-14 -43 -55.5 -73.5t-86.5 -30.5q-62 0 -106 44t-44 106q0 45 30.5 87t73.5 56v7zM150 105q-31 0 -53 -22t-22 -53t22 -53t53 -22q20 0 37.5 10t27.5 27.5t10 37.5q0 31 -22 53
t-53 22zM1050 105q-31 0 -53 -22t-22 -53t22 -53t53 -22t53 22t22 53q0 20 -10 37.5t-27.5 27.5t-37.5 10zM350 76h100v-92h-100v92zM550 76h100v-92h-100v92zM750 76h100v-92h-100v92z" />
    <glyph glyph-name="multiply" unicode="&#xd7;" 
d="M150 1080q62 0 106 -44t44 -106q0 -39 -20 -74l696 -695q35 19 74 19q62 0 106 -44t44 -106t-44 -106t-106 -44q-30 0 -59.5 14t-51.5 37.5t-32 52.5h-615q-14 -43 -55.5 -73.5t-86.5 -30.5q-62 0 -106 44t-44 106q0 45 30.5 87t73.5 56v615q-43 14 -73.5 55.5
t-30.5 86.5q0 62 44 106t106 44zM150 1005q-31 0 -53 -22t-22 -53t22 -53t53 -22q20 0 37.5 10t27.5 27.5t10 37.5q0 31 -22 53t-53 22zM212 794q-8 -4 -16 -7v-615q30 -9 58.5 -37.5t38.5 -58.5h615q2 8 6 16zM150 105q-31 0 -53 -22t-22 -53t22 -53t53 -22q20 0 37.5 10
t27.5 27.5t10 37.5q0 31 -22 53t-53 22zM1050 105q-31 0 -53 -22t-22 -53t22 -53t53 -22t53 22t22 53q0 20 -10 37.5t-27.5 27.5t-37.5 10zM1176 994q24 0 24 -24.5t-24 -24.5h-453q-23 0 -23 24.5t23 24.5h67v25q0 25 14.5 43t33.5 18h223q21 0 35 -18t14 -43v-25h66z
M814 994h272v25q0 36 -25 36h-223q-24 0 -24 -36v-25zM1164 882l-62 -464h-306l-61 464h429zM863 452q18 4 18 23l-38 356q-5 22 -23 19q-18 0 -18 -21l39 -359q0 -18 19 -18h3zM970 831q0 19 -20.5 19t-20.5 -19v-359q0 -20 20.5 -20t20.5 20v359zM1097 829q0 21 -17 21
q-19 3 -22 -19l-39 -356q0 -19 18 -23h1q21 0 21 18z" />
    <glyph glyph-name="Oslash" unicode="&#xd8;" 
d="M150 1080q62 0 106 -44t44 -106q0 -39 -20 -74l696 -695q35 19 74 19q62 0 106 -44t44 -106t-44 -106t-106 -44q-30 0 -59.5 14t-51.5 37.5t-32 52.5h-615q-14 -43 -55.5 -73.5t-86.5 -30.5q-62 0 -106 44t-44 106q0 45 30.5 87t73.5 56v615q-43 14 -73.5 55.5
t-30.5 86.5q0 62 44 106t106 44zM150 1005q-31 0 -53 -22t-22 -53t22 -53t53 -22q20 0 37.5 10t27.5 27.5t10 37.5q0 31 -22 53t-53 22zM212 794q-8 -4 -16 -7v-615q30 -9 58.5 -37.5t38.5 -58.5h615q2 8 6 16zM150 105q-31 0 -53 -22t-22 -53t22 -53t53 -22q20 0 37.5 10
t27.5 27.5t10 37.5q0 31 -22 53t-53 22zM1050 105q-31 0 -53 -22t-22 -53t22 -53t53 -22t53 22t22 53q0 20 -10 37.5t-27.5 27.5t-37.5 10zM1160 789h-419q-16 0 -28.5 12t-12.5 29t12.5 29t28.5 12h419q17 0 28.5 -12t11.5 -29t-11.5 -29t-28.5 -12z" />
    <glyph glyph-name="Ugrave" unicode="&#xd9;" 
d="M741 789q-17 0 -29 12t-12 29.5t12 28.5t29 11h167v170q0 16 12.5 28t29.5 12t29 -12t12 -28v-170h169q16 0 28 -11t12 -28.5t-12 -29.5t-28 -12h-169v-169q0 -17 -12 -28.5t-29 -11.5t-29.5 11.5t-12.5 28.5v169h-167zM150 1080q62 0 106 -44t44 -106q0 -39 -20 -74
l696 -695q35 19 74 19q62 0 106 -44t44 -106t-44 -106t-106 -44v0q-45 0 -87 30.5t-56 73.5h-615q-14 -43 -55.5 -73.5t-86.5 -30.5q-62 0 -106 44t-44 106q0 45 30.5 87t73.5 56v615q-43 14 -73.5 55.5t-30.5 86.5q0 62 44 106t106 44zM150 1005q-31 0 -53 -22t-22 -53
t22 -53t53 -22v0q20 0 37.5 10t27.5 27.5t10 37.5t-10 37.5t-27.5 27.5t-37.5 10v0zM212 794q-8 -4 -16 -7v-615q30 -9 58.5 -37.5t38.5 -58.5h615q2 8 6 16zM150 105q-31 0 -53 -22t-22 -53t22 -53t53 -22v0q20 0 37.5 10t27.5 27.5t10 37.5t-10 37.5t-27.5 27.5t-37.5 10
v0zM1050 105q-31 0 -53 -22t-22 -53t22 -53t53 -22v0q20 0 37.5 10t27.5 27.5t10 37.5q0 31 -22 53t-53 22v0z" />
    <glyph glyph-name="Uacute" unicode="&#xda;" 
d="M773 949q-12 12 -11.5 29t12.5 29t28.5 12t28.5 -12l118 -119l120 120q12 12 29 11.5t29 -12.5t12 -29t-12 -29l-119 -119l119 -120q11 -11 11.5 -27.5t-11.5 -29t-29 -12t-28 11.5l-120 119l-119 -119q-12 -13 -29 -12.5t-29 13t-12.5 29t11.5 29.5l120 119zM150 1080
q62 0 106 -44t44 -106q0 -39 -20 -74l696 -695q35 19 74 19q62 0 106 -44t44 -106t-44 -106t-106 -44v0q-45 0 -87 30.5t-56 73.5h-615q-14 -43 -55.5 -73.5t-86.5 -30.5q-62 0 -106 44t-44 106q0 45 30.5 87t73.5 56v615q-43 14 -73.5 55.5t-30.5 86.5q0 62 44 106t106 44z
M150 1005q-31 0 -53 -22t-22 -53t22 -53t53 -22v0q20 0 37.5 10t27.5 27.5t10 37.5t-10 37.5t-27.5 27.5t-37.5 10v0zM212 794q-8 -4 -16 -7v-615q30 -9 58.5 -37.5t38.5 -58.5h615q2 8 6 16zM150 105q-31 0 -53 -22t-22 -53t22 -53t53 -22v0q20 0 37.5 10t27.5 27.5
t10 37.5t-10 37.5t-27.5 27.5t-37.5 10v0zM1050 105q-31 0 -53 -22t-22 -53t22 -53t53 -22v0q20 0 37.5 10t27.5 27.5t10 37.5q0 31 -22 53t-53 22v0z" />
    <glyph glyph-name="Ucircumflex" unicode="&#xdb;" 
d="M536 1080h-272v0l272 -272v-656l-272 -272v0h272h-271l271 272v656l-271 272h271v0zM664 -120h272v0l-272 272v656l272 272v0h-272h271l-271 -272v-656l271 -272h-271v0zM536 1080h128h272l-272 -272v-656l272 -272h-272h-128h-272l272 272v656l-272 272h272z" />
    <glyph glyph-name="Udieresis" unicode="&#xdc;" 
d="M128 -120h272v0l-272 272v656l272 272v0h-272h271l-271 -272v-656l271 -272h-271zM128 1080h-128v-1200h128h-128v1200h128zM1072 -120h128v1200h-128h128v-1200h-128zM1072 1080h-272v0l272 -272v-656l-272 -272v0h272h-271l271 272v656l-271 272h271zM1072 -120h128
v1200h-128h128v-1200h-128zM1072 1080h-272v0l272 -272v-656l-272 -272v0h272h-271l271 272v656l-271 272h271zM0 1080h128h272l-272 -272v-656l272 -272h-272h-128v1200zM1072 1080h128v-1200h-128h-272l272 272v656l-272 272h272z" />
    <glyph glyph-name="Yacute" unicode="&#xdd;" 
d="M0 480v600h600h600v-600v-600h-600h-600v600zM237 -1v61h-61h-60v-61v-61h60h61v61zM1084 -1v61h-60h-61v-61v-61h61h60v61zM237 240v64l-59 -2l-59 -2l-2 -54q-2 -54 1.5 -62.5t60.5 -8.5h58v65zM1081 239v61l-59 2l-59 2v-65v-64l59 2l59 1v61zM836 484q-5 4 -180 120
l-175 117v-241v-241l180 120q49 33 89.5 61t63.5 45t22 19zM237 480v61h-61h-60v-61v-61h60h61v61zM1084 480v61h-60h-61v-61v-61h61h60v61zM237 721v64l-59 -2l-59 -1l-2 -54q-2 -54 1.5 -63t60.5 -9h58v65zM1081 721v61l-59 1l-59 2v-64v-65l59 2l59 2v61zM237 961v61h-61
h-60v-61v-61h60h61v61zM1084 961v61h-60h-61v-61v-61h61h60v61z" />
    <glyph glyph-name="Thorn" unicode="&#xde;" 
d="M528 -120h272v0l-272 272v656l272 272v0h-272h271l-271 -272v-656l271 -272h-271zM528 1080h-128v-1200h128h-128v1200h128zM400 1080h128h272l-272 -272v-656l272 -272h-272h-128v1200z" />
    <glyph glyph-name="germandbls" unicode="&#xdf;" 
d="M672 -120h128v1200h-128h128v-1200h-128zM672 1080h-272v0l272 -272v-656l-272 -272v0h272h-271l271 272v656l-271 272h271zM672 1080h128v-1200h-128h-272l272 272v656l-272 272h272z" />
    <glyph glyph-name="agrave" unicode="&#xe0;" 
d="M536 1080v-204h128v204h-128zM536 1080h128v-204h-128v204zM536 748v-204h128v204h-128zM536 748h128v-204h-128v204zM536 416v-204h128v204h-128zM536 416h128v-204h-128v204zM536 84v-204h128v204h-128zM536 84h128v-204h-128v204zM536 748v-204h128v204h-128zM536 748
h128v-204h-128v204zM536 416v-204h128v204h-128zM536 416h128v-204h-128v204zM536 84v-204h128v204h-128zM536 84h128v-204h-128v204zM536 416v-204h128v204h-128zM536 416h128v-204h-128v204zM536 84v-204h128v204h-128zM536 84h128v-204h-128v204zM536 84v-204h128v204
h-128zM536 84h128v-204h-128v204zM536 1080h128v-204h-128v204zM536 748h128v-204h-128v204zM536 416h128v-204h-128v204zM536 84h128v-204h-128v204z" />
    <glyph glyph-name="aacute" unicode="&#xe1;" 
d="M600 1080q163 0 301 -80.5t218.5 -218.5t80.5 -301t-80.5 -301t-218.5 -218.5t-301 -80.5t-301 80.5t-218.5 218.5t-80.5 301t80.5 301t218.5 218.5t301 80.5zM643 974v-133h296q-52 49 -138.5 88t-157.5 45zM557 974q-71 -6 -158 -45t-139 -88h297v133zM187 755
q-29 -43 -52.5 -110.5t-28.5 -119.5h451v230h-370zM643 755v-230h451q-5 52 -29 119.5t-52 110.5h-370zM106 435q5 -52 29 -119.5t52 -110.5h370v230h-451zM643 435v-230h370q29 43 52.5 110.5t28.5 119.5h-451zM261 119q52 -49 138.5 -88t157.5 -45v133h-296v0zM643 119
v-133q71 6 158 45t139 88h-297z" />
    <glyph glyph-name="acircumflex" unicode="&#xe2;" 
d="M600 1081q163 0 301.5 -80.5t219 -219t80.5 -301.5t-81 -302q-11 -18 -23 -37q-23 22 -44 39q-6 3 -17 7.5t-17 6.5q16 31 25 65q11 26 22 56q24 68 29 120h-61q-14 41 -40 74l-12 16h113q-5 52 -29 119.5t-53 110.5h-370v-138q-47 -19 -86 -51v189h-370
q-29 -43 -53 -110.5t-29 -119.5h411q-35 -41 -53 -90h-358q5 -52 29 -119.5t53 -110.5h286q23 -50 59 -87h-272q52 -49 139 -88t158 -45v111q38 -31 86 -49v-62q71 6 158 45q3 2 9 4q8 2 17 5q30 8 58 22q18 -49 53 -78q-18 -12 -36 -23q-139 -81 -302 -81t-301.5 80.5
t-219 219t-80.5 301.5t80.5 301.5t219 219t301.5 80.5zM643 975v-133h297q-52 49 -139 88t-158 45zM557 975q-71 -6 -158 -45t-139 -88h297v133zM749 580q49 0 94 -19.5t80 -55.5q37 -35 55 -80t18 -93t-18 -93.5t-55 -81.5q-35 -36 -80 -54.5t-94 -18.5q-51 0 -95.5 18.5
t-78.5 54.5q-37 36 -55.5 81.5t-18.5 93.5t18.5 93t55.5 80q34 36 78.5 55.5t95.5 19.5zM749 513q-38 0 -70.5 -14t-56.5 -41q-27 -26 -40.5 -59t-13.5 -68t13.5 -68t40.5 -59q24 -26 56.5 -39t70.5 -13q36 0 68.5 13t58.5 39t39 59t13 68t-13 68t-39 59q-26 27 -58.5 41
t-68.5 14zM976 152l55 -23l169 -169l-80 -80l-169 170l-23 55z" />
    <glyph glyph-name="atilde" unicode="&#xe3;" 
d="M950 1080q17 0 29 -12t12 -28v-170h169q16 0 28 -11t12 -28.5t-12 -29.5t-28 -12h-169v-169q0 -17 -12 -28.5t-29 -11.5t-29.5 11.5t-12.5 28.5v169h-167q-17 0 -29 12t-12 29.5t12 28.5t29 11h167v170q0 16 12.5 28t29.5 12zM36 634h6h250q33 0 43 -28q2 -6 2 -12.5
t1 -12.5t2 -11t4 -10q11 -18 34 -18q3 -2 5.5 -2.5t3.5 -0.5h510q13 0 22.5 -3.5t16.5 -15.5q2 -4 4 -8.5t2 -11.5q2 -11 1 -21t-1 -19v-5h-714q-30 0 -51.5 -18.5t-25.5 -45.5l-151 -361v565q0 15 9.5 25.5t26.5 13.5zM254 350h704h142l-199 -467l-2 -3h-844l198 468z" />
    <glyph glyph-name="uni2000" unicode="&#x2000;" horiz-adv-x="650" 
 />
    <glyph glyph-name="uni2001" unicode="&#x2001;" horiz-adv-x="1300" 
 />
    <glyph glyph-name="uni2002" unicode="&#x2002;" horiz-adv-x="650" 
 />
    <glyph glyph-name="uni2003" unicode="&#x2003;" horiz-adv-x="1300" 
 />
    <glyph glyph-name="uni2004" unicode="&#x2004;" horiz-adv-x="433" 
 />
    <glyph glyph-name="uni2005" unicode="&#x2005;" horiz-adv-x="325" 
 />
    <glyph glyph-name="uni2006" unicode="&#x2006;" horiz-adv-x="216" 
 />
    <glyph glyph-name="uni2007" unicode="&#x2007;" horiz-adv-x="216" 
 />
    <glyph glyph-name="uni2008" unicode="&#x2008;" horiz-adv-x="162" 
 />
    <glyph glyph-name="uni2009" unicode="&#x2009;" horiz-adv-x="260" 
 />
    <glyph glyph-name="uni200A" unicode="&#x200a;" horiz-adv-x="72" 
 />
    <glyph glyph-name="uni202F" unicode="&#x202f;" horiz-adv-x="260" 
 />
    <glyph glyph-name="uni205F" unicode="&#x205f;" horiz-adv-x="325" 
 />
    <glyph glyph-name="Euro" unicode="&#x20ac;" 
d="M712 1128q242 0 354 -189q60 -104 66 -209h-181q0 45 -17.5 82.5t-43.5 61.5t-58 40.5t-60.5 24t-51.5 7.5q-19 0 -40.5 -5.5t-49.5 -20.5t-53 -38t-49 -62.5t-39 -89.5h379l-100 -100h-300q-6 -50 -6 -100h406l-100 -100h-300q9 -74 33 -132t52.5 -91t61.5 -54.5t59 -29
t47 -7.5q22 0 50.5 7.5t60.5 24.5t58 41t43.5 61t17.5 80h174q-30 -171 -128 -278q-107 -117 -274 -117q-206 0 -324 158q-36 48 -69 133t-45 204h-217l100 100h112q1 47 6 100h-218l100 100h134q20 87 51 153.5t62 103.5q117 141 297 141z" />
    <glyph glyph-name="uni20BD" unicode="&#x20bd;" 
d="M418 1130h350q67 0 120 -13t86 -31t57 -49.5t35 -56.5t17 -64.5t6.5 -60.5t0.5 -57v-16v-17q0 -36 -0.5 -57t-6.5 -61t-17 -65t-35 -57t-57 -50.5t-86 -31.5t-120 -13h-178l-2 -100h288q10 0 13 -6t-3 -14l-120 -160q-6 -8 -18 -14t-22 -6h-138v-175q0 -11 -5.5 -18
t-15.5 -7h-149q-10 0 -17.5 7.5t-7.5 17.5v175h-267q-10 0 -13 6t3 14l120 160q6 8 18 14t22 6h117v100h-267q-10 0 -13 6t3 14l120 160q6 8 18 14t22 6h117v475q0 10 7.5 17.5t17.5 7.5zM590 930v-300h203q64 0 86.5 33t22.5 119q0 84 -22.5 116t-86.5 32h-203z" />
    <glyph glyph-name="minus" unicode="&#x2212;" 
d="M1065 401h-929q-36 0 -63.5 26t-27.5 64.5t27.5 64.5t63.5 26h929q38 0 64 -26t26 -64.5t-26 -64.5t-64 -26z" />
    <glyph glyph-name="uni231B" unicode="&#x231b;" 
d="M993 1045q-9 -138 -75.5 -286t-166.5 -222q100 -80 166.5 -231t75.5 -287h100v-88h-987v88h103q8 136 74.5 287t164.5 231q-98 74 -164.5 222t-74.5 286h-103v83h987v-83h-100zM483 799l117 -209l118 209h-235zM600 450l-219 -339h440z" />
    <glyph glyph-name="uni25FC" unicode="&#x25fc;" horiz-adv-x="500" 
 />
    <glyph glyph-name="uni2601" unicode="&#x2601;" 
d="M1203 408q32 -121 -40 -225q-51 -72 -145 -90h-33h-384q-387 -3 -387 0q-151 0 -215 134q-34 71 -18.5 148t71.5 128q37 34 106 51l14 5q-22 115 61 176q44 27 99 29t112 -39q29 53 47 77q68 80 182 96q307 22 356 -243q6 -36 0 -75q-8 -7 4 -7q135 -41 170 -165z" />
    <glyph glyph-name="uni26FA" unicode="&#x26fa;" 
d="M789 1063l-136 -187l467 -746h30q20 0 35 -18.5t15 -39.5v-42h-1200v42q0 21 15 39.5t35 18.5h30l468 746l-135 183q-10 16 -5.5 34t20.5 28t34 5.5t28 -20.5l111 -148l112 150q9 16 27 20.5t34 -5t20.5 -27t-5.5 -33.5zM600 130h377l-182 112l-195 534v-646z" />
    <glyph glyph-name="uni2709" unicode="&#x2709;" 
d="M852 438q-2 -25 18 -52l262 -258h-553h-379h-131l260 253q36 36 11 74q-14 21 -41.5 24t-46.5 -14l-262 -256v365v126v135l570 -472q31 -34 76 -5l574 468v-613l-259 252q-26 25 -59 17q-30 -8 -40 -44zM596 476l-522 434h176h882z" />
    <glyph glyph-name="uni270F" unicode="&#x270f;" 
d="M1197 868l-647 -644l-555 -283l291 566l636 636zM517 315q-5 12 -12.5 23.5t-18 20t-24.5 13.5t-33 3q3 20 -1 34.5t-12.5 25.5t-20 18t-23.5 12l-16 -17l-118 -232q7 -5 19 -15q9 -9 13 -18l233 119zM1017 962l-73 71l-522 -522q21 -7 35 -18.5t22 -23.5q10 -14 15 -29z
" />
    <glyph glyph-name="uniE001" unicode="&#xe001;" 
d="M700 580v-550h250q21 0 35.5 -14.5t14.5 -35.5v-50h-800v50q0 21 14.5 35.5t35.5 14.5h250v550l-500 550h1200z" />
    <glyph glyph-name="uniE002" unicode="&#xe002;" 
d="M420 947l645 163q39 15 63 0t24 -49v-831q0 -55 -41.5 -95.5t-111.5 -63.5q-79 -25 -147 -4.5t-86 75t25.5 111.5t122.5 82q72 24 138 8v521l-600 -155v-606q0 -42 -44 -90t-109 -69q-79 -26 -147 -5.5t-86 75.5t25.5 111.5t122.5 82.5q72 24 138 7v639q0 38 14.5 59
t53.5 34z" />
    <glyph glyph-name="uniE003" unicode="&#xe003;" 
d="M424 230q-88 0 -165.5 31.5t-136.5 93.5q-63 63 -95 142t-32 161.5t32 160.5t95 140q59 62 136.5 95.5t165.5 33.5q85 0 162.5 -33.5t139.5 -95.5q63 -62 94.5 -140t31.5 -160.5t-31.5 -161.5t-94.5 -142q-62 -62 -139.5 -93.5t-162.5 -31.5zM424 972q-66 0 -122 -24.5
t-98 -70.5q-47 -45 -70.5 -102.5t-23.5 -117.5t23.5 -117.5t70.5 -102.5q42 -45 98 -67.5t122 -22.5q62 0 118.5 22.5t101.5 67.5t67.5 102.5t22.5 117.5t-22.5 117.5t-67.5 102.5q-45 46 -101.5 70.5t-118.5 24.5zM1205 15l-293 292l-95 40l-83 -82l40 -95l292 -294z" />
    <glyph glyph-name="uniE005" unicode="&#xe005;" 
d="M600 10q-338 243 -472 511q-56 117 -11.5 246t166.5 177q60 25 109.5 19t83.5 -20.5t66.5 -43.5t42 -41t15.5 -17l37 43q41 44 112.5 67.5t165.5 -9.5q124 -46 168 -175t-13 -246q-127 -265 -470 -511z" />
    <glyph glyph-name="uniE006" unicode="&#xe006;" 
d="M775 738l404 -65l-292 -281l69 -395l-357 191l-356 -187l71 396l-293 281l404 60l178 360z" />
    <glyph glyph-name="uniE007" unicode="&#xe007;" 
d="M490 703l-19 -35l-38 -4l-247 -37l179 -176l25 -29l-6 -36l-43 -250l226 116l31 20l35 -20l225 -116l-41 250l-9 36l28 29l180 176l-249 37l-37 4l-20 33l-112 229zM776 733l396 -55l-286 -281l66 -394l-354 187l-353 -187l68 395l-286 280l398 60l173 355z" />
    <glyph glyph-name="uniE008" unicode="&#xe008;" 
d="M879 848q0 -119 -85 -222.5t-194.5 -103.5t-194 103.5t-84.5 222.5q0 115 83 197t196 82t196 -82t83 -197zM38 -70q0 145 159 277.5t402 132.5t402.5 -132.5t159.5 -277.5h-1123z" />
    <glyph glyph-name="uniE009" unicode="&#xe009;" 
d="M25 1030h1150q10 0 17.5 -7.5t7.5 -17.5v-1050q0 -10 -7.5 -17.5t-17.5 -7.5h-1150q-10 0 -17.5 7.5t-7.5 17.5v1050q0 10 7.5 17.5t17.5 7.5zM100 930v-100h100v100h-100zM875 930h-550q-10 0 -17.5 -7.5t-7.5 -17.5v-350q0 -10 7.5 -17.5t17.5 -7.5h550q10 0 17.5 7.5
t7.5 17.5v350q0 10 -7.5 17.5t-17.5 7.5zM1000 930v-100h100v100h-100zM100 730v-100h100v100h-100zM1000 730v-100h100v100h-100zM100 530v-100h100v100h-100zM1000 530v-100h100v100h-100zM875 430h-550q-10 0 -17.5 -7.5t-7.5 -17.5v-350q0 -10 7.5 -17.5t17.5 -7.5h550
q10 0 17.5 7.5t7.5 17.5v350q0 10 -7.5 17.5t-17.5 7.5zM100 330v-100h100v100h-100zM1000 330v-100h100v100h-100zM100 130v-100h100v100h-100zM1000 130v-100h100v100h-100z" />
    <glyph glyph-name="uniE010" unicode="&#xe010;" 
d="M48 1022h511v-506h-511v506zM641 1022h510v-506h-510v506zM48 438h511v-508h-511v508zM641 438h510v-508h-510v508z" />
    <glyph glyph-name="uniE011" unicode="&#xe011;" 
d="M35 1022h521v-296h-521v296zM644 1022h521v-296h-521v296zM35 626h521v-296h-521v296zM644 626h521v-296h-521v296zM35 227h521v-292h-521v292zM644 227h521v-292h-521v292z" />
    <glyph glyph-name="uniE012" unicode="&#xe012;" 
d="M42 972h114v-112h-114v112zM331 972h826v-112h-826v112zM42 674h114v-114h-114v114zM331 674h826v-114h-826v114zM42 374h114v-114h-114v114zM331 374h826v-114h-826v114zM42 73h114v-112h-114v112zM331 73h826v-112h-826v112z" />
    <glyph glyph-name="uniE013" unicode="&#xe013;" 
d="M559 -51l-497 480q-33 31 -35 78.5t30 82.5q35 38 82.5 38t85.5 -35l296 -285l435 638q27 42 76.5 50t87.5 -19t46.5 -73.5t-17.5 -88.5z" />
    <glyph glyph-name="uniE014" unicode="&#xe014;" 
d="M1090 182q73 -69 7 -152q-83 -81 -158 -5l-339 308l-338 -316q-33 -21 -77 -21t-81 34q-67 83 5 152l328 295l-328 295q-72 69 -5 151q81 81 158 7l338 -308l339 316q32 22 75 22t83 -37q66 -82 -7 -151l-327 -295z" />
    <glyph glyph-name="uniE015" unicode="&#xe015;" 
d="M424 230q-88 0 -165.5 32t-136.5 93q-63 61 -95 139.5t-32 161t32 162t95 142.5q59 61 136.5 92.5t165.5 31.5q85 0 162.5 -31.5t139.5 -92.5q63 -63 94.5 -142.5t31.5 -162t-31.5 -161t-94.5 -139.5q-62 -61 -139.5 -93t-162.5 -32zM424 968q-66 0 -122 -22.5t-98 -68.5
q-47 -45 -70.5 -102.5t-23.5 -117.5t23.5 -117t70.5 -102q42 -46 98 -68.5t122 -22.5q62 0 118.5 22.5t101.5 68.5q45 45 67.5 102t22.5 117t-22.5 117.5t-67.5 102.5q-45 46 -101.5 68.5t-118.5 22.5zM1205 11l-293 297l-95 35l-83 -79l40 -95l292 -297zM601 627h-341
q-14 0 -22 8.5t-8 21.5q0 14 8 22t22 8h341q13 0 21.5 -8t8.5 -22q0 -13 -8.5 -21.5t-21.5 -8.5zM428 459q-13 0 -21.5 8t-8.5 18v345q0 10 8.5 17.5t21.5 7.5t22 -7.5t9 -17.5v-345q0 -10 -9 -18t-22 -8z" />
    <glyph glyph-name="uniE016" unicode="&#xe016;" 
d="M424 230q-88 0 -165.5 31.5t-136.5 93.5q-63 63 -95 142t-32 161.5t32 160.5t95 140q59 62 136.5 95.5t165.5 33.5q85 0 162.5 -33.5t139.5 -95.5q63 -62 94.5 -140t31.5 -160.5t-31.5 -161.5t-94.5 -142q-62 -62 -139.5 -93.5t-162.5 -31.5zM424 972q-66 0 -122 -24.5
t-98 -70.5q-47 -45 -70.5 -102.5t-23.5 -117.5t23.5 -117.5t70.5 -102.5q42 -45 98 -67.5t122 -22.5q62 0 118.5 22.5t101.5 67.5t67.5 102.5t22.5 117.5t-22.5 117.5t-67.5 102.5q-45 46 -101.5 70.5t-118.5 24.5zM1205 15l-293 292l-95 40l-83 -82l40 -95l292 -294z
M601 627h-341q-14 0 -22 8.5t-8 21.5q0 14 8 22t22 8h341q13 0 21.5 -8t8.5 -22q0 -13 -8.5 -21.5t-21.5 -8.5z" />
    <glyph glyph-name="uniE017" unicode="&#xe017;" 
d="M46 470q0 150 75.5 280t204.5 200l59 -109q-101 -57 -159 -157t-58 -214q0 -183 127 -308t306 -125t306 125t127 308q0 114 -58 214t-158 157l59 109q127 -70 202 -200t75 -280q0 -230 -163.5 -392t-390.5 -162t-390.5 162t-163.5 392zM538 612v411q0 26 19 44t44.5 18
t44.5 -18t19 -44v-411q0 -27 -19 -43t-44.5 -16t-44.5 16t-19 43z" />
    <glyph glyph-name="uniE018" unicode="&#xe018;" 
d="M511 -15q0 -50 -48 -50h-61q-46 0 -46 50v367q0 53 46 53h61q48 0 48 -53v-367zM177 -15q0 -50 -51 -50h-57q-20 0 -35.5 16t-15.5 34v243q0 21 15.5 35.5t35.5 14.5h57q51 0 51 -50v-243zM847 -15q0 -50 -48 -50h-62q-45 0 -45 50v624q0 49 45 49h62q48 0 48 -49v-624z
M1022 1049q0 51 53 51h57q20 0 35 -16t15 -35v-1064q0 -18 -15 -34t-35 -16h-57q-53 0 -53 50v1064z" />
    <glyph glyph-name="uniE019" unicode="&#xe019;" 
d="M1173 594q10 -62 0 -129q0 -32 -33 -32l-6 4q-85 0 -119 -81q-32 -82 34 -143q22 -20 4 -43q-43 -50 -94 -95q-23 -20 -43 6q-64 65 -144.5 31t-80.5 -123q0 -30 -28 -30q-45 -8 -63 -8q-19 0 -67 8q-29 0 -29 34q7 88 -77 123q-88 36 -145 -35q-20 -18 -44 -3
q-53 52 -90 95q-20 26 4 43q63 62 29 144q-35 85 -115 77q-39 0 -39 30q-10 65 0 132q0 29 34 29q91 0 124 79q35 82 -29 144q-28 18 -8 43q61 67 94 94q24 19 44 -8q63 -62 144 -28.5t81 122.5q0 31 26 31q63 10 130 0q30 0 30 -34q-6 -91 78 -125q88 -36 144 34
q21 19 43 5q53 -52 91 -95q20 -28 -4 -43q-63 -62 -30 -144q28 -77 119 -77q35 0 35 -32zM600 337q80 0 138 56.5t58 138.5q0 77 -58 133.5t-138 56.5q-77 0 -133.5 -56.5t-56.5 -133.5q0 -82 56.5 -138.5t133.5 -56.5z" />
    <glyph glyph-name="uniE020" unicode="&#xe020;" 
d="M1009 925q44 0 44 -44.5t-44 -44.5h-820q-42 0 -42 44.5t42 44.5h121v44q0 46 26 78.5t61 32.5h404q39 0 64.5 -32.5t25.5 -78.5v-44h118zM353 925h494v44q0 66 -46 66h-404q-44 0 -44 -66v-44zM988 721l-113 -841h-554l-111 841h778zM442 -59q33 7 33 42l-69 645
q-9 41 -42 35q-32 0 -32 -38l71 -652q0 -32 33 -32h6zM637 628q0 35 -37.5 35t-37.5 -35v-650q0 -37 37.5 -37t37.5 37v650zM866 625q0 38 -30 38q-35 6 -40 -35l-70 -645q0 -35 32 -42h2q38 0 38 32z" />
    <glyph glyph-name="uniE021" unicode="&#xe021;" 
d="M1116 -66h-356v556h-321v-556h-355v747l515 455l517 -455v-747z" />
    <glyph glyph-name="uniE022" unicode="&#xe022;" 
d="M984 810q10 -10 10 -24v-676q0 -44 -26.5 -76t-69.5 -41q-6 -2 -12.5 -2.5t-13.5 -0.5h-559q-49 0 -81.5 29t-40.5 77v13v432v430q0 42 27 75t68 41q7 2 14 2h14h373q11 0 22 -8q69 -69 137.5 -136t137.5 -135zM947 777q3 0 9 -0.5t8 -0.5l-278 272v-23v-132q0 -23 9 -44
t24.5 -37t36 -25.5t44.5 -9.5q37 -1 73.5 -0.5t73.5 0.5z" />
    <glyph glyph-name="uniE023" unicode="&#xe023;" 
d="M269 826q-138 -138 -138 -330.5t139.5 -330.5t331 -138t330 138t138.5 330.5t-138.5 330t-330 137.5t-332.5 -137zM1006 900q173 -167 173 -404.5t-170.5 -408.5t-408 -171t-408.5 171t-171 408.5t171 408.5t408.5 171t405.5 -175zM893 581q15 -45 -29 -59l-248 -86h-5
q-8 -5 -19 -5q-41 0 -41 41v395q0 42 42 42t42 -42v-332l203 68q39 13 55 -22z" />
    <glyph glyph-name="uniE024" unicode="&#xe024;" 
d="M551 -66h-630l131 1096h499v-191h100v191h503l126 -1096h-629v271h-100v-271zM551 386h100v259h-100v-259z" />
    <glyph glyph-name="uniE025" unicode="&#xe025;" 
d="M500 1130h200q21 0 35.5 -14.5t14.5 -35.5v-450h191q20 0 25.5 -11.5t-7.5 -27.5l-327 -400q-13 -16 -32 -16t-32 16l-327 400q-13 16 -7.5 27.5t25.5 11.5h191v450q0 21 14.5 35.5t35.5 14.5zM1075 330h50q10 0 17.5 -7.5t7.5 -17.5v-350q0 -10 -7.5 -17.5t-17.5 -7.5
h-1050q-10 0 -17.5 7.5t-7.5 17.5v350q0 10 7.5 17.5t17.5 7.5h50q10 0 17.5 -7.5t7.5 -17.5v-175h900v175q0 10 7.5 17.5t17.5 7.5z" />
    <glyph glyph-name="uniE026" unicode="&#xe026;" 
d="M601 174l-245 268q-14 17 -14 43t20 45q42 39 79 -8l91 -96v271h126v-285l101 110q40 47 78 8q49 -40 5 -88zM942 138q145 143 145 342t-144 342t-341.5 143t-341.5 -143t-144 -342t144 -342t341.5 -143t340.5 143zM173 54q-174 180 -174 425.5t178.5 423t423 177.5
t422.5 -177.5t178 -423t-178 -422.5t-422.5 -177t-427.5 174z" />
    <glyph glyph-name="uniE027" unicode="&#xe027;" 
d="M599 793l238 -261q13 -16 13 -41q0 -26 -19 -44q-41 -38 -77 8l-88 93v-264h-123v278l-98 -107q-39 -46 -76 -8q-48 39 -5 85zM267 828q-141 -139 -141 -332.5t140 -332.5t332 -139t332 139t140 332.5t-140 332.5t-332 139t-331 -139zM1015 910q169 -175 169 -414
t-173.5 -411.5t-411.5 -172.5t-411 172.5t-173 411.5t173 411t411 172t416 -169z" />
    <glyph glyph-name="uniE028" unicode="&#xe028;" 
d="M1182 388v-327h-1165v327l122 577h921zM869 476h205l-88 401h-774l-87 -401h203v-7v-162q0 -34 22.5 -55t54.5 -21h389q34 0 54.5 21t20.5 55v162v7z" />
    <glyph glyph-name="uniE029" unicode="&#xe029;" 
d="M271 828q-136 -138 -136 -329t138 -327.5t328.5 -136.5t328.5 136.5t138 327.5t-138 328.5t-328.5 137.5t-330.5 -137zM1004 903q172 -169 172 -404.5t-170 -405.5t-406 -170t-406 170t-170 405.5t170 406t406 170.5t404 -172zM486 694l338 -195l-338 -196v391z" />
    <glyph glyph-name="uniE030" unicode="&#xe030;" 
d="M595 29q156 0 280 93.5t166 243.5l113 -35q-52 -183 -209 -299.5t-350 -116.5q-238 0 -408 168.5t-170 408t170 408.5t408 169q285 0 461 -224l17 135q7 58 58 51q20 0 41 -24q11 -13 11 -37l-45 -337l-329 74q-25 2 -37 22t-4 40q10 54 65 43l121 -28q-141 172 -359 172
q-191 0 -325.5 -136.5t-134.5 -327.5t134.5 -327t325.5 -136z" />
    <glyph glyph-name="uniE031" unicode="&#xe031;" 
d="M1171 1004q10 -11 10 -36l-41 -335l-328 74q-24 2 -37 22t-5 40q11 53 67 42l119 -28q-142 171 -357 171q-190 0 -325 -135.5t-135 -324.5h-114q0 239 168 406t406 167q285 0 457 -226l18 136q6 58 59 51q17 0 38 -24zM1176 494q0 -238 -169.5 -406t-407.5 -168
q-281 0 -453 219l-12 -135q-8 -55 -65 -46q-20 0 -32 21q-19 16 -12 36l40 337l329 -73q52 -16 40 -64q-4 -23 -24 -36.5t-41 -5.5l-121 29q138 -168 351 -168q194 0 328 135.5t134 324.5h115z" />
    <glyph glyph-name="uniE032" unicode="&#xe032;" 
d="M383 712q0 -20 -15 -36t-37 -16q-48 0 -48 52q0 51 48 51q52 0 52 -51zM331 415q-48 0 -48 51.5t48 51.5q22 0 37 -15t15 -36t-15 -36.5t-37 -15.5zM383 222q0 -49 -52 -49q-48 0 -48 49q0 51 48 51q22 0 37 -15.5t15 -35.5zM1062 1128v-1207h-924v1207h924zM985 -4v929
h-772v-929h772zM462 751h437v-79h-437v79zM462 505h437v-76h-437v76zM462 264h437v-80h-437v80z" />
    <glyph glyph-name="uniE033" unicode="&#xe033;" 
d="M1007 781q30 0 56 -11t45.5 -30.5t31 -45.5t11.5 -55v-570q0 -30 -11.5 -56t-31 -45.5t-45.5 -30.5t-56 -11h-812q-29 0 -55 11t-45.5 30.5t-30.5 45.5t-11 56v570q0 29 11 55t30.5 45.5t45.5 30.5t55 11h47v146q0 34 11.5 64.5t31 53t46.5 35.5t57 13h427q30 0 57 -13
t46.5 -35.5t31 -53t11.5 -64.5v-146h46zM638 393q17 10 27.5 27t10.5 38q0 32 -21.5 54t-52.5 22q-32 0 -54 -22t-22 -54q0 -21 10.5 -38t27.5 -27l-37 -259h149zM812 927q0 12 -4 16h-413q-2 -2 -3.5 -6t-1.5 -10v-146h422v146z" />
    <glyph glyph-name="uniE034" unicode="&#xe034;" 
d="M125 1030h50q10 0 17.5 -7.5t7.5 -17.5v-1075h-100v1075q0 10 7.5 17.5t17.5 7.5zM1075 982q4 0 9 -2q16 -6 16 -23v-421q0 -6 -3 -12q-33 -59 -66.5 -99t-65.5 -58t-56.5 -24.5t-52.5 -6.5q-26 0 -57.5 6.5t-52.5 13.5t-60 21q-41 15 -63 22.5t-57.5 15t-65.5 7.5
q-85 0 -160 -57q-7 -5 -15 -5q-6 0 -11 3q-14 7 -14 22v438q22 55 82 98.5t119 46.5q23 2 43 0.5t43 -7t32.5 -8.5t38 -13t32.5 -11q41 -14 63.5 -21t57 -14t63.5 -7q103 0 183 87q7 8 18 8z" />
    <glyph glyph-name="uniE035" unicode="&#xe035;" 
d="M1200 505v-300q0 -10 -7.5 -17.5t-17.5 -7.5h-50q-10 0 -17.5 7.5t-7.5 17.5v300q0 127 -70.5 231.5t-184.5 161.5t-245 57t-245 -57t-184.5 -161.5t-70.5 -231.5v-300q0 -10 -7.5 -17.5t-17.5 -7.5h-50q-10 0 -17.5 7.5t-7.5 17.5v300q0 116 49.5 227t131 192.5
t192.5 131t227 49.5t227 -49.5t192.5 -131t131 -192.5t49.5 -227zM220 430h160q8 0 14 -6t6 -14v-460q0 -8 -6 -14t-14 -6h-160q-8 0 -14 6t-6 14v460q0 8 6 14t14 6zM820 430h160q8 0 14 -6t6 -14v-460q0 -8 -6 -14t-14 -6h-160q-8 0 -14 6t-6 14v460q0 8 6 14t14 6z" />
    <glyph glyph-name="uniE036" unicode="&#xe036;" 
d="M373 744l258 172q9 6 15 2.5t6 -13.5v-750q0 -10 -6 -13.5t-15 2.5l-258 172q-21 14 -46 14h-250q-10 0 -17.5 7.5t-7.5 17.5v350q0 10 7.5 17.5t17.5 7.5h250q25 0 46 14zM952 598l120 120q7 7 17 7t17 -7l34 -34q7 -7 7 -17t-7 -17l-120 -120l120 -120q7 -7 7 -17
t-7 -17l-34 -34q-7 -7 -17 -7t-17 7l-120 119l-120 -119q-7 -7 -17 -7t-17 7l-34 34q-7 7 -7 17t7 17l119 120l-119 120q-7 7 -7 17t7 17l34 34q7 8 17 8t17 -8z" />
    <glyph glyph-name="uniE037" unicode="&#xe037;" 
d="M480 744l258 172q9 6 15 2.5t6 -13.5v-750q0 -10 -6 -13.5t-15 2.5l-258 172q-21 14 -46 14h-250q-10 0 -17.5 7.5t-7.5 17.5v350q0 10 7.5 17.5t17.5 7.5h250q25 0 46 14zM925 830h4q10 -1 16 -10q96 -129 96 -290q0 -154 -90 -281q-6 -9 -17 -10l-3 -1q-9 0 -16 6
l-29 23q-7 7 -8.5 16.5t4.5 17.5q72 103 72 229q0 132 -78 238q-6 8 -4.5 18t9.5 17l29 22q7 5 15 5z" />
    <glyph glyph-name="uniE038" unicode="&#xe038;" 
d="M1006 934h3q11 -1 17 -10q135 -179 135 -396q0 -105 -34 -206.5t-98 -185.5q-7 -9 -17 -10h-3q-9 0 -16 6l-42 34q-8 6 -9 16t5 18q111 150 111 328q0 90 -29.5 176t-84.5 157q-6 9 -5 19t10 16l42 33q7 5 15 5zM360 744l258 172q9 6 15 2.5t6 -13.5v-750q0 -10 -6 -13.5
t-15 2.5l-258 172q-21 14 -46 14h-250q-10 0 -17.5 7.5t-7.5 17.5v350q0 10 7.5 17.5t17.5 7.5h250q25 0 46 14zM805 830h4q10 -1 16 -10q96 -129 96 -290q0 -154 -90 -281q-6 -9 -17 -10l-3 -1q-9 0 -16 6l-29 23q-7 7 -8.5 16.5t4.5 17.5q72 103 72 229q0 132 -78 238
q-6 8 -4.5 18.5t9.5 16.5l29 22q7 5 15 5z" />
    <glyph glyph-name="uniE039" unicode="&#xe039;" 
d="M562 563h-565v561h565v-561zM75 642h408v405h-408v-405zM160 963h240v-241h-240v241zM160 320h240v-243h-240v243zM803 963h241v-241h-241v241zM562 -69h-565v565h565v-565zM75 12h408v399h-408v-399zM1204 563h-564v561h564v-561zM720 642h404v405h-404v-405zM644 491
h139v-279h-139v279zM644 75h139v-139h-139v139zM783 212h140v-137h-140v137zM783 352h140v-140h-140v140zM1058 352h141v-140h-141v140zM1058 75h141v-139h-141v139zM644 491h139v-139h-139v139zM923 491h135v-139h-135v139z" />
    <glyph glyph-name="uniE040" unicode="&#xe040;" 
d="M110 -45q0 -21 -21 -21h-45q-16 0 -16 21v1111q0 21 16 21h45q21 0 21 -21v-1111zM565 -45q0 -21 -18 -21h-46q-18 0 -18 21v1111q0 21 18 21h46q18 0 18 -21v-1111zM1020 -45q0 -21 -20 -21h-48q-15 0 -15 21v1111q0 21 15 21h48q20 0 20 -21v-1111zM1172 -45
q0 -21 -17 -21h-45q-19 0 -19 21v1111q0 21 19 21h45q17 0 17 -21v-1111zM889 -45q0 -21 -18 -21h-117q-22 0 -22 21v1111q0 21 22 21h117q18 0 18 -21v-1111zM406 -45q0 -21 -20 -21h-120q-20 0 -20 21v1111q0 21 20 21h120q20 0 20 -21v-1111z" />
    <glyph glyph-name="uniE041" unicode="&#xe041;" 
d="M1060 852l-22 -387l-513 -514l-385 384l516 513zM909 625q52 49 0 96q-18 20 -45.5 20t-45.5 -20q-48 -47 0 -96q46 -48 91 0z" />
    <glyph glyph-name="uniE042" unicode="&#xe042;" horiz-adv-x="1205" 
d="M165 391l-52 55l517 516l410 4l-8 -86l-346 -3h-34l-23 -23zM1069 408l-512 -514l-392 386l521 517l406 5zM839 567q55 -56 112.5 -0.5t0.5 110.5q-58 56 -113 0q-24 -20 -24 -52t24 -58z" />
    <glyph glyph-name="uniE043" unicode="&#xe043;" 
d="M567 174q0 14 -5 31.5t-40.5 45.5t-102.5 28h-396v758h392q66 0 104 -28t43 -50l5 -28v-757zM636 174q0 14 4.5 31.5t42 45.5t102.5 28h401v758h-401q-65 0 -102.5 -28t-40.5 -50l-6 -28v-757zM672 8h-148v38q0 8 -5 22t-33 30t-76 16h-397v74h397q147 0 179 -105h18
q35 105 178 105h401v-74h-401q-47 0 -75 -16t-33 -33l-5 -19v-38z" />
    <glyph glyph-name="uniE044" unicode="&#xe044;" 
d="M1038 -220l-439 412l-438 -412v1347h877v-1347z" />
    <glyph glyph-name="uniE045" unicode="&#xe045;" 
d="M377 231h373v-74h-373v74zM377 379h446v-72h-446v72zM1119 824h-1042q-28 0 -49.5 -19.5t-21.5 -52.5v-445q0 -33 20 -54.5t51 -21.5h151v-297h744v297h147q36 0 55 21.5t19 54.5v445q0 33 -21.5 52.5t-52.5 19.5zM899 7h-599v446h599v-446zM1114 619h-125v124h125v-124z
M980 878h-81v171h-599v-171h-76v252h756v-252z" />
    <glyph glyph-name="uniE046" unicode="&#xe046;" 
d="M732 617q59 -54 59 -134t-56 -135t-135.5 -55t-133.5 55t-54 135t55.5 134.5t132.5 54.5t132 -55zM1197 932v-901h-1195v901h878v106h161v-106h156zM327 482q0 -114 82 -193.5t192.5 -79.5t191 79.5t80.5 193.5q0 111 -80.5 192t-191 81t-192.5 -81t-82 -192z" />
    <glyph glyph-name="uniE047" unicode="&#xe047;" 
d="M1077 1078v-253h-132l-12 131h-254v-902l128 -23v-98h-413v98l130 23v902h-255l-11 -131h-134v253h953z" />
    <glyph glyph-name="uniE048" unicode="&#xe048;" 
d="M618 1079q206 0 319 -79q115 -81 115 -238q0 -82 -43 -144q-41 -62 -123 -95q104 -23 155 -95q53 -72 53 -169q0 -167 -110 -253q-111 -85 -311 -85h-570v139l124 24v831l-124 24v140h124h391zM459 594h167q95 0 143 38q50 39 50 112q0 79 -50 118q-50 38 -151 38h-159
v-306zM459 434v-336h214q93 0 141 42q49 40 49 119q0 82 -42 129q-43 46 -131 46h-231z" />
    <glyph glyph-name="uniE049" unicode="&#xe049;" 
d="M506 1002v102h424v-102l-132 -23l-223 -928l131 -23v-102h-423v102l131 23l224 928z" />
    <glyph glyph-name="uniE050" unicode="&#xe050;" 
d="M1145 -186l-176 196q-12 11 -12 30q0 13 16 30q32 20 60 -5l62 -69v895l-62 -70q-28 -26 -60 -4q-16 15 -16 31q0 18 12 27l176 196l178 -196q30 -27 0 -58q-37 -29 -64 4l-72 78v-913l72 79q27 32 64 5q30 -30 0 -60zM822 1020v-253h-132l-12 131h-254v-902l128 -23v-98
h-413v98l130 23v902h-255l-11 -131h-134v253h953z" />
    <glyph glyph-name="uniE051" unicode="&#xe051;" 
d="M968 113q-23 28 -46 -2q-26 -25 4 -49l64 -63h-776l66 63q29 24 4 49q-25 30 -50 2l-169 -150l169 -153q10 -5 25 -5q11 0 25 11q22 29 -4 53l-57 54h757l-54 -54q-24 -24 -4 -53q11 -11 23 -11q16 0 23 5l167 153zM993 1043v-208h-108l-10 107h-208v-738l105 -18v-80
h-338v80l106 18v738h-209l-8 -107h-110v208h780z" />
    <glyph glyph-name="uniE052" unicode="&#xe052;" 
d="M102 566q-49 0 -49 43v57q0 46 49 46h869q48 0 48 -46v-57q0 -43 -48 -43h-869zM102 876q-49 0 -49 47v57q0 16 15.5 31.5t33.5 15.5h507q20 0 33.5 -15.5t13.5 -31.5v-57q0 -47 -47 -47h-507zM102 248q-49 0 -49 46v57q0 43 49 43h689q44 0 44 -43v-57q0 -46 -44 -46
h-689zM1099 84q47 0 47 -47v-56q0 -17 -14 -32.5t-33 -15.5h-997q-18 0 -33.5 15.5t-15.5 32.5v56q0 47 49 47h997z" />
    <glyph glyph-name="uniE053" unicode="&#xe053;" 
d="M165 564q-47 0 -47 43v57q0 46 47 46h870q46 0 46 -46v-57q0 -43 -46 -43h-870zM343 874q-43 0 -43 47v57q0 47 43 47h514q43 0 43 -47v-57q0 -47 -43 -47h-514zM255 246q-46 0 -46 46v57q0 43 46 43h689q46 0 46 -43v-57q0 -46 -46 -46h-689zM1099 82q47 0 47 -47v-56
q0 -17 -14 -32.5t-33 -15.5h-997q-18 0 -33.5 15.5t-15.5 32.5v56q0 47 49 47h997z" />
    <glyph glyph-name="uniE054" unicode="&#xe054;" 
d="M1099 567h-870q-47 0 -47 43v57q0 46 47 46h870q47 0 47 -46v-57q0 -43 -47 -43zM1099 877h-509q-47 0 -47 47v57q0 16 14.5 31.5t32.5 15.5h509q19 0 33 -15.5t14 -31.5v-57q0 -47 -47 -47zM1099 249h-691q-45 0 -45 46v57q0 43 45 43h691q47 0 47 -43v-57
q0 -46 -47 -46zM102 85h997q47 0 47 -47v-56q0 -17 -14 -32.5t-33 -15.5h-997q-18 0 -33.5 15.5t-15.5 32.5v56q0 47 49 47z" />
    <glyph glyph-name="uniE055" unicode="&#xe055;" 
d="M1099 84q47 0 47 -47v-56q0 -17 -14 -32.5t-33 -15.5h-997q-18 0 -33.5 15.5t-15.5 32.5v56q0 47 49 47h997zM1099 394q47 0 47 -43v-57q0 -46 -47 -46h-997q-49 0 -49 46v57q0 43 49 43h997zM1099 712q47 0 47 -46v-57q0 -43 -47 -43h-997q-49 0 -49 43v57q0 46 49 46
h997zM1099 1027q19 0 33 -15.5t14 -31.5v-57q0 -47 -47 -47h-997q-49 0 -49 47v57q0 16 15.5 31.5t33.5 15.5h997z" />
    <glyph glyph-name="uniE056" unicode="&#xe056;" 
d="M50 1030h100q21 0 35.5 -14.5t14.5 -35.5v-100q0 -21 -14.5 -35.5t-35.5 -14.5h-100q-21 0 -35.5 14.5t-14.5 35.5v100q0 21 14.5 35.5t35.5 14.5zM350 1030h800q21 0 35.5 -14.5t14.5 -35.5v-100q0 -21 -14.5 -35.5t-35.5 -14.5h-800q-21 0 -35.5 14.5t-14.5 35.5v100
q0 21 14.5 35.5t35.5 14.5zM50 730h100q21 0 35.5 -14.5t14.5 -35.5v-100q0 -21 -14.5 -35.5t-35.5 -14.5h-100q-21 0 -35.5 14.5t-14.5 35.5v100q0 21 14.5 35.5t35.5 14.5zM350 730h800q21 0 35.5 -14.5t14.5 -35.5v-100q0 -21 -14.5 -35.5t-35.5 -14.5h-800
q-21 0 -35.5 14.5t-14.5 35.5v100q0 21 14.5 35.5t35.5 14.5zM50 430h100q21 0 35.5 -14.5t14.5 -35.5v-100q0 -21 -14.5 -35.5t-35.5 -14.5h-100q-21 0 -35.5 14.5t-14.5 35.5v100q0 21 14.5 35.5t35.5 14.5zM350 430h800q21 0 35.5 -14.5t14.5 -35.5v-100
q0 -21 -14.5 -35.5t-35.5 -14.5h-800q-21 0 -35.5 14.5t-14.5 35.5v100q0 21 14.5 35.5t35.5 14.5zM50 130h100q21 0 35.5 -14.5t14.5 -35.5v-100q0 -21 -14.5 -35.5t-35.5 -14.5h-100q-21 0 -35.5 14.5t-14.5 35.5v100q0 21 14.5 35.5t35.5 14.5zM350 130h800
q21 0 35.5 -14.5t14.5 -35.5v-100q0 -21 -14.5 -35.5t-35.5 -14.5h-800q-21 0 -35.5 14.5t-14.5 35.5v100q0 21 14.5 35.5t35.5 14.5z" />
    <glyph glyph-name="uniE057" unicode="&#xe057;" 
d="M450 -70h-100v1100h100v-1100zM600 1030h100q21 0 35.5 -14.5t14.5 -35.5v-100q0 -21 -14.5 -35.5t-35.5 -14.5h-100q-21 0 -35.5 14.5t-14.5 35.5v100q0 21 14.5 35.5t35.5 14.5zM600 730h500q21 0 35.5 -14.5t14.5 -35.5v-100q0 -21 -14.5 -35.5t-35.5 -14.5h-500
q-21 0 -35.5 14.5t-14.5 35.5v100q0 21 14.5 35.5t35.5 14.5zM317 480l-167 -125v75h-200v100h200v75zM600 430h300q21 0 35.5 -14.5t14.5 -35.5v-100q0 -21 -14.5 -35.5t-35.5 -14.5h-300q-21 0 -35.5 14.5t-14.5 35.5v100q0 21 14.5 35.5t35.5 14.5zM600 130h600
q21 0 35.5 -14.5t14.5 -35.5v-100q0 -21 -14.5 -35.5t-35.5 -14.5h-600q-21 0 -35.5 14.5t-14.5 35.5v100q0 21 14.5 35.5t35.5 14.5z" />
    <glyph glyph-name="uniE058" unicode="&#xe058;" 
d="M0 1030h100q21 0 35.5 -14.5t14.5 -35.5v-100q0 -21 -14.5 -35.5t-35.5 -14.5h-100q-21 0 -35.5 14.5t-14.5 35.5v100q0 21 14.5 35.5t35.5 14.5zM850 -70h-100v1100h100v-1100zM0 730h500q21 0 35.5 -14.5t14.5 -35.5v-100q0 -21 -14.5 -35.5t-35.5 -14.5h-500
q-21 0 -35.5 14.5t-14.5 35.5v100q0 21 14.5 35.5t35.5 14.5zM1050 530h200v-100h-200v-75l-167 125l167 125v-75zM0 430h300q21 0 35.5 -14.5t14.5 -35.5v-100q0 -21 -14.5 -35.5t-35.5 -14.5h-300q-21 0 -35.5 14.5t-14.5 35.5v100q0 21 14.5 35.5t35.5 14.5zM0 130h600
q21 0 35.5 -14.5t14.5 -35.5v-100q0 -21 -14.5 -35.5t-35.5 -14.5h-600q-21 0 -35.5 14.5t-14.5 35.5v100q0 21 14.5 35.5t35.5 14.5z" />
    <glyph glyph-name="uniE059" unicode="&#xe059;" 
d="M75 930h750q31 0 53 -22t22 -53v-650q0 -31 -22 -53t-53 -22h-750q-31 0 -53 22t-22 53v650q0 31 22 53t53 22zM1200 230l-300 300l300 300v-600z" />
    <glyph glyph-name="uniE060" unicode="&#xe060;" 
d="M1186 877v-885h-1172v885h1172zM50 840v-618l510 240l230 -189l-81 189l226 177l216 -133v334h-1101zM344 683q30 -32 30 -76t-30 -74.5t-72.5 -30.5t-73.5 30.5t-31 74.5t31 75t73.5 31t72.5 -30z" />
    <glyph glyph-name="uniE062" unicode="&#xe062;" 
d="M246 719q0 145 103.5 249t249.5 104t250 -104t104 -249q0 -303 -354 -819q-353 516 -353 819zM689 585q39 35 39 88t-37.5 91t-90 38t-90 -38t-37.5 -91t37.5 -90t90 -37t88.5 39z" />
    <glyph glyph-name="uniE063" unicode="&#xe063;" 
d="M375 1029q225 100 451 0q218 -94 311 -308q97 -228 0 -454q-93 -218 -311 -308q-226 -100 -451 0q-219 90 -310 308q-98 226 0 454q91 214 310 308zM600 28v928q-184 9 -327.5 -134t-134.5 -329q-5 -188 134 -329t328 -136z" />
    <glyph glyph-name="uniE064" unicode="&#xe064;" 
d="M969 310q0 -152 -109 -260.5t-261.5 -108.5t-260 108.5t-107.5 260.5q0 317 368 857q370 -540 370 -857z" />
    <glyph glyph-name="uniE065" unicode="&#xe065;" 
d="M1204 874l-524 -520l-484 -246l256 497l514 512l53 -56l158 -158zM642 422l10 14q-25 56 -74 51q3 65 -51 77l-15 -10l-106 -208q15 -6 18.5 -10t7.5 -8t5 -9zM776 -66h-541q-101 0 -170 69.5t-69 169.5v541q0 100 69 169.5t170 69.5h353v-79h-353q-67 0 -114.5 -45.5
t-47.5 -114.5v-541q0 -69 47.5 -115t114.5 -46h541q68 0 114.5 46t46.5 115v316h80v-316q0 -100 -70 -169.5t-171 -69.5z" />
    <glyph glyph-name="uniE066" unicode="&#xe066;" 
d="M364 1030h361q-164 -146 -216 -200h-195q-41 0 -70.5 -29.5t-29.5 -70.5v-500q0 -41 29.5 -70.5t70.5 -29.5h500q41 0 70.5 29.5t29.5 70.5l200 153v-103q0 -165 -92.5 -257.5t-257.5 -92.5h-400q-165 0 -257.5 92.5t-92.5 257.5v400q0 165 92.5 257.5t257.5 92.5z
M838 1003l339 -301q8 -7 8 -17.5t-8 -17.5l-340 -306q-7 -6 -12.5 -4t-6.5 11v203q-26 1 -54.5 0t-78.5 -7.5t-92 -17.5t-86 -35t-70 -57q10 59 33 108t51.5 81.5t65 58.5t68.5 40.5t67 24.5t56 13.5t40 4.5v210q1 10 6.5 12.5t13.5 -4.5z" />
    <glyph glyph-name="uniE067" unicode="&#xe067;" 
d="M547 398l332 461l52 75l51 76q29 40 74 40q33 0 64 -26q65 -64 26 -121l-82 -115l-61 -82l-456 -635l-349 462q-25 31 -21 76t32 73.5t62 28.5q37 0 66 -35zM525 -80h7l-3 -4zM796 -70h-541q-100 0 -170 70.5t-70 169.5v541q0 101 70 169.5t170 68.5h352v-79h-352
q-67 0 -114 -46t-47 -113v-541q0 -69 47 -114.5t114 -45.5h541q69 0 115 45.5t46 114.5v315h80v-315q0 -99 -71 -169.5t-170 -70.5z" />
    <glyph glyph-name="uniE068" unicode="&#xe068;" 
d="M1215 534l-197 -180q-12 -12 -30 -12q-11 0 -31 15q-29 38 3 60l75 71h-388v-388l70 75q22 31 59 3q29 -29 4 -62l-180 -197l-178 197q-12 11 -12 30q0 10 15 32q36 28 62 -3l67 -75v388h-388l75 -71q33 -22 2 -60q-21 -15 -31 -15q-17 0 -28 12l-199 180l199 181
q31 23 59 -5q31 -37 -2 -63l-75 -67h388v388l-67 -75q-26 -31 -62 -3q-15 22 -15 32q0 18 12 30l178 197l180 -197q25 -33 -4 -62q-37 -28 -59 3l-70 75v-388h388l-75 67q-32 26 -3 63q27 28 61 5z" />
    <glyph glyph-name="uniE069" unicode="&#xe069;" 
d="M929 263q63 -51 8 -105q-66 -61 -125 -3l-409 311l409 312q20 20 60 20t65 -24q55 -54 -8 -105l-262 -203zM265 875q22 0 40 -18t18 -38v-706q0 -23 -18 -39.5t-40 -16.5q-58 0 -58 56v706q0 56 58 56z" />
    <glyph glyph-name="uniE070" unicode="&#xe070;" 
d="M686 263q63 -51 8 -105q-66 -61 -125 -3l-409 311l409 312q20 20 60 20t65 -24q55 -54 -8 -105l-262 -203zM1171 263q66 -51 2 -105q-59 -61 -124 -3l-407 311l407 312q24 20 63.5 20t60.5 -24q64 -54 -2 -105l-262 -203zM22 875q22 0 40 -18t18 -38v-706
q0 -23 -18 -39.5t-40 -16.5q-58 0 -58 56v706q0 56 58 56z" />
    <glyph glyph-name="uniE071" unicode="&#xe071;" 
d="M586 263q63 -51 8 -105q-66 -61 -125 -3l-409 311l409 312q20 20 60 20t65 -24q55 -54 -8 -105l-262 -203zM1071 263q66 -51 2 -105q-59 -61 -124 -3l-407 311l407 312q24 20 63.5 20t60.5 -24q64 -54 -2 -105l-262 -203z" />
    <glyph glyph-name="uniE072" unicode="&#xe072;" 
d="M205 926l790 -455l-790 -453v908z" />
    <glyph glyph-name="uniE073" unicode="&#xe073;" 
d="M172 914h327v-865h-327v865zM701 914h327v-865h-327v865z" />
    <glyph glyph-name="uniE074" unicode="&#xe074;" 
d="M268 796h663v-663h-663v663z" />
    <glyph glyph-name="uniE075" unicode="&#xe075;" 
d="M615 671q-63 51 -8 105q66 61 125 3l409 -311l-409 -312q-20 -20 -60 -20t-65 24q-55 54 8 105l262 203zM130 671q-66 51 -2 105q59 61 124 3l407 -311l-407 -312q-24 -20 -63.5 -20t-60.5 24q-64 54 2 105l262 203z" />
    <glyph glyph-name="uniE076" unicode="&#xe076;" 
d="M515 671q-63 51 -8 105q66 61 125 3l409 -311l-409 -312q-20 -20 -60 -20t-65 24q-55 54 8 105l262 203zM30 671q-66 51 -2 105q59 61 124 3l407 -311l-407 -312q-24 -20 -63.5 -20t-60.5 24q-64 54 2 105l262 203zM1179 59q-22 0 -40 18t-18 38v706q0 23 18 39.5
t40 16.5q58 0 58 -56v-706q0 -56 -58 -56z" />
    <glyph glyph-name="uniE077" unicode="&#xe077;" 
d="M270 671q-63 51 -8 105q66 61 125 3l409 -311l-409 -312q-20 -20 -60 -20t-65 24q-55 54 8 105l262 203zM934 59q-22 0 -40 18t-18 38v706q0 23 18 39.5t40 16.5q58 0 58 -56v-706q0 -56 -58 -56z" />
    <glyph glyph-name="uniE078" unicode="&#xe078;" 
d="M636 1011l501 -540q15 -15 10.5 -26t-26.5 -11h-1042q-22 0 -26.5 11t10.5 26l501 540q15 15 36 15t36 -15zM100 330h1000q21 0 35.5 -14.5t14.5 -35.5v-100q0 -21 -14.5 -35.5t-35.5 -14.5h-1000q-21 0 -35.5 14.5t-14.5 35.5v100q0 21 14.5 35.5t35.5 14.5z" />
    <glyph glyph-name="uniE079" unicode="&#xe079;" 
d="M974 830l-352 -353l352 -353l-197 -198l-552 552l552 550z" />
    <glyph glyph-name="uniE080" unicode="&#xe080;" 
d="M974 477l-551 -551l-198 198l353 353l-353 353l198 198z" />
    <glyph glyph-name="uniE081" unicode="&#xe081;" 
d="M1010 907q168 -170 168 -410t-169.5 -408.5t-410.5 -168.5t-408.5 168.5t-167.5 408.5t167.5 409t408.5 169t412 -168zM952 429q29 0 48.5 19.5t19.5 48.5t-19.5 49.5t-48.5 20.5h-282v284q0 29 -21.5 48.5t-49.5 19.5t-48.5 -19.5t-20.5 -48.5v-284h-286
q-26 0 -46 -20.5t-20 -49.5t20 -48.5t46 -19.5h286v-285q0 -29 20.5 -48.5t48.5 -19.5t49.5 19.5t21.5 48.5v285h282z" />
    <glyph glyph-name="uniE082" unicode="&#xe082;" 
d="M1007 902q167 -168 167 -406.5t-168.5 -406t-408 -167.5t-406 167.5t-166.5 406t166.5 406t406 167.5t409.5 -167zM950 427q29 0 48 19.5t19 48.5t-19 49.5t-48 20.5h-704q-25 0 -45.5 -20.5t-20.5 -49.5t20.5 -48.5t45.5 -19.5h704z" />
    <glyph glyph-name="uniE083" unicode="&#xe083;" 
d="M1005 899q166 -169 166 -406t-168 -403t-405.5 -166t-403.5 166t-166 403t166 404.5t403.5 167.5t407.5 -166zM701 494l208 186q47 45 4 97q-24 23 -51.5 23t-48.5 -14l-214 -201l-215 196q-48 46 -99 -4q-41 -52 3 -97l208 -186l-208 -187q-44 -43 -3 -96
q24 -23 51.5 -23t47.5 15l215 199l214 -195q48 -47 100 4q43 53 -4 96z" />
    <glyph glyph-name="uniE084" unicode="&#xe084;" 
d="M190 87q-168 169 -168 408.5t168 408t408.5 168.5t409.5 -168.5t169 -408t-169 -408.5t-409.5 -169t-408.5 169zM245 559q-26 -25 -23.5 -63t23.5 -60l318 -307l365 539q49 76 -20 126q-74 48 -123 -21l-254 -366l-160 157q-67 59 -126 -5z" />
    <glyph glyph-name="uniE085" unicode="&#xe085;" 
d="M1005 898q169 -169 169 -405t-169.5 -405t-405 -169t-405 169t-169.5 405t169.5 405.5t405 169.5t405.5 -170zM332 687q0 -26 21 -45q20 -22 51 -22q53 0 71 57q19 64 49 93q27 29 89 29q52 0 83 -29q32 -29 32 -73q0 -26 -8 -44q-9 -22 -29 -33q-26 -25 -51 -48t-60 -59
q-27 -32 -39 -58q-14 -41 -14 -83q0 -39 16 -55q23 -19 50 -19q53 0 68 58q4 30 8 38q0 4 7 20q3 8 19 23q6 11 28 31q68 65 93 86q31 32 47 61q18 37 18 82q0 57 -34 108q-31 48 -93 82q-63 30 -141 30q-81 0 -151 -35q-65 -37 -96 -91q-34 -49 -34 -104zM601 84
q34 0 56 23q24 25 24 58.5t-24.5 59t-55.5 25.5q-35 0 -60 -25q-24 -22 -24 -59q0 -34 24 -59q22 -23 60 -23z" />
    <glyph glyph-name="uniE086" unicode="&#xe086;" 
d="M601 1072q236 0 403 -169.5t167 -405.5t-167 -405t-403 -169q-237 0 -404.5 169t-167.5 405t167.5 405.5t404.5 169.5zM685 894q-46 0 -74 -31.5t-28 -62.5q-7 -76 77 -76q42 0 71.5 27.5t29.5 66.5q0 76 -76 76zM522 119q113 0 247 135l-24 31q-63 -46 -93 -46
q-17 0 -3 49l53 209q32 127 -27 127q-40 0 -118 -39t-146 -97l19 -33q74 42 99 42q10 0 0 -42l-50 -201q-31 -135 43 -135z" />
    <glyph glyph-name="uniE087" unicode="&#xe087;" 
d="M1239 594v-434h-574v434h420v51h79v-51h75zM952 247q27 0 50.5 10.5t41 28t28 41t10.5 50.5t-10.5 51t-28 42t-41 28.5t-50.5 10.5t-51 -10.5t-42 -28.5t-28 -42t-10 -51t10 -50.5t28 -41t42 -28t51 -10.5zM915 867v-217h-85v132h-785v-504h561v-87h-108v-8l45 -81
q0 -21 -8.5 -30.5t-22.5 -11.5t-33 -0.5t-41 1.5t-41 -1.5t-33.5 0.5t-22.5 11.5t-8 30.5l44 81v8h-418v676h956z" />
    <glyph glyph-name="uniE088" unicode="&#xe088;" 
d="M259 823q-143 -144 -143 -343.5t144 -342t342.5 -142.5t341 142.5t142.5 342t-142.5 342.5t-341 143t-343.5 -142zM1021 900q179 -175 179 -420.5t-176.5 -422.5t-423 -177t-423.5 177t-177 422.5t177 423t423.5 177.5t420.5 -180zM903 307q44 -42 4 -93q-50 -49 -95 -3
l-207 188l-206 -193q-20 -12 -47 -12t-49 20q-41 51 2 93l200 180l-200 179q-43 42 -2 92q49 50 96 4l206 -187l207 192q18 14 44.5 14t50.5 -23q40 -50 -4 -92l-199 -179z" />
    <glyph glyph-name="uniE089" unicode="&#xe089;" 
d="M263 554q54 61 119 4l153 -150l242 350q47 67 119 20q65 -48 19 -119l-348 -516l-304 293q-23 21 -25 57t25 61zM270 825q-138 -139 -138 -332t139 -330.5t331 -137.5t329.5 137.5t137.5 330.5t-137.5 331t-329.5 138t-332 -137zM1006 899q173 -169 173 -406t-170.5 -408
t-408.5 -171t-409 171t-171 408t171 408.5t409 171.5t406 -174z" />
    <glyph glyph-name="uniE090" unicode="&#xe090;" 
d="M378 1026q222 92 445 0q215 -89 307 -307q93 -222 0 -445q-92 -218 -307 -307q-223 -92 -445 0q-218 89 -306 307q-94 223 0 445q88 218 306 307zM600 940q-179 2 -311.5 -131t-130.5 -312q0 -110 83 -245l606 608q-136 80 -247 80zM969 734l-605 -603q129 -78 236 -78
q181 -2 313.5 131t129.5 313q0 103 -74 237z" />
    <glyph glyph-name="uniE091" unicode="&#xe091;" 
d="M743 -10q-79 -92 -162 -5l-535 481l535 481q31 32 80 32q58 0 82 -36q88 -86 -5 -163l-194 -175h610v-277h-610l194 -178q93 -78 5 -160z" />
    <glyph glyph-name="uniE092" unicode="&#xe092;" 
d="M452 946q83 92 164 6l538 -482l-538 -481q-30 -32 -77 -32q-62 0 -87 36q-83 86 7 163l193 175h-606v277h606l-193 178q-90 77 -7 160z" />
    <glyph glyph-name="uniE093" unicode="&#xe093;" 
d="M120 357q-91 79 -5 163l481 538l485 -538q29 -32 29 -80q0 -61 -35 -83q-87 -85 -164 5l-175 196v-614h-275v614l-175 -196q-77 -90 -166 -5z" />
    <glyph glyph-name="uniE094" unicode="&#xe094;" 
d="M1069 620q90 -81 4 -163l-480 -538l-484 538q-29 31 -29 80q0 60 34 83q87 84 164 -6l175 -196v613h276v-613l174 196q78 90 166 6z" />
    <glyph glyph-name="uniE095" unicode="&#xe095;" 
d="M650 1039l522 -427q16 -13 16 -32t-16 -32l-522 -427q-16 -13 -27.5 -8t-11.5 26v291q-94 -2 -182 -20t-170.5 -52t-147 -92.5t-100.5 -135.5q5 105 27 193.5t67.5 167t113 135t167 91.5t225.5 42v262q0 21 11.5 26t27.5 -8z" />
    <glyph glyph-name="uniE096" unicode="&#xe096;" 
d="M473 500l114 -113l-188 -188l-100 -99l-57 -39l70 27l187 15l-45 -150l-428 -12l13 426l151 46l-16 -187l-27 -69l39 56l99 99zM1173 1087l-12 -427l-150 -45l15 187l26 69l-39 -56l-98 -100l-188 -188l-113 113l188 189l98 99l57 38l-69 -27l-187 -15l45 151z" />
    <glyph glyph-name="uniE097" unicode="&#xe097;" 
d="M1107 1092l107 -107l-177 -178l-94 -94l-53 -37l65 26l177 15l-44 -143l-403 -12l12 405l141 42l-13 -177l-26 -65l37 53l94 94zM514 391l-12 -404l-143 -43l14 177l26 65l-36 -54l-94 -94l-179 -177l-107 108l178 177l94 94l54 36l-66 -24l-177 -15l43 143z" />
    <glyph glyph-name="uniE101" unicode="&#xe101;" 
d="M1005 898q169 -169 169 -405t-169.5 -405t-405 -169t-405 169t-169.5 405t169.5 405.5t405 169.5t405.5 -170zM523 338q0 -50 48 -50h60q44 0 44 50v548q0 49 -44 49h-60q-48 0 -48 -49v-548zM661 75q24 25 24 64t-24 63q-25 27 -61.5 27t-62.5 -27q-23 -24 -23 -63
t25 -64q24 -24 60.5 -24t61.5 24z" />
    <glyph glyph-name="uniE102" unicode="&#xe102;" 
d="M260 1130q9 0 19 -2t15 -4l5 -2q22 -10 44 -23l196 -118q21 -13 36 -24q29 -21 37 -12q11 13 49 35l196 118q22 13 45 23q17 7 38 7q23 0 47 -16.5t37 -33.5l13 -16q14 -21 18 -45l25 -123l8 -44q1 -9 8.5 -14.5t17.5 -5.5h61q10 0 17.5 -7.5t7.5 -17.5v-50
q0 -10 -7.5 -17.5t-17.5 -7.5h-50q-10 0 -17.5 -7.5t-7.5 -17.5v-175h-400v300h-200v-300h-400v175q0 10 -7.5 17.5t-17.5 7.5h-50q-10 0 -17.5 7.5t-7.5 17.5v50q0 10 7.5 17.5t17.5 7.5h61q11 0 18 3t7 8q0 4 9 52l25 128q5 25 19 45q2 3 5 7t13.5 15t21.5 19.5t26.5 15.5
t29.5 7zM915 1009l-166 -162q-7 -7 -5 -12t12 -5h219q10 0 15 7t2 17l-51 149q-3 10 -11 12t-15 -6zM463 847l-177 157q-8 7 -16 5t-11 -12l-51 -143q-3 -10 2 -17t15 -7h231q11 0 12.5 5t-5.5 12zM500 -70h-375q-10 0 -17.5 7.5t-7.5 17.5v375h400v-400zM1100 330v-375
q0 -10 -7.5 -17.5t-17.5 -7.5h-375v400h400z" />
    <glyph glyph-name="uniE103" unicode="&#xe103;" 
d="M836 955q24 5 53 14.5t60 21t62.5 25t60.5 26.5q69 31 141 66q-10 -75 -24 -140.5t-33 -138.5q-29 -106 -70 -205t-101 -191q-43 -69 -96.5 -126.5t-122.5 -102.5q-55 -38 -116 -60.5t-128 -31.5q-92 -13 -182 -1.5t-178 38.5q-2 0 -6 2h-3q-26 -48 -35.5 -100
t-10.5 -106h-104q0 59 9.5 116t35.5 111q5 12 8 18q4 2 5 4q0 1 5.5 10t18.5 24.5t35.5 36t55.5 44.5q43 26 99 52.5t117 51t124.5 47.5t123.5 43q140 47 289 89q-127 6 -270 -18q-61 -10 -132 -28t-148.5 -46t-160.5 -68t-167 -94q0 48 10.5 104t40.5 109q35 69 87 122.5
t118 95.5q57 37 117.5 63t126.5 46q71 20 141.5 40.5t143.5 36.5z" />
    <glyph glyph-name="uniE104" unicode="&#xe104;" 
d="M637 1161q-39 -67 -54.5 -131t-10.5 -114.5t24.5 -96.5t47.5 -80t63.5 -62.5t68.5 -46.5t65 -30q-4 7 -17.5 35t-18.5 39.5t-17 39.5t-17 43t-13 42t-9.5 44.5t-2 42t4 43t13.5 39t23 38.5q96 -42 165 -107.5t105 -138t52 -156t13 -159t-19 -149.5q-13 -55 -44 -106.5
t-68 -87t-78.5 -64.5t-72.5 -45t-53 -22q-72 -22 -127 -11q-31 6 -13 19q6 3 17 7q13 5 32.5 21t41 44t38.5 63.5t21.5 81.5t-6.5 94.5t-50 107t-104 115.5q10 -104 -0.5 -189t-37 -140.5t-65 -93t-84 -52t-93.5 -11t-95 24.5q-80 36 -131.5 114t-53.5 171q-2 23 0 49.5
t4.5 52.5t13.5 56t27.5 60t46 64.5t69.5 68.5q-8 -53 -5 -102.5t17.5 -90t34 -68.5t44.5 -39t49 -2q31 13 38.5 36t-4.5 55t-29 64.5t-36 75t-26 75.5q-15 85 2 161.5t53.5 128.5t85.5 92.5t93.5 61t81.5 25.5z" />
    <glyph glyph-name="uniE105" unicode="&#xe105;" 
d="M601 964q108 0 217.5 -47t185.5 -105.5t149.5 -134t96.5 -104t37 -45.5l-88 -112q-87 -104 -257.5 -213.5t-340.5 -109.5q-106 0 -217 46.5t-186.5 105t-149 134t-96.5 104t-38 45.5l89 112q87 104 257 214t341 110zM792 337q79 79 79 191t-79 191.5t-190.5 79.5
t-191.5 -79.5t-80 -191.5t80 -191t191.5 -79t190.5 79zM675 528q74 0 91 68q14 -27 14 -68q0 -74 -52.5 -126.5t-126.5 -52.5t-127 52.5t-53 126.5t53 127t127 53h28q-45 -34 -45 -85q0 -40 27 -67.5t64 -27.5z" />
    <glyph glyph-name="uniE106" unicode="&#xe106;" 
d="M467 298l-137 -139l-253 -253l-94 93l230 232l912 911l95 -91l-388 -389zM1028 794q154 -125 259 -267l-88 -112q-87 -104 -257.5 -213.5t-340.5 -109.5q-106 0 -230 48l139 139q48 -21 91 -21q112 0 191 78.5t79 190.5q0 44 -21 91zM177 258q-157 124 -263 269l89 112
q87 107 257 215.5t341 108.5q112 0 235 -52l-140 -134q-46 21 -95 21q-111 0 -191 -79.5t-80 -191.5q0 -45 21 -95zM780 544v-21q0 -74 -52.5 -126t-126.5 -52h-18zM421 500v23q0 76 53 130t127 54q4 0 12.5 -2t10.5 -2z" />
    <glyph glyph-name="uniE107" unicode="&#xe107;" 
d="M1217 -84h-1233q-18 0 -33.5 8t-23.5 22t-8 32t10 34l616 1069q11 15 25 24.5t31 9.5t31 -9.5t23 -24.5l618 -1069q8 -16 9 -34t-7 -32t-23.5 -22t-34.5 -8zM33 8h1136l-568 983zM541 745q0 38 37 38h46q35 0 35 -38v-427q0 -38 -35 -38h-46q-37 0 -37 38v427zM648 114
q-9 -9 -21.5 -14t-25.5 -5t-26 5t-22 14q-19 19 -19 49t18 50q10 11 23 16.5t26 5.5t25.5 -5.5t21.5 -16.5q19 -19 19 -50q0 -30 -19 -49z" />
    <glyph glyph-name="uniE108" unicode="&#xe108;" 
d="M750 980v-339l363 -325q15 -14 26 -38.5t11 -44.5v-41q0 -20 -12 -26.5t-29 5.5l-359 249v-263q100 -93 100 -113v-64q0 -21 -13 -29t-32 1l-205 128l-205 -128q-19 -9 -32 -1t-13 29v64q0 20 100 113v263l-359 -249q-17 -12 -29 -5.5t-12 26.5v41q0 20 11 44.5t26 38.5
l363 325v339q0 62 44 106t106 44t106 -44t44 -106z" />
    <glyph glyph-name="uniE109" unicode="&#xe109;" 
d="M505 571h189v-188h-189v188zM762 571h184v-188h-184v188zM505 316h189v-190h-189v190zM252 316h186v-190h-186v190zM762 316h184v-190h-184v190zM1068 947q23 0 42 -18.5t19 -41.5v-889q0 -26 -19 -45.5t-42 -19.5h-937q-25 0 -42.5 19.5t-17.5 45.5v889q0 23 17.5 41.5
t42.5 18.5h95v156h170v-156h403v156h175v-156h94zM1042 683h-868v-660h868v660z" />
    <glyph glyph-name="uniE110" unicode="&#xe110;" 
d="M1004 408q19 0 31 -18l232 -203l-232 -206q-31 -33 -65 2q-32 34 0 74l81 73h-223l-193 183l76 85l163 -154h182l-86 78q-32 31 0 68q17 18 34 18zM874 676l-575 -546h-365v114h319l575 546h223l-81 75q-32 39 0 72q13 16 33 16t32 -11l232 -208l-232 -202q-31 -42 -65 0
q-32 36 0 69l86 75h-182zM253 676h-319v114h365l190 -181l-80 -83z" />
    <glyph glyph-name="uniE111" unicode="&#xe111;" 
d="M88 969h1026q44 0 74 -30.5t30 -67.5v-496q0 -42 -30 -72.5t-74 -30.5h-652l-271 -307v307h-103q-43 0 -74 30.5t-31 72.5v496q0 42 31 70t74 28z" />
    <glyph glyph-name="uniE112" unicode="&#xe112;" 
d="M597 -71q-214 0 -367 160t-153 390v9l43 342l186 -25l-43 -331q3 -150 101 -252t233 -102q141 0 238.5 102t101.5 252l-47 331l185 25l48 -351q0 -230 -152.5 -390t-373.5 -160zM1059 928l-183 -30l-28 208l182 23zM166 1129l181 -23l-29 -208l-183 30z" />
    <glyph glyph-name="uniE113" unicode="&#xe113;" 
d="M1150 341l-198 -199l-353 353l-353 -353l-197 199l551 551z" />
    <glyph glyph-name="uniE114" unicode="&#xe114;" 
d="M1150 719l-550 -551l-551 551l198 199l353 -353l353 353z" />
    <glyph glyph-name="uniE115" unicode="&#xe115;" 
d="M1351 497q47 -51 1 -104l-296 -328l-302 328q-18 28 -18 49.5t24 54.5q58 40 104 -9l115 -127v401h-518v151h668v-552l116 127q45 49 106 9zM221 204h520v-150h-669v552l-117 -127q-46 -49 -104 -9q-49 50 -4 104l297 328l304 -328q18 -28 18 -49.5t-24 -54.5
q-58 -40 -104 9l-117 127v-402z" />
    <glyph glyph-name="uniE116" unicode="&#xe116;" 
d="M474 359h618v-100h-807v100l-175 537h-136v100h349v-100h730h174l-170 -401zM500 93q0 -22 -8.5 -41.5t-23 -34t-34.5 -23t-42 -8.5t-41.5 8.5t-34 23t-23 34t-8.5 41.5t8.5 42t23 34.5t34 23t41.5 8.5t42 -8.5t34.5 -23t23 -34.5t8.5 -42zM1061 93q0 -22 -8.5 -41.5
t-23 -34t-34.5 -23t-42 -8.5t-41.5 8.5t-34 23t-23 34t-8.5 41.5t8.5 42t23 34.5t34 23t41.5 8.5t42 -8.5t34.5 -23t23 -34.5t8.5 -42z" />
    <glyph glyph-name="uniE117" unicode="&#xe117;" 
d="M7 122v805q0 19 11.5 32.5t34.5 15.5h9h313q42 0 53 -33q4 -8 3.5 -16t1.5 -16q1 -16 7 -27q5 -12 17 -17.5t26 -5.5q2 -4 12 -4h640q16 0 28 -3.5t20 -18.5q3 -5 5.5 -11.5t2.5 -14.5q1 -12 0.5 -25t-0.5 -26v-727h-1184v92z" />
    <glyph glyph-name="uniE118" unicode="&#xe118;" 
d="M1291 618l-250 -586l-2 -4h-1060l249 588l1 2h884h178zM196 750q-37 0 -64.5 -23t-32.5 -58l-189 -453v710q0 18 12 31.5t33 16.5h8h314q41 0 54 -35q2 -7 2 -15t1 -16q2 -8 3 -14t5 -12q14 -23 42 -23q4 -3 7 -3.5t5 -0.5h640q16 0 28 -4t21 -19q3 -5 5.5 -11t2.5 -14
q2 -14 1 -26.5t-1 -24.5v-6h-897z" />
    <glyph glyph-name="uniE119" unicode="&#xe119;" 
d="M789 284l64 -118l-253 -267l-251 267l65 118l105 -122l24 -57l-11 57v119v476v119l11 58l-24 -58l-105 -123l-65 120l251 265l253 -265l-64 -120l-104 123l-27 58l12 -58v-119v-476v-119l-12 -57l27 57z" />
    <glyph glyph-name="uniE120" unicode="&#xe120;" 
d="M366 307l-118 -64l-267 253l267 251l118 -65l-122 -105l-57 -24l57 11h119h476h119l58 -11l-58 24l-123 105l120 65l265 -251l-265 -253l-120 64l123 104l58 27l-58 -12h-119h-476h-119l-57 12l57 -27z" />
    <glyph glyph-name="uniE121" unicode="&#xe121;" 
d="M1184 211v-281h-1169v281h1169zM1099 140h-144v-140h144v140zM1184 366h-1169l125 579h923z" />
    <glyph glyph-name="uniE122" unicode="&#xe122;" 
d="M1250 980v-850q0 -21 -14.5 -35.5t-35.5 -14.5t-35.5 14.5t-14.5 35.5v850q0 21 14.5 35.5t35.5 14.5t35.5 -14.5t14.5 -35.5zM1050 130l-675 200h-38l47 -276q3 -16 -5.5 -20t-29.5 -4h-7h-84q-20 0 -34.5 14t-18.5 35q-55 337 -55 351v250v6q0 16 1 23.5t6.5 14
t17.5 6.5h200l675 250v-850zM50 680v-250q-4 0 -11 0.5t-24 6t-30 15t-24 30t-11 48.5v50q0 26 10.5 46t25 30t29 16t25.5 7z" />
    <glyph glyph-name="uniE123" unicode="&#xe123;" 
d="M878 596q0 -7 70 -170.5t70 -298.5h-836q0 135 69.5 298.5t69.5 170.5q33 146 41 202q0 85 56 147t138 81v65q0 41 43.5 41t43.5 -41v-65q82 -19 136.5 -81t54.5 -147zM702 57v-8q0 -49 -29.5 -78.5t-73 -29.5t-73 29.5t-29.5 78.5v8h205z" />
    <glyph glyph-name="uniE124" unicode="&#xe124;" 
d="M800 876l224 78l-78 -224l234 -45l-180 -155l180 -155l-234 -45l78 -224l-224 78l-45 -234l-155 180l-155 -180l-45 234l-224 -78l78 224l-234 45l180 155l-180 155l234 45l-78 224l224 -78l45 234l155 -180l155 180z" />
    <glyph glyph-name="uniE125" unicode="&#xe125;" 
d="M35 628h206v-620h-206v620zM1162 579v-108q0 -27 -4 -36l-153 -361q-32 -66 -93 -66h-464q-46 0 -76.5 29t-30.5 75v516q0 50 32 73l341 341l57 -52q22 -45 22 -58v-14l-51 -240h323q44 0 72 -29t28 -70h-3z" />
    <glyph glyph-name="uniE126" unicode="&#xe126;" 
d="M35 899h206v-620h-206v620zM1165 330q0 -44 -28 -71.5t-72 -27.5h-323l51 -239v-18q0 -13 -22 -55l-57 -52l-341 340q-32 32 -32 72v517q0 44 30.5 73.5t76.5 29.5h464q61 0 93 -59l153 -369q4 -10 4 -35v-106h3z" />
    <glyph glyph-name="uniE127" unicode="&#xe127;" 
d="M-62 684h189v-571h-189v571zM882 728q343 0 350 -15q30 -25 15 -57t-22.5 -44.5t-16.5 -17.5q-228 -68 -241 -88l-140 -336q-19 -57 -84 -57h-427q-41 0 -68 28.5t-27 66.5v476q0 39 31 64l310 313l51 -48q21 -29 21 -51v-16l-50 -218h298z" />
    <glyph glyph-name="uniE128" unicode="&#xe128;" 
d="M1262 113h-189v571h189v-571zM616 728l-50 218v16q0 22 21 51l51 48l310 -313q31 -25 31 -64v-476q0 -38 -27 -66.5t-68 -28.5h-427q-65 0 -84 57l-140 336q-13 20 -241 88q-9 5 -16.5 17.5t-22.5 44.5t15 57q7 15 350 15h298z" />
    <glyph glyph-name="uniE129" unicode="&#xe129;" 
d="M473 -72v189h571v-189h-571zM429 872q0 343 15 350q25 30 57 15t44.5 -22.5t17.5 -16.5q68 -228 88 -241l336 -140q57 -19 57 -84v-427q0 -41 -28.5 -68t-66.5 -27h-476q-39 0 -64 31l-313 310l48 51q29 21 51 21h16l218 -50v298z" />
    <glyph glyph-name="uniE130" unicode="&#xe130;" 
d="M697 1145v-189h-571v189h571zM741 201q0 -343 -15 -350q-25 -30 -57 -15t-44.5 22.5t-17.5 16.5q-68 228 -88 241l-336 140q-57 19 -57 84v427q0 41 28.5 68t66.5 27h476q39 0 64 -31l313 -310l-48 -51q-29 -21 -51 -21h-16l-218 50v-298z" />
    <glyph glyph-name="uniE131" unicode="&#xe131;" 
d="M1013 89q-172 -172 -413.5 -172t-414.5 172.5t-173 413.5t173 414.5t414.5 173.5t414.5 -173.5t173 -414.5t-174 -414zM518 235q14 -19 47 -19q27 0 44 16l303 272l-303 270q-46 48 -91 -2q-48 -48 4 -94l110 -96h-345v-156h345l-110 -99q-52 -44 -4 -92z" />
    <glyph glyph-name="uniE132" unicode="&#xe132;" 
d="M186 920q172 172 413.5 172t414.5 -172.5t173 -413.5t-173 -414.5t-414.5 -173.5t-414.5 173.5t-173 414.5t174 414zM681 774q-14 19 -47 19q-27 0 -44 -16l-303 -272l303 -270q46 -48 91 2q48 48 -4 94l-110 96h345v156h-345l110 99q52 44 4 92z" />
    <glyph glyph-name="uniE133" unicode="&#xe133;" 
d="M1015 910q172 -172 172 -413.5t-172.5 -414.5t-413.5 -173t-414.5 173t-173.5 414.5t173.5 414.5t414.5 173t414 -174zM869 415q19 14 19 47q0 27 -16 44l-272 303l-270 -303q-48 -46 2 -91q48 -48 94 4l96 110v-345h156v345l99 -110q44 -52 92 -4z" />
    <glyph glyph-name="uniE134" unicode="&#xe134;" 
d="M185 82q-172 172 -172 413.5t172.5 414.5t413.5 173t414.5 -173t173.5 -414.5t-173.5 -414.5t-414.5 -173t-414 174zM331 577q-19 -14 -19 -47q0 -27 16 -44l272 -303l270 303q48 46 -2 91q-48 48 -94 -4l-96 -110v345h-156v-345l-99 110q-44 52 -92 4z" />
    <glyph glyph-name="uniE135" unicode="&#xe135;" 
d="M377 1060q107 46 223 46t222.5 -46t184 -123.5t123.5 -184t46 -222.5t-46 -222.5t-123.5 -184t-184 -123.5t-222.5 -46t-222.5 46t-184 123.5t-123.5 184t-46 222.5t46 222.5t123.5 184t183.5 123.5zM627 1031q-15 -12 -36.5 -20.5t-35.5 -12t-43 -8t-39 -6.5
q-15 -3 -45.5 0t-45.5 -2q-20 -7 -51.5 -26.5t-34.5 -34.5q-3 -11 6.5 -22.5t8.5 -18.5q-3 -34 -27.5 -91t-29.5 -79q-9 -34 5 -93t8 -87q0 -9 17 -44.5t16 -59.5q12 0 23 -5t23.5 -15t19.5 -14q16 -8 33 -15t40.5 -15t34.5 -12q21 -9 52.5 -32t60 -38t57.5 -11
q7 -15 -3 -34t-22.5 -40t-9.5 -38q13 -21 23 -34.5t27.5 -27.5t36.5 -18q0 -7 -3.5 -16t-3.5 -14t5 -17q104 -2 221 112q30 29 46.5 47t34.5 49t21 63q-13 8 -37 8.5t-36 7.5q-15 7 -49.5 15t-51.5 19q-18 0 -41 -0.5t-43 -1.5t-42 -6.5t-38 -16.5q-51 -35 -66 -12
q-4 1 -3.5 25.5t0.5 25.5q-6 13 -26.5 17.5t-24.5 6.5q1 15 -0.5 30.5t-7 28t-18.5 11.5t-31 -21q-23 -25 -42 4q-19 28 -8 58q6 16 22 22q6 -1 26 -1.5t33.5 -4t19.5 -13.5q7 -12 18 -24t21.5 -20.5t20 -15t15.5 -10.5l5 -3q2 12 7.5 30.5t8 34.5t-0.5 32q-3 18 3.5 29
t18 22.5t15.5 24.5q6 14 10.5 35t8 31t15.5 22.5t34 22.5q-6 18 10 36q8 0 24 -1.5t24.5 -1.5t20 4.5t20.5 15.5q-10 23 -31 42.5t-37.5 29.5t-49 27t-43.5 23q0 1 2 8t3 11.5t1.5 10.5t-1 9.5t-4.5 4.5q31 -13 58.5 -14.5t38.5 2.5l12 5q5 28 -9.5 46t-36.5 24t-50 15
t-41 20q-18 -4 -37 0zM613 924q0 -17 8 -42t17 -45t9 -23q-8 1 -39.5 5.5t-52.5 10t-37 16.5q3 11 16 29.5t16 25.5q10 -10 19 -10t14 6t13.5 14.5t16.5 12.5z" />
    <glyph glyph-name="uniE136" unicode="&#xe136;" 
d="M223 646l191 200l-225 211q34 53 183.5 7t183.5 -134q48 -132 -25.5 -290t-245.5 -172q-71 -7 -124 24t-79 83t-41 105.5t-18 90.5t1 40zM1180 99l-202 -204l-524 526l-24 9q90 46 144 130q30 46 48 116l29 -49z" />
    <glyph glyph-name="uniE137" unicode="&#xe137;" horiz-adv-x="1220" 
d="M110 1026h1000q41 0 70.5 -29.5t29.5 -70.5v-100q0 -41 -29.5 -70.5t-70.5 -29.5h-1000q-41 0 -70.5 29.5t-29.5 70.5v100q0 41 29.5 70.5t70.5 29.5zM1110 926h-200v-100h200v100zM110 626h1000q41 0 70.5 -29.5t29.5 -70.5v-100q0 -41 -29.5 -70.5t-70.5 -29.5h-1000
q-41 0 -70.5 29.5t-29.5 70.5v100q0 41 29.5 70.5t70.5 29.5zM1110 526h-500v-100h500v100zM110 226h1000q41 0 70.5 -29.5t29.5 -70.5v-100q0 -41 -29.5 -70.5t-70.5 -29.5h-1000q-41 0 -70.5 29.5t-29.5 70.5v100q0 41 29.5 70.5t70.5 29.5zM1110 126h-300v-100h300v100z
" />
    <glyph glyph-name="uniE138" unicode="&#xe138;" 
d="M155 1037h887q22 0 37 -16t15 -36q0 -49 -52 -49h-887q-49 0 -49 49q0 20 15 36t34 16zM699 342v-296l-198 -198v494l-346 496h887z" />
    <glyph glyph-name="uniE139" unicode="&#xe139;" 
d="M500 1130h200q41 0 70.5 -29.5t29.5 -70.5v-100h300q41 0 70.5 -29.5t29.5 -70.5v-400h-500v100h-200v-100h-500v400q0 41 29.5 70.5t70.5 29.5h300v100q0 41 29.5 70.5t70.5 29.5zM500 1030v-100h200v100h-200zM1200 330v-200q0 -41 -29.5 -70.5t-70.5 -29.5h-1000
q-41 0 -70.5 29.5t-29.5 70.5v200h1200z" />
    <glyph glyph-name="uniE140" unicode="&#xe140;" 
d="M601 590q-28 0 -52.5 -10.5t-43 -29t-29.5 -43.5t-11 -53t11 -52.5t29.5 -42.5t43 -28.5t52.5 -10.5t52.5 10.5t42.5 28.5t28.5 42.5t10.5 52.5t-10.5 53t-28.5 43.5t-42.5 29t-52.5 10.5zM1121 260q-18 0 -32 -13.5t-14 -33.5v-133l-165 166q-13 13 -32 13t-31 -13
q-14 -14 -14 -33t14 -32l164 -165h-134q-19 0 -33 -13.5t-14 -31.5q0 -20 14 -32.5t33 -12.5h288v287q0 20 -12.5 33.5t-31.5 13.5zM1121 650q-18 0 -32 13.5t-14 32.5v135l-165 -166q-13 -13 -32 -13t-31 13q-14 14 -14 32.5t14 30.5l164 165h-134q-19 0 -33 14t-14 33
q0 18 14 31t33 13h288v-288q0 -19 -12.5 -32.5t-31.5 -13.5zM81 260q19 0 32.5 -13.5t13.5 -33.5v-133l164 166q14 13 32.5 13t31.5 -13q14 -14 14 -33t-14 -32l-165 -165h136q18 0 31 -13.5t13 -31.5q0 -20 -13 -32.5t-31 -12.5h-291v287q0 20 13.5 33.5t32.5 13.5zM81 650
q19 0 32.5 13.5t13.5 32.5v135l164 -166q14 -13 32.5 -13t31.5 13q14 14 14 32.5t-14 30.5l-165 165h136q18 0 31 14t13 33q0 18 -13 31t-31 13h-291v-288q0 -19 13.5 -32.5t32.5 -13.5z" />
    <glyph glyph-name="uniE141" unicode="&#xe141;" 
d="M521 876q0 -53 -52 -53q-20 0 -35.5 15t-15.5 38q0 21 15.5 37t35.5 16q52 0 52 -53zM317 712q0 -21 -14.5 -36t-36.5 -15q-25 0 -39.5 15t-14.5 36q0 56 54 56q22 0 36.5 -15.5t14.5 -40.5zM197 436q-20 0 -36.5 16t-16.5 36.5t16.5 35.5t36.5 15q50 0 50 -51.5
t-50 -51.5zM2 488q0 246 177 422t422 176t421 -176t176 -422q0 -141 -67 -265q-71 -151 -214 -241.5t-315.5 -90.5t-315.5 90.5t-216 241.5q-68 124 -68 265zM1046 223q72 127 72 265q0 214 -152.5 366.5t-365.5 152.5t-365.5 -152.5t-152.5 -366.5q0 -138 73 -265h891z
M700 615l171 252l-102 -285l-92 -267q0 -6 -8 -20q-13 -28 -44.5 -38t-57.5 2q-29 18 -39.5 49.5t3.5 58.5q0 4 3.5 7t6.5 6zM783 876q0 -23 -15.5 -38t-38.5 -15q-21 0 -36.5 15t-15.5 38q0 21 15.5 37t36.5 16q54 0 54 -53zM990 716q0 -51 -52.5 -51t-52.5 51.5t53 51.5
q22 0 37 -15.5t15 -36.5zM1052 495q0 -51 -55 -51q-52 0 -52 51q0 22 16.5 37t35.5 15q26 0 40.5 -15t14.5 -37z" />
    <glyph glyph-name="uniE142" unicode="&#xe142;" 
d="M322 376q-36 -35 -36 -84t36 -85q35 -35 86 -35t86 35l522 523q58 59 58 145q0 83 -58.5 141.5t-143.5 58.5q-83 0 -141 -59l-523 -523q-83 -85 -83 -200q0 -121 83 -203t201 -82q126 0 199 83l236 230q28 29 60 0.5t1 -59.5l-234 -233q-104 -112 -262 -112
q-154 0 -265 112q-105 108 -105 264q0 153 105 260l527 524q81 83 201 83t206 -83q82 -83 82 -202q0 -122 -82 -206l-523 -524q-60 -62 -146.5 -62t-148 62t-61.5 148q0 83 62 143l233 233q31 28 59.5 0.5t1.5 -63.5z" />
    <glyph glyph-name="uniE143" unicode="&#xe143;" 
d="M599 879q48 68 109.5 104t121.5 38.5t118.5 -20t102.5 -64t71 -100.5t27 -123q0 -57 -33.5 -117.5t-94 -124.5t-126.5 -127.5t-150 -152.5t-146 -174q-62 85 -145.5 174t-150 152.5t-126.5 127.5t-93.5 124.5t-33.5 117.5q0 64 28 123t73 100.5t104 64t119 20
t120.5 -38.5t104.5 -104zM846 902q-33 0 -64.5 -19t-56.5 -46t-47.5 -53.5t-43.5 -45.5t-37.5 -19t-36 19t-40 45.5t-43 53.5t-54 46t-65.5 19q-67 0 -122.5 -55.5t-55.5 -132.5q0 -23 13.5 -51t46 -65t57.5 -63t76 -75l22 -22q15 -14 44 -44t50.5 -51t46 -44t41 -35t23 -12
t23.5 12t42.5 36t46 44t52.5 52t44 43q4 4 12 13q43 41 63.5 62t52 55t46 55t26 46t11.5 44q0 79 -53 133.5t-120 54.5z" />
    <glyph glyph-name="uniE144" unicode="&#xe144;" 
d="M277 264v189h145v-189q0 -71 52 -121.5t124.5 -50.5t126 50.5t53.5 121.5v189h144v-189q0 -130 -96 -226t-228 -96t-226.5 96t-94.5 226zM922 558h-144v189q0 70 -53.5 121.5t-126 51.5t-124.5 -51.5t-52 -121.5v-189h-145v189q0 131 94.5 226.5t226.5 95.5t228 -95.5
t96 -226.5v-189zM526 330v347q0 32 21.5 53t51 21t51 -21t21.5 -53v-347q0 -28 -21.5 -49.5t-51 -21.5t-51 21.5t-21.5 49.5z" />
    <glyph glyph-name="uniE145" unicode="&#xe145;" 
d="M934 89v-162h-162h-28h-287h-28h-162v162v37v874v5v157h162h343h162v-71v-1002zM601 -15q23 0 39.5 16t16.5 38q0 24 -16.5 40t-39.5 16q-24 0 -40 -16t-16 -40q0 -22 16 -38t40 -16zM848 144v858h-495v-858h495z" />
    <glyph glyph-name="uniE146" unicode="&#xe146;" 
d="M1158 695q26 -35 0 -65q-13 -10 -29 -10q-20 0 -36 10l-62 70l-264 -263l80 -281l-630 628l281 -79l262 263l-63 64q-33 34 0 61q31 37 60 0zM382 482l164 -163l-530 -365z" />
    <glyph glyph-name="uniE148" unicode="&#xe148;" 
d="M846 688q-25 20 -62 35q-16 10 -65 30q-24 8 -70 17v-119l9 -4h13l15 -5l14 -4q61 -18 112 -43q54 -21 90 -56q35 -25 59 -76q18 -43 18 -115q0 -77 -27 -133q-21 -53 -72 -85q-47 -38 -98 -52q-39 -14 -116 -22v-158h-103v159q-104 11 -181 35q-85 29 -161 70l110 223
q9 -4 34.5 -17t39.5 -24q4 0 33.5 -13.5t46.5 -20.5q54 -18 92 -24v120q-23 3 -82 24q-74 28 -104 41q-42 29 -70 57q-35 30 -45 72q-11 38 -11 88q0 79 21 126q21 52 63 93q51 44 95 60q75 31 119 31v133h103v-133q57 -12 81 -14q14 -7 39.5 -13t41.5 -10l69 -31l59 -27z
M525 733q0 -21 14.5 -35t37.5 -24v99q-52 -6 -52 -40zM704 325q0 19 -16 34q-4 2 -17 10t-22 12v-98q27 3 39 14q16 13 16 28z" />
    <glyph glyph-name="uniE149" unicode="&#xe149;" 
d="M653 1127q84 0 160.5 -40t123.5 -109.5t47 -147.5h-153q0 40 -19.5 71.5t-49.5 48.5t-59.5 26t-55.5 9q-37 0 -79 -14.5t-62 -35.5q-41 -44 -41 -101q0 -26 13.5 -63t26.5 -61t37 -66q6 -9 9 -14h241v-100h-197q8 -50 -2.5 -115t-31.5 -95q-45 -62 -99 -112
q34 10 83 17.5t71 7.5q32 1 102 -16t104 -17q83 0 136 30l50 -147q-31 -19 -58 -30.5t-55 -15.5t-42 -4.5t-46 -0.5q-23 0 -76 17t-111 32.5t-96 11.5q-39 -3 -82 -16t-67 -25l-23 -11l-55 145q4 3 16 11t15.5 10.5t13 9t15.5 12t14.5 14t17.5 18.5q48 55 54 126.5
t-30 142.5h-221v100h166q-23 47 -44 104q-7 20 -12 41.5t-6 55.5t6 66.5t29.5 70.5t58.5 71q97 88 263 88z" />
    <glyph glyph-name="uniE150" unicode="&#xe150;" 
d="M69 79l59 112l99 -116l25 -54l-11 54v1039h65h65v-1039l-10 -54l25 54l99 116l59 -112l-238 -252zM1151 862l-59 -112l-99 116l-24 54l11 -54v-1039h-65h-65v1039l10 54l-24 -54l-99 -116l-60 112l238 252z" />
    <glyph glyph-name="uniE151" unicode="&#xe151;" 
d="M887 986h119l167 -474h-131l-31 92h-130l-24 -92h-132zM988 693l-39 144l-44 -144h83zM748 31l218 264h-210v115h360v-98l-206 -263h209v-113h-371v95zM-21 62l59 112l99 -116l25 -54l-11 54v1039h65h65v-1039l-10 -54l25 54l99 116l59 -112l-238 -252z" />
    <glyph glyph-name="uniE152" unicode="&#xe152;" 
d="M887 409h119l167 -472h-131l-31 91h-130l-24 -91h-132zM988 117l-39 144l-44 -144h83zM748 607l218 263h-210v113h360v-95l-206 -265h209v-114h-371v98zM-21 62l59 112l99 -116l25 -54l-11 54v1039h65h65v-1039l-10 -54l25 54l99 116l59 -112l-238 -252z" />
    <glyph glyph-name="uniE153" unicode="&#xe153;" 
d="M439 230h150q21 0 25 -11t-10 -25l-230 -250q-14 -15 -35 -15t-35 15l-230 250q-14 14 -10 25t25 11h150v900h200v-900zM1039 630h-100v400h-100v100h200v-500zM1139 -70h-100v100h-200v400h300v-500zM940 330v-200h100v200h-100z" />
    <glyph glyph-name="uniE154" unicode="&#xe154;" 
d="M439 230h150q21 0 25 -11t-10 -25l-230 -250q-14 -15 -35 -15t-35 15l-230 250q-14 14 -10 25t25 11h150v900h200v-900zM1139 630h-100v100h-200v400h300v-500zM940 1030v-200h100v200h-100zM1039 -70h-100v400h-100v100h200v-500z" />
    <glyph glyph-name="uniE155" unicode="&#xe155;" 
d="M479 560q-56 0 -56 61v68q0 60 56 60h396q58 0 58 -60v-68q0 -24 -17.5 -42.5t-40.5 -18.5h-396zM479 874q-56 0 -56 55v74q0 55 56 55h290q60 0 60 -55v-74q0 -55 -60 -55h-290zM479 250q-56 0 -56 62v67q0 61 56 61h595q58 0 58 -61v-67q0 -62 -58 -62h-595zM1246 124
q55 0 55 -54v-73q0 -56 -55 -56h-767q-56 0 -56 56v73q0 54 56 54h767zM-125 130l54 103l91 -106l24 -51l-11 51v961h60h61v-961l-9 -51l22 51l92 106l55 -103l-221 -233z" />
    <glyph glyph-name="uniE156" unicode="&#xe156;" 
d="M477 439h397q24 0 41 -18.5t17 -42.5v-68q0 -61 -58 -61h-397q-56 0 -56 61v68q0 61 56 61zM477 123h291q60 0 60 -54v-73q0 -57 -60 -57h-291q-56 0 -56 57v73q0 54 56 54zM477 749h597q58 0 58 -59v-69q0 -62 -58 -62h-597q-56 0 -56 62v69q0 59 56 59zM1246 875h-769
q-56 0 -56 56v72q0 56 56 56h769q56 0 56 -56v-72q0 -56 -56 -56zM-125 130l54 103l91 -106l24 -51l-11 51v961h60h61v-961l-9 -51l22 51l92 106l55 -103l-221 -233z" />
    <glyph glyph-name="uniE157" unicode="&#xe157;" 
d="M871 -68h-544q-101 0 -169.5 69t-68.5 170v541q0 102 68.5 171t169.5 69h544q98 0 169 -69t71 -171v-541q0 -101 -71 -170t-169 -69zM327 872q-67 0 -112.5 -45.5t-45.5 -114.5v-541q0 -70 45.5 -115t112.5 -45h544q69 0 115 45t46 115v541q0 69 -46 114.5t-115 45.5
h-544z" />
    <glyph glyph-name="uniE158" unicode="&#xe158;" 
d="M475 671l332 -196l-332 -193v389zM1144 766v-580q0 -108 -74 -181.5t-182 -73.5h-578q-106 0 -180 73.5t-74 181.5v580q0 104 74 179t180 75h578q108 0 182 -75t74 -179zM140 186q0 -71 49 -120.5t121 -49.5h578q74 0 122.5 49.5t48.5 120.5v580q0 71 -48.5 120.5
t-122.5 49.5h-578q-72 0 -121 -49.5t-49 -120.5v-580z" />
    <glyph glyph-name="uniE159" unicode="&#xe159;" 
d="M795 600l-196 -332l-193 332h389zM890 -69h-580q-108 0 -181.5 74t-73.5 182v578q0 106 73.5 180t181.5 74h580q104 0 179 -74t75 -180v-578q0 -108 -75 -182t-179 -74zM310 935q-71 0 -120.5 -49t-49.5 -121v-578q0 -74 49.5 -122.5t120.5 -48.5h580q71 0 120.5 48.5
t49.5 122.5v578q0 72 -49.5 121t-120.5 49h-580z" />
    <glyph glyph-name="uniE160" unicode="&#xe160;" 
d="M404 352l196 332l193 -332h-389zM309 1021h580q108 0 181.5 -74t73.5 -182v-578q0 -106 -73.5 -180t-181.5 -74h-580q-104 0 -179 74t-75 180v578q0 108 75 182t179 74zM889 17q71 0 120.5 49t49.5 121v578q0 74 -49.5 122.5t-120.5 48.5h-580q-71 0 -120.5 -48.5
t-49.5 -122.5v-578q0 -72 49.5 -121t120.5 -49h580z" />
    <glyph glyph-name="uniE161" unicode="&#xe161;" 
d="M36 484h444l-78 67q-30 31 -1 63t57 4l201 -180l-201 -180q-11 -11 -28 -11q-13 0 -28 15q-30 33 0 60l78 70h-444v92zM379 950h545q101 0 170.5 -69.5t69.5 -170.5v-543q0 -101 -69.5 -171t-170.5 -70h-545q-99 0 -169.5 70t-70.5 171h79q0 -70 46.5 -115.5t114.5 -45.5
h545q69 0 115.5 45.5t46.5 115.5v543q0 69 -46.5 115t-115.5 46h-545q-68 0 -114.5 -46t-46.5 -115h-79q0 101 70.5 170.5t169.5 69.5z" />
    <glyph glyph-name="uniE162" unicode="&#xe162;" 
d="M794 1112l9 -9q8 -10 5 -27q-3 -11 -79 -225.5t-78 -221.5l300 1q24 0 32.5 -17.5t-5.5 -35.5q-1 0 -133.5 -155t-267 -312.5t-138.5 -162.5q-12 -15 -26 -15h-9l-9 8q-9 11 -4 32q2 9 42 123.5t79 224.5l39 110h-302q-23 0 -31 19q-10 21 6 41q75 86 209.5 237.5
t228 257t98.5 111.5q9 16 25 16h9z" />
    <glyph glyph-name="uniE163" unicode="&#xe163;" 
d="M536 487h442l-74 68q-33 25 -6 63q27 32 63 4l198 -180l-198 -180q-11 -13 -29.5 -13t-33.5 15q-27 38 6 61l74 71h-442v91zM826 -73h-545q-100 0 -170 70.5t-70 171.5v546q0 101 70 170.5t170 69.5h545q103 0 172.5 -69.5t69.5 -170.5h-80q0 69 -46 115t-116 46h-545
q-68 0 -114.5 -46t-46.5 -115v-546q0 -70 46.5 -116t114.5 -46h545q70 0 116 46t46 116h80q0 -101 -69.5 -171.5t-172.5 -70.5z" />
    <glyph glyph-name="uniE164" unicode="&#xe164;" 
d="M844 -75h-550q-103 0 -174.5 70.5t-71.5 173.5v550q0 103 71.5 173t174.5 70h414v-79h-414q-71 0 -118.5 -46t-47.5 -118v-550q0 -73 47.5 -119t118.5 -46h550q71 0 118 46t47 119v425h81v-425q0 -103 -71.5 -173.5t-174.5 -70.5zM671 615l317 317l-103 -8q-41 0 -46 38
q0 50 43 50l269 13l-14 -270q0 -17 -14 -27q-14 -14 -33 -14q-40 5 -40 47l6 102l-318 -315z" />
    <glyph glyph-name="uniE165" unicode="&#xe165;" 
d="M268 827q-139 -138 -139 -332t140 -331t332.5 -137t330.5 137t138 331t-138 332t-330.5 138t-333.5 -138zM1006 902q175 -168 175 -406.5t-171.5 -409.5t-410 -171t-409.5 171t-171 409.5t171 410t409.5 171.5t406.5 -175zM739 634q58 -58 58 -139t-58.5 -138.5
t-139 -57.5t-138 57.5t-57.5 138.5t57.5 139.5t138 58.5t139.5 -59z" />
    <glyph glyph-name="uniE166" unicode="&#xe166;" 
d="M1185 144v-216h-1170v216h1170zM1123 89h-113v-107h113v107zM222 659q-23 28 -20.5 63.5t29.5 61.5q13 12 29.5 17.5t33 4.5t32.5 -8.5t28 -21.5l140 -153v440h188v-440l138 153q26 28 61 30t63 -22q15 -13 23 -30t8 -35q0 -33 -24 -60l-365 -402z" />
    <glyph glyph-name="uniE167" unicode="&#xe167;" 
d="M1185 144v-216h-1170v216h1170zM1123 89h-113v-107h113v107zM950 679q23 -28 20.5 -63.5t-29.5 -61.5q-13 -12 -29.5 -17.5t-33 -4.5t-32.5 8.5t-28 21.5l-140 153v-440h-188v440l-138 -153q-26 -28 -61 -30t-63 22q-15 13 -23 30t-8 35q0 33 24 60l365 402z" />
    <glyph glyph-name="uniE168" unicode="&#xe168;" 
d="M15 144v-216h1170v216h-1170zM1123 -18h-113v107h113v-107zM228 760q13 14 30.5 21.5t35.5 7.5t36 -7t32 -20l171 -164l267 386q10 16 26 26.5t34 14t36 -0.5t34 -15q16 -12 26 -28t13 -33.5t-0.5 -36t-14.5 -34.5l-390 -572l-334 322q-14 13 -21 30.5t-7.5 35.5t6 35.5
t20.5 31.5z" />
    <glyph glyph-name="uniE169" unicode="&#xe169;" 
d="M15 144v-216h1170v216h-1170zM1123 -18h-113v107h113v-107zM1002 788q-11 32 -42 50t-63 12q-33 -8 -49 -36.5t-6 -60.5l69 -198l-516 332l-90 -135l502 -323l-186 -19q-34 -4 -52.5 -30t-11.5 -59q4 -17 15.5 -31.5t25.5 -22.5q27 -20 59 -15l510 51zM131 1057l177 -116
l-87 -138l-179 114z" />
    <glyph glyph-name="uniE170" unicode="&#xe170;" 
d="M1185 144v-216h-1170v216h1170zM1123 89h-113v-107h113v107zM1152 1007l-160 -487q-9 -31 -38 -48q-14 -10 -31.5 -14.5t-34.5 -0.5q-17 3 -29.5 12t-20 22t-9 28.5t3.5 31.5l58 178l-499 -328l-87 137l513 337l-209 18q-34 4 -53 29.5t-13 59.5q4 16 13.5 29.5t23 23.5
t29.5 15t33 3zM42 366l178 115l91 -136l-177 -117z" />
    <glyph glyph-name="uniE171" unicode="&#xe171;" 
d="M12 1039l1175 -583l-1175 -583l258 527l388 47l-388 64z" />
    <glyph glyph-name="uniE172" unicode="&#xe172;" 
d="M600 -97h-530q-55 0 -65 47v22q-5 338 -5 1016q0 33 22 51t48 18h932l12 -2q63 -59 179 -176q3 -3 3 -15q4 -296 4 -896q0 -29 -20.5 -47t-48.5 -18h-531zM920 919q0 29 -19 47.5t-46 18.5h-506q-29 0 -48 -18.5t-19 -47.5v-218q0 -28 19 -46t48 -18h506q27 0 46 18
t19 46v218zM1029 521h-857v-499h857v499zM803 933v-246h-120v246h120z" />
    <glyph glyph-name="uniE173" unicode="&#xe173;" 
d="M575 135l-157 150q-36 37 0 65q32 33 69 4l73 -73l116 175q30 34 68.5 8.5t9.5 -64.5zM600 -44h-499q-52 0 -61 44v21q-5 318 -5 957q0 31 20.5 48t45.5 17h878l11 -2q59 -56 168 -166q3 -3 3 -14q4 -279 4 -844q0 -27 -19.5 -44t-45.5 -17h-500zM901 913
q0 27 -17.5 44.5t-43.5 17.5h-476q-28 0 -45.5 -17.5t-17.5 -44.5v-205q0 -27 17.5 -44t45.5 -17h476q26 0 43.5 17t17.5 44v205zM1004 538h-807v-470h807v470zM791 926v-232h-113v232h113z" />
    <glyph glyph-name="uniE174" unicode="&#xe174;" 
d="M600 -45h-499q-52 0 -61 44v21q-5 318 -5 957q0 31 20.5 48t45.5 17h878l11 -2q59 -56 168 -166q3 -3 3 -14q4 -279 4 -844q0 -27 -19.5 -44t-45.5 -17h-500zM901 912q0 27 -17.5 44.5t-43.5 17.5h-476q-28 0 -45.5 -17.5t-17.5 -44.5v-205q0 -27 17.5 -44t45.5 -17h476
q26 0 43.5 17t17.5 44v205zM1004 537h-807v-470h807v470zM791 925v-232h-113v232h113zM777 198q32 -25 4 -56q-28 -30 -56 -2l-125 111l-124 -111q-10 -11 -26 -11q-18 0 -27 13q-28 28 2 56l116 109l-116 102q-30 30 -2 56q25 33 53 2l124 -109l125 109q9 12 25 12
q20 0 31 -14q25 -26 -4 -56l-118 -102z" />
    <glyph glyph-name="uniE175" unicode="&#xe175;" 
d="M600 -43h-499q-52 0 -61 44v21q-5 318 -5 957q0 31 20.5 48t45.5 17h878l11 -2q59 -56 168 -166q3 -3 3 -14q4 -279 4 -844q0 -27 -19.5 -44t-45.5 -17h-500zM901 914q0 27 -17.5 44.5t-43.5 17.5h-476q-28 0 -45.5 -17.5t-17.5 -44.5v-205q0 -27 17.5 -44t45.5 -17h476
q26 0 43.5 17t17.5 44v205zM1004 539h-807v-470h807v470zM791 927v-232h-113v232h113zM760 347q31 -22 4 -55l-164 -178l-161 178q-11 14 -11 26q0 19 14 29q28 29 55 -4l58 -61v201h92v-201l59 61q25 33 54 4z" />
    <glyph glyph-name="uniE176" unicode="&#xe176;" 
d="M600 -46h-499q-52 0 -61 44v21q-5 318 -5 957q0 31 20.5 48t45.5 17h878l11 -2q59 -56 168 -166q3 -3 3 -14q4 -279 4 -844q0 -27 -19.5 -44t-45.5 -17h-500zM901 911q0 27 -17.5 44.5t-43.5 17.5h-476q-28 0 -45.5 -17.5t-17.5 -44.5v-205q0 -27 17.5 -44t45.5 -17h476
q26 0 43.5 17t17.5 44v205zM1004 536h-807v-470h807v470zM791 924v-232h-113v232h113zM442 253q-31 26 -3 53l161 182l164 -182q10 -11 10 -27.5t-14 -25.5q-29 -30 -54 0l-59 67v-206h-92v206l-58 -67q-27 -30 -55 0z" />
    <glyph glyph-name="uniE177" unicode="&#xe177;" 
d="M50 1030h1100q21 0 35.5 -14.5t14.5 -35.5v-150h-1200v150q0 21 14.5 35.5t35.5 14.5zM1200 730v-550q0 -21 -14.5 -35.5t-35.5 -14.5h-1100q-21 0 -35.5 14.5t-14.5 35.5v550h1200zM100 430v-200h400v200h-400z" />
    <glyph glyph-name="uniE178" unicode="&#xe178;" 
d="M1189 819l-296 -267q-16 -15 -41 -15q-32 0 -45 20q-43 49 1 90l110 98h-440v135h454l-124 109q-44 42 -2 91t87 3zM249 880h157v-135h-157v135zM19 885h155v-136h-155v136zM11 186l296 267q17 17 44 17q26 0 47 -21q40 -54 -6 -90l-104 -99h438v-136h-453l119 -107
q46 -39 6 -91q-45 -47 -91 -3zM797 260h157v-136h-157v136zM1027 256h154v-135h-154v135z" />
    <glyph glyph-name="uniE179" unicode="&#xe179;" 
d="M812 1003l276 116q25 18 43.5 8t18.5 -41v-1106q0 -21 -14.5 -35.5t-35.5 -14.5h-200q-21 0 -35.5 14.5t-14.5 35.5v397q-4 1 -11 5t-24 17.5t-30 29t-24 42t-11 56.5v359q0 31 18.5 65t43.5 52zM500 1130q22 0 34.5 -12.5t14.5 -24.5l1 -13v-450q0 -28 -10.5 -59.5
t-25 -56t-29 -45t-25.5 -31.5l-10 -11v-447q0 -21 -14.5 -35.5t-35.5 -14.5h-200q-21 0 -35.5 14.5t-14.5 35.5v447q-4 4 -11 11.5t-24 30.5t-30 46t-24 55t-11 60v450q0 2 0.5 5.5t4 12t8.5 15t14.5 12t22.5 5.5q20 0 32.5 -12.5t14.5 -24.5l3 -13v-350h100v350v6l2 12
l8 14l14 12l26 6q23 0 35.5 -12.5t13.5 -24.5l1 -13v-350h100v350q0 2 0.5 5.5t3 12t7 15t15 12t24.5 5.5z" />
    <glyph glyph-name="uniE180" unicode="&#xe180;" 
d="M1150 1030v-56q-4 0 -11 -0.5t-24 -3t-30 -7.5t-24 -15t-11 -24v-888q0 -22 25 -34.5t50 -13.5l25 -2v-56h-400v56q75 0 87.5 6.5t12.5 43.5v394h-500v-394q0 -37 12.5 -43.5t87.5 -6.5v-56h-400v56q4 0 11 0.5t24 3t30 7.5t24 15t11 24v888q0 22 -25 34.5t-50 13.5
l-25 2v56h400v-56q-75 0 -87.5 -6.5t-12.5 -43.5v-394h500v394q0 37 -12.5 43.5t-87.5 6.5v56h400z" />
    <glyph glyph-name="uniE181" unicode="&#xe181;" 
d="M1342 448l-77 80q-42 42 0 81q38 44 77 0v-161zM82 582q37 39 77.5 2.5t0.5 -81.5l-173 -172q-42 -40 -83.5 1t1.5 80zM398 907v-887h-174v326l-16 -15q-40 -40 -82 0q-37 42 0 81l98 96v399h174zM1121 582l177 -170q40 -39 -1 -80t-81 -1l-174 172q-43 45 -1 81.5
t80 -2.5zM1074 412q39 -39 0 -81q-39 -40 -83 0l-13 15v-326h-173v887h173v-399zM-62 582q41 -34 0 -79l-79 -78v157q41 39 79 0zM465 674h272v-492h-272v492z" />
    <glyph glyph-name="uniE182" unicode="&#xe182;" 
d="M16 937l162 162q17 17 40 14t37 -22l139 -194q14 -20 11 -44.5t-20 -41.5l-119 -118q102 -142 228 -268t267 -227l119 118q17 17 42.5 19t44.5 -12l192 -136q19 -14 22.5 -37.5t-13.5 -40.5l-163 -162q-3 -1 -9.5 -1t-29.5 2t-47.5 6t-62.5 14.5t-77.5 26.5t-90 42.5
t-101.5 60t-111 83t-119 108.5q-74 74 -133.5 150.5t-94.5 138.5t-60 119.5t-34.5 100t-15 74.5t-4.5 48z" />
    <glyph glyph-name="uniE183" unicode="&#xe183;" 
d="M1191 852l9 -10v-200q0 -21 -14.5 -33t-34.5 -9l-202 34q-20 3 -34.5 20t-14.5 38v146q-141 24 -300 24t-300 -24v-146q0 -21 -14.5 -38t-34.5 -20l-202 -34q-20 -3 -34.5 9t-14.5 33v200q3 4 9.5 10.5t31 26t54 37.5t80.5 39.5t109 37.5t141 26.5t175 10.5t175 -10.5
t141.5 -27t108.5 -36.5t81.5 -40t53.5 -37t31 -27zM799 640l1 -10v-50l365 -303q14 -15 24.5 -40t10.5 -45v-212q0 -21 -14.5 -35.5t-35.5 -14.5h-1100q-21 0 -35.5 14.5t-14.5 35.5v212q0 20 10.5 45t24.5 40l365 303v50q0 4 1 10.5t12 23t30 29t60 22.5t97 10t97 -9.5
t60 -23.5t30 -28t12 -24z" />
    <glyph glyph-name="uniE184" unicode="&#xe184;" 
d="M1100 630l-200 -200h-600l-200 200v500h200v-200h200v200h200v-200h200v200h200v-500zM250 330h700q21 0 35.5 -14.5t14.5 -35.5t-14.5 -35.5t-35.5 -14.5h-12l137 -100h-950l137 100h-12q-21 0 -35.5 14.5t-14.5 35.5t14.5 35.5t35.5 14.5zM50 30h1100q21 0 35.5 -14.5
t14.5 -35.5v-50h-1200v50q0 21 14.5 35.5t35.5 14.5z" />
    <glyph glyph-name="uniE185" unicode="&#xe185;" 
d="M516 -23q0 -47 -45 -47h-57q-43 0 -43 47v874q0 48 43 48h57q45 0 45 -48v-874zM201 -23q0 -47 -47 -47h-54q-19 0 -33.5 15t-14.5 32v511q0 19 14.5 33t33.5 14h54q47 0 47 -47v-511zM833 -23q0 -47 -47 -47h-57q-43 0 -43 47v693q0 43 43 43h57q47 0 47 -43v-693z
M998 978q0 48 49 48h53q20 0 34 -14.5t14 -33.5v-1001q0 -17 -14 -32t-34 -15h-53q-49 0 -49 47v1001z" />
    <glyph glyph-name="uniE186" unicode="&#xe186;" 
d="M250 1030h700q124 0 212 -88t88 -212v-500q0 -124 -88 -212t-212 -88h-700q-124 0 -212 88t-88 212v500q0 124 88 212t212 88zM150 830v-700h900v700h-900zM550 630h-200v-100h200v-300h-300v100h200v100h-200v300h300v-100zM950 630v-300l-100 -100h-200v500h200z
M750 630v-300h100v300h-100z" />
    <glyph glyph-name="uniE187" unicode="&#xe187;" 
d="M250 1030h700q124 0 212 -88t88 -212v-500q0 -124 -88 -212t-212 -88h-700q-124 0 -212 88t-88 212v500q0 124 88 212t212 88zM150 830v-700h900v700h-900zM550 230h-100v200h-100v-200h-100v500h100v-200h100v200h100v-500zM950 630v-300l-100 -100h-200v500h200z
M750 630v-300h100v300h-100z" />
    <glyph glyph-name="uniE188" unicode="&#xe188;" 
d="M250 1030h700q124 0 212 -88t88 -212v-500q0 -124 -88 -212t-212 -88h-700q-124 0 -212 88t-88 212v500q0 124 88 212t212 88zM150 830v-700h900v700h-900zM550 630h-200v-300h200v-100h-300v500h300v-100zM950 630h-200v-300h200v-100h-300v500h300v-100z" />
    <glyph glyph-name="uniE189" unicode="&#xe189;" 
d="M250 1030h700q124 0 212 -88t88 -212v-500q0 -124 -88 -212t-212 -88h-700q-124 0 -212 88t-88 212v500q0 124 88 212t212 88zM150 830v-700h900v700h-900zM550 330l-300 150l300 150v-300zM950 480l-300 -150v300z" />
    <glyph glyph-name="uniE190" unicode="&#xe190;" 
d="M250 1030h700q124 0 212 -88t88 -212v-500q0 -124 -88 -212t-212 -88h-700q-124 0 -212 88t-88 212v500q0 124 88 212t212 88zM150 830v-700h900v700h-900zM950 230h-700v500h700v-500zM850 630h-130q-38 0 -66.5 -43t-28.5 -108t27 -107t68 -42h130v300zM350 630v-300
h130q41 0 68 42t27 107t-28.5 108t-66.5 43h-130z" />
    <glyph glyph-name="uniE191" unicode="&#xe191;" 
d="M250 1030h700q124 0 212 -88t88 -212v-500q0 -124 -88 -212t-212 -88h-700q-124 0 -212 88t-88 212v500q0 124 88 212t212 88zM150 830v-700h900v700h-900zM550 630h-200v-100h200v-300h-300v100h200v100h-200v300h300v-100zM950 230h-100v400h-100v100h200v-500z
M750 230h-100v100h100v-100z" />
    <glyph glyph-name="uniE192" unicode="&#xe192;" 
d="M250 1030h700q124 0 212 -88t88 -212v-500q0 -124 -88 -212t-212 -88h-700q-124 0 -212 88t-88 212v500q0 124 88 212t212 88zM150 830v-700h900v700h-900zM350 630h200v-400h-300v500h100v-100zM950 230h-100v400h-100v100h200v-500zM350 530v-200h100v200h-100z
M750 230h-100v100h100v-100z" />
    <glyph glyph-name="uniE193" unicode="&#xe193;" 
d="M250 1030h700q124 0 212 -88t88 -212v-500q0 -124 -88 -212t-212 -88h-700q-124 0 -212 88t-88 212v500q0 124 88 212t212 88zM150 830v-700h900v700h-900zM550 430l-199 -200h-100v50l199 200v150h-200v100h300v-300zM950 230h-100v400h-100v100h200v-500zM751 230h-100
v100h100v-100z" />
    <glyph glyph-name="uniE194" unicode="&#xe194;" 
d="M370 1074q110 47 230 47t229.5 -47t188.5 -126t126 -188.5t47 -229.5t-47 -229.5t-126 -188.5t-188.5 -126t-229.5 -47t-229.5 47t-188.5 126t-126 188.5t-47 229.5t47 229.5t126 188.5t188 126zM811 894q-97 57 -211 57t-211 -56.5t-153.5 -153.5t-56.5 -211t56.5 -211
t153.5 -153.5t211 -56.5t211 56.5t153.5 153.5t56.5 211t-56.5 211t-153.5 153zM800 630h-300v-200h300v-100h-300l-100 100v200l100 100h300v-100z" />
    <glyph glyph-name="uniE195" unicode="&#xe195;" 
d="M370 1074q110 47 230 47t229.5 -47t188.5 -126t126 -188.5t47 -229.5t-47 -229.5t-126 -188.5t-188.5 -126t-229.5 -47t-229.5 47t-188.5 126t-126 188.5t-47 229.5t47 229.5t126 188.5t188 126zM811 894q-97 57 -211 57t-211 -56.5t-153.5 -153.5t-56.5 -211t56.5 -211
t153.5 -153.5t211 -56.5t211 56.5t153.5 153.5t56.5 211t-56.5 211t-153.5 153zM800 630v-100l-50 -50l100 -100v-50h-100l-100 100h-150v-100h-100v400h300zM500 630v-100h200v100h-200z" />
    <glyph glyph-name="uniE197" unicode="&#xe197;" 
d="M1220 407q33 -118 -37 -220q-59 -79 -146 -90q-13 -4 -34 -4h-111l69 76q40 45 40 107q-8 59 -51 102q-47 39 -101 39q-36 0 -74 -20v243h-321v-243q-38 20 -74 20q-53 0 -98 -39q-54 -43 -54 -109q0 -55 43 -100l66 -76h-100q-149 0 -213 136q-76 149 51 276
q41 38 106 48q0 5 13 5q-21 116 61 178q35 27 99.5 27t110.5 -42q18 42 45 80q70 82 183 91q120 15 224 -35t130 -199q5 -36 0 -79q-5 0 1 -7q137 -40 172 -165zM895 317q55 -46 5 -95l-114 -129l-172 -188l-170 188l-115 129q-18 18 -18 46t23 49q19 18 46.5 18t49.5 -20
l102 -113v358h164v-358l105 113q20 20 49 20t45 -18z" />
    <glyph glyph-name="uniE198" unicode="&#xe198;" 
d="M1220 407q33 -118 -37 -220q-59 -79 -146 -90q-13 -4 -34 -4h-46q44 50 44 104t-40 99l-287 318l-60 64l-59 -64l-284 -318q-43 -48 -43 -106q9 -59 45 -97h-36q-149 0 -213 136q-76 149 51 276q41 38 106 48q0 5 13 5q-21 116 61 178q35 27 99.5 27t110.5 -42
q18 42 45 80q70 82 183 91q120 15 224 -35t130 -199q5 -36 0 -79q-5 0 1 -7q137 -40 172 -165zM900 244q18 -19 18 -46q0 -33 -23 -55q-23 -16 -46 -16q-25 0 -48 23l-105 111v-356h-164v356l-102 -111q-26 -23 -50 -23q-23 0 -46 16q-52 51 -5 101l285 316z" />
    <glyph glyph-name="uniE199" unicode="&#xe199;" 
d="M750 30q21 0 35.5 -14.5t14.5 -35.5v-50h-400v50q0 21 14.5 35.5t35.5 14.5h50v100h-400l270 300h-170l270 300h-170l300 333l300 -333h-170l270 -300h-170l270 -300h-400v-100h50z" />
    <glyph glyph-name="uniE200" unicode="&#xe200;" 
d="M600 1109q94 0 167.5 -56.5t99.5 -145.5q89 -6 150.5 -71.5t61.5 -155.5q0 -61 -29.5 -112.5t-79.5 -82.5q9 -29 9 -55q0 -74 -52.5 -126.5t-126.5 -52.5q-55 0 -100 30v-251q21 0 35.5 -14.5t14.5 -35.5v-50h-300v50q0 21 14.5 35.5t35.5 14.5v251q-45 -30 -100 -30
q-74 0 -126.5 52.5t-52.5 126.5q0 18 4 38q-47 21 -75.5 65t-28.5 97q0 74 52.5 126.5t126.5 52.5q5 0 23 -2q0 2 -1 10t-1 13q0 116 81.5 197.5t197.5 81.5z" />
    <glyph glyph-name="uniE201" unicode="&#xe201;" 
d="M1010 940q111 -111 150.5 -260.5t0 -299t-150.5 -260.5q-83 -83 -191.5 -126.5t-218.5 -43.5t-218.5 43.5t-191.5 126.5q-111 111 -150.5 260.5t0 299t150.5 260.5q83 83 191.5 126.5t218.5 43.5t218.5 -43.5t191.5 -126.5zM476 995q-4 0 -8 -1q-121 -34 -209.5 -122.5
t-122.5 -209.5q-4 -12 2.5 -23t18.5 -14l36 -9q3 -1 7 -1q23 0 29 22q27 96 98 166q70 71 166 98q11 3 17.5 13.5t3.5 22.5l-9 35q-3 13 -14 19q-7 4 -15 4zM512 850q-4 0 -9 -2q-80 -24 -138.5 -82.5t-82.5 -138.5q-4 -13 2 -24t19 -14l34 -9q4 -1 8 -1q22 0 28 21
q18 58 58.5 98.5t97.5 58.5q12 3 18 13.5t3 21.5l-9 35q-3 12 -14 19q-7 4 -15 4zM769 530q0 70 -49.5 119.5t-119.5 49.5t-119.5 -49.5t-49.5 -119.5t49.5 -119.5t119.5 -49.5t119.5 49.5t49.5 119.5zM855 481q-22 0 -28 -21q-18 -58 -58.5 -98.5t-98.5 -57.5
q-11 -4 -17 -14.5t-3 -21.5l9 -35q3 -12 14 -19q7 -4 15 -4q4 0 9 2q80 24 138.5 82.5t82.5 138.5q4 13 -2.5 24t-18.5 14l-34 9q-4 1 -8 1zM1000 445q-23 0 -29 -22q-27 -96 -98 -166q-70 -71 -166 -98q-11 -3 -17.5 -13.5t-3.5 -22.5l9 -35q3 -13 14 -19q7 -4 15 -4
q4 0 8 1q121 34 209.5 122.5t122.5 209.5q4 12 -2.5 23t-18.5 14l-36 9q-3 1 -7 1z" />
    <glyph glyph-name="uniE202" unicode="&#xe202;" 
d="M750 730h300v-380h-180v200h-340v-200h-380v755q0 10 7.5 17.5t17.5 7.5h575v-400zM1050 830h-200v200zM750 230h162l-212 -212l-212 212h162v200h100v-200zM570 -70h-395q-10 0 -17.5 7.5t-7.5 17.5v395zM1050 150v-195q0 -10 -7.5 -17.5t-17.5 -7.5h-195z" />
    <glyph glyph-name="uniE203" unicode="&#xe203;" 
d="M750 730h300v-520l-350 350l-550 -550v1095q0 10 7.5 17.5t17.5 7.5h575v-400zM1050 830h-200v200zM912 130h-162v-200h-100v200h-162l212 212zM530 -70h-355q-10 0 -17.5 7.5t-7.5 17.5v55h380v-80zM1050 10v-55q0 -10 -7.5 -17.5t-17.5 -7.5h-155v80h180z" />
    <glyph glyph-name="uniE204" unicode="&#xe204;" 
d="M1124 896v-83h-257v220l-68 -90q-30 -37 -57 -3q-25 26 -2 67l171 220l167 -220q14 -18 14 -31q0 -24 -16 -36q-27 -34 -54 3l-71 90v-137h173zM1288 518l-250 -584v-3h-1058l248 585l1 2h880h179zM197 649q-36 0 -64 -22.5t-34 -56.5l-187 -453v707q0 20 11.5 33.5
t33.5 15.5h8h313q38 0 54 -36q2 -8 2 -14v-16l4 -14l6 -13q7 -11 16 -16.5t24 -5.5q5 -4 7.5 -4.5t4.5 -0.5h638q16 0 27.5 -3.5t21.5 -18.5q2 -5 6 -10.5t4 -15.5q2 -13 1 -24.5t-1 -25.5v-6h-896z" />
    <glyph glyph-name="uniE205" unicode="&#xe205;" 
d="M408 86q-15 -20 -49 -20q-30 0 -51 25q-50 54 2 101l119 109h-380v174h380l-119 111q-52 43 -4 100.5t102 4.5l338 -304zM1001 977q62 0 106 -43t44 -104v-820q0 -59 -44 -103t-106 -44h-603q-61 0 -104.5 44t-43.5 103h44q0 -44 30 -75.5t74 -31.5h603q42 0 72 31.5
t30 75.5v820q0 46 -30 76.5t-72 30.5h-92v-158h-422v158h-89q-44 0 -74 -30.5t-30 -76.5v-90h-44v90q0 61 43.5 104t104.5 43h165q9 54 48.5 86.5t88 32.5t88 -32.5t46.5 -86.5h167zM771 977q-23 56 -71.5 56t-70.5 -56h142z" />
    <glyph glyph-name="uniE206" unicode="&#xe206;" 
d="M810 90q-17 -19 -53 -19q-29 0 -50 23q-49 51 6 101l117 107h-374v175h374l-117 109q-55 49 -6 102q48 56 103 5l339 -303zM903 732v99q0 45 -31 76t-71 31h-92v-158h-420v158h-92q-40 0 -69.5 -31t-29.5 -76v-816q0 -44 29.5 -76t69.5 -32h604q40 0 71 32t31 76h45
q0 -61 -44 -104.5t-103 -43.5h-604q-60 0 -103.5 43.5t-43.5 104.5v816q0 61 43.5 104t103.5 43h166q8 54 46.5 86.5t89 32.5t89.5 -32.5t47 -86.5h166q59 0 103 -43t44 -104v-99h-45zM570 978q-21 55 -71.5 55t-71.5 -55h143z" />
    <glyph glyph-name="uniE209" unicode="&#xe209;" 
d="M1281 -47q7 -11 2 -19t-19 -8h-630h-68h-630q-14 0 -19 8t2 19l315 548q8 11 17.5 28t16.5 30l316 546q6 11 16 11t17 -11l315 -546q8 -13 17 -30t17 -28zM535 314q0 -43 41 -43h50q39 0 39 43v465q0 42 -39 42h-50q-41 0 -41 -42v-465zM652 90q21 22 21 55t-21 53
q-10 11 -23.5 16.5t-28 5.5t-28.5 -5.5t-25 -16.5q-18 -18 -18 -53q0 -17 4.5 -30.5t15.5 -24.5q10 -10 23.5 -15t28 -5t28 5t23.5 15z" />
    <glyph glyph-name="uniE210" unicode="&#xe210;" 
d="M475 1030h250q10 0 17.5 -7.5t7.5 -17.5v-150q0 -10 -7.5 -17.5t-17.5 -7.5h-250q-10 0 -17.5 7.5t-7.5 17.5v150q0 10 7.5 17.5t17.5 7.5zM475 730h250q10 0 17.5 -7.5t7.5 -17.5v-150q0 -10 -7.5 -17.5t-17.5 -7.5h-250q-10 0 -17.5 7.5t-7.5 17.5v150q0 10 7.5 17.5
t17.5 7.5zM875 730h250q10 0 17.5 -7.5t7.5 -17.5v-150q0 -10 -7.5 -17.5t-17.5 -7.5h-250q-10 0 -17.5 7.5t-7.5 17.5v150q0 10 7.5 17.5t17.5 7.5zM75 430h250q10 0 17.5 -7.5t7.5 -17.5v-150q0 -10 -7.5 -17.5t-17.5 -7.5h-250q-10 0 -17.5 7.5t-7.5 17.5v150
q0 10 7.5 17.5t17.5 7.5zM475 430h250q10 0 17.5 -7.5t7.5 -17.5v-150q0 -10 -7.5 -17.5t-17.5 -7.5h-250q-10 0 -17.5 7.5t-7.5 17.5v150q0 10 7.5 17.5t17.5 7.5zM875 430h250q10 0 17.5 -7.5t7.5 -17.5v-150q0 -10 -7.5 -17.5t-17.5 -7.5h-250q-10 0 -17.5 7.5t-7.5 17.5
v150q0 10 7.5 17.5t17.5 7.5zM75 130h250q10 0 17.5 -7.5t7.5 -17.5v-150q0 -10 -7.5 -17.5t-17.5 -7.5h-250q-10 0 -17.5 7.5t-7.5 17.5v150q0 10 7.5 17.5t17.5 7.5zM475 130h250q10 0 17.5 -7.5t7.5 -17.5v-150q0 -10 -7.5 -17.5t-17.5 -7.5h-250q-10 0 -17.5 7.5
t-7.5 17.5v150q0 10 7.5 17.5t17.5 7.5zM875 130h250q10 0 17.5 -7.5t7.5 -17.5v-150q0 -10 -7.5 -17.5t-17.5 -7.5h-250q-10 0 -17.5 7.5t-7.5 17.5v150q0 10 7.5 17.5t17.5 7.5z" />
    <glyph glyph-name="uniE211" unicode="&#xe211;" 
d="M700 1130h100v-200h-100v-100h350q62 0 86.5 -39.5t-3.5 -94.5l-66 -132q-41 -83 -81 -134h-772q-40 51 -81 134l-66 132q-28 55 -3.5 94.5t86.5 39.5h350v100h-100v200h100v100h200v-100zM250 330h700q21 0 35.5 -14.5t14.5 -35.5t-14.5 -35.5t-35.5 -14.5h-12l137 -100
h-950l138 100h-13q-21 0 -35.5 14.5t-14.5 35.5t14.5 35.5t35.5 14.5zM50 30h1100q21 0 35.5 -14.5t14.5 -35.5v-50h-1200v50q0 21 14.5 35.5t35.5 14.5z" />
    <glyph glyph-name="uniE212" unicode="&#xe212;" 
d="M697 1130h-194q0 41 28.5 70.5t68.5 29.5t68.5 -29.5t28.5 -70.5zM443 1030h314q18 -37 18 -75q0 -8 -3 -25h328q41 0 44.5 -16.5t-30.5 -38.5l-175 -145h-678l-178 145q-34 22 -29 38.5t46 16.5h328q-3 17 -3 25q0 38 18 75zM250 630h700q21 0 35.5 -14.5t14.5 -35.5
t-14.5 -35.5t-35.5 -14.5h-150v-200l275 -200h-950l275 200v200h-150q-21 0 -35.5 14.5t-14.5 35.5t14.5 35.5t35.5 14.5zM50 30h1100q21 0 35.5 -14.5t14.5 -35.5v-50h-1200v50q0 21 14.5 35.5t35.5 14.5z" />
    <glyph glyph-name="uniE213" unicode="&#xe213;" 
d="M472 1058q53 53 128 53t128 -53t53 -128t-53 -128t-128 -53t-128 53t-53 128t53 128zM602 728h46q34 0 55.5 -28.5t21.5 -86.5q0 -76 39 -183h-324q39 107 39 183q0 58 21.5 86.5t56.5 28.5h45zM250 330h700q21 0 35.5 -14.5t14.5 -35.5t-14.5 -35.5t-35.5 -14.5h-13
l138 -100h-950l137 100h-12q-21 0 -35.5 14.5t-14.5 35.5t14.5 35.5t35.5 14.5zM50 30h1100q21 0 35.5 -14.5t14.5 -35.5v-50h-1200v50q0 21 14.5 35.5t35.5 14.5z" />
    <glyph glyph-name="uniE214" unicode="&#xe214;" 
d="M600 1230q47 0 92.5 -53.5t71 -123t25.5 -123.5q0 -78 -55.5 -133.5t-133.5 -55.5t-133.5 55.5t-55.5 133.5q0 62 34 143l144 -143l111 111l-163 163q34 26 63 26zM602 728h46q34 0 55.5 -28.5t21.5 -86.5q0 -76 39 -183h-324q39 107 39 183q0 58 21.5 86.5t56.5 28.5h45
zM250 330h700q21 0 35.5 -14.5t14.5 -35.5t-14.5 -35.5t-35.5 -14.5h-13l138 -100h-950l137 100h-12q-21 0 -35.5 14.5t-14.5 35.5t14.5 35.5t35.5 14.5zM50 30h1100q21 0 35.5 -14.5t14.5 -35.5v-50h-1200v50q0 21 14.5 35.5t35.5 14.5z" />
    <glyph glyph-name="uniE215" unicode="&#xe215;" 
d="M600 1130l300 -161v-139h-300q0 -57 18.5 -108t50 -91.5t63 -72t70 -67.5t57.5 -61h-530q-60 83 -90.5 177.5t-30.5 178.5t33 164.5t87.5 139.5t126 96.5t145.5 41.5v-98zM250 330h700q21 0 35.5 -14.5t14.5 -35.5t-14.5 -35.5t-35.5 -14.5h-13l138 -100h-950l137 100
h-12q-21 0 -35.5 14.5t-14.5 35.5t14.5 35.5t35.5 14.5zM50 30h1100q21 0 35.5 -14.5t14.5 -35.5v-50h-1200v50q0 21 14.5 35.5t35.5 14.5z" />
    <glyph glyph-name="uniE216" unicode="&#xe216;" 
d="M700 1130v-78q46 -26 73 -72t27 -100v-50h-400v50q0 54 27 100t73 72v78q0 41 29.5 70.5t70.5 29.5t70.5 -29.5t29.5 -70.5zM400 730h400q54 0 100 -27t72 -73h-172v-100h200v-100h-200v-100h200v-100h-200v-100h200q0 -83 -58.5 -141.5t-141.5 -58.5h-400
q-83 0 -141.5 58.5t-58.5 141.5v400q0 83 58.5 141.5t141.5 58.5z" />
    <glyph glyph-name="uniE218" unicode="&#xe218;" 
d="M150 1030h900q21 0 35.5 -14.5t14.5 -35.5v-500q0 -21 -14.5 -35.5t-35.5 -14.5h-900q-21 0 -35.5 14.5t-14.5 35.5v500q0 21 14.5 35.5t35.5 14.5zM125 330h950q10 0 17.5 -7.5t7.5 -17.5v-50q0 -10 -7.5 -17.5t-17.5 -7.5h-283l224 -224q13 -13 13 -31.5t-13 -32
t-31.5 -13.5t-31.5 13l-88 88h-524l-87 -88q-13 -13 -32 -13t-32 13.5t-13 32t13 31.5l224 224h-289q-10 0 -17.5 7.5t-7.5 17.5v50q0 10 7.5 17.5t17.5 7.5zM541 230l-100 -100h324l-100 100h-124z" />
    <glyph glyph-name="uniE219" unicode="&#xe219;" 
d="M200 1030h800q83 0 141.5 -58.5t58.5 -141.5v-200h-100q0 41 -29.5 70.5t-70.5 29.5h-250q-41 0 -70.5 -29.5t-29.5 -70.5h-100q0 41 -29.5 70.5t-70.5 29.5h-250q-41 0 -70.5 -29.5t-29.5 -70.5h-100v200q0 83 58.5 141.5t141.5 58.5zM100 530h1000q41 0 70.5 -29.5
t29.5 -70.5v-300h-1200v300q0 41 29.5 70.5t70.5 29.5zM300 30v-50q0 -21 -14.5 -35.5t-35.5 -14.5h-100q-21 0 -35.5 14.5t-14.5 35.5v50h200zM1100 30v-50q0 -21 -14.5 -35.5t-35.5 -14.5h-100q-21 0 -35.5 14.5t-14.5 35.5v50h200z" />
    <glyph glyph-name="uniE221" unicode="&#xe221;" 
d="M483 1095l682 -683q31 -31 31 -75.5t-31 -75.5l-131 -131h-481l-517 518q-32 31 -32 75.5t32 75.5l295 296q31 31 75.5 31t76.5 -31zM111 724l342 -342l303 304l-341 341zM253 30h800q21 0 35.5 -14.5t14.5 -35.5v-50h-900v50q0 21 14.5 35.5t35.5 14.5z" />
    <glyph glyph-name="uniE223" unicode="&#xe223;" 
d="M1057 577q8 -19 -1.5 -33t-30.5 -14h-125v-150q0 -21 -14.5 -35.5t-35.5 -14.5t-35.5 14.5t-14.5 35.5v150h-625q-21 0 -30.5 14t-1.5 33l189 506q8 19 27.5 33t40.5 14h400q21 0 40.5 -14t27.5 -33zM897 -70h-595v50q0 21 14.5 35.5t35.5 14.5h50v50q0 21 14.5 35.5
t35.5 14.5h48v300h200v-300h47q21 0 35.5 -14.5t14.5 -35.5v-50h50q21 0 35.5 -14.5t14.5 -35.5v-50z" />
    <glyph glyph-name="uniE224" unicode="&#xe224;" 
d="M259 193q6 -35 22 -64.5t40.5 -50.5t56.5 -33t68 -12h407v-20q0 -40 -25 -70t-64 -40q-6 -2 -12.5 -2.5t-12.5 -0.5h-525q-45 0 -76 27.5t-37 72.5v12v406v402q0 40 25.5 71t63.5 39q5 1 12 1h12h45v-308v-406v-10v-6v-8zM1083 872q8 -11 8 -22v-635q0 -41 -24.5 -70.5
t-63.5 -38.5q-6 -3 -13 -3.5t-13 -0.5h-524q-45 0 -76 27.5t-37 73.5v10v407v402q0 41 25 71.5t64 37.5q6 2 11 2h14h350q7 0 11.5 -2t9.5 -6zM1064 840l-262 254v-22v-122q0 -22 8.5 -42t23.5 -35t35 -24t42 -9h136h17z" />
    <glyph glyph-name="uniE225" unicode="&#xe225;" 
d="M483 1025h195q75 0 146 -32.5t124 -86t89.5 -122.5t48.5 -142q18 -14 35 -20q31 -10 64.5 6.5t43.5 48.5q10 34 -15 71q-19 27 -9 43q5 8 12.5 11t19 -1t23.5 -16q41 -44 39 -105q-3 -63 -46 -106.5t-104 -43.5h-62q-7 -55 -35 -117t-56 -100l-39 -234q-3 -20 -20 -34.5
t-38 -14.5h-100q-21 0 -33 14.5t-9 34.5l12 70q-49 -14 -91 -14h-195q-24 0 -65 8l-11 -64q-3 -20 -20 -34.5t-38 -14.5h-100q-21 0 -33 14.5t-9 34.5l26 157q-84 74 -128 175l-159 53q-19 7 -33 26t-14 40v50q0 21 14.5 35.5t35.5 14.5h124q11 87 56 166l-111 95
q-16 14 -12.5 23.5t24.5 9.5h203q116 101 250 101zM674 930h-250q-10 0 -17.5 -7.5t-7.5 -17.5v-50q0 -10 7.5 -17.5t17.5 -7.5h250q10 0 17.5 7.5t7.5 17.5v50q0 10 -7.5 17.5t-17.5 7.5z" />
    <glyph glyph-name="uniE226" unicode="&#xe226;" 
d="M297 92q-78 -46 -163.5 -30t-124.5 84q-22 40 -22 83q0 38 7 50q41 128 196 174q4 0 54.5 13t112 33t78.5 30l5 5q-5 0 -5 2q-17 11 -78.5 31.5t-112 32.5t-54.5 12q-152 42 -196 175q-7 16 -7 51q0 43 22 83q39 68 124.5 85.5t163.5 -32.5q96 -53 118 -141
q15 -57 -9 -114l182 -102q439 239 446 243q31 21 71 10.5t60.5 -21.5t27.5 -19l20 -20l-480 -276l480 -276l-20 -21q-7 -8 -27.5 -19t-60.5 -23.5t-71 12.5q-7 4 -446 243l-182 -100q24 -59 9 -118q-22 -86 -118 -140zM153 722q50 -26 97 -20t71 40q13 26 7 68
q-18 57 -72 85q-48 29 -96.5 21t-70.5 -41q-10 -15 -10 -37q0 -8 1 -15t1 -13q19 -56 72 -88zM89 194q22 -38 70.5 -44.5t96.5 22.5q54 28 72 86q6 40 -7 66q-24 35 -71 40.5t-97 -18.5q-53 -33 -72 -88q0 -7 -1 -14t-1 -15q0 -18 10 -35z" />
    <glyph glyph-name="uniE227" unicode="&#xe227;" 
d="M634 1130h150q10 0 17.5 -7.5t7.5 -17.5v-109q79 -33 131 -87.5t53 -128.5q1 -46 -15 -84.5t-39 -61t-46 -38t-39 -21.5l-17 -6q6 0 15 -1.5t35 -9t50 -17.5t53 -30t50 -45t35.5 -64t14.5 -84q0 -59 -11.5 -105.5t-28.5 -76.5t-44 -51t-49.5 -31.5t-54.5 -16t-49.5 -6.5
t-43.5 -1v-75q0 -10 -7.5 -17.5t-17.5 -7.5h-150q-10 0 -17.5 7.5t-7.5 17.5v75h-100v-75q0 -10 -7.5 -17.5t-17.5 -7.5h-150q-10 0 -17.5 7.5t-7.5 17.5v75h-175q-10 0 -17.5 7.5t-7.5 17.5v150q0 10 7.5 17.5t17.5 7.5h75v600h-75q-10 0 -17.5 7.5t-7.5 17.5v150
q0 10 7.5 17.5t17.5 7.5h175v75q0 10 7.5 17.5t17.5 7.5h150q10 0 17.5 -7.5t7.5 -17.5v-75h100v75q0 10 7.5 17.5t17.5 7.5zM409 830v-200h263q28 0 48.5 10.5t30 25t15 29t5.5 25.5l1 10q0 4 -0.5 11t-6 24t-15 30t-30 24t-48.5 11h-263zM409 430v-200h363q28 0 48.5 10.5
t30 25t15 29t5.5 25.5l1 10q0 4 -0.5 11t-6 24t-15 30t-30 24t-48.5 11h-363z" />
    <glyph glyph-name="uniE230" unicode="&#xe230;" 
d="M210 1128h780q86 0 147 -61t61 -147v-416q0 -51 -18 -142.5t-36 -157.5l-18 -66q-29 -87 -93.5 -146.5t-146.5 -59.5h-572q-82 0 -147 59t-93 147q-8 28 -20 73t-32 143.5t-20 149.5v416q0 86 61 147t147 61zM168 775l-6 -12l156 -243h560l156 243q-2 5 -6 12.5t-20 29.5
t-36.5 42t-57 44.5t-79 42t-105 29.5t-132.5 12t-132.5 -11.5t-105.5 -30.5t-78.5 -41.5t-57 -45t-36 -41t-20.5 -30.5zM760 633h-157l195 261z" />
    <glyph glyph-name="uniE231" unicode="&#xe231;" 
d="M525 1230h150q103 0 189 -86t86 -189v-500q0 -41 -42 -83t-83 -42h-450q-41 0 -83 42t-42 83v500q0 103 86 189t189 86zM750 230v-225q0 -21 -27 -48t-48 -27h-150q-21 0 -48 27t-27 48v225h300z" />
    <glyph glyph-name="uniE232" unicode="&#xe232;" 
d="M525 1230h96q0 -150 89.5 -239.5t239.5 -89.5v-446q0 -41 -42 -83t-83 -42h-450q-41 0 -83 42t-42 83v500q0 103 86 189t189 86zM750 230v-225q0 -21 -27 -48t-48 -27h-150q-21 0 -48 27t-27 48v225h300z" />
    <glyph glyph-name="uniE233" unicode="&#xe233;" 
d="M1247 697l-638 -283l-378 170l-78 -60v-224l100 -150v-199l-150 148l-150 -149v200l100 150v250q0 4 -0.5 10.5t0 9.5t1 8t3 8t6.5 6l47 40l-147 65l642 283zM953 310l-350 -166l-350 166v147l350 -165l350 165v-147z" />
    <glyph glyph-name="uniE234" unicode="&#xe234;" 
d="M689 567q39 -35 39 -89t-36.5 -91t-91.5 -37t-91 37t-36 91t36 91t91 37t89 -39zM264 567q41 -35 41 -89t-37 -91t-91.5 -37t-93.5 37t-39 91t39 91t93.5 37t87.5 -39zM1119 567q36 -35 36 -89t-38 -91t-93 -37t-91.5 37t-36.5 91t36.5 91t91.5 37t95 -39z" />
    <glyph glyph-name="uniE235" unicode="&#xe235;" 
d="M689 396q-35 -39 -89 -39t-91 36.5t-37 91.5t37 91t91 36t91 -36t37 -91t-39 -89zM689 821q-35 -41 -89 -41t-91 37t-37 91.5t37 93.5t91 39t91 -39t37 -93.5t-39 -87.5zM689 -34q-35 -36 -89 -36t-91 38t-37 93t37 91.5t91 36.5t91 -36.5t37 -91.5t-39 -95z" />
    <glyph glyph-name="uniE236" unicode="&#xe236;" 
d="M125 1030h950q10 0 17.5 -7.5t7.5 -17.5v-150q0 -10 -7.5 -17.5t-17.5 -7.5h-950q-10 0 -17.5 7.5t-7.5 17.5v150q0 10 7.5 17.5t17.5 7.5zM125 630h950q10 0 17.5 -7.5t7.5 -17.5v-150q0 -10 -7.5 -17.5t-17.5 -7.5h-950q-10 0 -17.5 7.5t-7.5 17.5v150q0 10 7.5 17.5
t17.5 7.5zM125 230h950q10 0 17.5 -7.5t7.5 -17.5v-150q0 -10 -7.5 -17.5t-17.5 -7.5h-950q-10 0 -17.5 7.5t-7.5 17.5v150q0 10 7.5 17.5t17.5 7.5z" />
    <glyph glyph-name="uniE237" unicode="&#xe237;" 
d="M350 1130h500q162 0 256 -93.5t94 -256.5v-500q0 -165 -93.5 -257.5t-256.5 -92.5h-500q-165 0 -257.5 92.5t-92.5 257.5v500q0 165 92.5 257.5t257.5 92.5zM900 930h-600q-41 0 -70.5 -29.5t-29.5 -70.5v-600q0 -41 29.5 -70.5t70.5 -29.5h600q41 0 70.5 29.5t29.5 70.5
v600q0 41 -29.5 70.5t-70.5 29.5zM350 830h500q21 0 35.5 -14.5t14.5 -35.5v-300q0 -21 -14.5 -35.5t-35.5 -14.5h-500q-21 0 -35.5 14.5t-14.5 35.5v300q0 21 14.5 35.5t35.5 14.5zM400 730v-200h400v200h-400z" />
    <glyph glyph-name="uniE238" unicode="&#xe238;" 
d="M100 1030h1000q21 0 35.5 -14.5t14.5 -35.5t-14.5 -35.5t-35.5 -14.5h-50v-200h50q21 0 35.5 -14.5t14.5 -35.5t-14.5 -35.5t-35.5 -14.5h-50v-200h50q21 0 35.5 -14.5t14.5 -35.5t-14.5 -35.5t-35.5 -14.5h-50v-200h50q21 0 35.5 -14.5t14.5 -35.5t-14.5 -35.5
t-35.5 -14.5h-1000q-21 0 -35.5 14.5t-14.5 35.5t14.5 35.5t35.5 14.5h50v200h-50q-21 0 -35.5 14.5t-14.5 35.5t14.5 35.5t35.5 14.5h50v200h-50q-21 0 -35.5 14.5t-14.5 35.5t14.5 35.5t35.5 14.5h50v200h-50q-21 0 -35.5 14.5t-14.5 35.5t14.5 35.5t35.5 14.5z" />
    <glyph glyph-name="uniE239" unicode="&#xe239;" 
d="M600 1117q87 -67 118.5 -156t0 -178t-118.5 -155q-87 66 -118.5 155t0 178t118.5 156zM250 730q124 0 212 -88t88 -212q-124 0 -212 88t-88 212zM950 730q0 -124 -88 -212t-212 -88q0 124 88 212t212 88zM250 430q124 0 212 -88t88 -212q-124 0 -212 88t-88 212zM950 430
q0 -124 -88 -212t-212 -88q0 124 88 212t212 88zM650 129v-144q0 -21 -14.5 -35.5t-35.5 -14.5t-35.5 14.5t-14.5 35.5v142q40 -4 43 -4q17 0 57 6z" />
    <glyph glyph-name="uniE240" unicode="&#xe240;" 
d="M797 808l69 19q25 6 45 -12l298 -295q11 -11 15 -26.5t-2 -30.5q-5 -14 -18 -23.5t-28 -9.5h-8q1 0 1 -13q0 -29 -2 -56t-8.5 -62t-20 -63t-33 -53t-51 -39t-72.5 -14h-146q-184 0 -184 288q0 24 10 47q-20 4 -62 4t-63 -4q11 -24 11 -47q0 -288 -184 -288h-142
q-48 0 -84.5 21t-56 51t-32 71.5t-16 75t-3.5 68.5q0 13 2 13h-7q-15 0 -27.5 9.5t-18.5 23.5q-6 15 -2 30.5t15 25.5l298 296q20 18 46 11l76 -19q20 -5 30.5 -22.5t5.5 -37.5t-22.5 -31t-37.5 -5l-51 12l-182 -193h891l-182 193l-44 -12q-20 -5 -37.5 6t-22.5 31t6 37.5
t31 22.5z" />
    <glyph glyph-name="uniE241" unicode="&#xe241;" 
d="M1200 830h-50q0 21 -4 37t-9.5 26.5t-18 17.5t-22 11t-28.5 5.5t-31 2t-37 0.5h-200v-850q0 -22 25 -34.5t50 -13.5l25 -2v-100h-400v100q4 0 11 0.5t24 3t30 7t24 15t11 24.5v850h-200q-25 0 -37 -0.5t-31 -2t-28.5 -5.5t-22 -11t-18 -17.5t-9.5 -26.5t-4 -37h-50v300
h1000v-300zM500 380h-25q0 15 -4 24.5t-9 14.5t-17 7.5t-20 3t-25 0.5h-100v-425q0 -11 12.5 -17.5t25.5 -7.5h12v-50h-200v50q50 0 50 25v425h-100q-17 0 -25 -0.5t-20 -3t-17 -7.5t-9 -14.5t-4 -24.5h-25v150h500v-150z" />
    <glyph glyph-name="uniE242" unicode="&#xe242;" 
d="M1103 -62h-1005q-49 0 -49 46q0 53 49 53h1005q47 0 47 -53q0 -46 -47 -46zM1008 1099v-215h-113l-10 111h-216v-768l109 -20v-83h-352v83l111 20v768h-218l-9 -111h-114v215h812z" />
    <glyph glyph-name="uniE243" unicode="&#xe243;" 
d="M1200 1131v-1198h-1200v1198h1200zM952 943h-710v-214h119l7 90h148v-565l-84 -15v-99h330v99l-83 15v565h142l7 -90h124v214z" />
    <glyph glyph-name="uniE244" unicode="&#xe244;" 
d="M1200 1030h-1200v100h1200v-100zM50 930h400q21 0 35.5 -14.5t14.5 -35.5v-900q0 -21 -14.5 -35.5t-35.5 -14.5h-400q-21 0 -35.5 14.5t-14.5 35.5v900q0 21 14.5 35.5t35.5 14.5zM650 930h400q21 0 35.5 -14.5t14.5 -35.5v-400q0 -21 -14.5 -35.5t-35.5 -14.5h-400
q-21 0 -35.5 14.5t-14.5 35.5v400q0 21 14.5 35.5t35.5 14.5zM700 830v-300h300v300h-300z" />
    <glyph glyph-name="uniE245" unicode="&#xe245;" 
d="M50 1130h400q21 0 35.5 -14.5t14.5 -35.5v-900q0 -21 -14.5 -35.5t-35.5 -14.5h-400q-21 0 -35.5 14.5t-14.5 35.5v900q0 21 14.5 35.5t35.5 14.5zM650 630h400q21 0 35.5 -14.5t14.5 -35.5v-400q0 -21 -14.5 -35.5t-35.5 -14.5h-400q-21 0 -35.5 14.5t-14.5 35.5v400
q0 21 14.5 35.5t35.5 14.5zM700 530v-300h300v300h-300zM1200 -70h-1200v100h1200v-100z" />
    <glyph glyph-name="uniE246" unicode="&#xe246;" 
d="M50 930h400q21 0 35.5 -14.5t14.5 -35.5v-350h100v150q0 21 14.5 35.5t35.5 14.5h400q21 0 35.5 -14.5t14.5 -35.5v-150h100v-100h-100v-150q0 -21 -14.5 -35.5t-35.5 -14.5h-400q-21 0 -35.5 14.5t-14.5 35.5v150h-100v-350q0 -21 -14.5 -35.5t-35.5 -14.5h-400
q-21 0 -35.5 14.5t-14.5 35.5v800q0 21 14.5 35.5t35.5 14.5zM700 630v-300h300v300h-300z" />
    <glyph glyph-name="uniE247" unicode="&#xe247;" 
d="M100 -70h-100v1200h100v-1200zM250 1030h400q21 0 35.5 -14.5t14.5 -35.5v-400q0 -21 -14.5 -35.5t-35.5 -14.5h-400q-21 0 -35.5 14.5t-14.5 35.5v400q0 21 14.5 35.5t35.5 14.5zM300 930v-300h300v300h-300zM250 430h900q21 0 35.5 -14.5t14.5 -35.5v-400
q0 -21 -14.5 -35.5t-35.5 -14.5h-900q-21 0 -35.5 14.5t-14.5 35.5v400q0 21 14.5 35.5t35.5 14.5z" />
    <glyph glyph-name="uniE248" unicode="&#xe248;" 
d="M600 1030h150q21 0 35.5 -14.5t14.5 -35.5v-400q0 -21 -14.5 -35.5t-35.5 -14.5h-150v-100h450q21 0 35.5 -14.5t14.5 -35.5v-400q0 -21 -14.5 -35.5t-35.5 -14.5h-900q-21 0 -35.5 14.5t-14.5 35.5v400q0 21 14.5 35.5t35.5 14.5h350v100h-150q-21 0 -35.5 14.5
t-14.5 35.5v400q0 21 14.5 35.5t35.5 14.5h150v100h100v-100zM400 930v-300h300v300h-300z" />
    <glyph glyph-name="uniE249" unicode="&#xe249;" 
d="M1200 -70h-100v1200h100v-1200zM550 1030h400q21 0 35.5 -14.5t14.5 -35.5v-400q0 -21 -14.5 -35.5t-35.5 -14.5h-400q-21 0 -35.5 14.5t-14.5 35.5v400q0 21 14.5 35.5t35.5 14.5zM600 930v-300h300v300h-300zM50 430h900q21 0 35.5 -14.5t14.5 -35.5v-400
q0 -21 -14.5 -35.5t-35.5 -14.5h-900q-21 0 -35.5 14.5t-14.5 35.5v400q0 21 14.5 35.5t35.5 14.5z" />
    <glyph glyph-name="uniE250" unicode="&#xe250;" 
d="M875 495l-494 -494q-23 -23 -41 -23q-14 0 -22 13.5t-8 38.5v1000q0 25 8 38.5t22 13.5q18 0 41 -23l494 -494q14 -14 14 -35t-14 -35z" />
    <glyph glyph-name="uniE251" unicode="&#xe251;" 
d="M324 565l494 494q29 29 50 20.5t21 -49.5v-1000q0 -41 -21 -49.5t-50 20.5l-494 494q-14 14 -14 35t14 35z" />
    <glyph glyph-name="uniE252" unicode="&#xe252;" 
d="M100 830h1000q41 0 49.5 -21t-20.5 -50l-494 -494q-14 -14 -35 -14t-35 14l-494 494q-29 29 -20.5 50t49.5 21z" />
    <glyph glyph-name="uniE253" unicode="&#xe253;" 
d="M635 795l494 -494q29 -29 20.5 -50t-49.5 -21h-1000q-41 0 -49.5 21t20.5 50l494 494q14 14 35 14t35 -14z" />
    <glyph glyph-name="uniE254" unicode="&#xe254;" 
d="M696 671v-182l-692 -323v221l413 193l-413 193v221zM1196 -70h-800v200h800v-200z" />
    <glyph glyph-name="uniE255" unicode="&#xe255;" 
d="M1200 830h-200v-100h200v-100h-300v300h200v100h-200v100h300v-300zM0 630h50q0 21 4 37t9.5 26.5t18 17.5t22 11t28.5 5.5t31 2t37 0.5h100v-550q0 -22 -25 -34.5t-50 -13.5l-25 -2v-100h400v100q-4 0 -11 0.5t-24 3t-30 7t-24 15t-11 24.5v550h100q25 0 37 -0.5t31 -2
t28.5 -5.5t22 -11t18 -17.5t9.5 -26.5t4 -37h50v300h-800v-300z" />
    <glyph glyph-name="uniE256" unicode="&#xe256;" 
d="M850 630h-50q0 21 -4 37t-9.5 26.5t-18 17.5t-22 11t-28.5 5.5t-31 2t-37 0.5h-100v-550q0 -22 25 -34.5t50 -14.5l25 -1v-100h-400v100q4 0 11 0.5t24 3t30 7t24 15t11 24.5v550h-100q-25 0 -37 -0.5t-31 -2t-28.5 -5.5t-22 -11t-18 -17.5t-9.5 -26.5t-4 -37h-50v300
h800v-300zM1150 130h-200v-100h200v-100h-300v300h200v100h-200v100h300v-300z" />
    <glyph glyph-name="uniE257" unicode="&#xe257;" 
d="M853 943q62 0 97 -33q94 -84 -4 -159l-399 -304l399 -300q98 -75 4 -161q-85 -87 -187 -4l-608 465l608 468q36 28 90 28z" />
    <glyph glyph-name="uniE258" unicode="&#xe258;" 
d="M346 -61q-62 0 -97 33q-94 84 4 159l399 304l-399 300q-98 75 -4 161q85 87 187 4l608 -465l-608 -468q-36 -28 -90 -28z" />
    <glyph glyph-name="uniE259" unicode="&#xe259;" 
d="M78 720q0 62 33 97q84 94 159 -4l304 -399l300 399q75 98 161 4q87 -85 4 -187l-465 -608l-468 608q-28 36 -28 90z" />
    <glyph glyph-name="uniE260" unicode="&#xe260;" 
d="M1122 209q0 -62 -33 -97q-84 -94 -159 4l-304 399l-300 -399q-75 -98 -161 -4q-87 85 -4 187l465 608l468 -608q28 -36 28 -90z" />
    <glyph glyph-name="uniF8FF" unicode="&#xf8ff;" 
d="M949 1130q0 -124 -88 -212t-212 -88q0 124 88 212t212 88zM399 930h100q21 0 40 -14t26 -33l79 -194q5 1 16 3q34 6 54 9.5t60 7t65.5 1t61 -10t56.5 -23t42.5 -42t29 -64t5 -92t-19.5 -121.5q-1 -7 -3 -19.5t-11 -50t-20.5 -73t-32.5 -81.5t-46.5 -83t-64 -70t-82.5 -50
q-13 -5 -42 -5t-65.5 2.5t-47.5 2.5q-14 0 -49.5 -3.5t-63 -3.5t-43.5 7q-57 25 -104.5 78.5t-75 111.5t-46.5 112t-26 90l-7 35q-15 63 -18 115t4.5 88.5t26 64t39.5 43.5t52 25.5t58.5 13t62.5 2t59.5 -4.5t55.5 -8l-147 192q-12 18 -5.5 30t27.5 12z" />
    <glyph glyph-name="u1F511" unicode="&#x1f511;" 
d="M300 1130h600q21 0 35.5 -14.5t14.5 -35.5v-400q0 -21 -14.5 -35.5t-35.5 -14.5h-150v-500l-255 -178q-19 -9 -32 -1t-13 29v650h-150q-21 0 -35.5 14.5t-14.5 35.5v400q0 21 14.5 35.5t35.5 14.5zM450 1030v-100h300v100h-300z" />
    <glyph glyph-name="u1F6AA" unicode="&#x1f6aa;" 
d="M200 1130h750q39 0 69.5 -40.5t30.5 -84.5v-933l-700 -117v950l600 125h-700v-1000h-100v1025q0 23 15.5 49t34.5 26zM450 455v-100l100 20v100z" />
    <glyph glyph-name="glyph3" horiz-adv-x="440" 
d="M60 -70v800h320v-800h-320zM100 -30h240v720h-240v-720z" />
    <glyph glyph-name="glyph1" horiz-adv-x="0" 
 />
    <glyph glyph-name="glyph2" horiz-adv-x="400" 
 />
    <glyph glyph-name="adieresis" unicode="&#xe4;" 
d="M805.131 1080h373.002q9.25195 0 15.5586 -6.72852q6.30762 -6.72803 6.30859 -15.1387q0 -20.606 -21.8672 -20.6055h-373.002q-20.606 0 -20.6055 20.6055q0 8.41113 6.30664 15.1387q6.30762 6.72803 14.2988 6.72852zM805.131 996.316h373.002l-144.238 -208.578
v-124.475l-83.2637 -83.2637v207.738zM404 778l535 -268l-404 -422l-535 270zM876 360l95 -53l-414 -427l-550 280l77 70l454 -226z" />
  </font>
</defs>
</svg>
