<?xml version="1.0" standalone="no"?>
<!DOCTYPE svg PUBLIC "-//W3C//DTD SVG 1.1//EN" "http://www.w3.org/Graphics/SVG/1.1/DTD/svg11.dtd" >
<svg xmlns="http://www.w3.org/2000/svg" xmlns:xlink="http://www.w3.org/1999/xlink" version="1.1" viewBox="-163 -240 1202 1200">
  <g transform="matrix(1 0 0 -1 0 960)">
   <path fill="currentColor"
d="M931 787q37 -64 56.5 -136t19.5 -151q0 -121 -46 -227.5t-125 -186t-185.5 -125.5t-227.5 -46t-228 46t-186.5 125.5t-125.5 186t-46 227.5t46 227.5t125.5 186t186.5 125.5t228 46q78 0 150 -20t136 -55q28 21 62 30.5t69 1.5q33 -7 58.5 -25.5t42 -44t23 -56.5
t-0.5 -63q-3 -19 -11.5 -35.5t-20.5 -30.5zM423 29q97 0 183 37t150 100.5t101 149.5t37 184q0 63 -15.5 121t-44.5 109q-30 -5 -58 1q-14 2 -26 7.5t-24 12.5l-204 -204q8 -16 11 -34t-1 -36q-5 -23 -17.5 -41.5t-30.5 -30.5t-40 -16.5t-44 0.5q-23 5 -41 17.5t-30 30.5
t-16.5 40t-0.5 45q5 23 18 41t31 29.5t39.5 15.5t43.5 0q8 -2 13.5 -3.5t12.5 -3.5l203 204q-30 46 -21 107q-51 28 -108.5 43.5t-120.5 15.5q-98 0 -184 -37t-150.5 -100.5t-101.5 -149.5t-37 -184t37 -184t101.5 -149.5t150.5 -100.5t184 -37zM1420 865q27 0 27 -29
q0 -30 -27 -30h-112v-110q0 -28 -28 -28t-28 28v110h-111q-29 0 -29 30q0 29 29 29h111v110q0 28 28 28t28 -28v-110h112z" />
  </g>

</svg>
