<?xml version="1.0" standalone="no"?>
<!DOCTYPE svg PUBLIC "-//W3C//DTD SVG 1.1//EN" "http://www.w3.org/Graphics/SVG/1.1/DTD/svg11.dtd" >
<svg xmlns="http://www.w3.org/2000/svg" xmlns:xlink="http://www.w3.org/1999/xlink" version="1.1" viewBox="0 -240 1202 1200">
  <g transform="matrix(1 0 0 -1 0 960)">
   <path fill="currentColor"
d="M115 537q-5 -63 6 -125l-102 -18q-13 73 -7 152zM181 745q-15 -28 -27.5 -56t-21.5 -59l-100 28q11 37 25.5 72.5t34.5 67.5zM146 322q25 -61 61 -110l-85 -60q-23 29 -40.5 63t-31.5 69zM332 903q-52 -34 -95 -82l-77 69q49 57 114 100zM270 142q22 -22 47.5 -40.5
t53.5 -32.5l-49 -93q-35 19 -65.5 41.5t-59.5 48.5zM1058 665q-5 11 -9.5 21.5t-9.5 21.5q23 15 42.5 35.5t32.5 46.5q13 -22 23 -44t19 -46zM878 96q25 19 48.5 39.5t44.5 45.5l78 -68q-24 -29 -52 -54.5t-60 -47.5zM1025 258q15 28 26.5 56.5t20.5 59.5l100 -27
q-10 -37 -23.5 -72.5t-33.5 -67.5zM536 980q-32 -4 -62 -12.5t-59 -20.5l-40 96q35 15 72 25t75 15zM1185 590q12 -75 3 -152l-103 11q7 62 -3 125zM458 33q29 -10 60 -15t63 -7l-4 -104l-36 3q-29 3 -57.5 8.5t-56.5 13.5zM783 1053q-40 -34 -60 -83q-23 5 -46.5 8.5
t-46.5 4.5l5 105q38 -3 75.5 -10t74.5 -19zM675 17q32 5 61.5 13t58.5 22l42 -96q-70 -31 -146 -42zM1067 860q-6 -29 -23 -52.5t-40.5 -39t-51.5 -21.5t-58 0q-9 2 -17.5 4.5t-16.5 6.5l-170 -206q8 -16 11.5 -34.5t-0.5 -37.5q-4 -21 -16 -37.5t-28.5 -27t-36 -14.5
t-40.5 0t-38 16t-27.5 28.5t-15 36.5t0.5 41q4 21 16 37.5t28.5 27.5t36.5 14.5t41 -0.5q5 -2 8 -2.5t8 -2.5l169 206q-18 25 -26 55.5t-1 62.5q6 29 23 52.5t40.5 39t52 21t57.5 -0.5q30 -6 54 -23t39 -40.5t21 -51.5t0 -58z" />
  </g>

</svg>
