<?xml version="1.0" standalone="no"?>
<!DOCTYPE svg PUBLIC "-//W3C//DTD SVG 1.1//EN" "http://www.w3.org/Graphics/SVG/1.1/DTD/svg11.dtd" >
<svg xmlns="http://www.w3.org/2000/svg" xmlns:xlink="http://www.w3.org/1999/xlink" version="1.1" viewBox="0 -240 1200 1200">
  <g transform="matrix(1 0 0 -1 0 960)">
   <path fill="currentColor"
d="M300 202l386 210l210 388l-387 -210zM377 280l146 261l115 -118zM598 871q17 0 17 16v37q0 17 -17 17q-16 0 -16 -17v-37q0 -16 16 -16zM598 129q-16 0 -16 -17v-37q0 -7 4.5 -12t11.5 -5q8 0 12.5 5t4.5 12v37q0 17 -17 17zM1020 516h-37q-17 0 -17 -16q0 -17 17 -17h37
q6 0 11.5 4.5t5.5 12.5q0 7 -5.5 11.5t-11.5 4.5zM213 516h-37q-7 0 -12 -4.5t-5 -11.5q0 -8 5 -12.5t12 -4.5h37q7 0 12 4.5t5 12.5q0 7 -5 11.5t-12 4.5zM598 -78q-120 0 -225 45.5t-184 124.5t-124.5 184t-45.5 225t45.5 225t124.5 184t184 124.5t225 45.5
q119 0 224.5 -45.5t184.5 -124.5t125 -184t46 -225t-46 -225t-125 -184t-184.5 -124.5t-224.5 -45.5zM598 973q-98 0 -183.5 -37t-150 -101.5t-101.5 -150.5t-37 -183q0 -98 37 -183.5t101.5 -150t150 -101.5t183.5 -37q97 0 183 37t150.5 101.5t101.5 150t37 183.5
q0 97 -37 183t-101.5 150.5t-150.5 101.5t-183 37z" />
  </g>

</svg>
