<?xml version="1.0" standalone="no"?>
<!DOCTYPE svg PUBLIC "-//W3C//DTD SVG 1.1//EN" "http://www.w3.org/Graphics/SVG/1.1/DTD/svg11.dtd" >
<svg xmlns="http://www.w3.org/2000/svg" xmlns:xlink="http://www.w3.org/1999/xlink" version="1.1" viewBox="0 -240 1200 1200">
  <g transform="matrix(1 0 0 -1 0 960)">
   <path fill="currentColor"
d="M601 590q-28 0 -52.5 -10.5t-43 -29t-29.5 -43.5t-11 -53t11 -52.5t29.5 -42.5t43 -28.5t52.5 -10.5t52.5 10.5t42.5 28.5t28.5 42.5t10.5 52.5t-10.5 53t-28.5 43.5t-42.5 29t-52.5 10.5zM1121 260q-18 0 -32 -13.5t-14 -33.5v-133l-165 166q-13 13 -32 13t-31 -13
q-14 -14 -14 -33t14 -32l164 -165h-134q-19 0 -33 -13.5t-14 -31.5q0 -20 14 -32.5t33 -12.5h288v287q0 20 -12.5 33.5t-31.5 13.5zM1121 650q-18 0 -32 13.5t-14 32.5v135l-165 -166q-13 -13 -32 -13t-31 13q-14 14 -14 32.5t14 30.5l164 165h-134q-19 0 -33 14t-14 33
q0 18 14 31t33 13h288v-288q0 -19 -12.5 -32.5t-31.5 -13.5zM81 260q19 0 32.5 -13.5t13.5 -33.5v-133l164 166q14 13 32.5 13t31.5 -13q14 -14 14 -33t-14 -32l-165 -165h136q18 0 31 -13.5t13 -31.5q0 -20 -13 -32.5t-31 -12.5h-291v287q0 20 13.5 33.5t32.5 13.5zM81 650
q19 0 32.5 13.5t13.5 32.5v135l164 -166q14 -13 32.5 -13t31.5 13q14 14 14 32.5t-14 30.5l-165 165h136q18 0 31 14t13 33q0 18 -13 31t-31 13h-291v-288q0 -19 13.5 -32.5t32.5 -13.5z" />
  </g>

</svg>
