<?xml version="1.0" standalone="no"?>
<!DOCTYPE svg PUBLIC "-//W3C//DTD SVG 1.1//EN" "http://www.w3.org/Graphics/SVG/1.1/DTD/svg11.dtd" >
<svg xmlns="http://www.w3.org/2000/svg" xmlns:xlink="http://www.w3.org/1999/xlink" version="1.1" viewBox="-142 -240 1202 1200">
  <g transform="matrix(1 0 0 -1 0 960)">
   <path fill="currentColor"
d="M231 410q-38 0 -72 19.5t-59 50t-39.5 69t-14.5 77.5q0 38 14.5 71.5t39.5 58.5t59 39.5t72 14.5q35 0 67 -13q-7 -28 -7 -61q0 -61 24 -120.5t67 -107.5q-25 -43 -64 -70.5t-87 -27.5zM758 494q49 48 77 113t28 129q0 19 -2.5 35t-6.5 32q21 7 47 7q38 0 71 -14.5
t58 -39.5t39 -58.5t14 -71.5q0 -39 -14 -77.5t-39 -69t-58 -50t-71 -19.5q-44 0 -80.5 23.5t-62.5 60.5zM222 291q-74 -57 -114 -129.5t-40 -145.5h-210q0 43 25 91t72.5 88t115 67t151.5 29zM933 290q79 -5 142 -33t107 -68t67.5 -86t23.5 -87h-187q0 73 -40.5 145
t-112.5 129zM577 481q-51 0 -93.5 27.5t-72.5 70.5q-25 35 -39 75.5t-14 81.5q0 7 0.5 11.5t1.5 9.5q4 42 22.5 78t47.5 62.5t66.5 42t80.5 15.5q40 0 76.5 -14t65 -38.5t48 -58t25.5 -72.5q3 -15 3 -36q0 -47 -18 -93t-50 -84q-29 -36 -67 -57t-83 -21zM819 285
q48 -26 85 -58.5t62.5 -68t38.5 -72t13 -70.5h-414h-77h-391q0 34 12.5 70t37.5 71t60.5 67t82.5 57q51 27 113.5 44t134.5 17q71 0 131.5 -16t110.5 -41zM1311 924q13 0 23.5 -10.5t10.5 -24.5t-10.5 -24.5t-23.5 -10.5h-81v-80q0 -13 -9.5 -23t-23.5 -10q-15 0 -24.5 10
t-9.5 23v80h-82q-14 0 -24 10.5t-10 24.5t10 24.5t24 10.5h82v81q0 14 9.5 23t24.5 9q14 0 23.5 -9t9.5 -23v-81h81z" />
  </g>

</svg>
