<?xml version="1.0" encoding="UTF-8" standalone="no"?>
<svg
   version="1.1"
   viewBox="0 -240 1200 1200"
   id="svg6"
   sodipodi:docname="1-group-mod.svg"
   inkscape:version="1.1 (c68e22c387, 2021-05-23)"
   xmlns:inkscape="http://www.inkscape.org/namespaces/inkscape"
   xmlns:sodipodi="http://sodipodi.sourceforge.net/DTD/sodipodi-0.dtd"
   xmlns="http://www.w3.org/2000/svg"
   xmlns:svg="http://www.w3.org/2000/svg"
   xmlns:rdf="http://www.w3.org/1999/02/22-rdf-syntax-ns#"
   xmlns:cc="http://creativecommons.org/ns#"
   xmlns:dc="http://purl.org/dc/elements/1.1/">
  <metadata
     id="metadata12">
    <rdf:RDF>
      <cc:Work
         rdf:about="">
        <dc:format>image/svg+xml</dc:format>
        <dc:type
           rdf:resource="http://purl.org/dc/dcmitype/StillImage" />
      </cc:Work>
    </rdf:RDF>
  </metadata>
  <defs
     id="defs10" />
  <sodipodi:namedview
     pagecolor="#ffffff"
     bordercolor="#666666"
     borderopacity="1"
     objecttolerance="10"
     gridtolerance="10"
     guidetolerance="10"
     inkscape:pageopacity="0"
     inkscape:pageshadow="2"
     inkscape:window-width="1920"
     inkscape:window-height="1017"
     id="namedview8"
     showgrid="false"
     inkscape:zoom="0.19666667"
     inkscape:cx="-261.8644"
     inkscape:cy="627.9661"
     inkscape:window-x="1912"
     inkscape:window-y="-8"
     inkscape:window-maximized="1"
     inkscape:current-layer="layer2"
     showguides="false"
     inkscape:pagecheckerboard="0" />
  <g
     inkscape:groupmode="layer"
     id="layer2"
     inkscape:label="glyph">
    <path
       fill="currentColor"
       d="m 244.69998,564.53702 q -39,0 -72.5,-18.99997 -33.5,-19 -58.5,-50 -24.999997,-31 -39.499997,-69 -14.5,-38 -14.5,-77 0,-38 14.5,-71.5 14.5,-33.5 39.499997,-59 25,-25.5 58.5,-40 33.5,-14.5 72.5,-14.5 18,0 34,4 16,4 31,11 -5,28 -5,58 0,60 24,121.5 24,61.5 66,107.5 -25,43 -63.5,70.5 -38.5,27.49997 -86.5,27.49997 z m 525.00003,-84.99997 q 50,-48 77.5,-112 27.5,-64 27.5,-130 0,-34 -8,-64 11,-4 22,-6.5 11,-2.5 25,-2.5 38,0 71.5,14.5 33.49999,14.5 57.99999,40 24.5,25.5 39,59 14.5,33.5 14.5,71.5 0,39 -14.5,77 -14.5,38 -39,69 -24.5,31 -57.99999,50 -33.5,18.99997 -71.5,18.99997 -45,0 -81.5,-23.49997 -36.5,-23.5 -62.5,-61.5 z M 234.69998,683.53702 q -72,57 -112.5,129 -40.499997,72 -40.499997,145 H -127.30002 q 0,-43 25,-90.5 25.000003,-47.5 72.000003,-87.5 47,-40 114,-67 66.999997,-27 150.999997,-29 z m 711.00003,2 q 77.99999,5 140.99999,32.5 63,27.5 107,67 44,39.5 67.5,85 23.5,45.5 23.5,87.5 h -188 q 0,-72 -40,-144 -40,-72 -110.99999,-128 z M 587.69998,494.53705 q -49,0 -91.5,-28 -42.5,-28 -72.5,-70 -25,-35 -38.5,-76.5 -13.5,-41.5 -13.5,-82.5 0,-6 0.5,-10 0.5,-4 1.5,-9 4,-42 22,-78.5 18,-36.5 46.5,-63.499997 28.5,-27 66,-42.5 37.5,-15.5 79.5,-15.5 41,0 77.5,14.5 36.5,14.5 65,39 28.50003,24.5 48.00003,57.999997 19.5,33.5 26.5,71.5 1,11 1.5,19.5 0.5,8.5 0.5,16.5 0,48 -18,94.5 -18,46.5 -50.00003,84.5 -30,34 -68,56 -38,22 -83,22 z m 244.00003,195.99997 q 47,25 84,57.5 37,32.5 62.5,68 25.49999,35.5 38.49999,72 13,36.5 13,69.5 h -414.00002 -77 -390 q 0,-33 13,-69.5 13,-36.5 37.5,-71.5 24.5,-35 60.5,-66.5 36,-31.5 82,-56.5 51,-28 112.5,-44.5 61.5,-16.5 133.5,-16.5 72,0 133,15.5 61.00003,15.5 111.00003,42.5 z M 1174.7,109.53705 l 94,-2 -4,-104.999997 q 11,-1 24,11.5 13,12.5 23,31 10,18.5 14,39.5 4,20.999997 -2,35.999997 -9,20 -29,37 -20,17 -45,25.5 -25,8.5 -52.5,5.5 -27.5,-3 -51.5,-24 -24,-20 -24.5,-45 -0.5,-24.999997 9,-46.499997 9.5,-21.5 22,-36.5 12.5,-15 13.5,-15 z m 98,391 h -97 v -251 l -2,-9 q 18,7 35,7 17,0 30,-3 10,-3 20,-7 10,-4 20,-9 l -5,18 z"
       id="path823" />
  </g>
</svg>
