<?xml version="1.0" standalone="no"?>
<!DOCTYPE svg PUBLIC "-//W3C//DTD SVG 1.1//EN" "http://www.w3.org/Graphics/SVG/1.1/DTD/svg11.dtd" >
<svg xmlns="http://www.w3.org/2000/svg" xmlns:xlink="http://www.w3.org/1999/xlink" version="1.1" viewBox="-33 -240 1202 1200">
  <g transform="matrix(1 0 0 -1 0 960)">
   <path fill="currentColor"
d="M1235 991q0 -27 -9 -51.5t-25 -44t-37.5 -33.5t-46.5 -20l-87 -635q35 -20 56.5 -55t21.5 -79q0 -32 -12 -59.5t-32.5 -48.5t-48 -33t-59.5 -12t-59.5 12t-48 33t-32.5 48.5t-12 59.5q0 42 22 78l-421 537q-10 -3 -20.5 -5.5t-21.5 -2.5l-147 -409q25 -21 40 -51.5
t15 -65.5q0 -32 -12 -60t-32.5 -49t-48 -33t-59.5 -12t-59.5 12t-48 33t-32.5 49t-12 60q0 30 11.5 57t31 47.5t46 32.5t56.5 14l150 413q-25 21 -39.5 50.5t-14.5 64.5q0 31 12 59t32.5 49t48.5 33t60 12q31 0 59 -12t48.5 -33t32.5 -49t12 -59q0 -21 -6 -41t-16 -37
l420 -536q5 0 11 2l87 637q-35 19 -56.5 54t-21.5 79q0 31 12 58.5t32.5 48.5t48 33t59.5 12t59.5 -12t48 -33t32.5 -48.5t12 -58.5z" />
  </g>

</svg>
