<?xml version="1.0" standalone="no"?>
<!DOCTYPE svg PUBLIC "-//W3C//DTD SVG 1.1//EN" "http://www.w3.org/Graphics/SVG/1.1/DTD/svg11.dtd" >
<svg xmlns="http://www.w3.org/2000/svg" xmlns:xlink="http://www.w3.org/1999/xlink" version="1.1" viewBox="-25 -240 1202 1200">
  <g transform="matrix(1 0 0 -1 0 960)">
   <path fill="currentColor"
d="M241 645q45 -29 101 -37l-30 -79l-98 35zM246 345q-22 14 -47 23.5t-53 11.5l33 91l100 -35zM514 554l-58 72q25 12 46.5 29t37.5 39l57 -74zM743 436l-85 -68l-82 105l84 68zM863 283q-24 -13 -46 -30t-39 -38l-57 73l84 66zM996 779q20 -7 41 -11.5t43 -4.5h12l12 1
l-13 -77l-104 13zM1061 462l-105 15l16 128l107 -14zM1037 286q-20 8 -40 12t-42 4h-13l-12 -1l12 81l107 -17zM366 980q31 0 58.5 -12t48 -32t32.5 -48t12 -59q0 -30 -12 -57t-32.5 -47.5t-48 -32.5t-58.5 -12q-32 0 -59 12t-47.5 32.5t-32 47.5t-11.5 57q0 31 11.5 59
t32 48t47.5 32t59 12zM1228 986q0 -31 -11.5 -58t-31.5 -47.5t-47 -32t-58 -11.5q-32 0 -59.5 11.5t-47.5 32t-32 47.5t-12 58t12 58.5t32 48t47.5 32t59.5 11.5q31 0 58 -11.5t47 -32t31.5 -48t11.5 -58.5zM802 79q0 31 12 58.5t32.5 48t48.5 32.5t60 12q31 0 58 -12
t47.5 -32.5t32 -48t11.5 -58.5t-11.5 -58.5t-32 -47.5t-47.5 -32t-58 -12q-32 0 -60 12t-48.5 32t-32.5 47.5t-12 58.5zM126 307q32 0 59.5 -11.5t48 -32t32 -48t11.5 -59.5q0 -31 -11.5 -58t-32 -47.5t-48 -32t-59.5 -11.5q-31 0 -58.5 11.5t-48 32t-32.5 47.5t-12 58
q0 32 12 59.5t32.5 48t48 32t58.5 11.5z" />
  </g>

</svg>
