<?xml version="1.0" standalone="no"?>
<!DOCTYPE svg PUBLIC "-//W3C//DTD SVG 1.1//EN" "http://www.w3.org/Graphics/SVG/1.1/DTD/svg11.dtd" >
<svg xmlns="http://www.w3.org/2000/svg" xmlns:xlink="http://www.w3.org/1999/xlink" version="1.1" viewBox="0 -240 1200 1200">
  <g transform="matrix(1 0 0 -1 0 960)">
   <path fill="currentColor"
d="M1010 87q-174 -173 -412.5 -173t-409.5 171.5t-171 411t171 411.5t409.5 172t411.5 -172t173 -411.5t-172 -409.5zM942 840q-141 143 -342.5 143t-344.5 -142t-143 -344t143 -344.5t344.5 -142.5t343.5 142.5t142 344.5t-143 343zM890 205q-122 -121 -291.5 -121
t-291.5 121.5t-122 290.5t122 291t291.5 122t292 -122t122.5 -291t-123 -291zM844 742q-100 101 -245 101t-246.5 -100t-101.5 -246.5t101.5 -246t246.5 -99.5t245.5 99.5t100.5 246t-101 245.5zM778 504h-172v173q0 8 -8.5 8t-8.5 -8v-173h-171q-10 0 -10 -8t10 -8h171
v-172q0 -7 8.5 -7t8.5 7v172h172q9 0 9 8t-9 8z" />
  </g>

</svg>
