<?xml version="1.0" standalone="no"?>
<!DOCTYPE svg PUBLIC "-//W3C//DTD SVG 1.1//EN" "http://www.w3.org/Graphics/SVG/1.1/DTD/svg11.dtd" >
<svg xmlns="http://www.w3.org/2000/svg" xmlns:xlink="http://www.w3.org/1999/xlink" version="1.1" viewBox="-12 -240 1200 1200">
  <g transform="matrix(1 0 0 -1 0 960)">
   <path fill="currentColor"
d="M778 675l-51 123q-25 -3 -49 1q-11 2 -20 7l-19 9l-60 -48l-52 62l55 44q-11 21 -14.5 44.5t1.5 49.5q6 28 22 51t38.5 38t50.5 20.5t57 -0.5q28 -6 51 -22t38 -39t20 -50.5t-1 -55.5q-4 -24 -15.5 -43t-28.5 -34l52 -126zM958 452l-75 -31l-80 194l75 32zM478 789
l50 -63l-163 -132l-52 64zM312 553l-55 -45q22 -43 12 -91q-6 -29 -22 -52t-39 -37.5t-50.5 -20.5t-55.5 0q-29 6 -52 22t-38 39t-20.5 50t0.5 56t22.5 52t39 38t50 20.5t56.5 -0.5q21 -4 41 -17l60 48zM1100 226q28 -6 51 -22.5t38 -39.5t20 -50.5t-1 -55.5q-6 -29 -22 -52
t-38.5 -38t-50.5 -20t-56 1q-29 6 -51.5 22t-37.5 39t-20.5 50t0.5 56q5 23 16.5 42.5t28.5 34.5l-68 166l75 31l67 -163q25 3 49 -1z" />
  </g>

</svg>
