<?xml version="1.0" standalone="no"?>
<!DOCTYPE svg PUBLIC "-//W3C//DTD SVG 1.1//EN" "http://www.w3.org/Graphics/SVG/1.1/DTD/svg11.dtd" >
<svg xmlns="http://www.w3.org/2000/svg" xmlns:xlink="http://www.w3.org/1999/xlink" version="1.1" viewBox="-13 -240 1200 1200">
  <g transform="matrix(1 0 0 -1 0 960)">
   <path fill="currentColor"
d="M1113 804h-1070q-22 0 -39 16t-17 38t17 37t39 15h1070q22 0 37.5 -15t15.5 -37t-15.5 -38t-37.5 -16zM589 438h-546q-22 0 -39 16t-17 39q0 19 15 36t28 17h593zM649 76h-606q-22 0 -39 15.5t-17 37t17 38t39 16.5h556zM1211 385q-6 14 -19 14q-45 0 -61 39
q-16 41 16 74q9 7 3 19q-27 36 -49 49q-8 10 -22 -4q-27 -35 -70 -16q-45 24 -38 65q0 16 -17 16q-31 2 -63 0q-18 0 -18 -16q8 -45 -36 -63q-42 -16 -74 18q-7 10 -19 4q-28 -26 -48 -50q-11 -8 0 -22q35 -33 20 -69q-25 -44 -66 -44q-15 0 -15 -11q-7 -35 0 -66
q0 -14 15 -14q46 0 63 -42q13 -39 -17 -73q-11 -8 0 -18q20 -27 44 -48q9 -11 23 0q28 36 69 17q41 -17 41 -64q-8 -16 14 -16h36h28q17 0 17 16q0 41 38 64q39 13 73 -17q14 -11 22 -3q28 20 46 46q12 15 0 21q-38 33 -16 75q16 38 59 38h2q13 0 19 18v31q3 32 0 32z
M923 256q-42 0 -68.5 28t-26.5 69t26.5 68.5t68.5 27.5q39 0 67.5 -27.5t28.5 -68.5t-28.5 -69t-67.5 -28z" />
  </g>

</svg>
