<?xml version="1.0" standalone="no"?>
<!DOCTYPE svg PUBLIC "-//W3C//DTD SVG 1.1//EN" "http://www.w3.org/Graphics/SVG/1.1/DTD/svg11.dtd" >
<svg xmlns="http://www.w3.org/2000/svg" xmlns:xlink="http://www.w3.org/1999/xlink" version="1.1" viewBox="0 -240 1200 1200">
  <g transform="matrix(1 0 0 -1 0 960)">
   <path fill="currentColor"
d="M1177 713v-591q0 -79 -56 -135t-138 -56h-538q-77 0 -134 56t-57 131h-232v515h232v206q0 80 57 136t134 56h470zM292 378q7 25 7 40q0 20 -12 33q-3 12 -16 33q-13 15 -35 23q-14 8 -35 8h-126v-300h57v102h74q25 0 34 8q21 14 31 24zM1081 679v4h-143q-37 0 -61.5 25
t-24.5 61v168h-407q-39 0 -66.5 -29.5t-27.5 -68.5v-206h654v-515h-654q0 -35 27.5 -64t66.5 -29h538q40 0 69 29t29 68v557zM499 215q37 0 61 14q24 5 45.5 29.5t29.5 44.5q12 32 12 64.5t-12 56.5q-3 23 -26 47q-26 28 -45 33q-36 11 -65 11h-110v-300h110zM797 388v75
h142v52h-198v-300h56v127h122v46h-122zM583 327q-3 -14 -17 -31q-2 -3 -7 -6.5t-11 -7.5t-12 -6q-10 -8 -37 -8h-54v195h54q17 0 37 -7q18 -3 30 -18q14 -20 17 -31q6 -27 6 -38q0 -20 -6 -42zM225 451q6 -5 8.5 -12.5t2.5 -20.5q0 -23 -9 -38q-11 -11 -26 -11h-69v94h66
q10 0 13 -2q11 0 14 -10z" />
  </g>

</svg>
