<?xml version="1.0" standalone="no"?>
<!DOCTYPE svg PUBLIC "-//W3C//DTD SVG 1.1//EN" "http://www.w3.org/Graphics/SVG/1.1/DTD/svg11.dtd" >
<svg xmlns="http://www.w3.org/2000/svg" xmlns:xlink="http://www.w3.org/1999/xlink" version="1.1" viewBox="0 -240 1200 1200">
  <g transform="matrix(1 0 0 -1 0 960)">
   <path fill="currentColor"
d="M601 658q-34 0 -64 -12.5t-52.5 -35t-35.5 -52.5t-13 -64t13 -64t35.5 -52.5t52.5 -35.5t64 -13t64 13t52.5 35.5t35.5 52.5t13 64t-13 64t-35.5 52.5t-52.5 35t-64 12.5zM599 -57q-113 0 -213 43.5t-174.5 118.5t-118 175t-43.5 214t43.5 214t118 175t174.5 118t213 43
q114 0 214.5 -43t175 -118t118 -175t43.5 -214t-43.5 -214t-118 -175t-175 -118.5t-214.5 -43.5zM599 993q-103 0 -193.5 -39t-158.5 -107t-107.5 -159t-39.5 -194q0 -104 39.5 -195t107.5 -158.5t158.5 -107t193.5 -39.5q69 0 133 18t119.5 50.5t101 78t78 101t50.5 119.5
t18 133q0 103 -39.5 194t-107 159t-159 107t-194.5 39z" />
  </g>

</svg>
