<?xml version="1.0" standalone="no"?>
<!DOCTYPE svg PUBLIC "-//W3C//DTD SVG 1.1//EN" "http://www.w3.org/Graphics/SVG/1.1/DTD/svg11.dtd" >
<svg xmlns="http://www.w3.org/2000/svg" xmlns:xlink="http://www.w3.org/1999/xlink" version="1.1" viewBox="-8 -240 1200 1200">
  <g transform="matrix(1 0 0 -1 0 960)">
   <path fill="currentColor"
d="M535 191h130v-105h-130v105zM355 136q0 26 -8 55h90v-105h-88q2 12 4 24.5t2 25.5zM852 191q-6 -27 -6 -55q0 -13 1 -25.5t4 -24.5h-88v105h89zM1114 345q-13 3 -26.5 5t-25.5 2q-14 0 -27.5 -2t-25.5 -5v79h105v-79zM1009 641h105v-125h-105v125zM1009 815
q12 -3 25.5 -5t27.5 -2q12 0 25.5 2t26.5 5v-82h-105v82zM782 680l-106 -101l-72 76l105 101zM789 831l87 84q14 -23 32.5 -42.5t41.5 -33.5l-89 -83zM597 502l-106 -101l-72 75l105 102zM326 244q-14 23 -32.5 42.5t-41.5 32.5l87 82l71 -75zM1208 1024q0 -30 -11.5 -57
t-31.5 -46.5t-46.5 -31t-56.5 -11.5q-31 0 -57.5 11.5t-46 31t-31 46.5t-11.5 57t11.5 57t31 46.5t46 31t57.5 11.5q30 0 56.5 -11.5t46.5 -31t31.5 -46.5t11.5 -57zM916 136q0 30 11.5 57t31 46.5t46 31t57.5 11.5q30 0 56.5 -11.5t46.5 -31t31.5 -46.5t11.5 -57t-11.5 -57
t-31.5 -47t-46.5 -31.5t-56.5 -11.5q-31 0 -57.5 11.5t-46 31.5t-31 47t-11.5 57zM138 282q31 0 58 -11.5t46.5 -31t31 -46.5t11.5 -57t-11.5 -57t-31 -47t-46.5 -31.5t-58 -11.5q-30 0 -57 11.5t-46.5 31.5t-31 47t-11.5 57t11.5 57t31 46.5t46.5 31t57 11.5z" />
  </g>

</svg>
