<?xml version="1.0" standalone="no"?>
<!DOCTYPE svg PUBLIC "-//W3C//DTD SVG 1.1//EN" "http://www.w3.org/Graphics/SVG/1.1/DTD/svg11.dtd" >
<svg xmlns="http://www.w3.org/2000/svg" xmlns:xlink="http://www.w3.org/1999/xlink" version="1.1" viewBox="0 -240 1202 1200">
  <g transform="matrix(1 0 0 -1 0 960)">
   <path fill="currentColor"
d="M601 663q-34 0 -64.5 -13t-53 -36t-36 -53.5t-13.5 -64.5q0 -35 13.5 -65.5t36 -53t53 -35.5t64.5 -13t64.5 13t53.5 35.5t36 53t13 65.5q0 34 -13 64.5t-36 53.5t-53.5 36t-64.5 13zM522 -55q-40 6 -78 16.5t-75 27.5l22 47q32 -16 67 -26t71 -15zM680 -55l-8 50
q37 6 71 15.5t68 25.5l20 -46q-35 -17 -73.5 -28t-77.5 -17zM236 74q-60 52 -103 120l42 28q40 -63 95 -109zM964 75l-33 38q56 49 94 110l44 -27q-43 -68 -105 -121zM66 338q-22 75 -22 157h50q0 -37 5.5 -72.5t16.5 -70.5zM1135 339l-49 14q9 35 14.5 70.5t5.5 72.5l51 2
v-2q0 -82 -22 -157zM115 637l-50 15q12 38 28.5 74.5t36.5 69.5l44 -28q-39 -60 -59 -131zM1085 640q-21 71 -61 130l43 28q44 -67 67 -143zM268 877l-33 38q29 27 62.5 48.5t69.5 38.5l22 -47q-32 -16 -63 -35t-58 -43zM930 879q-28 23 -58 43t-63 35l21 46q74 -33 133 -85
zM527 996l-7 50q20 4 39.5 5.5t39.5 1.5h1q40 0 78 -6l-8 -51l-34 4l-37 2q-17 0 -35.5 -2t-36.5 -4z" />
  </g>

</svg>
