<?xml version="1.0" standalone="no"?>
<!DOCTYPE svg PUBLIC "-//W3C//DTD SVG 1.1//EN" "http://www.w3.org/Graphics/SVG/1.1/DTD/svg11.dtd" >
<svg xmlns="http://www.w3.org/2000/svg" xmlns:xlink="http://www.w3.org/1999/xlink" version="1.1" viewBox="-8 -240 1200 1200">
  <g transform="matrix(1 0 0 -1 0 960)">
   <path fill="currentColor"
d="M1209 1030q0 -48 -26 -85t-68 -53v-616q42 -15 68 -52t26 -85q0 -30 -11.5 -56.5t-31 -47t-46.5 -32t-57 -11.5q-48 0 -85.5 27.5t-52.5 69.5h-649q-15 -42 -52 -69.5t-85 -27.5q-31 0 -57.5 11.5t-46.5 32t-31.5 47t-11.5 56.5q0 31 11.5 58t31.5 47t46.5 31.5
t57.5 11.5q17 0 32 -4t29 -10l729 695q-6 14 -9.5 29.5t-3.5 32.5q0 30 11.5 56.5t31.5 46.5t46.5 31.5t57.5 11.5q30 0 57 -11.5t46.5 -31.5t31 -46.5t11.5 -56.5zM927 194q11 29 32.5 50.5t50.5 31.5v616q-2 1 -3.5 1t-3.5 2l-729 -696q0 -2 0.5 -3t0.5 -2h652z" />
  </g>

</svg>
