<?xml version="1.0" standalone="no"?>
<!DOCTYPE svg PUBLIC "-//W3C//DTD SVG 1.1//EN" "http://www.w3.org/Graphics/SVG/1.1/DTD/svg11.dtd" >
<svg xmlns="http://www.w3.org/2000/svg" xmlns:xlink="http://www.w3.org/1999/xlink" version="1.1" viewBox="-52 -240 1202 1200">
  <g transform="matrix(1 0 0 -1 0 960)">
   <path fill="currentColor"
d="M1133 205l57 -58l-254 -255l-351 352l-130 -127l-507 -259l267 517l120 120l-366 365l255 254l100 -101l-71 -70q-8 -10 -8 -22.5t8 -21.5q10 -10 23 -10q5 0 12 2.5t12 7.5l67 70l52 -51l-136 -136q-8 -9 -8 -22t8 -22q3 -5 10 -7.5t13 -2.5q5 0 12 2.5t12 7.5l134 135
l50 -52l-69 -69q-9 -9 -9 -21.5t9 -22.5q4 -5 10 -7t12 -2q5 0 11.5 2t11.5 7l69 70l29 -30l372 373l251 -252l-373 -370l59 -59l-70 -69q-11 -11 -11 -23.5t11 -22.5q8 -8 22 -8t22 8l70 71l51 -51l-136 -137q-11 -8 -11 -21t11 -22q7 -11 23 -11q11 0 21 11l137 135
l50 -51l-69 -70q-10 -9 -10 -22t10 -22q9 -10 22 -10q15 0 21 10zM425 199q-4 11 -10.5 22t-16.5 19.5t-23 12.5t-31 2q3 18 0 31t-10.5 23t-18.5 16.5t-22 10.5l-13 -15l-110 -211q5 -2 9.5 -6t6.5 -8q9 -6 15 -17l212 108zM1046 956l-65 63l-644 -640q20 -6 32.5 -17
t20.5 -22q8 -13 12 -27z" />
  </g>

</svg>
