<?xml version="1.0" standalone="no"?>
<!DOCTYPE svg PUBLIC "-//W3C//DTD SVG 1.1//EN" "http://www.w3.org/Graphics/SVG/1.1/DTD/svg11.dtd" >
<svg xmlns="http://www.w3.org/2000/svg" xmlns:xlink="http://www.w3.org/1999/xlink" version="1.1" viewBox="0 -240 1200 1200">
  <g transform="matrix(1 0 0 -1 0 960)">
   <path fill="currentColor"
d="M1073 705l-48 -48l-129 130q-10 8 -22.5 8t-20.5 -8q-9 -10 -9 -22.5t9 -20.5l130 -130l-49 -48l-67 67q-8 8 -20.5 8t-22.5 -8q-8 -10 -8 -22.5t8 -20.5l67 -67l-49 -49l-129 131q-9 8 -21.5 8t-21.5 -8q-8 -10 -8 -22.5t8 -20.5l130 -131l-48 -47l-67 67q-8 8 -21 8
t-22 -8q-8 -10 -8 -22.5t8 -20.5l67 -67l-49 -49l-129 130q-9 9 -22 9t-21 -9t-8 -21.5t8 -21.5l130 -130l-48 -47l-67 66q-9 9 -21.5 9t-21.5 -9t-9 -21.5t9 -21.5l67 -66l-49 -49l-129 130q-10 8 -22 8t-21 -8q-9 -9 -9 -21.5t9 -21.5l130 -130l-49 -48l-66 67
q-9 8 -21.5 8t-21.5 -8q-9 -9 -9 -22t9 -21l66 -67l-55 -55l-242 242l883 882l242 -242l-56 -55l-66 67q-10 8 -22 8t-21 -8q-9 -9 -9 -22t9 -21z" />
  </g>

</svg>
