<?xml version="1.0" standalone="no"?>
<!DOCTYPE svg PUBLIC "-//W3C//DTD SVG 1.1//EN" "http://www.w3.org/Graphics/SVG/1.1/DTD/svg11.dtd" >
<svg xmlns="http://www.w3.org/2000/svg" xmlns:xlink="http://www.w3.org/1999/xlink" version="1.1" viewBox="0 -240 1202 1200">
  <g transform="matrix(1 0 0 -1 0 960)">
   <path fill="currentColor"
d="M361 -73h-319v1122h319v-151h-65q-11 0 -18.5 -7.5t-7.5 -18.5t7.5 -18t18.5 -7h65v-82v-19v-7h-65h-49q-11 0 -18.5 -8t-7.5 -19t7.5 -18t18.5 -7h114v-93h-65q-11 0 -18.5 -7t-7.5 -18t7.5 -18.5t18.5 -7.5l65 -1v-89h-65q-11 0 -18.5 -7t-7.5 -18t7.5 -18.5t18.5 -7.5
h65v-109h-65q-11 0 -18.5 -7.5t-7.5 -18.5t7.5 -18t18.5 -7h65v-109h-114q-11 0 -18.5 -7.5t-7.5 -18.5t7.5 -18t18.5 -7h114v-155zM1034 730v66q0 10 -8 17.5t-19 7.5q-10 0 -17.5 -7.5t-7.5 -17.5v-66h-120v113q0 11 -7.5 19t-18.5 8t-18.5 -8t-7.5 -19v-113h-96v66
q0 10 -7.5 17.5t-18.5 7.5t-18.5 -7.5t-7.5 -17.5v-66h-97v66q0 10 -7.5 17.5t-18.5 7.5t-18.5 -7.5t-7.5 -17.5v-66h-97v319h748v-319h-130z" />
  </g>

</svg>
