<?xml version="1.0" standalone="no"?>
<!DOCTYPE svg PUBLIC "-//W3C//DTD SVG 1.1//EN" "http://www.w3.org/Graphics/SVG/1.1/DTD/svg11.dtd" >
<svg xmlns="http://www.w3.org/2000/svg" xmlns:xlink="http://www.w3.org/1999/xlink" version="1.1" viewBox="-5 -240 1202 1200">
  <g transform="matrix(1 0 0 -1 0 960)">
   <path fill="currentColor"
d="M1 -67l-6 1213l142 -142l-43 -42q-8 -7 -8 -21q0 -13 8 -20q8 -9 20 -9t22 9l42 42l60 -58l-45 -44q-7 -9 -7 -21q0 -9 7 -21q10 -8 22 -8t20 8l44 45l59 -60l-43 -43q-9 -9 -9 -21q0 -11 9 -21q8 -9 20 -9t21 9l43 44l59 -59l-82 -83q-5 -4 -7 -9.5t-2 -10.5
q0 -12 9 -21q8 -9 20.5 -9t20.5 9l84 83l57 -59l-43 -44q-9 -11 -9 -20q0 -10 9 -21q9 -9 21 -9t20 9l44 44l59 -60l-43 -43q-5 -5 -7 -10t-2 -10q0 -16 9 -21q8 -9 20 -9t21 9l44 42l59 -58l-44 -44q-9 -11 -9 -20q0 -12 9 -21q9 -8 21 -8t20 8l44 43l60 -59l-83 -82
q-9 -8 -9 -21t9 -20q8 -9 20 -9t21 9l83 82l59 -60l-44 -43q-5 -3 -6.5 -9t-1.5 -12q0 -12 8 -20q9 -8 21.5 -8t20.5 8l43 43l60 -58l-43 -44q-9 -8 -9 -21q0 -12 9 -21q8 -8 19.5 -8t21.5 8l42 44l128 -127h-1209zM655 159l-455 455l2 -455h453z" />
  </g>

</svg>
