<?xml version="1.0" standalone="no"?>
<!DOCTYPE svg PUBLIC "-//W3C//DTD SVG 1.1//EN" "http://www.w3.org/Graphics/SVG/1.1/DTD/svg11.dtd" >
<svg xmlns="http://www.w3.org/2000/svg" xmlns:xlink="http://www.w3.org/1999/xlink" version="1.1" viewBox="-97 -240 1202 1200">
  <g transform="matrix(1 0 0 -1 0 960)">
   <path fill="currentColor"
d="M638 755q0 -106 -74.5 -196.5t-172.5 -90.5t-170 90.5t-72 196.5q0 102 70 174t172.5 72t174.5 -72t72 -174zM-97 -47q0 129 138.5 246.5t350.5 117.5q213 0 352.5 -117.5t139.5 -246.5h-981zM1251 801q49 0 49 -51q0 -53 -49 -53h-128v-127q0 -50 -51 -50t-51 50v127
h-127q-53 0 -53 53q0 51 53 51h127v126q0 50 51 50t51 -50v-126h128z" />
  </g>

</svg>
