<?xml version="1.0" standalone="no"?>
<!DOCTYPE svg PUBLIC "-//W3C//DTD SVG 1.1//EN" "http://www.w3.org/Graphics/SVG/1.1/DTD/svg11.dtd" >
<svg xmlns="http://www.w3.org/2000/svg" xmlns:xlink="http://www.w3.org/1999/xlink" version="1.1" viewBox="0 -240 1200 1200">
  <g transform="matrix(1 0 0 -1 0 960)">
   <path fill="currentColor"
d="M261 775q5 0 11 2t11 4l11 -12q-14 -10 -33 -10q-29 0 -49 20t-20 49t20 49t49 20q28 0 48.5 -20t20.5 -49q0 -11 -3 -20t-8 -17l-13 13q7 10 7 24q0 22 -15 37t-37 15t-37.5 -15t-15.5 -37t15.5 -37.5t37.5 -15.5zM319 791q-10 -14 -25 -22l-11 12q16 7 23 23zM261 880
q22 0 37 -15t15 -37q0 -14 -7 -24l-12 14q2 6 2 10q0 14 -10.5 24.5t-24.5 10.5q-15 0 -25.5 -10.5t-10.5 -24.5q0 -15 10.5 -25.5t25.5 -10.5q2 0 4 0.5t5 1.5l13 -13q-5 -2 -11 -4t-11 -2q-22 0 -37.5 15.5t-15.5 37.5t15.5 37t37.5 15zM270 794q8 3 15 9t9 15l12 -14
q-7 -16 -23 -23zM883 155q11 16 25 23l12 -12q-16 -7 -24 -23zM942 67q-22 0 -37 15t-15 37q0 12 6 24l13 -14q-2 -6 -2 -10q0 -15 10 -25t25 -10q14 0 24.5 10t10.5 25q0 14 -10.5 24.5t-24.5 10.5q-2 0 -4.5 -0.5t-5.5 -0.5l-12 13q5 2 10 3.5t12 1.5q21 0 36 -15.5
t15 -36.5q0 -22 -15 -37t-36 -15zM942 171q-7 0 -12 -1.5t-10 -3.5l-12 12q15 9 34 9q29 0 48.5 -19.5t19.5 -48.5q0 -28 -19.5 -48.5t-48.5 -20.5q-28 0 -48.5 20.5t-20.5 48.5q0 19 10 36l13 -12q-6 -12 -6 -24q0 -22 15 -37t37 -15q21 0 36 15t15 37q0 21 -15 36.5
t-36 15.5zM1166 985q-2 -11 -9 -41t-18.5 -72.5t-28.5 -94t-38.5 -105t-48.5 -105.5t-59.5 -95.5t-70.5 -75t-82 -44.5q-33 -9 -62 -8l159 -166q-14 -7 -25 -23l-192 200q-20 7 -39.5 18.5t-39.5 26.5h-90v80q-21 15 -38.5 22t-30.5 8.5t-22.5 -0.5t-14.5 -3
q-43 -13 -83 -62t-74.5 -118t-62.5 -148t-47 -152q-5 -20 -9 -39l-8 -38q-4 -17 -18 -28.5t-31 -11.5q-7 0 -10 1q-20 5 -32 22t-7 37q2 11 9 41t18.5 72.5t28.5 94t38.5 105t48.5 105.5t59.5 95.5t70.5 75t82 44.5q14 5 28.5 6.5t28.5 1.5l-152 158q15 8 25 22l182 -189
q22 -7 43.5 -18.5t43.5 -28.5h90v-80q21 -15 38 -22t30.5 -8.5t22.5 0t14 2.5q43 13 83.5 62.5t75 118.5t62 148t46.5 152q5 20 9 39t9 38q5 20 22 31.5t37 6.5q20 -4 31.5 -21t7.5 -37zM644 522h-19h-47h-23v-6v-20v-45v-18h19h43h27v6v14v51v18zM932 153q-19 -7 -23 -24
l-13 14q8 16 24 23z" />
  </g>

</svg>
