<?xml version="1.0" standalone="no"?>
<!DOCTYPE svg PUBLIC "-//W3C//DTD SVG 1.1//EN" "http://www.w3.org/Graphics/SVG/1.1/DTD/svg11.dtd" >
<svg xmlns="http://www.w3.org/2000/svg" xmlns:xlink="http://www.w3.org/1999/xlink" version="1.1" viewBox="0 -240 1200 1200">
  <g transform="matrix(1 0 0 -1 0 960)">
   <path fill="currentColor"
d="M233 848q101 0 163 -65q51 -53 51 -120q0 -95 -104 -151q62 -14 99 -60t37 -111q0 -95 -69.5 -162t-172.5 -67q-98 0 -162 56q-65 57 -75 147l134 17q6 -51 34 -78.5t68 -27.5q43 0 72 33q29 32 29 87q0 53 -28 83.5t-68 30.5q-27 0 -63 -11l15 113q56 -2 85 24
q30 26 30 69q0 36 -21.5 58t-57.5 22t-61 -25t-30 -72l-128 22q14 65 40 104q27 39 75 61q48 23 108 23zM596 845h266q90 0 137 -14q63 -18 108.5 -66t68.5 -117q24 -69 24 -170q0 -89 -22 -154q-27 -78 -77 -127q-38 -37 -103 -58q-48 -15 -128 -15h-274v721zM741 723v-477
h109q61 0 88 7q35 8 58 30q24 21 39 69q15 49 15 132.5t-15 128t-41.5 69.5t-67.5 34q-30 7 -119 7h-66z" />
  </g>

</svg>
