<?xml version="1.0" encoding="UTF-8" standalone="no"?>
<svg
   version="1.1"
   viewBox="0 -240 1200 1200"
   id="svg6"
   sodipodi:docname="add-comment.svg"
   inkscape:version="1.1 (c68e22c387, 2021-05-23)"
   xmlns:inkscape="http://www.inkscape.org/namespaces/inkscape"
   xmlns:sodipodi="http://sodipodi.sourceforge.net/DTD/sodipodi-0.dtd"
   xmlns="http://www.w3.org/2000/svg"
   xmlns:svg="http://www.w3.org/2000/svg"
   xmlns:rdf="http://www.w3.org/1999/02/22-rdf-syntax-ns#"
   xmlns:cc="http://creativecommons.org/ns#"
   xmlns:dc="http://purl.org/dc/elements/1.1/">
  <metadata
     id="metadata12">
    <rdf:RDF>
      <cc:Work
         rdf:about="">
        <dc:format>image/svg+xml</dc:format>
        <dc:type
           rdf:resource="http://purl.org/dc/dcmitype/StillImage" />
      </cc:Work>
    </rdf:RDF>
  </metadata>
  <defs
     id="defs10" />
  <sodipodi:namedview
     pagecolor="#ffffff"
     bordercolor="#666666"
     borderopacity="1"
     objecttolerance="10"
     gridtolerance="10"
     guidetolerance="10"
     inkscape:pageopacity="0"
     inkscape:pageshadow="2"
     inkscape:window-width="1920"
     inkscape:window-height="1017"
     id="namedview8"
     showgrid="false"
     inkscape:zoom="0.27812867"
     inkscape:cx="253.4798"
     inkscape:cy="1163.1307"
     inkscape:window-x="3832"
     inkscape:window-y="-8"
     inkscape:window-maximized="1"
     inkscape:current-layer="layer2"
     showguides="false"
     inkscape:pagecheckerboard="0" />
  <g
     inkscape:groupmode="layer"
     id="layer2"
     inkscape:label="glyph">
    <path
       id="path823-5"
       style="stroke-width:1"
       d="M 950 120 C 938.66667 120 928.83333 124 920.5 132 C 912.16667 140 908 149.33333 908 160 L 908 330 L 741 330 C 729.66667 330 720 333.66667 712 341 C 704 348.33333 700 357.83333 700 369.5 C 700 381.16667 704 391 712 399 C 720 407 729.66667 411 741 411 L 908 411 L 908 580 C 908 591.33333 912.16667 600.83333 920.5 608.5 C 928.83333 616.16667 938.66667 620 950 620 C 961.33333 620 971 616.16667 979 608.5 C 987 600.83333 991 591.33333 991 580 L 991 411 L 1160 411 C 1170.6667 411 1180 407 1188 399 C 1196 391 1200 381.16667 1200 369.5 C 1200 357.83333 1196 348.33333 1188 341 C 1180 333.66667 1170.6667 330 1160 330 L 991 330 L 991 160 C 991 149.33333 987 140 979 132 C 971 124 961.33333 120 950 120 z M 78.853516 566 C 57.324992 566 38.79986 573.01073 23.279297 587.0293 C 7.7587341 601.04787 0 618.56979 0 639.59766 L 0 1012.0918 C 0 1033.1197 7.7587341 1051.2688 23.279297 1066.5391 C 38.79986 1081.8092 57.324992 1089.4434 78.853516 1089.4434 L 156.20703 1089.4434 L 156.20703 1320 L 359.72656 1089.4434 L 849.375 1089.4434 C 871.40419 1089.4434 889.92932 1081.8092 904.94922 1066.5391 C 919.96912 1051.2688 927.47852 1033.1197 927.47852 1012.0918 L 927.47852 721.95898 C 923.89748 721.40284 920.30699 720.89255 916.77734 720.07031 C 889.20345 713.70606 863.504 699.25472 843.96094 678.75977 C 824.41007 658.46381 810.70745 632.75142 804.10742 605.39453 C 804.10102 592.26302 804.09444 579.13151 804.08789 566 L 78.853516 566 z "
       transform="translate(0,-240)" />
  </g>
</svg>
