<?xml version="1.0" encoding="UTF-8" standalone="no"?>
<svg
   xmlns:dc="http://purl.org/dc/elements/1.1/"
   xmlns:cc="http://creativecommons.org/ns#"
   xmlns:rdf="http://www.w3.org/1999/02/22-rdf-syntax-ns#"
   xmlns:svg="http://www.w3.org/2000/svg"
   xmlns="http://www.w3.org/2000/svg"
   xmlns:sodipodi="http://sodipodi.sourceforge.net/DTD/sodipodi-0.dtd"
   xmlns:inkscape="http://www.inkscape.org/namespaces/inkscape"
   version="1.1"
   viewBox="0 -240 1200 1200"
   id="svg6"
   sodipodi:docname="add-geostory.svg"
   inkscape:version="0.92.1 r15371">
  <metadata
     id="metadata12">
    <rdf:RDF>
      <cc:Work
         rdf:about="">
        <dc:format>image/svg+xml</dc:format>
        <dc:type
           rdf:resource="http://purl.org/dc/dcmitype/StillImage" />
        <dc:title></dc:title>
      </cc:Work>
    </rdf:RDF>
  </metadata>
  <defs
     id="defs10" />
  <sodipodi:namedview
     pagecolor="#ffffff"
     bordercolor="#666666"
     borderopacity="1"
     objecttolerance="10"
     gridtolerance="10"
     guidetolerance="10"
     inkscape:pageopacity="0"
     inkscape:pageshadow="2"
     inkscape:window-width="1920"
     inkscape:window-height="1017"
     id="namedview8"
     showgrid="false"
     inkscape:zoom="0.27812867"
     inkscape:cx="499.35166"
     inkscape:cy="226.86708"
     inkscape:window-x="-8"
     inkscape:window-y="-8"
     inkscape:window-maximized="1"
     inkscape:current-layer="layer2"
     showguides="false" />
  <g
     inkscape:groupmode="layer"
     id="layer2"
     inkscape:label="glyph">
    <path
       style="fill:currentColor"
       d="M 950 120 C 938.66667 120 928.83333 124 920.5 132 C 912.16667 140 908 149.3333 908 160 L 908 330 L 741 330 C 729.66667 330 720 333.66667 712 341 C 704 348.33333 700 357.83333 700 369.5 C 700 381.16667 704 391 712 399 C 720 407 729.66667 411 741 411 L 908 411 L 908 580 C 908 591.33333 912.16667 600.83333 920.5 608.5 C 928.83333 616.16667 938.66667 620 950 620 C 961.33333 620 971 616.16667 979 608.5 C 987 600.83333 991 591.33333 991 580 L 991 411 L 1160 411 C 1170.6667 411 1180 407 1188 399 C 1196 391 1200 381.16667 1200 369.5 C 1200 357.83333 1196 348.33333 1188 341 C 1180 333.66667 1170.6667 330 1160 330 L 991 330 L 991 160 C 991 149.3333 987 140 979 132 C 971 124 961.33333 120 950 120 z M 218.92969 520 C 183.11709 520 160.13275 526.13774 134.21875 543.14062 C 109.53805 564.99658 97.845253 586.68465 96.564453 617.85156 C 96.056753 613.96612 95.789063 610.26789 95.789062 606.77734 L 95.789062 645.64648 L 95.789062 1232.3965 L 100.74805 1255.5371 C 102.40095 1267.6584 113.55755 1281.4324 134.21875 1296.8594 C 154.87995 1312.2864 183.11699 1320 218.92969 1320 L 693.21094 1320 L 693.21094 732.42383 L 693.21094 694.4082 L 693.21094 693.55273 L 673.7207 693.55273 L 673.7207 558.01758 L 693.21094 558.01758 L 693.21094 520 L 673.7207 520 L 650.8418 520 L 218.92969 520 z M 650.8418 558.01758 L 650.8418 693.55273 L 218.92969 693.55273 C 207.25959 693.55273 196.39909 692.72997 186.33789 691.0918 C 174.09159 688.11046 162.38028 683.20658 151.95898 675.83789 C 136.50128 667.66582 126.84932 631.06372 135.04492 605.39258 C 151.22722 567.62873 168.48082 560.55368 211.79492 558.02344 L 650.8418 558.01758 z M 138.76367 721.82422 C 151.71957 727.38648 165.35747 731.34428 179.26367 733.6582 C 336.19142 739.50916 493.24948 735.41207 650.23633 736.38086 L 650.23633 1277.0312 C 513.14366 1277.171 376.0512 1276.6422 238.95898 1277.1699 C 212.54188 1278.2137 183.95538 1277.733 161.01758 1263.1113 C 148.08238 1256.7487 139.15217 1243.2428 138.76367 1228.7754 L 138.76367 721.82422 z M 217.11719 795.88086 L 217.11719 836.85156 L 588.22656 836.85156 L 588.22656 795.88086 L 217.11719 795.88086 z M 217.11719 869.69531 L 217.11719 910.66602 L 500.56836 910.66602 L 500.56836 869.69531 L 217.11719 869.69531 z M 394.5 953.2793 C 374.8042 953.2793 355.87275 957.18569 337.70508 964.99609 C 319.70719 972.8065 304.12951 983.29234 290.9707 996.45117 C 277.8118 1009.61 267.32602 1025.2297 259.51562 1043.3125 C 251.70522 1061.3953 247.80078 1080.2847 247.80078 1099.9805 C 247.80078 1119.6763 251.70522 1138.5656 259.51562 1156.6484 C 267.32602 1174.7312 277.8118 1190.351 290.9707 1203.5098 C 304.12951 1216.6686 319.74924 1227.1544 337.83203 1234.9648 C 355.91481 1242.7753 374.8042 1246.6797 394.5 1246.6797 C 414.1958 1246.6797 433.08519 1242.7753 451.16797 1234.9648 C 469.25076 1227.1544 484.87047 1216.6686 498.0293 1203.5098 C 511.18813 1190.351 521.67398 1174.7312 529.48438 1156.6484 C 537.29477 1138.5656 541.19922 1119.6763 541.19922 1099.9805 C 541.19922 1080.2847 537.29477 1061.3953 529.48438 1043.3125 C 521.67398 1025.2297 511.18813 1009.61 498.0293 996.45117 C 484.87047 983.29234 469.25076 972.8065 451.16797 964.99609 C 433.08519 957.18569 414.1958 953.2793 394.5 953.2793 z M 401.37695 972.38086 C 404.60299 973.06002 407.74259 973.06002 410.79883 972.38086 C 413.00612 974.24857 416.48804 975.94649 421.24219 977.47461 C 425.99635 979.00274 430.24115 980.27618 433.97656 981.29492 C 437.71198 982.31368 440.8095 984.35196 443.27148 987.4082 C 445.73346 990.46445 446.54232 994.36889 445.69336 999.12305 L 442.63477 1000.3965 C 440.76707 1001.0757 437.49935 1001.2879 432.83008 1001.0332 C 428.16082 1000.7785 423.19517 999.54908 417.93164 997.3418 C 418.44101 997.51159 418.82149 997.89206 419.07617 998.48633 C 419.33087 999.0806 419.41692 999.88946 419.33203 1000.9082 C 419.24713 1001.927 419.12097 1002.816 418.95117 1003.5801 C 418.78138 1004.3441 418.52513 1005.3212 418.18555 1006.5098 C 417.84597 1007.6983 417.67773 1008.379 417.67773 1008.5488 C 419.54544 1009.5676 423.23764 1011.5178 428.75586 1014.4043 C 434.27408 1017.2908 438.43477 1019.5853 441.23633 1021.2832 C 444.03789 1022.9811 447.22149 1025.484 450.78711 1028.7949 C 454.35273 1032.1059 456.98373 1035.7139 458.68164 1039.6191 C 457.15352 1041.4868 455.41158 1042.8043 453.45898 1043.5684 C 451.50638 1044.3324 449.80846 1044.7129 448.36523 1044.7129 C 446.922 1044.7129 444.84362 1044.5848 442.12695 1044.3301 C 439.41029 1044.0754 437.37201 1043.9492 436.01367 1043.9492 C 433.29701 1047.0055 432.44805 1050.0629 433.4668 1053.1191 C 429.73139 1054.8171 426.84413 1056.7253 424.80664 1058.8477 C 422.76914 1060.9701 421.4556 1062.8802 420.86133 1064.5781 C 420.26706 1066.276 419.58633 1068.909 418.82227 1072.4746 C 418.05821 1076.0402 417.16719 1079.0116 416.14844 1081.3887 C 415.46928 1083.596 414.15377 1085.6744 412.20117 1087.627 C 410.24857 1089.5796 408.71887 1091.4897 407.61523 1093.3574 C 406.51158 1095.2251 406.21524 1097.6879 406.72461 1100.7441 C 407.23399 1103.4608 407.278 1106.1779 406.85352 1108.8945 C 406.42904 1111.6112 405.7483 1114.5405 404.81445 1117.6816 C 403.8806 1120.8228 403.24389 1123.4117 402.9043 1125.4492 L 401.63086 1124.6855 C 400.6121 1124.0064 399.29661 1123.1134 397.68359 1122.0098 C 396.07057 1120.9062 394.37265 1119.6327 392.58984 1118.1895 C 390.80703 1116.7462 388.98294 1115.0063 387.11523 1112.9688 C 385.24752 1110.9313 383.71784 1108.8949 382.5293 1106.8574 C 381.51055 1105.1595 379.85664 1104.0122 377.56445 1103.418 C 375.27227 1102.8237 372.42707 1102.4853 369.03125 1102.4004 C 365.63541 1102.3155 363.42694 1102.1874 362.4082 1102.0176 C 359.69154 1103.0363 357.82539 1104.9045 356.80664 1107.6211 C 354.93894 1112.7148 355.61772 1117.6384 358.84375 1122.3926 C 362.06979 1127.3166 365.63581 1127.6569 369.54102 1123.4121 C 372.59726 1120.0162 375.22826 1118.2322 377.43555 1118.0625 C 379.64283 1117.8927 381.21262 1118.8698 382.14648 1120.9922 C 383.08033 1123.1146 383.67695 1125.4913 383.93164 1128.123 C 384.18633 1130.7548 384.22642 1133.3438 384.05664 1135.8906 C 384.7358 1136.2302 386.81811 1136.7828 390.29883 1137.5469 C 393.77955 1138.3109 396.02812 1139.7966 397.04688 1142.0039 C 397.04688 1142.1736 397.00481 1144.3382 396.91992 1148.498 C 396.83502 1152.658 397.13138 1154.8224 397.81055 1154.9922 C 400.35742 1158.8974 405.95978 1157.8783 414.61914 1151.9355 C 417.3358 1150.0678 420.56342 1148.6682 424.29883 1147.7344 C 428.03425 1146.8005 431.59831 1146.2479 434.99414 1146.0781 C 438.38996 1145.9083 442.04207 1145.7822 445.94727 1145.6973 C 449.85247 1145.6124 453.33243 1145.5684 456.38867 1145.5684 C 459.27513 1147.4361 463.64806 1149.0499 469.50586 1150.4082 C 475.36367 1151.7665 479.56447 1153.0399 482.11133 1154.2285 C 484.14883 1155.417 487.20625 1156.0537 491.28125 1156.1387 C 495.35623 1156.2235 498.49779 1156.9444 500.70508 1158.3027 C 500.19571 1163.7361 498.41172 1169.0861 495.35547 1174.3496 C 492.29923 1179.6131 489.36992 1183.7719 486.56836 1186.8281 C 483.7668 1189.8844 479.82031 1193.8749 474.72656 1198.7988 C 454.86097 1218.155 436.09775 1227.6638 418.43945 1227.3242 C 417.59049 1225.2867 417.16602 1223.8431 417.16602 1222.9941 C 417.16602 1222.1452 417.46431 1220.9559 418.05859 1219.4277 C 418.65286 1217.8996 418.95117 1216.542 418.95117 1215.3535 C 415.72514 1214.6744 412.62565 1213.1466 409.6543 1210.7695 C 406.68295 1208.3925 404.34831 1206.0578 402.65039 1203.7656 C 400.95248 1201.4735 398.99831 1198.5441 396.79102 1194.9785 C 396.28165 1192.092 397.0905 1188.8664 399.21289 1185.3008 C 401.33529 1181.7351 403.24545 1178.3393 404.94336 1175.1133 C 406.64128 1171.8873 406.89362 1169 405.70508 1166.4531 C 400.78113 1167.1323 395.89961 1166.1992 391.06055 1163.6523 C 386.2215 1161.1055 381.12773 1157.8798 375.7793 1153.9746 C 370.43087 1150.0694 365.97382 1147.3523 362.4082 1145.8242 C 360.54049 1145.1451 357.61315 1144.1259 353.62305 1142.7676 C 349.63295 1141.4093 346.19309 1140.1358 343.30664 1138.9473 C 340.42018 1137.7587 337.62096 1136.4853 334.9043 1135.127 C 333.71576 1134.4478 332.05795 1133.2585 329.93555 1131.5605 C 327.81316 1129.8626 325.81888 1128.5892 323.95117 1127.7402 C 322.08347 1126.8913 320.13125 1126.4668 318.09375 1126.4668 C 318.26354 1122.3918 316.90598 1117.3421 314.01953 1111.3145 C 311.13307 1105.2869 309.68945 1101.5086 309.68945 1099.9805 C 310.7082 1095.2263 310.02942 1087.84 307.65234 1077.8223 C 305.27526 1067.8046 304.85078 1059.9096 306.37891 1054.1367 C 307.22786 1050.4013 309.73269 1043.6957 313.89258 1034.0176 C 318.05247 1024.3395 320.3871 1016.6127 320.89648 1010.8398 C 321.06627 1009.6513 320.34349 1008.0796 318.73047 1006.127 C 317.11745 1004.1744 316.56679 1002.2642 317.07617 1000.3965 C 317.58555 997.84962 320.51291 994.92226 325.86133 991.61133 C 331.20977 988.3004 335.58269 986.04987 338.97852 984.86133 C 341.52539 984.01238 345.38778 983.84414 350.56641 984.35352 C 355.74505 984.86289 359.60743 984.86289 362.1543 984.35352 C 363.85221 984.01393 367.16394 983.46134 372.08789 982.69727 C 377.01185 981.93321 380.66198 981.25247 383.03906 980.6582 C 385.41614 980.06393 388.42957 979.04674 392.08008 977.60352 C 395.7306 976.16029 398.83009 974.41836 401.37695 972.38086 z M 397.81055 999.63477 C 396.45222 1000.3139 395.05064 1001.3751 393.60742 1002.8184 C 392.16419 1004.2616 391.01887 1005.491 390.16992 1006.5098 C 389.32096 1007.5285 388.13164 1008.0371 386.60352 1008.0371 C 385.07539 1008.0371 383.46353 1007.1881 381.76562 1005.4902 C 381.25624 1006.6788 379.89673 1008.8452 377.68945 1011.9863 C 375.48216 1015.1275 374.1246 1017.6303 373.61523 1019.498 C 376.33189 1021.3657 379.47345 1022.7673 383.03906 1023.7012 C 386.60468 1024.635 391.06173 1025.484 396.41016 1026.248 C 401.75858 1027.0121 405.11236 1027.4806 406.4707 1027.6504 C 406.4707 1027.141 405.70585 1025.1868 404.17773 1021.791 C 402.64961 1018.3952 401.20795 1014.5749 399.84961 1010.3301 C 398.49128 1006.0853 397.81055 1002.5212 397.81055 999.63477 z "
       transform="translate(0,-240)"
       id="path4483" />
  </g>
</svg>
