<?xml version="1.0" standalone="no"?>
<!DOCTYPE svg PUBLIC "-//W3C//DTD SVG 1.1//EN" "http://www.w3.org/Graphics/SVG/1.1/DTD/svg11.dtd" >
<svg xmlns="http://www.w3.org/2000/svg" xmlns:xlink="http://www.w3.org/1999/xlink" version="1.1" viewBox="0 -240 1200 1200">
  <g transform="matrix(1 0 0 -1 0 960)">
   <path fill="currentColor"
d="M52 1080h1094q19 0 36 -17t17 -36v-61q0 -52 -53 -52h-1094q-51 0 -51 52v61q0 19 15 36t36 17zM600.5 813q22.5 0 39 -15.5t16.5 -38.5v-225h223q23 0 38.5 -15t15.5 -38.5t-15.5 -39.5t-38.5 -16h-223v-224q0 -23 -16.5 -38.5t-39 -15.5t-39 15.5t-16.5 38.5v224h-224
q-21 0 -37.5 16t-16.5 39.5t16.5 38.5t37.5 15h224v225q0 23 16.5 38.5t39 15.5z" />
  </g>

</svg>
