<?xml version="1.0" standalone="no"?>
<!DOCTYPE svg PUBLIC "-//W3C//DTD SVG 1.1//EN" "http://www.w3.org/Graphics/SVG/1.1/DTD/svg11.dtd" >
<svg xmlns="http://www.w3.org/2000/svg" xmlns:xlink="http://www.w3.org/1999/xlink" version="1.1" viewBox="0 -240 1200 1200">
  <g transform="matrix(1 0 0 -1 0 960)">
   <path fill="currentColor"
d="M950 1080q17 0 29 -12t12 -28v-170h169q16 0 28 -11t12 -28.5t-12 -29.5t-28 -12h-169v-169q0 -17 -12 -28.5t-29 -11.5t-29.5 11.5t-12.5 28.5v169h-167q-17 0 -29 12t-12 29.5t12 28.5t29 11h167v170q0 16 12.5 28t29.5 12zM36 634h6h250q33 0 43 -28q2 -6 2 -12.5
t1 -12.5t2 -11t4 -10q11 -18 34 -18q3 -2 5.5 -2.5t3.5 -0.5h510q13 0 22.5 -3.5t16.5 -15.5q2 -4 4 -8.5t2 -11.5q2 -11 1 -21t-1 -19v-5h-714q-30 0 -51.5 -18.5t-25.5 -45.5l-151 -361v565q0 15 9.5 25.5t26.5 13.5zM254 350h704h142l-199 -467l-2 -3h-844l198 468z" />
  </g>

</svg>
