<?xml version="1.0" standalone="no"?>
<!DOCTYPE svg PUBLIC "-//W3C//DTD SVG 1.1//EN" "http://www.w3.org/Graphics/SVG/1.1/DTD/svg11.dtd" >
<svg xmlns="http://www.w3.org/2000/svg" xmlns:xlink="http://www.w3.org/1999/xlink" version="1.1" viewBox="0 -240 1200 1200">
  <g transform="matrix(1 0 0 -1 0 960)">
   <path fill="currentColor"
d="M950 1080q17 0 29 -12t12 -28v-170h169q16 0 28 -11t12 -28.5t-12 -29.5t-28 -12h-169v-169q0 -17 -12 -28.5t-29 -11.5t-29.5 11.5t-12.5 28.5v169h-167q-17 0 -29 12t-12 29.5t12 28.5t29 11h167v170q0 16 12.5 28t29.5 12zM401 680q164 0 282 -118t118 -282
q0 -95 -45 -178q-48 -101 -143.5 -161.5t-211 -60.5t-211.5 60.5t-144 161.5q-46 83 -46 178q0 164 118.5 282t282.5 118zM400.5 627q-142.5 0 -244.5 -102t-102 -245q0 -93 48 -178h597q48 85 48 178q0 143 -102 245t-244.5 102zM313 575q34 0 34 -35.5t-34 -35.5
q-14 0 -24.5 10t-10.5 25q0 14 10.5 25t24.5 11zM487 575q36 0 36 -36q0 -15 -10.5 -25t-25.5 -10q-14 0 -24.5 10t-10.5 25q0 14 10.5 25t24.5 11zM582 533l-69 -190l-61 -179q0 -4 -5 -14q-9 -18 -30 -25t-39 1q-19 12 -26 33.5t2 39.5q0 2 2.5 4t4.5 4l106 158zM177 467
q14 0 24 -10.5t10 -26.5q0 -14 -10 -24.5t-24 -10.5q-17 0 -26.5 10.5t-9.5 24.5q0 37 36 37zM627 467q14 0 24 -10.5t10 -24.5q0 -34 -35 -34t-35 34.5t36 34.5zM666 319q18 0 27.5 -10t9.5 -25q0 -34 -37 -34q-35 0 -35 34q0 15 11 25t24 10zM131 314q33 0 33 -34.5
t-33 -34.5q-14 0 -25 10.5t-11 24.5t11 24t25 10z" />
  </g>

</svg>
