<?xml version="1.0" standalone="no"?>
<!DOCTYPE svg PUBLIC "-//W3C//DTD SVG 1.1//EN" "http://www.w3.org/Graphics/SVG/1.1/DTD/svg11.dtd" >
<svg xmlns="http://www.w3.org/2000/svg" xmlns:xlink="http://www.w3.org/1999/xlink" version="1.1" viewBox="0 -240 1200 1200">
  <g transform="matrix(1 0 0 -1 0 960)">
   <path fill="currentColor"
d="M559 1080q206 0 355 -59q72 -28 113.5 -65.5t46.5 -78.5h1v-501q-5 1 -9 2q-33 5 -61 -24q-6 1 -3 11q0 19 -13 36q0 55 0.5 172.5t-0.5 171.5q-1 92 -3 124q-2 6 -5.5 11.5t-10.5 11t-10 7.5t-12.5 8.5t-10.5 6.5q-86 50 -244 72q-65 8 -140 7h-9q-188 -2 -323 -59
q-20 -9 -32 -14.5t-27.5 -17.5t-25.5 -25q-9 -14 -8 -51q2 -7 1.5 -37.5t-0.5 -37.5q0 -61 -0.5 -198t-0.5 -210q5 -6 17.5 -16t17.5 -16q12 -12 60.5 -58t66.5 -62.5l60 -55l68.5 -60l64 -50.5l71.5 -52q45 29 97 72q14 -6 31 -6q4 -7 -7 -16q-13 -15 -14 -36t10 -37
q-90 -70 -117 -70q-22 0 -79.5 41.5t-124.5 100t-131 117.5t-106 100l-43 42q-29 23 -29 59q0 9 2 17v520h1q5 41 46.5 78.5t113.5 65.5q149 59 355 59zM559 893.5q69 0.5 132 -27t109 -73.5t73 -109t27 -132q0 -65 -24 -124q-36 -8 -50 -36q-2 -5 -3 -16.5t-3 -15.5
q-6 -8 -13 2q-7 7 -16 12q1 2 3 5q10 18 12 37q-8 5 -22 5t-21 5q-9 4 -29.5 8.5t-30.5 11.5q-11 0 -24.5 -0.5t-25.5 -1t-25 -4t-22 -9.5q-31 -21 -40 -7q-2 0 -1.5 15l0.5 15q-4 8 -16 10.5t-15 3.5q1 9 0 18.5t-4 16.5t-11 6.5t-18 -12.5q-14 -14 -25 3q-12 16 -5 34
q4 10 13 13q4 0 15.5 -0.5t19.5 -2.5t12 -8q4 -7 10.5 -14t13 -12.5t12 -9t8.5 -6.5l3 -1q2 7 5 18t4.5 20.5t-0.5 18.5q-2 11 2 17.5t11 13t9 14.5q4 9 6.5 21t4.5 18t9 13.5t20 13.5q-3 11 6 21q5 0 14.5 -0.5t14.5 -0.5t12 2.5t12 8.5q-6 14 -18.5 25.5t-22 17.5t-29 16
t-25.5 14l1 4.5l1.5 7l1 6l-0.5 5.5l-2 3q18 -8 34 -9t23 2l7 3q3 16 -5.5 27t-21.5 14.5t-30 8.5t-24 12q-11 -2 -22 0q-9 -7 -22 -12t-21 -7t-25.5 -5t-23.5 -4q-8 -2 -26.5 0t-27.5 -1q-11 -4 -30 -15.5t-21 -20.5q-1 -7 4.5 -13.5t4.5 -11.5q-1 -20 -15.5 -53.5
t-17.5 -46.5q-6 -21 2.5 -55.5t4.5 -51.5q0 -5 10 -26.5t10 -35.5q7 0 13.5 -3t14 -9t11.5 -8q9 -5 19.5 -9t24.5 -8.5t20 -7.5q12 -5 31 -18.5t36 -22.5t34 -7q4 -9 -2 -20t-13.5 -23.5t-5.5 -22.5q8 -13 14 -21t16 -16t22 -11q0 -4 -2 -9.5t-2 -8t2 -10.5q24 0 49 10
q5 -18 17 -32q-58 -23 -121 -23q-69 0 -132 27.5t-109 73.5t-73.5 109t-27.5 132t27.5 132t73.5 109t109 73t132 27.5zM566 786q0 -11 5 -25.5t10.5 -26.5t5.5 -14q-5 1 -23.5 3.5t-31 6t-22.5 9.5q2 7 9.5 18t9.5 15q6 -6 11.5 -6t8.5 3.5t8 8.5t9 8zM910 380q14 0 28 -2
q13 0 13 -15q-2 -39 34 -54q38 -15 62 15q9 8 19 2q22 -22 39 -41q8 -12 -2 -18q-27 -27 -13 -63q12 -33 52 -33q15 0 15 -14q4 -26 0 -55q0 -14 -15 -14l-2 2q-37 0 -52 -35q-13 -36 15 -62q10 -9 2 -19q-19 -21 -41 -41q-10 -8 -18 3q-28 28 -62.5 13.5t-34.5 -53.5
q0 -13 -12 -13q-20 -3 -28 -3t-29 3q-12 0 -12 15q3 38 -33 53q-38 16 -63 -15q-8 -8 -19 -1q-23 22 -39 41q-8 11 2 18q27 27 13 62q-15 37 -50 34q-17 0 -17 13q-4 28 0 57q0 12 15 12q39 0 53 34q15 36 -12 62q-12 8 -4 19q27 29 41 40q10 9 19 -3q27 -27 62 -12.5
t35 52.5q0 14 11 14q14 2 28 2zM909 213q-33 0 -57.5 -24.5t-24.5 -57.5q0 -36 24.5 -60t57.5 -24q35 0 60 24t25 60q0 33 -25 57.5t-60 24.5z" />
  </g>

</svg>
