<?xml version="1.0" encoding="UTF-8" standalone="no"?>
<svg
   xmlns:dc="http://purl.org/dc/elements/1.1/"
   xmlns:cc="http://creativecommons.org/ns#"
   xmlns:rdf="http://www.w3.org/1999/02/22-rdf-syntax-ns#"
   xmlns:svg="http://www.w3.org/2000/svg"
   xmlns="http://www.w3.org/2000/svg"
   xmlns:sodipodi="http://sodipodi.sourceforge.net/DTD/sodipodi-0.dtd"
   xmlns:inkscape="http://www.inkscape.org/namespaces/inkscape"
   version="1.1"
   viewBox="0 -240 1200 1200"
   id="svg6"
   sodipodi:docname="back.svg"
   inkscape:version="0.92.1 r15371">
  <metadata
     id="metadata12">
    <rdf:RDF>
      <cc:Work
         rdf:about="">
        <dc:format>image/svg+xml</dc:format>
        <dc:type
           rdf:resource="http://purl.org/dc/dcmitype/StillImage" />
        <dc:title></dc:title>
      </cc:Work>
    </rdf:RDF>
  </metadata>
  <defs
     id="defs10" />
  <sodipodi:namedview
     pagecolor="#ffffff"
     bordercolor="#666666"
     borderopacity="1"
     objecttolerance="10"
     gridtolerance="10"
     guidetolerance="10"
     inkscape:pageopacity="0"
     inkscape:pageshadow="2"
     inkscape:window-width="1920"
     inkscape:window-height="1017"
     id="namedview8"
     showgrid="false"
     inkscape:zoom="0.55625734"
     inkscape:cx="644.27967"
     inkscape:cy="415.22944"
     inkscape:window-x="-8"
     inkscape:window-y="-8"
     inkscape:window-maximized="1"
     inkscape:current-layer="layer2"
     showguides="false" />
  <g
     inkscape:groupmode="layer"
     id="layer2"
     inkscape:label="glyph">
    <path
       inkscape:connector-curvature="0"
       style="fill:currentColor;stroke-width:2.68343496"
       d="M 803.69735,1080 C 852.92287,1079.9995 892.8279,1040.0944 892.82843,990.86891 892.82114,967.54023 883.66796,945.14421 867.33369,928.48831 867.33369,928.48831 861.73596,922.79804 867.33369,928.48831 L 508.64776,476.67325 869.4357,29.16146 869.44067,29.1565 C 884.44745,12.76357 892.78864,-8.64437 892.82843,-30.8689 892.82791,-80.0944 852.92287,-119.9995 803.69735,-120 770.4521,-119.9701 739.98652,-101.4405 724.66935,-71.934 724.66935,-71.934 722.06312,-66.9235 724.66935,-71.934 L 340.78897,404.21686 C 319.50269,422.25662 307.21185,448.73373 307.17155,476.63602 307.18931,505.04167 319.90286,531.95251 341.83377,550.00569 L 725.15081,1032.8448 V 1032.8473 C 740.63393,1061.8472 770.82298,1079.9702 803.69735,1080 Z"
       id="path4483"
       sodipodi:nodetypes="ccccccccccccccccc" />
  </g>
</svg>
