<?xml version="1.0" encoding="UTF-8" standalone="no"?>
<svg
   version="1.1"
   viewBox="0 -240 1200 1200"
   id="svg6"
   sodipodi:docname="bottom.svg"
   inkscape:version="1.1 (c68e22c387, 2021-05-23)"
   xmlns:inkscape="http://www.inkscape.org/namespaces/inkscape"
   xmlns:sodipodi="http://sodipodi.sourceforge.net/DTD/sodipodi-0.dtd"
   xmlns="http://www.w3.org/2000/svg"
   xmlns:svg="http://www.w3.org/2000/svg"
   xmlns:rdf="http://www.w3.org/1999/02/22-rdf-syntax-ns#"
   xmlns:cc="http://creativecommons.org/ns#"
   xmlns:dc="http://purl.org/dc/elements/1.1/">
  <metadata
     id="metadata12">
    <rdf:RDF>
      <cc:Work
         rdf:about="">
        <dc:format>image/svg+xml</dc:format>
        <dc:type
           rdf:resource="http://purl.org/dc/dcmitype/StillImage" />
      </cc:Work>
    </rdf:RDF>
  </metadata>
  <defs
     id="defs10" />
  <sodipodi:namedview
     pagecolor="#ffffff"
     bordercolor="#666666"
     borderopacity="1"
     objecttolerance="10"
     gridtolerance="10"
     guidetolerance="10"
     inkscape:pageopacity="0"
     inkscape:pageshadow="2"
     inkscape:window-width="1920"
     inkscape:window-height="1017"
     id="namedview8"
     showgrid="false"
     inkscape:zoom="0.55625734"
     inkscape:cx="356.84922"
     inkscape:cy="646.28361"
     inkscape:window-x="3832"
     inkscape:window-y="-8"
     inkscape:window-maximized="1"
     inkscape:current-layer="layer2"
     showguides="false"
     inkscape:pagecheckerboard="0" />
  <g
     inkscape:groupmode="layer"
     id="layer2"
     inkscape:label="glyph">
    <path
       inkscape:connector-curvature="0"
       style="fill:currentColor;stroke-width:2.68343"
       d="m 1200.0025,276.30764 c -6e-4,-49.2255 -39.9056,-89.1305 -89.1311,-89.131 -23.3287,0.01 -45.7247,9.16041 -62.3806,25.49471 0,0 -5.6903,5.59769 0,0 l -451.81506,358.6859 -447.5118,-360.7879 -0.01,-0.01 c -16.3929,-15.00681 -37.8009,-23.348 -60.025396,-23.3878 -49.2255,5e-4 -89.13050025,39.9056 -89.13110025,89.1311 0.03,33.2452 18.55950025,63.7108 48.06600025,79.028 0,0 5.0106,2.6062 0,0 l 476.150896,383.8804 c 18.0398,21.2863 44.5169,33.5771 72.4192,33.6174 28.4056,-0.018 55.3165,-12.7313 73.3697,-34.6622 L 1152.8473,354.85424 v 0 c 28.9999,-15.4831 47.1229,-45.6722 47.1527,-78.5466 z"
       id="path4483"
       sodipodi:nodetypes="ccccccccccccccccc" />
  </g>
</svg>
