<?xml version="1.0" standalone="no"?>
<!DOCTYPE svg PUBLIC "-//W3C//DTD SVG 1.1//EN" "http://www.w3.org/Graphics/SVG/1.1/DTD/svg11.dtd" >
<svg xmlns="http://www.w3.org/2000/svg" xmlns:xlink="http://www.w3.org/1999/xlink" version="1.1" viewBox="0 -240 1200 1200">
  <g transform="matrix(1 0 0 -1 0 960)">
   <path fill="currentColor"
d="M574 1080h52v-149q-13 2 -26 2t-26 -1v148zM218 933l105 -105q-19 -18 -37 -37l-105 105zM982 933l37 -37l-105 -105q-18 19 -37 37zM600 862q95 0 175 -46.5t126.5 -126.5t46.5 -175q0 -104 -57 -191t-153 -128v-70q0 -15 -15 -26t-37 -11h-172q-22 0 -37 11t-15 26v69
q-96 42 -153 129t-57 191q0 95 46.5 175t126.5 126.5t175 46.5zM599 771h-6q-81 -2 -149 -54t-91 -130q-20 -68 0 -141t73 -121q14 -12 30.5 -23t39.5 -24t33 -20q28 -27 26 -77q8 0 40.5 -0.5t49.5 -0.5q1 58 35 85q12 9 43.5 25t44.5 30q58 51 79.5 128.5t-4.5 149.5
q-23 65 -77.5 111.5t-121.5 57.5q-23 3 -45 4zM34 540h148q-1 -13 -1 -26t1 -26h-148v52zM1018 540h148v-52h-148q1 13 1 26t-1 26zM286 237q18 -20 37 -37l-105 -105l-37 37zM914 237l105 -105l-37 -37l-105 105q19 17 37 37zM514 19h172q22 0 37 -4t15 -10v-54
q0 -5 -14 -9.5t-35 -4.5v-42q0 -6 -10 -10.5t-24 -4.5h-110q-14 0 -24 4.5t-10 10.5v42q-21 0 -35 4.5t-14 9.5v54q0 6 15 10t37 4z" />
  </g>

</svg>
