<?xml version="1.0" encoding="UTF-8" standalone="no"?>
<svg
   version="1.1"
   viewBox="0 -240 1200 1200"
   id="svg6"
   sodipodi:docname="chart.svg"
   inkscape:version="1.3.2 (091e20e, 2023-11-25, custom)"
   xmlns:inkscape="http://www.inkscape.org/namespaces/inkscape"
   xmlns:sodipodi="http://sodipodi.sourceforge.net/DTD/sodipodi-0.dtd"
   xmlns="http://www.w3.org/2000/svg"
   xmlns:svg="http://www.w3.org/2000/svg"
   xmlns:rdf="http://www.w3.org/1999/02/22-rdf-syntax-ns#"
   xmlns:cc="http://creativecommons.org/ns#"
   xmlns:dc="http://purl.org/dc/elements/1.1/">
  <metadata
     id="metadata12">
    <rdf:RDF>
      <cc:Work
         rdf:about="">
        <dc:format>image/svg+xml</dc:format>
        <dc:type
           rdf:resource="http://purl.org/dc/dcmitype/StillImage" />
      </cc:Work>
    </rdf:RDF>
  </metadata>
  <defs
     id="defs10" />
  <sodipodi:namedview
     pagecolor="#ffffff"
     bordercolor="#666666"
     borderopacity="1"
     objecttolerance="10"
     gridtolerance="10"
     guidetolerance="10"
     inkscape:pageopacity="0"
     inkscape:pageshadow="2"
     inkscape:window-width="1920"
     inkscape:window-height="1017"
     id="namedview8"
     showgrid="false"
     inkscape:zoom="0.32"
     inkscape:cx="334.375"
     inkscape:cy="557.8125"
     inkscape:window-x="1912"
     inkscape:window-y="-8"
     inkscape:window-maximized="1"
     inkscape:current-layer="layer2"
     showguides="false"
     inkscape:showpageshadow="2"
     inkscape:pagecheckerboard="0"
     inkscape:deskcolor="#d1d1d1" />
  <g
     inkscape:groupmode="layer"
     id="layer2"
     inkscape:label="glyph">
    <g
       transform="matrix(1,0,0,-0.74483484,-6.2500002e-6,1027.8616)"
       id="g2">
      <path
         id="path1"
         d="M 1101.125 1541.0955 A 98.875107 132.74769 0 0 1 1002.25 1408.3479 A 98.875107 132.74769 0 0 1 1011.043 1353.7165 L 819.75196 1140.3591 A 98.875107 132.74769 0 0 1 765.50196 1162.1524 A 98.875107 132.74769 0 0 1 697.18165 1124.9352 L 530.75391 1244.1809 A 98.875107 132.74769 0 0 1 532.12696 1265.3448 A 98.875107 132.74769 0 0 1 433.25196 1398.0924 A 98.875107 132.74769 0 0 1 334.37696 1265.3448 A 98.875107 132.74769 0 0 1 344.32032 1207.7188 L 147.55469 946.55826 A 98.875107 132.74769 0 0 1 98.875006 963.80726 A 98.875107 132.74769 0 0 1 6.2500002e-06 831.05971 A 98.875107 132.74769 0 0 1 98.875006 698.31216 A 98.875107 132.74769 0 0 1 197.75001 831.05971 A 98.875107 132.74769 0 0 1 190.10938 882.21146 L 389.35352 1146.6655 A 98.875107 132.74769 0 0 1 433.25196 1132.5973 A 98.875107 132.74769 0 0 1 500.54298 1168.4326 L 667.69532 1048.6677 A 98.875107 132.74769 0 0 1 666.62696 1029.4049 A 98.875107 132.74769 0 0 1 765.50196 896.6573 A 98.875107 132.74769 0 0 1 864.37696 1029.4049 A 98.875107 132.74769 0 0 1 859.01173 1072.4408 L 1055.1426 1291.1947 A 98.875107 132.74769 0 0 1 1101.125 1275.6004 A 98.875107 132.74769 0 0 1 1200 1408.3479 A 98.875107 132.74769 0 0 1 1101.125 1541.0955 z M 1101.125 1482.5726 A 55.285507 74.225189 0 0 0 1156.4102 1408.3479 A 55.285507 74.225189 0 0 0 1101.125 1334.1232 A 55.285507 74.225189 0 0 0 1045.8399 1408.3479 A 55.285507 74.225189 0 0 0 1101.125 1482.5726 z M 433.25196 1339.5696 A 55.285507 74.225189 0 0 0 488.53907 1265.3448 A 55.285507 74.225189 0 0 0 433.25196 1191.1201 A 55.285507 74.225189 0 0 0 377.9668 1265.3448 A 55.285507 74.225189 0 0 0 433.25196 1339.5696 z M 765.50196 1103.6296 A 55.285507 74.225189 0 0 0 820.78712 1029.4049 A 55.285507 74.225189 0 0 0 765.50196 955.18014 A 55.285507 74.225189 0 0 0 710.2168 1029.4049 A 55.285507 74.225189 0 0 0 765.50196 1103.6296 z M 1047 1026.0012 C 1014.3334 1026.0012 998.00001 1009.9987 998.00001 977.99874 L 998.00001 -22.999176 C 998.00001 -54.332447 1014.3334 -69.999948 1047 -69.999948 L 1100 -69.999948 C 1113.3333 -69.999948 1124.6667 -65.000797 1134 -55.000817 C 1143.3333 -45.000837 1148 -34.332487 1148 -22.999176 L 1148 977.99874 C 1148 990.66539 1143.3333 1001.8336 1134 1011.5003 C 1124.6667 1021.167 1113.3333 1026.0012 1100 1026.0012 L 1047 1026.0012 z M 98.875006 905.28443 A 55.285507 74.225189 0 0 0 154.16016 831.05971 A 55.285507 74.225189 0 0 0 98.875006 756.83499 A 55.285507 74.225189 0 0 0 43.58985 831.05971 A 55.285507 74.225189 0 0 0 98.875006 905.28443 z M 414.00001 898.99895 C 385.33339 898.99895 371.00001 882.99905 371.00001 850.99911 L 371.00001 -22.999176 C 371.00001 -54.332447 385.33339 -69.999948 414.00001 -69.999948 L 471.00001 -69.999948 C 500.99995 -69.999948 516.00001 -54.332447 516.00001 -22.999176 L 516.00001 850.99911 C 516.00001 882.99905 500.99995 898.99895 471.00001 898.99895 L 414.00001 898.99895 z M 729.00001 712.99924 C 700.33339 712.99924 686.00001 698.6666 686.00001 669.99999 L 686.00001 -22.999176 C 686.00001 -54.332447 700.33339 -69.999948 729.00001 -69.999948 L 786.00001 -69.999948 C 817.33327 -69.999948 833.00001 -54.332447 833.00001 -22.999176 L 833.00001 669.99999 C 833.00001 698.6666 817.33327 712.99924 786.00001 712.99924 L 729.00001 712.99924 z M 100.00001 534.99995 C 87.333361 534.99995 76.166654 530.33321 66.500006 520.99988 C 56.833359 511.66657 52.000006 500.66581 52.000006 487.99918 L 52.000006 -22.999176 C 52.000006 -34.332487 56.833359 -45.000837 66.500006 -55.000817 C 76.166654 -65.000797 87.333361 -69.999948 100.00001 -69.999948 L 154.00001 -69.999948 C 185.33327 -69.999948 201.00001 -54.332447 201.00001 -22.999176 L 201.00001 487.99918 C 201.00001 519.33244 185.33327 534.99995 154.00001 534.99995 L 100.00001 534.99995 z " />
    </g>
  </g>
</svg>
