<?xml version="1.0" encoding="UTF-8" standalone="no"?>
<svg
   version="1.1"
   viewBox="0 -240 1200 1200"
   id="svg6"
   sodipodi:docname="checkbox-on.svg"
   inkscape:version="1.1 (c68e22c387, 2021-05-23)"
   xmlns:inkscape="http://www.inkscape.org/namespaces/inkscape"
   xmlns:sodipodi="http://sodipodi.sourceforge.net/DTD/sodipodi-0.dtd"
   xmlns="http://www.w3.org/2000/svg"
   xmlns:svg="http://www.w3.org/2000/svg"
   xmlns:rdf="http://www.w3.org/1999/02/22-rdf-syntax-ns#"
   xmlns:cc="http://creativecommons.org/ns#"
   xmlns:dc="http://purl.org/dc/elements/1.1/">
  <metadata
     id="metadata12">
    <rdf:RDF>
      <cc:Work
         rdf:about="">
        <dc:format>image/svg+xml</dc:format>
        <dc:type
           rdf:resource="http://purl.org/dc/dcmitype/StillImage" />
      </cc:Work>
    </rdf:RDF>
  </metadata>
  <defs
     id="defs10" />
  <sodipodi:namedview
     pagecolor="#ffffff"
     bordercolor="#666666"
     borderopacity="1"
     objecttolerance="10"
     gridtolerance="10"
     guidetolerance="10"
     inkscape:pageopacity="0"
     inkscape:pageshadow="2"
     inkscape:window-width="1920"
     inkscape:window-height="1017"
     id="namedview8"
     showgrid="false"
     inkscape:zoom="0.27812867"
     inkscape:cx="-346.96171"
     inkscape:cy="861.11223"
     inkscape:window-x="1912"
     inkscape:window-y="-8"
     inkscape:window-maximized="1"
     inkscape:current-layer="layer2"
     showguides="false"
     inkscape:pagecheckerboard="0" />
  <g
     inkscape:groupmode="layer"
     id="layer2"
     inkscape:label="glyph">
    <g
       transform="matrix(1.1741683,0,0,-1.1741683,-104.50099,998.98239)"
       id="g4"
       style="stroke-width:0.851667">
      <path
         fill="currentColor"
         d="M 871,-68 H 327 Q 226,-68 157.5,1 89,70 89,171 v 541 q 0,102 68.5,171 68.5,69 169.5,69 h 544 q 98,0 169,-69 71,-69 71,-171 V 171 Q 1111,70 1040,1 969,-68 871,-68 Z M 327,872 Q 260,872 214.5,826.5 169,781 169,712 V 171 Q 169,101 214.5,56 260,11 327,11 h 544 q 69,0 115,45 46,45 46,115 v 541 q 0,69 -46,114.5 Q 940,872 871,872 Z"
         id="path2"
         style="stroke-width:0.725336" />
    </g>
  </g>
</svg>
