<?xml version="1.0" standalone="no"?>
<!DOCTYPE svg PUBLIC "-//W3C//DTD SVG 1.1//EN" "http://www.w3.org/Graphics/SVG/1.1/DTD/svg11.dtd" >
<svg xmlns="http://www.w3.org/2000/svg" xmlns:xlink="http://www.w3.org/1999/xlink" version="1.1" viewBox="0 -240 1200 1200">
  <g transform="matrix(1 0 0 -1 0 960)">
   <path fill="currentColor"
d="M773 248q-12 12 -11.5 29t12.5 29t28.5 12t28.5 -12l118 -119l120 120q12 12 29 11.5t29 -12.5t12 -29t-12 -29l-119 -119l119 -120q11 -11 11.5 -27.5t-11.5 -29t-29 -12t-28 11.5l-120 119l-119 -119q-12 -13 -29 -12.5t-29 13t-12.5 29t11.5 29.5l120 119zM49 1074
h887q22 0 37 -16t15 -36q0 -48 -52 -48h-887q-49 0 -49 48q0 20 15 36t34 16zM593 380v-296l-198 -198v494l-346 496h887z" />
  </g>

</svg>
