<?xml version="1.0" standalone="no"?>
<!DOCTYPE svg PUBLIC "-//W3C//DTD SVG 1.1//EN" "http://www.w3.org/Graphics/SVG/1.1/DTD/svg11.dtd" >
<svg xmlns="http://www.w3.org/2000/svg" xmlns:xlink="http://www.w3.org/1999/xlink" version="1.1" viewBox="-5 -240 1200 1200">
  <g transform="matrix(1 0 0 -1 0 960)">
   <path fill="currentColor"
d="M1220 407q33 -118 -37 -220q-59 -79 -146 -90q-13 -4 -34 -4h-46q44 50 44 104t-40 99l-287 318l-60 64l-59 -64l-284 -318q-43 -48 -43 -106q9 -59 45 -97h-36q-149 0 -213 136q-76 149 51 276q41 38 106 48q0 5 13 5q-21 116 61 178q35 27 99.5 27t110.5 -42
q18 42 45 80q70 82 183 91q120 15 224 -35t130 -199q5 -36 0 -79q-5 0 1 -7q137 -40 172 -165zM900 244q18 -19 18 -46q0 -33 -23 -55q-23 -16 -46 -16q-25 0 -48 23l-105 111v-356h-164v356l-102 -111q-26 -23 -50 -23q-23 0 -46 16q-52 51 -5 101l285 316z" />
  </g>

</svg>
