<?xml version="1.0" standalone="no"?>
<!DOCTYPE svg PUBLIC "-//W3C//DTD SVG 1.1//EN" "http://www.w3.org/Graphics/SVG/1.1/DTD/svg11.dtd" >
<svg xmlns="http://www.w3.org/2000/svg" xmlns:xlink="http://www.w3.org/1999/xlink" version="1.1" viewBox="-5 -240 1200 1200">
  <g transform="matrix(1 0 0 -1 0 960)">
   <path fill="currentColor"
d="M1220 407q33 -118 -37 -220q-59 -79 -146 -90q-13 -4 -34 -4h-111l69 76q40 45 40 107q-8 59 -51 102q-47 39 -101 39q-36 0 -74 -20v243h-321v-243q-38 20 -74 20q-53 0 -98 -39q-54 -43 -54 -109q0 -55 43 -100l66 -76h-100q-149 0 -213 136q-76 149 51 276
q41 38 106 48q0 5 13 5q-21 116 61 178q35 27 99.5 27t110.5 -42q18 42 45 80q70 82 183 91q120 15 224 -35t130 -199q5 -36 0 -79q-5 0 1 -7q137 -40 172 -165zM895 317q55 -46 5 -95l-114 -129l-172 -188l-170 188l-115 129q-18 18 -18 46t23 49q19 18 46.5 18t49.5 -20
l102 -113v358h164v-358l105 113q20 20 49 20t45 -18z" />
  </g>

</svg>
