<?xml version="1.0" standalone="no"?>
<!DOCTYPE svg PUBLIC "-//W3C//DTD SVG 1.1//EN" "http://www.w3.org/Graphics/SVG/1.1/DTD/svg11.dtd" >
<svg xmlns="http://www.w3.org/2000/svg" xmlns:xlink="http://www.w3.org/1999/xlink" version="1.1" viewBox="-1 -240 1200 1200">
  <g transform="matrix(1 0 0 -1 0 960)">
   <path fill="currentColor"
d="M701 952v0q27 0 46.5 -19.5t19.5 -46.5q-1 -14 -6 -27l-167 -786q-1 -13 -6 -25t-14 -21t-21 -14t-25 -5q-18 0 -33 9t-24 24t-9 33q0 11 4 21q150 708 169 796v-5v-4v4v5q1 17 10.5 31t24 22t31.5 8zM635 891zM635 881q0 -3 1 -6q-1 3 -1 6zM636 875q0 -3 1 -6.5t2 -6.5
q-1 3 -2 6.5t-1 6.5zM639 862q1 -3 3 -6q-2 3 -3 6zM642 856q1 -2 3 -5q-2 2 -3 5zM645 851l4 -6zM649 845q2 -2 4 -5q-2 3 -4 5zM654 840l4 -4zM658 836q3 -2 5 -4q3 -2 6 -3q-3 1 -5.5 3t-5.5 4zM670 828l4 -2zM675 825q6 -2 12 -3q-6 1 -12 3zM688 822q3 -1 5 -1
q-2 0 -5 1zM711 821h-6h6zM695 821q3 -1 6 -1q-3 0 -6 1zM351 752q2 0 4 -1q29 1 50 -20q28 -25 20.5 -65t-41.5 -54q-41 -31 -117.5 -88.5t-94.5 -70.5q28 -21 91 -68t96 -71q2 -2 13 -10l14 -11l-2 1q26 -11 37.5 -38.5t1.5 -53.5q-11 -32 -45.5 -43.5t-62.5 8.5
q-17 14 -36 29.5t-43 34t-37 28.5q-9 8 -70.5 56.5t-95.5 72.5q-24 14 -31 43t5 56.5t38 38.5q61 48 255 201l20 15q18 10 31 10zM849 752q24 -1 51 -25q209 -165 255 -201q26 -11 38 -38.5t5 -56.5t-31 -43q-26 -18 -54 -39.5t-60.5 -47.5t-51.5 -42q-13 -10 -37 -28.5
t-43 -34t-36 -29.5q-28 -20 -62.5 -8.5t-45.5 43.5q-10 26 1.5 53.5t37.5 38.5q-5 -3 1 2q2 2 11 8l13 10q33 24 96 71t91 68q-18 13 -94.5 70.5t-117.5 88.5q-34 14 -41.5 54t20.5 65q21 21 50 20q2 1 4 1zM295 719zM905 719zM291 713zM909 713zM288 707zM912 707zM286 700
zM914 700zM284 693l-1 -3v-4v-4q0 6 1 11zM916 693q1 -5 1 -11v4v4zM283 673q0 -3 1 -7q0 -2 1 -7v0l2 -6l1 -1q1 -4 2 -6h1l-3 6l-3 7l-1 7zM290 646h1h-1zM917 673l-1 -7l-1 -7l-3 -7l-3 -6h1q1 2 2 6l1 1l2 6v0q1 5 1 7q1 4 1 7zM909 646h1h-1zM294 640zM906 640z
M298 634zM902 634zM303 628zM897 628zM308 623zM892 623zM327 612q4 -2 7 -3q1 0 5 -1q-7 2 -12 4zM873 612q-5 -2 -12 -4q4 1 5 1q3 1 7 3zM348 607zM332 296zM868 296zM528 140q3 0 6 -1q3 0 6 -1q-3 1 -6 1q-3 1 -6 1zM541 138q3 0 6 -1q-3 1 -6 1zM547 137l6 -2z
M554 134q2 -1 5 -2q-3 1 -5 2zM560 131q2 -1 5 -3q-2 2 -5 3zM565 128q3 -2 5 -4q-2 2 -5 4zM586 104q2 -3 3 -6q-1 3 -3 6zM589 98l2 -6zM591 91l2 -6zM593 85v-6v6z" />
  </g>

</svg>
