<?xml version="1.0" standalone="no"?>
<!DOCTYPE svg PUBLIC "-//W3C//DTD SVG 1.1//EN" "http://www.w3.org/Graphics/SVG/1.1/DTD/svg11.dtd" >
<svg xmlns="http://www.w3.org/2000/svg" xmlns:xlink="http://www.w3.org/1999/xlink" version="1.1" viewBox="0 -240 1200 1200">
  <g transform="matrix(1 0 0 -1 0 960)">
   <path fill="currentColor"
d="M1173 594q10 -62 0 -129q0 -32 -33 -32l-6 4q-85 0 -119 -81q-32 -82 34 -143q22 -20 4 -43q-43 -50 -94 -95q-23 -20 -43 6q-64 65 -144.5 31t-80.5 -123q0 -30 -28 -30q-45 -8 -63 -8q-19 0 -67 8q-29 0 -29 34q7 88 -77 123q-88 36 -145 -35q-20 -18 -44 -3
q-53 52 -90 95q-20 26 4 43q63 62 29 144q-35 85 -115 77q-39 0 -39 30q-10 65 0 132q0 29 34 29q91 0 124 79q35 82 -29 144q-28 18 -8 43q61 67 94 94q24 19 44 -8q63 -62 144 -28.5t81 122.5q0 31 26 31q63 10 130 0q30 0 30 -34q-6 -91 78 -125q88 -36 144 34
q21 19 43 5q53 -52 91 -95q20 -28 -4 -43q-63 -62 -30 -144q28 -77 119 -77q35 0 35 -32zM600 337q80 0 138 56.5t58 138.5q0 77 -58 133.5t-138 56.5q-77 0 -133.5 -56.5t-56.5 -133.5q0 -82 56.5 -138.5t133.5 -56.5z" />
  </g>

</svg>
