<?xml version="1.0" encoding="UTF-8" standalone="no"?>
<svg
   version="1.1"
   viewBox="0 -240 1200 1200"
   id="svg6"
   sodipodi:docname="context.svg"
   inkscape:version="1.3.2 (091e20e, 2023-11-25, custom)"
   xml:space="preserve"
   xmlns:inkscape="http://www.inkscape.org/namespaces/inkscape"
   xmlns:sodipodi="http://sodipodi.sourceforge.net/DTD/sodipodi-0.dtd"
   xmlns="http://www.w3.org/2000/svg"
   xmlns:svg="http://www.w3.org/2000/svg"
   xmlns:rdf="http://www.w3.org/1999/02/22-rdf-syntax-ns#"
   xmlns:cc="http://creativecommons.org/ns#"
   xmlns:dc="http://purl.org/dc/elements/1.1/"><metadata
     id="metadata12"><rdf:RDF><cc:Work
         rdf:about=""><dc:format>image/svg+xml</dc:format><dc:type
           rdf:resource="http://purl.org/dc/dcmitype/StillImage" /></cc:Work></rdf:RDF></metadata><defs
     id="defs10" /><sodipodi:namedview
     pagecolor="#ffffff"
     bordercolor="#666666"
     borderopacity="1"
     objecttolerance="10"
     gridtolerance="10"
     guidetolerance="10"
     inkscape:pageopacity="0"
     inkscape:pageshadow="2"
     inkscape:window-width="1920"
     inkscape:window-height="1017"
     id="namedview8"
     showgrid="false"
     inkscape:zoom="0.27812867"
     inkscape:cx="927.62821"
     inkscape:cy="361.34355"
     inkscape:window-x="1912"
     inkscape:window-y="-8"
     inkscape:window-maximized="1"
     inkscape:current-layer="layer2"
     showguides="false"
     inkscape:showpageshadow="2"
     inkscape:pagecheckerboard="0"
     inkscape:deskcolor="#d1d1d1" /><g
     inkscape:groupmode="layer"
     id="layer2"
     inkscape:label="glyph"><path
       fill="currentColor"
       d="m 794.47799,436.16911 q 6.9025,42.79551 0,89.04228 0,22.08801 -22.77826,22.08801 l -4.1415,-2.76099 q -58.67126,0 -82.13978,55.91026 -22.088,56.60051 23.46852,98.70578 15.18551,13.805 2.76099,29.68076 -29.68076,34.5125 -64.88352,65.57377 -15.87575,13.805 -29.68076,-4.14151 -44.17601,-44.86626 -99.74116,-21.39776 -55.56513,23.46852 -55.56513,84.90079 0,20.7075 -19.32702,20.7075 -31.06125,5.522 -43.48576,5.522 -13.11476,0 -46.24677,-5.522 -20.01725,0 -20.01725,-23.46851 4.83176,-60.74202 -53.14927,-84.90077 -60.742,-24.84902 -100.08627,24.15875 -13.805,12.42451 -30.371,2.07076 -36.58326,-35.89302 -62.122514,-65.57378 -13.805014,-17.9465 2.760988,-29.68076 43.485766,-42.7955 20.017256,-99.39603 -24.158753,-58.67127 -79.378779,-53.14925 -26.9197575,0 -26.9197575,-20.70752 -6.9024995,-44.86627 0,-91.11304 0,-20.01725 23.4685145,-20.01725 62.812766,0 85.591032,-54.52975 24.15875,-56.60053 -20.017263,-99.39604 -19.327005,-12.42452 -5.521991,-29.68076 42.105254,-46.24677 64.883514,-64.88353 16.56601,-13.11475 30.37101,5.52202 43.48576,42.7955 99.39602,19.67212 55.91027,-23.12339 55.91027,-84.55566 0,-21.39775 17.9465,-21.39775 43.48576,-6.9025 89.73252,0 20.70751,0 20.70751,23.4685 -4.14149,62.81279 53.83952,86.28128 60.74202,24.84901 99.39603,-23.46849 14.49526,-13.11477 29.68076,-3.45127 36.58326,35.89301 62.81277,65.57377 13.805,19.327 -2.76099,29.68076 -43.48578,42.79553 -20.70752,99.39604 19.32701,53.14927 82.13979,53.14927 24.15875,0 24.15875,22.088 z M 398.96461,613.56342 q 55.22003,0 95.25454,-38.99915 40.03451,-38.99914 40.03451,-95.59965 0,-53.14927 -40.03451,-92.14839 -40.03451,-38.99914 -95.25454,-38.99914 -53.14927,0 -92.14839,38.99914 -38.99914,38.99912 -38.99914,92.14839 0,56.60051 38.99914,95.59965 38.99912,38.99915 92.14839,38.99915 z"
       id="path1"
       style="stroke-width:0.69025" /><path
       fill="currentColor"
       d="m 1198.0587,80.345133 q 3.8826,24.072467 0,50.086277 0,12.42451 -12.8128,12.42451 l -2.3296,-1.55307 q -33.0026,0 -46.2036,31.44953 -12.4245,31.83779 13.201,55.522 8.5418,7.76532 1.5531,16.69544 -16.6954,19.41327 -36.497,36.88524 -8.9302,7.76531 -16.6955,-2.3296 -24.8489,-25.23727 -56.1043,-12.03624 -31.2554,13.20103 -31.2554,47.75669 0,11.64796 -10.8715,11.64796 Q 982.57119,330 975.58239,330 q -7.377,0 -26.01378,-3.10613 -11.2597,0 -11.2597,-13.20103 2.71787,-34.16738 -29.89647,-47.75669 -34.16738,-13.97756 -56.29853,13.58931 -7.76532,6.98877 -17.08368,1.16479 -20.57809,-20.18981 -34.94393,-36.88525 -7.76531,-10.09489 1.55306,-16.69541 24.46076,-24.07248 11.25972,-55.91028 -13.58931,-33.00259 -44.65057,-29.89646 -15.14237,0 -15.14237,-11.64798 -3.88265,-25.23726 0,-51.251069 0,-11.259704 13.20103,-11.259704 35.33219,0 48.14497,-30.672985 13.58929,-31.8377962 -11.25971,-55.910272 -10.87144,-6.988792 -3.10613,-16.695428 23.68421,-26.013808 36.49698,-36.496983 9.31838,-7.377048 17.0837,3.106134 24.46074,24.072468 55.91026,11.065568 31.44954,-13.006908 31.44954,-47.562571 0,-12.03623 10.09491,-12.03623 24.4607,-3.88265 50.47451,0 11.648,0 11.648,13.20103 -2.3296,35.332203 30.2847,48.533233 34.1674,13.977566 55.9103,-13.20103 8.1536,-7.377056 16.6954,-1.94134 20.5781,20.18982 35.3322,36.885248 7.7653,10.871439 -1.5531,16.695428 -24.4607,24.0724838 -11.648,55.910274 10.8715,29.89646 46.2037,29.89646 13.5893,0 13.5893,12.4245 z M 975.58239,180.12943 q 31.06141,0 53.58071,-21.93703 22.5194,-21.93701 22.5194,-53.77479 0,-29.896465 -22.5194,-51.833474 -22.5193,-21.937011 -53.58071,-21.937011 -29.89644,0 -51.83344,21.937011 -21.93702,21.937009 -21.93702,51.833474 0,31.83778 21.93702,53.77479 21.937,21.93703 51.83344,21.93703 z"
       id="path1-1"
       style="stroke-width:0.388266" /><path
       fill="currentColor"
       d="m 1198.0587,830.34513 q 3.8826,24.07247 0,50.08629 0,12.4245 -12.8128,12.4245 l -2.3296,-1.55306 q -33.0026,0 -46.2036,31.44953 -12.4245,31.83781 13.201,55.52201 8.5418,7.7653 1.5531,16.6954 -16.6954,19.4133 -36.497,36.8853 -8.9302,7.7653 -16.6955,-2.3296 -24.8489,-25.2373 -56.1043,-12.0362 -31.2554,13.2011 -31.2554,47.7566 0,11.648 -10.8715,11.648 -17.47191,3.1061 -24.46071,3.1061 -7.377,0 -26.01377,-3.1061 -11.25971,0 -11.25971,-13.201 2.71786,-34.1675 -29.89646,-47.7567 -34.16738,-13.9776 -56.29853,13.5893 -7.76532,6.9888 -17.08369,1.1649 -20.57808,-20.19 -34.94391,-36.8854 -7.76532,-10.0949 1.55304,-16.6954 24.46075,-24.0725 11.25972,-55.91029 -13.58931,-33.00258 -44.65056,-29.89645 -15.14237,0 -15.14237,-11.64798 -3.88265,-25.23728 0,-51.25108 0,-11.25971 13.20103,-11.25971 35.33219,0 48.14497,-30.67298 13.5893,-31.8378 -11.25971,-55.91027 -10.87144,-6.9888 -3.10612,-16.69543 23.6842,-26.01381 36.49696,-36.49698 9.31839,-7.37705 17.0837,3.10612 24.46075,24.07247 55.91026,11.06557 31.44952,-13.0069 31.44952,-47.56256 0,-12.03623 10.09493,-12.03623 24.4607,-3.88265 50.47451,0 11.648,0 11.648,13.20103 -2.3296,35.33219 30.2848,48.53323 34.1673,13.97756 55.9101,-13.20104 8.1537,-7.37705 16.6955,-1.94133 20.5781,20.18981 35.3322,36.88524 7.7653,10.87145 -1.5531,16.69543 -24.4607,24.07249 -11.648,55.91027 10.8715,29.89647 46.2037,29.89647 13.5893,0 13.5893,12.4245 z m -222.47631,99.7843 q 31.06131,0 53.58071,-21.93702 22.5193,-21.93702 22.5193,-53.77481 0,-29.89646 -22.5193,-51.83346 -22.5194,-21.93702 -53.58071,-21.93702 -29.89644,0 -51.83344,21.93702 -21.93702,21.937 -21.93702,51.83346 0,31.83779 21.93702,53.77481 21.937,21.93702 51.83344,21.93702 z"
       id="path1-1-6"
       style="stroke-width:0.388266" /></g></svg>
