<?xml version="1.0" standalone="no"?>
<!DOCTYPE svg PUBLIC "-//W3C//DTD SVG 1.1//EN" "http://www.w3.org/Graphics/SVG/1.1/DTD/svg11.dtd" >
<svg xmlns="http://www.w3.org/2000/svg" xmlns:xlink="http://www.w3.org/1999/xlink" version="1.1" viewBox="0 -240 1200 1200">
  <g transform="matrix(1 0 0 -1 0 960)">
   <path fill="currentColor"
d="M408 86q-15 -20 -49 -20q-30 0 -51 25q-50 54 2 101l119 109h-380v174h380l-119 111q-52 43 -4 100.5t102 4.5l338 -304zM1001 977q62 0 106 -43t44 -104v-820q0 -59 -44 -103t-106 -44h-603q-61 0 -104.5 44t-43.5 103h44q0 -44 30 -75.5t74 -31.5h603q42 0 72 31.5
t30 75.5v820q0 46 -30 76.5t-72 30.5h-92v-158h-422v158h-89q-44 0 -74 -30.5t-30 -76.5v-90h-44v90q0 61 43.5 104t104.5 43h165q9 54 48.5 86.5t88 32.5t88 -32.5t46.5 -86.5h167zM771 977q-23 56 -71.5 56t-70.5 -56h142z" />
  </g>

</svg>
