<?xml version="1.0" standalone="no"?>
<!DOCTYPE svg PUBLIC "-//W3C//DTD SVG 1.1//EN" "http://www.w3.org/Graphics/SVG/1.1/DTD/svg11.dtd" >
<svg xmlns="http://www.w3.org/2000/svg" xmlns:xlink="http://www.w3.org/1999/xlink" version="1.1" viewBox="0 -240 1200 1200">
  <g transform="matrix(1 0 0 -1 0 960)">
   <path fill="currentColor"
d="M521 876q0 -53 -52 -53q-20 0 -35.5 15t-15.5 38q0 21 15.5 37t35.5 16q52 0 52 -53zM317 712q0 -21 -14.5 -36t-36.5 -15q-25 0 -39.5 15t-14.5 36q0 56 54 56q22 0 36.5 -15.5t14.5 -40.5zM197 436q-20 0 -36.5 16t-16.5 36.5t16.5 35.5t36.5 15q50 0 50 -51.5
t-50 -51.5zM2 488q0 246 177 422t422 176t421 -176t176 -422q0 -141 -67 -265q-71 -151 -214 -241.5t-315.5 -90.5t-315.5 90.5t-216 241.5q-68 124 -68 265zM1046 223q72 127 72 265q0 214 -152.5 366.5t-365.5 152.5t-365.5 -152.5t-152.5 -366.5q0 -138 73 -265h891z
M700 615l171 252l-102 -285l-92 -267q0 -6 -8 -20q-13 -28 -44.5 -38t-57.5 2q-29 18 -39.5 49.5t3.5 58.5q0 4 3.5 7t6.5 6zM783 876q0 -23 -15.5 -38t-38.5 -15q-21 0 -36.5 15t-15.5 38q0 21 15.5 37t36.5 16q54 0 54 -53zM990 716q0 -51 -52.5 -51t-52.5 51.5t53 51.5
q22 0 37 -15.5t15 -36.5zM1052 495q0 -51 -55 -51q-52 0 -52 51q0 22 16.5 37t35.5 15q26 0 40.5 -15t14.5 -37z" />
  </g>

</svg>
