<?xml version="1.0" standalone="no"?>
<!DOCTYPE svg PUBLIC "-//W3C//DTD SVG 1.1//EN" "http://www.w3.org/Graphics/SVG/1.1/DTD/svg11.dtd" >
<svg xmlns="http://www.w3.org/2000/svg" xmlns:xlink="http://www.w3.org/1999/xlink" version="1.1" viewBox="0 -240 1200 1200">
  <g transform="matrix(1 0 0 -1 0 960)">
   <path fill="currentColor"
d="M489 1079q200 0 343.5 -143.5t143.5 -344.5q0 -53 -12 -104h-66q13 51 13 104q0 175 -124.5 299.5t-298.5 124.5t-298.5 -124.5t-124.5 -299.5q0 -112 60 -216h445q0 -228 1 -264q-40 -7 -82 -7q-141 0 -257.5 74t-176.5 197q-55 101 -55 216q0 201 144.5 344.5
t344.5 143.5zM381 951q43 0 43 -43t-43 -43q-16 0 -28.5 12t-12.5 31q0 17 12.5 30t28.5 13zM593 951q44 0 44 -43q0 -19 -12.5 -31t-31.5 -12q-17 0 -29.5 12t-12.5 31q0 17 12.5 30t29.5 13zM709 901l-83 -233l-75 -218q0 -5 -7 -16q-10 -23 -36 -31t-47 2
q-24 14 -32.5 40t3.5 48q0 3 2.5 5.5t5.5 4.5l130 192zM215 820q18 0 30 -12.5t12 -33.5q0 -17 -12 -29t-30 -12q-20 0 -32 12t-12 29q0 46 44 46zM764 820q18 0 30 -12.5t12 -29.5q0 -42 -42.5 -42t-42.5 42t43 42zM812 640q21 0 33 -12.5t12 -30.5q0 -41 -45 -41
q-42 0 -42 41q0 18 13.5 30.5t28.5 12.5zM159 633q41 0 41 -42t-41 -42q-16 0 -29.5 13t-13.5 30t13.5 29t29.5 12zM635 457h466l6 -1q31 -30 89 -88q2 -2 2 -8q2 -148 2 -448q0 -14 -10 -23t-24 -9h-266h-265q-27 0 -33 24v10q-2 170 -2 508q0 17 11 26t24 9zM774 421
q-14 0 -23.5 -9.5t-9.5 -23.5v-109q0 -14 9.5 -23t23.5 -9h254q13 0 22.5 9t9.5 23v109q0 15 -9.5 24t-22.5 9h-254zM942 395h60v-123h-60v123zM686 189v-249h428v249h-428z" />
  </g>

</svg>
