<?xml version="1.0" encoding="UTF-8" standalone="no"?>
<svg
   version="1.1"
   viewBox="0 -240 1200 1200"
   id="svg6"
   sodipodi:docname="dataset.svg"
   inkscape:version="1.3.2 (091e20e, 2023-11-25, custom)"
   xmlns:inkscape="http://www.inkscape.org/namespaces/inkscape"
   xmlns:sodipodi="http://sodipodi.sourceforge.net/DTD/sodipodi-0.dtd"
   xmlns="http://www.w3.org/2000/svg"
   xmlns:svg="http://www.w3.org/2000/svg"
   xmlns:rdf="http://www.w3.org/1999/02/22-rdf-syntax-ns#"
   xmlns:cc="http://creativecommons.org/ns#"
   xmlns:dc="http://purl.org/dc/elements/1.1/">
  <metadata
     id="metadata12">
    <rdf:RDF>
      <cc:Work
         rdf:about="">
        <dc:format>image/svg+xml</dc:format>
        <dc:type
           rdf:resource="http://purl.org/dc/dcmitype/StillImage" />
      </cc:Work>
    </rdf:RDF>
  </metadata>
  <defs
     id="defs10" />
  <sodipodi:namedview
     pagecolor="#ffffff"
     bordercolor="#666666"
     borderopacity="1"
     objecttolerance="10"
     gridtolerance="10"
     guidetolerance="10"
     inkscape:pageopacity="0"
     inkscape:pageshadow="2"
     inkscape:window-width="1920"
     inkscape:window-height="1017"
     id="namedview8"
     showgrid="false"
     inkscape:zoom="0.39333334"
     inkscape:cx="376.27118"
     inkscape:cy="723.30508"
     inkscape:window-x="1912"
     inkscape:window-y="-8"
     inkscape:window-maximized="1"
     inkscape:current-layer="layer2"
     showguides="false"
     inkscape:showpageshadow="2"
     inkscape:pagecheckerboard="0"
     inkscape:deskcolor="#d1d1d1" />
  <g
     inkscape:groupmode="layer"
     id="layer2"
     inkscape:label="glyph">
    <path
       id="rect1"
       style="fill:#000000;fill-opacity:1;stroke-width:1.3304;stroke-dasharray:5.32163, 10.6433"
       d="m 599.99999,-120 a 450,124.57627 0 0 0 -450,124.5761719 A 450,124.57627 0 0 0 150.09227,5 h -0.0923 v 92.107422 h 1.62818 A 450,124.57627 0 0 0 599.99999,214.22656 450,124.57627 0 0 0 1048.3718,97.107422 H 1050 V 5 h -0.092 A 450,124.57627 0 0 0 1050,4.5761719 450,124.57627 0 0 0 599.99999,-120 Z m -450,321.27734 v 197.69141 h 1.62818 A 450,124.57627 0 0 0 599.99999,516.08789 450,124.57627 0 0 0 1048.3718,398.96875 H 1050 V 201.27734 h -1.6282 A 450,124.57627 0 0 1 599.99999,318.39648 450,124.57627 0 0 1 151.62817,201.27734 Z m 0,301.86133 v 197.69141 h 1.62818 A 450,124.57627 0 0 0 599.99999,817.94922 450,124.57627 0 0 0 1048.3718,700.83008 H 1050 V 503.13867 h -1.6282 A 450,124.57627 0 0 1 599.99999,620.25781 450,124.57627 0 0 1 151.62817,503.13867 Z m 0,301.86133 v 150 h 0.0923 a 450,124.57627 0 0 0 -0.0923,0.42383 450,124.57627 0 0 0 450,124.57617 A 450,124.57627 0 0 0 1050,955.42383 450,124.57627 0 0 0 1049.967,955 H 1050 V 805 h -1.6282 A 450,124.57627 0 0 1 599.99999,922.11914 450,124.57627 0 0 1 151.62817,805 Z" />
  </g>
</svg>
