<?xml version="1.0" encoding="UTF-8" standalone="no"?>
<svg
   version="1.1"
   viewBox="0 -240 1200 1200"
   id="svg6"
   sodipodi:docname="details.svg"
   inkscape:version="1.3.2 (091e20e, 2023-11-25, custom)"
   xml:space="preserve"
   xmlns:inkscape="http://www.inkscape.org/namespaces/inkscape"
   xmlns:sodipodi="http://sodipodi.sourceforge.net/DTD/sodipodi-0.dtd"
   xmlns="http://www.w3.org/2000/svg"
   xmlns:svg="http://www.w3.org/2000/svg"
   xmlns:rdf="http://www.w3.org/1999/02/22-rdf-syntax-ns#"
   xmlns:cc="http://creativecommons.org/ns#"
   xmlns:dc="http://purl.org/dc/elements/1.1/"><metadata
     id="metadata12"><rdf:RDF><cc:Work
         rdf:about=""><dc:format>image/svg+xml</dc:format><dc:type
           rdf:resource="http://purl.org/dc/dcmitype/StillImage" /><dc:title /></cc:Work></rdf:RDF></metadata><defs
     id="defs10" /><sodipodi:namedview
     pagecolor="#ffffff"
     bordercolor="#666666"
     borderopacity="1"
     objecttolerance="10"
     gridtolerance="10"
     guidetolerance="10"
     inkscape:pageopacity="0"
     inkscape:pageshadow="2"
     inkscape:window-width="1920"
     inkscape:window-height="1017"
     id="namedview8"
     showgrid="false"
     inkscape:zoom="0.22627417"
     inkscape:cx="974.48154"
     inkscape:cy="271.79417"
     inkscape:window-x="1912"
     inkscape:window-y="-8"
     inkscape:window-maximized="1"
     inkscape:current-layer="layer2"
     showguides="false"
     inkscape:showpageshadow="2"
     inkscape:pagecheckerboard="0"
     inkscape:deskcolor="#d1d1d1" /><g
     inkscape:groupmode="layer"
     id="layer2"
     inkscape:label="glyph"><path
       id="path1"
       style="stroke-width:1.08886"
       d="M 303.55469 -120 C 255.12301 -120 210.58055 -102.21598 169.92969 -66.646484 C 123.47157 -25.995628 99.518224 22.640883 98.066406 79.261719 L 98.066406 466.35352 L 98.066406 853.44336 C 92.259145 907.88647 108.40936 957.79286 146.51953 1003.1621 C 184.62971 1048.5314 230.9065 1073.3945 285.34961 1077.75 L 580.43164 1078.8379 L 619.25391 1078.8379 C 588.51396 1053.6547 561.0069 1024.4923 538.04492 992.04883 C 534.41202 986.94849 530.91812 981.75156 527.53125 976.48438 L 324.54883 976.48438 C 296.23842 980.83984 269.74338 973.7626 245.0625 955.25195 C 220.38162 936.74128 206.58918 913.3319 203.68555 885.02148 L 203.68555 498.47461 L 203.68555 111.92773 C 199.3301 82.165496 206.04533 54.036661 223.83008 27.541016 C 241.61483 1.0453681 265.38815 -13.654961 295.15039 -16.558594 L 522.17773 -16.558594 L 749.20508 -16.558594 L 749.20508 138.06055 C 748.9094 140.64777 748.95678 143.13401 748.78906 145.68359 L 326.72656 145.68359 L 326.72656 219.72461 L 764.69727 219.72461 C 774.26011 235.61125 787.92259 246.91582 805.82617 253.48047 C 818.89252 257.11001 833.22891 259.28776 848.83594 260.01367 C 864.44297 260.73958 881.865 260.73958 901.10156 260.01367 C 920.33813 259.28776 935.03846 259.28776 945.20117 260.01367 C 951.73435 260.73958 958.26763 260.73958 964.80078 260.01367 C 971.33397 259.28776 977.8672 259.10579 984.40039 259.46875 C 990.93352 259.8317 995.65102 261.46551 998.55469 264.36914 L 998.55469 357.57422 C 1034.6212 368.50441 1069.0414 384.81462 1100.4492 405.63281 C 1101.3495 406.23269 1102.1903 406.91671 1103.0859 407.52344 L 1103.0859 227.34766 L 817.80469 -118.91016 L 324.54883 -118.91016 C 317.47122 -119.63606 310.4735 -120 303.55469 -120 z M 326.72656 342.76758 L 326.72656 417.89844 L 636.49609 417.89844 C 667.48265 395.07888 701.66307 376.56353 737.91211 363.60938 C 767.62514 352.97101 798.6131 346.20488 829.9707 342.76758 L 326.72656 342.76758 z M 326.72656 540.93945 L 326.72656 616.07227 L 487.30859 616.07227 C 493.52629 598.45063 500.9461 581.25505 509.62695 564.70508 C 513.86565 556.62227 518.42022 548.71342 523.19727 540.93945 L 326.72656 540.93945 z M 326.72656 740.20117 L 326.72656 814.24414 L 468.03906 814.24414 C 464.70902 789.72977 463.57949 764.92636 464.42188 740.20117 L 326.72656 740.20117 z " /><path
       fill="currentColor"
       d="m 877.54574,430.00004 q 133.50746,0 227.98086,95.88772 Q 1200,621.77549 1200,755.28287 1200,888.79019 1105.5266,984.39512 1011.0532,1080 877.54574,1080 q -134.07314,0 -228.82943,-95.60488 -94.7563,-95.60493 -94.7563,-229.11225 0,-133.50738 94.7563,-229.39511 94.75629,-95.88772 228.82943,-95.88772 z m 47.5196,100.69625 q -26.02272,0 -41.86247,17.81984 -15.83996,17.81985 -15.83996,35.35683 -3.9599,42.99391 43.55958,42.99391 23.75986,0 40.44828,-15.557 16.68843,-15.55702 16.68843,-37.61966 0,-42.99392 -42.99386,-42.99392 z m -92.21068,438.4247 q 63.9252,0 139.73026,-76.3708 L 959.00783,875.2132 q -35.63963,26.0226 -52.61096,26.0226 -9.61701,0 -1.69714,-27.71973 l 29.98262,-118.2332 q 18.10273,-71.84508 -15.27412,-71.84508 -22.62837,0 -66.75372,22.06267 -44.12533,22.06266 -82.59355,54.87381 l 10.74848,18.66839 q 41.86247,-23.75979 56.00522,-23.75979 5.65711,0 0,23.75979 l -28.28548,113.70753 q -17.53699,76.3708 24.32548,76.3708 z"
       id="path1-5"
       style="stroke-width:0.565708;fill:#000000;fill-opacity:1" /></g></svg>
