<?xml version="1.0" standalone="no"?>
<!DOCTYPE svg PUBLIC "-//W3C//DTD SVG 1.1//EN" "http://www.w3.org/Graphics/SVG/1.1/DTD/svg11.dtd" >
<svg xmlns="http://www.w3.org/2000/svg" xmlns:xlink="http://www.w3.org/1999/xlink" version="1.1" viewBox="0 -240 1200 1200">
  <g transform="matrix(1 0 0 -1 0 960)">
   <path fill="currentColor"
d="M1148 1040v0l6 -6q50 -48 45.5 -121.5t-59.5 -115.5l-153 -152l54 -54q18 -19 15 -46t-21 -46q-20 -25 -52.5 -31t-53.5 20l-56 56l-572 -572q-30 -36 -75.5 -49.5t-89.5 0.5l-43 -43l-93 93l44 43q-13 38 -5 80t38 70q3 3 587 588l-52 51q-24 14 -25 43.5t17 49.5
q18 25 48 34.5t55 -7.5l58 -58l151 152q40 54 112 60.5t120 -39.5zM716 701l-107 -107q-52 -53 -215 -214t-247 -253q-2 -6 -2 -11q0 -12 8.5 -20.5t20.5 -8.5q5 0 10 1l306 306l1 2v-1q6 6 15 11t19 8t18 3q13 0 29 -6.5t25 -16.5q5 -5 10 -12l214 214z" />
  </g>

</svg>
