<?xml version="1.0" standalone="no"?>
<!DOCTYPE svg PUBLIC "-//W3C//DTD SVG 1.1//EN" "http://www.w3.org/Graphics/SVG/1.1/DTD/svg11.dtd" >
<svg xmlns="http://www.w3.org/2000/svg" xmlns:xlink="http://www.w3.org/1999/xlink" version="1.1" viewBox="0 -240 1200 1200">
  <g transform="matrix(1 0 0 -1 0 960)">
   <path fill="currentColor"
d="M683 -87q-16 -16 -37.5 -24.5t-44.5 -8.5t-45.5 8.5t-38.5 24.5q-33 33 -33 85.5t31 87.5q18 19 40.5 28.5t45.5 9.5t44.5 -9.5t37.5 -28.5q33 -33 33 -87q0 -53 -33 -86zM496 1022q0 58 65 58h80q61 0 61 -58v-646q0 -58 -61 -58h-80q-65 0 -65 58v646z" />
  </g>

</svg>
