<?xml version="1.0" encoding="UTF-8" standalone="no"?>
<svg
   xmlns:dc="http://purl.org/dc/elements/1.1/"
   xmlns:cc="http://creativecommons.org/ns#"
   xmlns:rdf="http://www.w3.org/1999/02/22-rdf-syntax-ns#"
   xmlns:svg="http://www.w3.org/2000/svg"
   xmlns="http://www.w3.org/2000/svg"
   xmlns:sodipodi="http://sodipodi.sourceforge.net/DTD/sodipodi-0.dtd"
   xmlns:inkscape="http://www.inkscape.org/namespaces/inkscape"
   version="1.1"
   viewBox="0 -240 1200 1200"
   id="svg6"
   sodipodi:docname="ext-wmc.svg"
   inkscape:version="0.92.1 r15371">
  <metadata
     id="metadata12">
    <rdf:RDF>
      <cc:Work
         rdf:about="">
        <dc:format>image/svg+xml</dc:format>
        <dc:type
           rdf:resource="http://purl.org/dc/dcmitype/StillImage" />
      </cc:Work>
    </rdf:RDF>
  </metadata>
  <defs
     id="defs10" />
  <sodipodi:namedview
     pagecolor="#ffffff"
     bordercolor="#666666"
     borderopacity="1"
     objecttolerance="10"
     gridtolerance="10"
     guidetolerance="10"
     inkscape:pageopacity="0"
     inkscape:pageshadow="2"
     inkscape:window-width="1920"
     inkscape:window-height="1017"
     id="namedview8"
     showgrid="false"
     inkscape:zoom="0.19666667"
     inkscape:cx="1632.0828"
     inkscape:cy="1004.2763"
     inkscape:window-x="1912"
     inkscape:window-y="-8"
     inkscape:window-maximized="1"
     inkscape:current-layer="svg6" />
  <path
     style="fill:currentColor"
     d="M 446 170 C 394 170 349 188.66667 311 226 C 273 263.33333 254 308.66667 254 362 L 254 568 L 22 568 L 22 1083 L 254 1083 C 254 1133 273.16667 1176.6667 311.5 1214 C 349.83333 1251.3333 394.66667 1270 446 1270 L 984 1270 C 1038.6667 1270 1084.6667 1251.3333 1122 1214 C 1159.3333 1176.6667 1178 1131.6667 1178 1079 L 1178 488 L 916 170 L 446 170 z M 446 264 L 852 264 L 852 432 C 852.66667 456 861 476.33333 877 493 C 893 509.66667 913.33333 518 938 518 L 1082 518 L 1082 522 L 1082 1079 C 1081.3333 1105 1071.5 1127.6667 1052.5 1147 C 1033.5 1166.3333 1010.6667 1176 984 1176 L 446 1176 C 419.33333 1176 397 1166.3333 379 1147 C 361 1127.6667 352 1106.3333 352 1083 L 1006 1083 L 1006 568 L 352 568 L 352 362 C 352 336 361 313.16667 379 293.5 C 397 273.83333 419.33333 264 446 264 z M 822.22266 695.16992 C 851.41106 695.16992 875.12048 703.79622 893.34961 721.04883 C 904.20034 731.24848 912.33834 745.89691 917.76367 764.99414 L 870.07422 776.38672 C 867.25302 764.01693 861.34005 754.2513 852.33398 747.08984 C 843.43638 739.92838 832.58505 736.34766 819.78125 736.34766 C 802.09465 736.34766 787.71812 742.69531 776.65039 755.39062 C 765.69119 768.08595 760.21094 788.64735 760.21094 817.07617 C 760.21094 847.24111 765.63566 868.72548 776.48633 881.5293 C 787.33706 894.33312 801.44355 900.73633 818.80469 900.73633 C 831.60849 900.73633 842.62264 896.66732 851.8457 888.5293 C 861.06884 880.39127 867.68644 867.5868 871.70117 850.11719 L 918.41406 864.92773 C 911.2526 890.96941 899.31749 910.3379 882.60742 923.0332 C 866.00589 935.62001 844.90064 941.91406 819.29297 941.91406 C 787.60897 941.91406 761.5673 931.11827 741.16797 909.52539 C 720.7687 887.824 710.56836 858.20161 710.56836 820.6582 C 710.56836 780.94466 720.82228 750.12739 741.33008 728.20898 C 761.83788 706.18207 788.80252 695.16992 822.22266 695.16992 z M 102.16992 699.23828 L 151.48633 699.23828 L 187.45703 863.13867 L 231.07617 699.23828 L 288.36914 699.23828 L 330.19727 865.9043 L 366.81836 699.23828 L 415.32227 699.23828 L 357.37891 937.8457 L 306.27148 937.8457 L 258.74609 759.45898 L 211.38281 937.8457 L 159.13672 937.8457 L 102.16992 699.23828 z M 440.38672 699.23828 L 512.49023 699.23828 L 555.7832 861.99805 L 598.58984 699.23828 L 670.85547 699.23828 L 670.85547 937.8457 L 626.0957 937.8457 L 626.0957 750.01953 L 578.73242 937.8457 L 532.3457 937.8457 L 485.14648 750.01953 L 485.14648 937.8457 L 440.38672 937.8457 L 440.38672 699.23828 z "
     transform="translate(0,-240)"
     id="path2" />
</svg>
