<?xml version="1.0" standalone="no"?>
<!DOCTYPE svg PUBLIC "-//W3C//DTD SVG 1.1//EN" "http://www.w3.org/Graphics/SVG/1.1/DTD/svg11.dtd" >
<svg xmlns="http://www.w3.org/2000/svg" xmlns:xlink="http://www.w3.org/1999/xlink" version="1.1" viewBox="0 -240 1200 1200">
  <g transform="matrix(1 0 0 -1 0 960)">
   <path fill="currentColor"
d="M446 1030h470l262 -318v-591q0 -79 -56 -135t-138 -56h-538q-77 0 -134.5 56t-57.5 131h-232v515h232v206q0 80 57 136t135 56zM446 936q-40 0 -67 -29.5t-27 -68.5v-206h654v-515h-654q0 -35 27 -64t67 -29h538q40 0 68.5 29t29.5 68v557v4h-144q-37 0 -61 25t-25 61
v168h-406zM220 486v-223h45v84h29q31 0 47 3q12 3 23.5 11t19 22t7.5 35q0 26 -13 43t-32 22q-13 3 -54 3h-72zM428 486v-223h85q26 0 40 4q21 7 32 18q16 15 24 40q7 20 7 47q0 32 -7.5 53.5t-21.5 36t-33 20.5q-15 4 -43 4h-83zM655 486v-223h45v95h94v38h-94v53h108v37
h-153zM265 449h22q24 0 32 -2q11 -2 18 -10t7 -20q0 -10 -5 -17.5t-14 -11t-36 -3.5h-24v64zM474 449h20q28 0 37 -3q13 -2 21 -10t12.5 -22t4.5 -40t-4.5 -41t-11.5 -21.5t-18 -9.5q-9 -2 -28 -2h-33v149z" />
  </g>

</svg>
