<?xml version="1.0" standalone="no"?>
<!DOCTYPE svg PUBLIC "-//W3C//DTD SVG 1.1//EN" "http://www.w3.org/Graphics/SVG/1.1/DTD/svg11.dtd" >
<svg xmlns="http://www.w3.org/2000/svg" xmlns:xlink="http://www.w3.org/1999/xlink" version="1.1" viewBox="0 -240 1200 1200">
  <g transform="matrix(1 0 0 -1 0 960)">
   <path fill="currentColor"
d="M446 1030h470l262 -318v-591q0 -79 -56 -135t-138 -56h-538q-77 0 -134.5 56t-57.5 131h-232v515h232v206q0 80 57 136t135 56zM446 936q-40 0 -67 -29.5t-27 -68.5v-206h654v-515h-654q0 -35 27 -64t67 -29h538q40 0 68.5 29t29.5 68v557v4h-144q-37 0 -61 25t-25 61
v168h-406zM373 490q-26 0 -44 -7.5t-28 -22.5t-10 -32q0 -27 21 -45q15 -13 51 -22q28 -7 36 -10q12 -4 16.5 -9.5t4.5 -13.5q0 -13 -11 -22t-33 -9q-21 0 -33 10.5t-16 32.5l-44 -5q5 -37 27.5 -56.5t65.5 -19.5q29 0 48.5 8t30 25t10.5 36q0 21 -9 35.5t-24.5 23t-48.5 16
t-42 14.5q-7 6 -7 14q0 9 8 14q11 8 31 8q19 0 28.5 -7.5t12.5 -24.5l45 2q-1 30 -22.5 48.5t-63.5 18.5zM603 490q-28 0 -49 -8q-15 -7 -28.5 -20.5t-20.5 -30.5q-11 -24 -11 -58q0 -53 29.5 -83.5t79.5 -30.5t79.5 30.5t29.5 84.5q0 55 -30 85.5t-79 30.5zM201 487v-145
q0 -27 -6 -36t-21 -9t-23 12q-5 8 -5 28l-43 -5q0 -36 18 -54.5t51 -18.5q28 0 45.5 11.5t23.5 31.5q5 15 5 43v142h-45zM747 487v-224h42v146l91 -146h45v224h-42v-150l-92 150h-44zM603 452q28 0 45 -19t17 -58t-17.5 -58.5t-44.5 -19.5t-44.5 20t-17.5 58t17 57.5
t45 19.5z" />
  </g>

</svg>
