<?xml version="1.0" standalone="no"?>
<!DOCTYPE svg PUBLIC "-//W3C//DTD SVG 1.1//EN" "http://www.w3.org/Graphics/SVG/1.1/DTD/svg11.dtd" >
<svg xmlns="http://www.w3.org/2000/svg" xmlns:xlink="http://www.w3.org/1999/xlink" version="1.1" viewBox="0 -240 1200 1200">
  <g transform="matrix(1 0 0 -1 0 960)">
   <path fill="currentColor"
d="M0 1080h1200v-500v-700h-1200v700v500zM62 932v-196h1076v196h-1076zM437 580v-638h700v0h1v288h-1v62h1v288h-1v0h-700zM62 580v-288h313v288h-313zM62 230v-288h313v288h-313zM1070 292q5 -30 0 -63q0 -16 -16 -16l-3 2q-42 0 -59 -40q-16 -40 17 -71q11 -9 2 -21
q-22 -24 -47 -47q-11 -9 -21 3q-31 32 -71 15.5t-40 -60.5q0 -15 -14 -15q-22 -4 -31 -4t-33 4q-14 0 -14 17q3 43 -38 61q-43 17 -71 -18q-10 -9 -22 -1q-26 26 -45 47q-9 13 2 21q31 30 15 71q-18 42 -57 38q-19 0 -19 15q-5 32 0 65q0 14 17 14q44 0 61 39q17 40 -15 71
q-13 9 -4 21q31 33 47 47q12 9 21 -4q32 -31 71.5 -14.5t39.5 60.5q0 15 13 15q31 5 64 0q15 0 15 -17q-3 -44 39 -61q43 -18 71 17q10 9 21 2q26 -26 45 -47q9 -14 -2 -21q-31 -31 -15 -71q14 -38 59 -38q17 0 17 -16zM787 166q40 0 68.5 27.5t28.5 68.5q0 38 -28.5 65.5
t-68.5 27.5q-38 0 -65.5 -27.5t-27.5 -65.5q0 -41 27.5 -68.5t65.5 -27.5z" />
  </g>

</svg>
