<?xml version="1.0" encoding="UTF-8" standalone="no"?>
<svg
   xmlns:dc="http://purl.org/dc/elements/1.1/"
   xmlns:cc="http://creativecommons.org/ns#"
   xmlns:rdf="http://www.w3.org/1999/02/22-rdf-syntax-ns#"
   xmlns:svg="http://www.w3.org/2000/svg"
   xmlns="http://www.w3.org/2000/svg"
   xmlns:sodipodi="http://sodipodi.sourceforge.net/DTD/sodipodi-0.dtd"
   xmlns:inkscape="http://www.inkscape.org/namespaces/inkscape"
   version="1.1"
   viewBox="0 -240 1200 1200"
   id="svg6"
   sodipodi:docname="fit-cover.svg"
   inkscape:version="0.92.1 r15371">
  <metadata
     id="metadata12">
    <rdf:RDF>
      <cc:Work
         rdf:about="">
        <dc:format>image/svg+xml</dc:format>
        <dc:type
           rdf:resource="http://purl.org/dc/dcmitype/StillImage" />
        <dc:title></dc:title>
      </cc:Work>
    </rdf:RDF>
  </metadata>
  <defs
     id="defs10" />
  <sodipodi:namedview
     pagecolor="#ffffff"
     bordercolor="#666666"
     borderopacity="1"
     objecttolerance="10"
     gridtolerance="10"
     guidetolerance="10"
     inkscape:pageopacity="0"
     inkscape:pageshadow="2"
     inkscape:window-width="1920"
     inkscape:window-height="1017"
     id="namedview8"
     showgrid="false"
     inkscape:zoom="0.27812867"
     inkscape:cx="-350.09336"
     inkscape:cy="573.91895"
     inkscape:window-x="-8"
     inkscape:window-y="-8"
     inkscape:window-maximized="1"
     inkscape:current-layer="layer2"
     showguides="false" />
  <g
     inkscape:groupmode="layer"
     id="layer2"
     inkscape:label="glyph">
    <path
       inkscape:connector-curvature="0"
       style="display:inline;fill:currentColor"
       d="M 35,-49 V 239 C 35,251.66667 39.5,262.5 48.5,271.5 57.5,280.5 68.3333,285 81,285 93.6667,285 104.5,280.5 113.5,271.5 114.3026,270.69743 115.0561,269.8747 115.7871,269.04297 V 37.86523 H 344.0586 C 348.7195,35.54888 353.0363,32.26861 357,28 365.6667,18.66667 370,7.66667 370,-5 370,-17 365.6667,-27.33333 357,-36 348.3333,-44.66667 338,-49 326,-49 Z M 877,-49 C 864.3333,-49 853.3333,-44.66667 844,-36 834.6667,-27.33333 830,-17 830,-5 830,7.66667 834.6667,18.66667 844,28 848.2685,32.26847 852.8898,35.54889 857.8555,37.86523 H 1083.7871 V 265.63281 C 1085.3262,267.66654 1087.0559,269.62535 1089,271.5 1098.3333,280.5 1109,285 1121,285 1133.6667,285 1144.1667,280.5 1152.5,271.5 1160.8333,262.5 1165,251.66667 1165,239 V -49 Z M 192.5,107 V 853 H 1007.5 V 107 Z M 81,675 C 68.3333,675 57.5,679.5 48.5,688.5 39.5,697.5 35,708.66667 35,722 V 1009 H 326 C 338,1009 348.3333,1004.8333 357,996.5 365.6667,988.1667 370,977.3333 370,964 370,952 365.6667,941.5 357,932.5 352.9629,928.3076 348.5593,925.1047 343.7988,922.8652 H 115.7871 V 690.96484 C 115.0563,690.12803 114.3024,689.30238 113.5,688.5 104.5,679.5 93.6667,675 81,675 Z M 1121,675 C 1109,675 1098.3333,679.5 1089,688.5 1087.0558,690.37478 1085.3263,692.3493 1083.7871,694.41211 V 922.8652 H 858.1328 C 853.0618,925.1047 848.3477,928.3076 844,932.5 834.6667,941.5 830,952 830,964 830,977.3333 834.6667,988.1667 844,996.5 853.3333,1004.8333 864.3333,1009 877,1009 H 1165 V 722 C 1165,708.66667 1160.8333,697.5 1152.5,688.5 1144.1667,679.5 1133.6667,675 1121,675 Z"
       id="path4484" />
  </g>
</svg>
