<?xml version="1.0" encoding="UTF-8" standalone="no"?>
<svg
   version="1.1"
   viewBox="0 -240 1200 1200"
   id="svg6"
   sodipodi:docname="floppy-disk-clone.svg"
   inkscape:version="1.3.2 (091e20e, 2023-11-25, custom)"
   xml:space="preserve"
   xmlns:inkscape="http://www.inkscape.org/namespaces/inkscape"
   xmlns:sodipodi="http://sodipodi.sourceforge.net/DTD/sodipodi-0.dtd"
   xmlns="http://www.w3.org/2000/svg"
   xmlns:svg="http://www.w3.org/2000/svg"
   xmlns:rdf="http://www.w3.org/1999/02/22-rdf-syntax-ns#"
   xmlns:cc="http://creativecommons.org/ns#"
   xmlns:dc="http://purl.org/dc/elements/1.1/"><metadata
     id="metadata12"><rdf:RDF><cc:Work
         rdf:about=""><dc:format>image/svg+xml</dc:format><dc:type
           rdf:resource="http://purl.org/dc/dcmitype/StillImage" /></cc:Work></rdf:RDF></metadata><defs
     id="defs10" /><sodipodi:namedview
     pagecolor="#ffffff"
     bordercolor="#666666"
     borderopacity="1"
     objecttolerance="10"
     gridtolerance="10"
     guidetolerance="10"
     inkscape:pageopacity="0"
     inkscape:pageshadow="2"
     inkscape:window-width="1920"
     inkscape:window-height="1017"
     id="namedview8"
     showgrid="false"
     inkscape:zoom="0.13906434"
     inkscape:cx="773.0235"
     inkscape:cy="657.96884"
     inkscape:window-x="1912"
     inkscape:window-y="-8"
     inkscape:window-maximized="1"
     inkscape:current-layer="layer2"
     showguides="false"
     inkscape:showpageshadow="2"
     inkscape:pagecheckerboard="0"
     inkscape:deskcolor="#d1d1d1" /><g
     inkscape:groupmode="layer"
     id="layer2"
     inkscape:label="glyph"><path
       id="path1-0"
       style="stroke-width:0.833333"
       d="M 258.33398 -120 C 243.88958 -120 230.55619 -114.99998 218.33398 -105 C 206.1118 -95.00002 200 -80.833297 200 -62.5 C 200 -16.448631 200.21239 15.106053 200.25391 58.333984 C 278.5024 58.343584 356.7515 58.340483 435 58.345703 L 435 -5 C 435 -21.111081 440.27845 -34.306232 450.83398 -44.583984 C 461.38952 -54.861744 474.72291 -60 490.83398 -60 L 912.5 -60 C 927.49997 -60 940.27847 -54.861744 950.83398 -44.583984 C 961.38956 -34.306232 966.66602 -21.111081 966.66602 -5 L 966.66602 154.50195 C 988.91311 176.52929 1011.0241 198.69522 1033.127 220.86719 C 1039.9044 227.18417 1045.6318 234.69099 1049.541 243.11133 C 1054.1461 252.85954 1056.1102 263.65854 1056.4668 274.37891 C 1056.7961 291.80647 1056.9497 309.2363 1057.1387 326.66602 L 1057.5 326.66602 L 1057.5 374.48242 C 1058.4239 472.23688 1059.0804 569.99373 1059.3945 667.75195 C 1059.58 725.72274 1059.6159 783.69502 1059.7051 841.66602 L 1142.5 841.66602 C 1158.0555 841.66602 1171.5271 836.666 1182.916 826.66602 C 1194.3049 816.66602 1200 803.6111 1200 787.5 C 1200 454.16735 1198.8882 205.27811 1196.666 40.833984 C 1196.666 34.167331 1195.8327 30.000648 1194.166 28.333984 C 1129.7217 -36.665886 1080 -85.556281 1045 -118.33398 L 1035 -120 L 258.33398 -120 z M 769.16602 -16.666016 L 769.16602 58.365234 C 786.34501 58.364331 803.52413 58.368387 820.70312 58.367188 C 831.63411 58.03177 842.62587 58.593217 853.38672 60.619141 C 858.7834 61.304164 864.12492 62.704159 869.16602 64.796875 L 869.16602 -16.666016 L 769.16602 -16.666016 z M 58.333984 118.33398 C 43.889555 118.33398 30.556195 123.33399 18.333984 133.33398 C 6.1117746 143.33397 3.3923447e-16 157.50067 0 175.83398 C 0 552.50027 1.3882406 834.72241 4.1660156 1022.5 L 4.1660156 1040.834 C 9.7215656 1066.9451 27.77846 1080 58.333984 1080 L 500 1080 L 942.5 1080 C 958.05554 1080 971.52713 1075 982.91602 1065 C 994.30489 1055 1000 1041.9451 1000 1025.834 C 1000 692.501 998.88823 443.6103 996.66602 279.16602 C 996.66602 272.49936 995.83268 268.33268 994.16602 266.66602 C 929.72163 201.66608 879.99996 152.77774 845 120 L 835 118.33398 L 58.333984 118.33398 z M 290.83398 178.33398 L 712.5 178.33398 C 727.49998 178.33398 740.27844 183.47223 750.83398 193.75 C 761.38953 204.02776 766.66602 217.22289 766.66602 233.33398 L 766.66602 415 C 766.66602 430.55554 761.38953 443.33399 750.83398 453.33398 C 740.27844 463.33397 727.49999 468.33398 712.5 468.33398 L 290.83398 468.33398 C 274.72289 468.33398 261.38953 463.33397 250.83398 453.33398 C 240.27844 443.33399 235 430.55554 235 415 L 235 233.33398 C 235 217.22289 240.27844 204.02776 250.83398 193.75 C 261.38953 183.47223 274.72289 178.33398 290.83398 178.33398 z M 569.16602 221.66602 L 569.16602 426.66602 L 669.16602 426.66602 L 669.16602 221.66602 L 569.16602 221.66602 z M 143.33398 565 L 857.5 565 L 857.5 980.83398 L 143.33398 980.83398 L 143.33398 565 z " /></g></svg>
