<?xml version="1.0" standalone="no"?>
<!DOCTYPE svg PUBLIC "-//W3C//DTD SVG 1.1//EN" "http://www.w3.org/Graphics/SVG/1.1/DTD/svg11.dtd" >
<svg xmlns="http://www.w3.org/2000/svg" xmlns:xlink="http://www.w3.org/1999/xlink" version="1.1" viewBox="-90 -240 1200 1200">
  <g transform="matrix(1 0 0 -1 0 960)">
   <path fill="currentColor"
d="M1291 618l-250 -586l-2 -4h-1060l249 588l1 2h884h178zM196 750q-37 0 -64.5 -23t-32.5 -58l-189 -453v710q0 18 12 31.5t33 16.5h8h314q41 0 54 -35q2 -7 2 -15t1 -16q2 -8 3 -14t5 -12q14 -23 42 -23q4 -3 7 -3.5t5 -0.5h640q16 0 28 -4t21 -19q3 -5 5.5 -11t2.5 -14
q2 -14 1 -26.5t-1 -24.5v-6h-897z" />
  </g>

</svg>
