<?xml version="1.0" standalone="no"?>
<!DOCTYPE svg PUBLIC "-//W3C//DTD SVG 1.1//EN" "http://www.w3.org/Graphics/SVG/1.1/DTD/svg11.dtd" >
<svg xmlns="http://www.w3.org/2000/svg" xmlns:xlink="http://www.w3.org/1999/xlink" version="1.1" viewBox="0 -240 1200 1200">
  <g transform="matrix(1 0 0 -1 0 960)">
   <path fill="currentColor"
d="M7 122v805q0 19 11.5 32.5t34.5 15.5h9h313q42 0 53 -33q4 -8 3.5 -16t1.5 -16q1 -16 7 -27q5 -12 17 -17.5t26 -5.5q2 -4 12 -4h640q16 0 28 -3.5t20 -18.5q3 -5 5.5 -11.5t2.5 -14.5q1 -12 0.5 -25t-0.5 -26v-727h-1184v92z" />
  </g>

</svg>
