<?xml version="1.0" encoding="UTF-8" standalone="no"?>
<svg
   xmlns:dc="http://purl.org/dc/elements/1.1/"
   xmlns:cc="http://creativecommons.org/ns#"
   xmlns:rdf="http://www.w3.org/1999/02/22-rdf-syntax-ns#"
   xmlns:svg="http://www.w3.org/2000/svg"
   xmlns="http://www.w3.org/2000/svg"
   xmlns:sodipodi="http://sodipodi.sourceforge.net/DTD/sodipodi-0.dtd"
   xmlns:inkscape="http://www.inkscape.org/namespaces/inkscape"
   version="1.1"
   viewBox="0 -240 1200 1200"
   id="svg6"
   sodipodi:docname="geometry-collection.svg"
   inkscape:version="0.92.4 (5da689c313, 2019-01-14)">
  <metadata
     id="metadata12">
    <rdf:RDF>
      <cc:Work
         rdf:about="">
        <dc:format>image/svg+xml</dc:format>
        <dc:type
           rdf:resource="http://purl.org/dc/dcmitype/StillImage" />
        <dc:title></dc:title>
      </cc:Work>
    </rdf:RDF>
  </metadata>
  <defs
     id="defs10" />
  <sodipodi:namedview
     pagecolor="#ffffff"
     bordercolor="#666666"
     borderopacity="1"
     objecttolerance="10"
     gridtolerance="10"
     guidetolerance="10"
     inkscape:pageopacity="0"
     inkscape:pageshadow="2"
     inkscape:window-width="1920"
     inkscape:window-height="1017"
     id="namedview8"
     showgrid="false"
     inkscape:zoom="0.39333334"
     inkscape:cx="287.42091"
     inkscape:cy="573.72379"
     inkscape:window-x="1912"
     inkscape:window-y="-8"
     inkscape:window-maximized="1"
     inkscape:current-layer="layer2"
     showguides="false" />
  <g
     inkscape:groupmode="layer"
     id="layer2"
     inkscape:label="glyph">
    <path
       style="fill:currentColor;stroke-width:0.74999994"
       d="M 1018.75 120 C 968.91666 120 926.33334 137.75 891 173.25 C 855.66667 208.75 838 251.16667 838 300.5 C 838 404.16667 898.16666 544 1018.5 720 C 1139.5 544 1200 404.16667 1200 300.5 C 1200 251.16667 1182.25 208.75 1146.75 173.25 C 1111.25 137.75 1068.5833 120 1018.75 120 z M 343.85547 183.55859 C 312.85547 183.55859 286.35546 194.55859 264.35547 216.55859 C 242.35547 238.55859 231.35547 265.05859 231.35547 296.05859 C 231.35547 327.55859 242.60548 354.30859 265.10547 376.30859 L 265.85547 377.05859 C 268.35547 379.0586 270.60547 381.05859 272.60547 383.05859 C 274.10547 384.05859 275.35547 385.05859 276.35547 386.05859 C 278.35547 387.55859 280.35547 388.80859 282.35547 389.80859 C 283.35547 390.80859 284.35547 391.55859 285.35547 392.05859 C 287.85547 393.55859 290.10547 394.80859 292.10547 395.80859 C 293.10548 396.30859 293.85548 396.8086 294.35547 397.30859 C 297.35547 398.3086 300.10547 399.30859 302.60547 400.30859 C 304.10548 401.30859 305.60547 402.05859 307.10547 402.55859 L 309.35547 402.55859 C 320.35548 406.55859 331.85548 408.55859 343.85547 408.55859 C 356.35547 408.55859 368.60548 406.55859 380.60547 402.55859 C 384.10548 401.05859 387.35547 399.5586 390.35547 398.05859 L 916.85547 924.55859 C 915.35546 928.05859 913.85547 931.30859 912.35547 934.30859 C 908.35547 946.30859 906.35547 958.55859 906.35547 971.05859 C 906.35547 983.55859 908.60547 995.80859 913.10547 1007.8086 C 913.60547 1010.3086 914.35547 1012.8086 915.35547 1015.3086 C 915.85547 1016.3086 916.35546 1017.5586 916.85547 1019.0586 C 917.85546 1021.0586 919.10547 1023.0586 920.60547 1025.0586 C 921.10548 1026.5586 921.85548 1027.8086 922.85547 1028.8086 L 925.85547 1034.8086 C 926.85547 1035.8086 927.85547 1037.0586 928.85547 1038.5586 C 930.35548 1040.0586 931.60549 1041.5586 932.60547 1043.0586 C 934.10547 1044.5586 935.35547 1046.0586 936.35547 1047.5586 C 958.35547 1071.5586 985.85549 1083.5586 1018.8555 1083.5586 C 1049.8555 1083.5586 1076.3555 1072.5586 1098.3555 1050.5586 C 1120.3555 1028.5586 1131.3555 1002.0586 1131.3555 971.05859 C 1131.3555 940.05859 1120.3555 913.55859 1098.3555 891.55859 C 1076.3555 869.55859 1049.8555 858.55859 1018.8555 858.55859 C 999.35549 858.55859 980.85547 863.30859 963.35547 872.80859 L 441.35547 351.55859 C 451.35547 334.05859 456.35547 315.55859 456.35547 296.05859 C 456.35547 265.05859 445.35547 238.55859 423.35547 216.55859 C 401.35548 194.55859 374.85548 183.55859 343.85547 183.55859 z M 343.85547 239.80859 C 359.35547 239.80859 372.60547 245.30859 383.60547 256.30859 C 394.60548 267.3086 400.10547 280.5586 400.10547 296.05859 C 400.10547 311.55859 394.60548 324.80859 383.60547 335.80859 C 372.60547 346.80859 359.35547 352.30859 343.85547 352.30859 C 328.35548 352.30859 315.10548 346.80859 304.10547 335.80859 C 293.10548 324.80859 287.60547 311.55859 287.60547 296.05859 C 287.60547 280.5586 293.10548 267.3086 304.10547 256.30859 C 315.10548 245.30859 328.35548 239.80859 343.85547 239.80859 z M 1019.5 258 C 1037.5 258 1052.9167 264.5 1065.75 277.5 C 1078.5833 290.5 1085 306.08333 1085 324.25 C 1085 342.41666 1078.3333 357.5 1065 369.5 C 1052.6667 382.83334 1037.5 389.5 1019.5 389.5 C 1001.5 389.5 986.08334 383.16667 973.25 370.5 C 960.41667 357.83333 954 342.41666 954 324.25 C 954 306.08333 960.41667 290.5 973.25 277.5 C 986.08334 264.5 1001.5 258 1019.5 258 z M 112.5 420 C 81.500002 420 54.999999 431 33 453 C 11 475 -1.5960218e-15 501.5 0 532.5 C 2.3684758e-15 555 7.6249998 576.62501 22.875 597.375 C 38.124999 618.12501 56.5 632.00001 78 639 L 78 1100.25 C 56.5 1107.25 38.124999 1121.25 22.875 1142.25 C 7.6249998 1163.25 -4.1178422e-16 1185 0 1207.5 C -1.4210855e-14 1238.5 11 1265 33 1287 C 54.999999 1309 81.500002 1320 112.5 1320 C 135 1320 156.62501 1312.375 177.375 1297.125 C 198.12501 1281.875 212.00001 1263.5 219 1242 L 680.25 1242 C 685.24999 1256.5 693.24999 1269.625 704.25 1281.375 C 715.25 1293.125 728.12501 1302.5 742.875 1309.5 C 757.62501 1316.5 772.5 1320 787.5 1320 C 818.49999 1320 845 1309 867 1287 C 889.00001 1265 900 1238.5 900 1207.5 C 900 1176.5 889.00001 1150 867 1128 C 845 1106 818.49999 1095 787.5 1095 C 768 1095 749.5 1099.75 732 1109.25 L 210 588 C 220.00001 570.5 225 552 225 532.5 C 225 501.5 214.00001 475 192 453 C 170.00001 431 143.5 420 112.5 420 z M 112.5 476.25 C 127.99999 476.25 141.24999 481.75 152.25 492.75 C 163.25 503.75 168.75 517 168.75 532.5 C 168.75 542.5 166.25 551.875 161.25 560.625 C 156.24999 569.37499 149.37499 576.24999 140.625 581.25 C 131.875 586.25 122.5 588.75 112.5 588.75 C 97 588.75 83.749998 583.25 72.75 572.25 C 61.75 561.24999 56.25 547.99999 56.25 532.5 C 56.25 517 61.75 503.75 72.75 492.75 C 83.749998 481.75 97 476.25 112.5 476.25 z M 159 634.5 L 685.5 1161 C 683.50001 1165 682.00001 1169 681 1173 L 219.75 1173 C 214.74999 1158 205.125 1143.375 190.875 1129.125 C 176.625 1114.875 162 1105.5 147 1101 L 147 639.75 C 151.00001 638.25 155 636.50001 159 634.5 z M 1018.8555 914.80859 C 1026.3555 914.80859 1033.6054 916.30859 1040.6055 919.30859 C 1047.6054 922.30859 1053.6054 926.30859 1058.6055 931.30859 C 1063.6054 936.30859 1067.6055 942.3086 1070.6055 949.30859 C 1073.6055 956.3086 1075.1055 963.55859 1075.1055 971.05859 C 1075.1055 986.55859 1069.6054 999.80859 1058.6055 1010.8086 C 1047.6054 1021.8086 1034.3555 1027.3086 1018.8555 1027.3086 C 1003.3556 1027.3086 990.10554 1021.8086 979.10547 1010.8086 C 968.10547 999.80859 962.60547 986.55859 962.60547 971.05859 C 962.60547 955.55859 968.10547 942.30859 979.10547 931.30859 C 990.10554 920.30859 1003.3556 914.80859 1018.8555 914.80859 z M 112.5 1151.25 C 127.99999 1151.25 141.24999 1156.75 152.25 1167.75 C 163.25 1178.75 168.75 1192 168.75 1207.5 C 168.75 1217.5 166.25 1226.875 161.25 1235.625 C 156.24999 1244.375 149.37499 1251.25 140.625 1256.25 C 131.875 1261.25 122.5 1263.75 112.5 1263.75 C 97 1263.75 83.749998 1258.25 72.75 1247.25 C 61.75 1236.25 56.25 1223 56.25 1207.5 C 56.25 1192 61.75 1178.75 72.75 1167.75 C 83.749998 1156.75 97 1151.25 112.5 1151.25 z M 787.5 1151.25 C 797.49999 1151.25 806.87499 1153.75 815.625 1158.75 C 824.37499 1163.75 831.25 1170.625 836.25 1179.375 C 841.25001 1188.125 843.75 1197.5 843.75 1207.5 C 843.75 1223 838.25001 1236.25 827.25 1247.25 C 816.25 1258.25 802.99999 1263.75 787.5 1263.75 C 771.99999 1263.75 758.74999 1258.25 747.75 1247.25 C 736.75 1236.25 731.25 1223 731.25 1207.5 C 731.25 1192 736.75 1178.75 747.75 1167.75 C 758.74999 1156.75 771.99999 1151.25 787.5 1151.25 z "
       transform="translate(0,-240)"
       id="path816" />
  </g>
</svg>
