<?xml version="1.0" standalone="no"?>
<!DOCTYPE svg PUBLIC "-//W3C//DTD SVG 1.1//EN" "http://www.w3.org/Graphics/SVG/1.1/DTD/svg11.dtd" >
<svg xmlns="http://www.w3.org/2000/svg" xmlns:xlink="http://www.w3.org/1999/xlink" version="1.1" viewBox="0 -240 1200 1200">
  <g transform="matrix(1 0 0 -1 0 960)">
   <path fill="currentColor"
d="M600 1080h11q2 0 3 -0.5l1 -0.5h7v0h2.5h1.5l1 -1h6q1 0 5 -1h1q3 -1 5 -1q3 -1 6 -1q2 -1 4 -1h1q3 -1 5 -2h1l4 -1l7 -2l1 -0.5l1 -0.5q12 -3 23 -8h1q42 -19 74 -51l357 -357q71 -71 71 -172t-71 -172l-357 -357q-5 -5 -12 -11l-1 -1l-12 -10h-1q-6 -5 -13 -10
q-6 -4 -13 -8q-1 0 -1.5 -0.5l-0.5 -0.5q-7 -4 -14 -7v0l-14 -6l-2 -1q-7 -2 -13 -4q-1 -1 -2 -1q-19 -6 -38 -8q-12 -2 -23 -3h-12v0h-14q-1 1 -3 1h-1q-5 0 -10 1h-3h-1l-10 2l-10 2h-2q-4 1 -9 2q-1 0 -2 1q-4 1 -9 2l-1 1h-1q-5 2 -10 3v1l-10 4h-1q-4 2 -9 4q-1 0 -2 1
q-4 2 -9 5q-31 17 -55 41l-203 202l-55 56l-99 99q-71 71 -71 172q0 85 53 152l0.5 0.5l0.5 0.5q1 1 4 5q4 4 4.5 5l0.5 1l8 8l292 292l65 65q41 42 98 59v0l1 1q17 5 35 8h1q8 1 17 2h1h2q9 1 16 1h1zM538 1010q-39 -14 -69 -43l-33 -33q25 -10 25 -29q0 -17 -12 -32
t-26 -25t-25.5 -28t-11.5 -41q0 -17 17 -30t35.5 -19.5t32.5 -14.5t7.5 -21t-40.5 -33q-21 -13 -33 -26.5t-14.5 -25t-0.5 -24t7.5 -23.5t10.5 -22.5t9 -21t1.5 -20t-11.5 -19.5q-18 -20 -29 -10t-15.5 30.5t-14 37t-24.5 10.5q-38 -17 -55 -41t10 -42q2 -1 18.5 -9
t25.5 -13l27 -15l28 -18l23.5 -19.5l17.5 -22l6 -22.5l-6 -24l-25 -24q-17 -13 -39.5 -28t-37 -25t-30.5 -21.5t-26 -20.5l208 -209q48 -47 115 -53q70 20 119 30q15 10 27 23l236 235q-4 0 -18.5 -2.5t-21.5 -3t-18.5 -0.5t-20.5 3q-34 9 -12 54q23 49 82 84q18 11 37 17
q64 22 102 -20q43 49 45 115q-10 -2 -34 4q-29 7 -27 22q0 8 9 9q4 0 13.5 -2t20 -5.5t17.5 -7.5q-1 12 -3 23q-33 -8 -52 13q-54 58 -107 58q-25 -1 -24 -13q0 -4 6 -8q18 -12 12 -38t-32 -33q-20 -6 -40.5 5.5t-32.5 33t-12 46.5q0 22 -4.5 40t-10.5 29.5t-15 21.5t-16 15
t-15.5 10.5t-11.5 7.5q-14 12 -30.5 -2t-13.5 -23q3 -11 -9 -25.5t-29.5 -23t-36 -11.5t-28.5 7q-17 17 -13.5 26.5t12.5 17t19 12t6.5 12t-24.5 17.5q-16 7 33 33q9 5 28 14q46 24 55 32q7 6 5 15t-7.5 16t-10.5 20.5t-3 27.5q1 8 12.5 23t27.5 28l-45 45l-1 2l-1 1
q-17 -17 -38 -28.5t-39 -14.5t-31 1q-12 7 -12 20.5t5.5 26.5t-2.5 21.5t-36 4.5q-25 -3 -37 9zM663 808q8 -1 13 -3q14 -6 18 -20q2 -11 -10 -13q-28 -4 -46 18q-7 9 2 13.5t23 4.5zM656 603q21 0 40.5 -4t35 -11t26.5 -17.5t14 -23.5q5 -18 27.5 -24t47.5 -8t33 -12
t-7 -39t-36.5 -68.5t-24.5 -66.5q-2 -18 1 -43t4 -42t-12 -49.5t-43 -74.5q-48 -68 -95 -30q-35 28 -42 86q-4 35 8 57q26 49 -8.5 93.5t-91.5 50.5q-41 4 -44 53q-4 59 44 115q16 19 35 33q34 24 88 25zM89 581q-30 -46 -30 -101q0 -77 54 -131l37 -36q-12 27 -3 67.5
t36 68.5q22 22 24.5 51t-12 48.5t-38.5 19.5q-41 0 -68 13z" />
  </g>

</svg>
