<?xml version="1.0" encoding="UTF-8" standalone="no"?>
<svg
   xmlns:dc="http://purl.org/dc/elements/1.1/"
   xmlns:cc="http://creativecommons.org/ns#"
   xmlns:rdf="http://www.w3.org/1999/02/22-rdf-syntax-ns#"
   xmlns:svg="http://www.w3.org/2000/svg"
   xmlns="http://www.w3.org/2000/svg"
   xmlns:sodipodi="http://sodipodi.sourceforge.net/DTD/sodipodi-0.dtd"
   xmlns:inkscape="http://www.inkscape.org/namespaces/inkscape"
   version="1.1"
   viewBox="0 -240 1200 1200"
   id="svg6"
   sodipodi:docname="geostory.svg"
   inkscape:version="0.92.1 r15371">
  <metadata
     id="metadata12">
    <rdf:RDF>
      <cc:Work
         rdf:about="">
        <dc:format>image/svg+xml</dc:format>
        <dc:type
           rdf:resource="http://purl.org/dc/dcmitype/StillImage" />
        <dc:title />
      </cc:Work>
    </rdf:RDF>
  </metadata>
  <defs
     id="defs10" />
  <sodipodi:namedview
     pagecolor="#ffffff"
     bordercolor="#666666"
     borderopacity="1"
     objecttolerance="10"
     gridtolerance="10"
     guidetolerance="10"
     inkscape:pageopacity="0"
     inkscape:pageshadow="2"
     inkscape:window-width="1920"
     inkscape:window-height="1017"
     id="namedview8"
     showgrid="false"
     inkscape:zoom="0.19666667"
     inkscape:cx="324.44611"
     inkscape:cy="32.06173"
     inkscape:window-x="-8"
     inkscape:window-y="-8"
     inkscape:window-maximized="1"
     inkscape:current-layer="layer2"
     showguides="false" />
  <g
     inkscape:groupmode="layer"
     id="layer2"
     inkscape:label="glyph">
    <path
       style="fill:currentColor;stroke-width:1.23966944"
       d="M 336.64453,120 C 282.92556,120 248.44913,129.20663 209.57812,154.71094 172.55713,187.49488 155.01683,220.02698 153.0957,266.77734 152.33412,260.94918 151.93359,255.40185 151.93359,250.16602 V 308.4707 1188.5957 L 159.37109,1223.3066 C 161.85042,1241.4885 178.58639,1262.1486 209.57812,1285.2891 240.56987,1308.4296 282.92552,1320 336.64453,1320 H 1048.0664 V 438.63672 381.61133 380.33008 H 1018.8301 V 177.02539 H 1048.0664 V 120 H 1018.8301 984.51367 Z M 984.51367,177.02539 V 380.33008 H 336.64453 C 319.13932,380.33008 302.84965,379.09398 287.75781,376.63672 269.3884,372.16472 251.82138,364.81085 236.18945,353.75781 213.00296,341.49971 198.52503,286.59655 210.81836,248.08984 235.09177,191.44407 260.97022,180.83052 325.94141,177.03516 Z M 216.39648,422.73633 C 235.83042,431.07972 256.28518,437.01739 277.14453,440.48828 512.53608,449.26471 748.12324,443.11908 983.60352,444.57227 V 1255.5469 C 777.96451,1255.7566 572.32588,1254.9643 366.6875,1255.7559 327.06191,1257.3216 284.18223,1256.6005 249.77539,1234.668 230.37273,1225.1241 216.97925,1204.8652 216.39648,1183.1641 Z M 333.92578,533.82031 V 595.27734 H 890.58984 V 533.82031 Z M 333.92578,644.54297 V 706 H 759.10352 V 644.54297 Z M 600,769.91992 C 570.45629,769.91992 542.05815,775.77853 514.80664,787.49414 487.80981,799.20975 464.44332,814.93753 444.70508,834.67578 424.96682,854.41403 409.23904,877.84458 397.52344,904.96875 385.80784,932.09292 379.95117,960.427 379.95117,989.9707 379.95117,1019.5144 385.80784,1047.8485 397.52344,1074.9727 409.23904,1102.0968 424.96682,1125.5274 444.70508,1145.2656 464.44332,1165.0039 487.87387,1180.7317 514.99805,1192.4473 542.12222,1204.1629 570.45629,1210.0195 600,1210.0195 629.5437,1210.0195 657.87778,1204.1629 685.00195,1192.4473 712.12613,1180.7317 735.55668,1165.0039 755.29492,1145.2656 775.03317,1125.5274 790.76096,1102.0968 802.47656,1074.9727 814.19217,1047.8485 820.04883,1019.5144 820.04883,989.9707 820.04883,960.427 814.19217,932.09292 802.47656,904.96875 790.76096,877.84458 775.03317,854.41403 755.29492,834.67578 735.55668,814.93753 712.12613,799.20975 685.00195,787.49414 657.87778,775.77853 629.5437,769.91992 600,769.91992 Z M 610.31445,798.57227 C 615.15351,799.59101 619.86485,799.59101 624.44922,798.57227 627.76015,801.37383 632.98205,803.92071 640.11328,806.21289 647.24452,808.50508 653.61172,810.41524 659.21484,811.94336 664.81796,813.47149 669.46524,816.52891 673.1582,821.11328 676.85117,825.69765 678.0625,831.55431 676.78906,838.68555 L 672.20312,840.5957 C 669.40157,841.61445 664.49999,841.93281 657.49609,841.55078 650.4922,841.16875 643.04178,839.32265 635.14648,836.01172 635.91054,836.26641 636.48321,836.83906 636.86523,837.73047 637.24727,838.62188 637.37539,839.83321 637.24805,841.36133 637.12071,842.88945 636.93047,844.225 636.67578,845.37109 636.42109,846.51719 636.03867,847.98282 635.5293,849.76562 635.01992,851.54844 634.76562,852.56758 634.76562,852.82227 637.56718,854.35039 643.10548,857.27774 651.38281,861.60742 659.66014,865.93711 665.90118,869.37696 670.10352,871.92383 674.30585,874.4707 679.08125,878.22696 684.42969,883.19336 689.77811,888.15975 693.72461,893.57188 696.27148,899.42969 693.9793,902.23124 691.36835,904.20547 688.43945,905.35156 685.51055,906.49766 682.96367,907.07031 680.79883,907.07031 678.63399,907.07031 675.51445,906.87813 671.43945,906.49609 667.36446,906.11407 664.30898,905.92383 662.27148,905.92383 658.19649,910.50819 656.92305,915.09337 658.45117,919.67773 652.84806,922.22461 648.51718,925.0879 645.46094,928.27148 642.4047,931.45507 640.43242,934.32031 639.54102,936.86719 638.64961,939.41405 637.63047,943.3625 636.48438,948.71094 635.33829,954.05936 634.00078,958.51641 632.47266,962.08203 631.45391,965.39296 629.47968,968.51251 626.55078,971.44141 623.62187,974.37031 621.32929,977.23555 619.67383,980.03711 618.01836,982.83867 617.57383,986.53282 618.33789,991.11719 619.10195,995.19218 619.16602,999.2668 618.5293,1003.3418 617.89258,1007.4168 616.87344,1011.8098 615.47266,1016.5215 614.07188,1021.2332 613.1168,1025.1176 612.60742,1028.1738 L 610.69727,1027.0273 C 609.16914,1026.0086 607.19492,1024.6711 604.77539,1023.0156 602.35586,1021.3602 599.80898,1019.45 597.13477,1017.2852 594.46055,1015.1203 591.72344,1012.5094 588.92188,1009.4531 586.12031,1006.3969 583.82773,1003.3414 582.04492,1000.2852 580.5168,997.73829 578.03398,996.01836 574.5957,995.12695 571.15743,994.23555 566.89062,993.72695 561.79688,993.59961 556.70313,993.47226 553.3914,993.28203 551.86328,993.02734 547.78829,994.55546 544.98711,997.35664 543.45898,1001.4316 540.65743,1009.0722 541.67657,1016.4586 546.51562,1023.5898 551.35468,1030.9758 556.70274,1031.4844 562.56055,1025.1172 567.14491,1020.0234 571.09336,1017.3484 574.4043,1017.0938 577.71522,1016.8391 580.06992,1018.3047 581.4707,1021.4883 582.87148,1024.6719 583.76445,1028.2379 584.14648,1032.1855 584.52851,1036.1332 584.59062,1040.0156 584.33594,1043.8359 585.35468,1044.3453 588.47618,1045.1742 593.69727,1046.3203 598.91835,1047.4664 602.29219,1049.6949 603.82031,1053.0059 603.82031,1053.2605 603.75625,1056.5082 603.62891,1062.748 603.50156,1068.9879 603.94804,1072.2336 604.9668,1072.4883 608.7871,1078.3461 617.19065,1076.8184 630.17969,1067.9043 634.25468,1065.1027 639.09415,1063.0023 644.69727,1061.6016 650.30039,1060.2008 655.64845,1059.3719 660.74219,1059.1172 665.83593,1058.8625 671.31212,1058.6723 677.16992,1058.5449 683.02772,1058.4176 688.24962,1058.3535 692.83398,1058.3535 697.16366,1061.1551 703.72111,1063.5758 712.50781,1065.6133 721.29452,1067.6508 727.59767,1069.5609 731.41797,1071.3438 734.47422,1073.1266 739.05938,1074.0816 745.17188,1074.209 751.28436,1074.3363 755.99571,1075.4176 759.30664,1077.4551 758.54258,1085.6051 755.86757,1093.6281 751.2832,1101.5234 746.69884,1109.4187 742.30586,1115.6578 738.10352,1120.2422 733.90118,1124.8266 727.98046,1130.8133 720.33984,1138.1992 690.54145,1167.2335 662.39761,1181.4957 635.91016,1180.9863 634.63672,1177.9301 634,1175.7637 634,1174.4902 634,1173.2168 634.44648,1171.4348 635.33789,1169.1426 636.2293,1166.8504 636.67578,1164.8121 636.67578,1163.0293 631.83673,1162.0106 627.1875,1159.7199 622.73047,1156.1543 618.27344,1152.5887 614.77148,1149.0867 612.22461,1145.6484 609.67774,1142.2102 606.74843,1137.8172 603.4375,1132.4688 602.67344,1128.1391 603.88477,1123.2996 607.06836,1117.9512 610.25195,1112.6027 613.1172,1107.509 615.66406,1102.6699 618.21094,1097.8309 618.5914,1093.5 616.80859,1089.6797 609.42267,1090.6984 602.10038,1089.2988 594.8418,1085.4785 587.58322,1081.6582 579.94256,1076.8187 571.91992,1070.9609 563.89728,1065.1031 557.21171,1061.0285 551.86328,1058.7363 549.06172,1057.7176 544.66874,1056.1898 538.68359,1054.1523 532.69845,1052.1149 527.54062,1050.2047 523.21094,1048.4219 518.88126,1046.6391 514.68046,1044.7289 510.60547,1042.6914 508.82266,1041.6727 506.33789,1039.8887 503.1543,1037.3418 499.97071,1034.7949 496.97929,1032.8848 494.17773,1031.6113 491.37618,1030.3379 488.44687,1029.7012 485.39062,1029.7012 485.64531,1023.5887 483.60898,1016.0121 479.2793,1006.9707 474.94962,997.92931 472.7832,992.26288 472.7832,989.9707 474.31132,982.83946 473.29414,971.76092 469.72852,956.73438 466.1629,941.70784 465.52617,929.86444 467.81836,921.20508 469.09179,915.60196 472.84806,905.54256 479.08789,891.02539 485.32772,876.50823 488.82968,864.91913 489.59375,856.25977 489.84844,854.47695 488.76523,852.12031 486.3457,849.19141 483.92617,846.26251 483.09921,843.39726 483.86328,840.5957 484.62734,836.7754 489.02033,832.38242 497.04297,827.41602 505.06562,822.44962 511.62306,819.07578 516.7168,817.29297 520.5371,816.01954 526.33166,815.76524 534.09961,816.5293 541.86757,817.29336 547.66212,817.29336 551.48242,816.5293 554.02929,816.01992 558.99493,815.19102 566.38086,814.04492 573.76679,812.89883 579.24297,811.87968 582.80859,810.98828 586.37421,810.09687 590.89532,808.56914 596.37109,806.4043 601.84687,804.23946 606.49415,801.62851 610.31445,798.57227 Z M 604.9668,839.45117 C 602.9293,840.46992 600.82695,842.06172 598.66211,844.22656 596.49727,846.3914 594.77929,848.23751 593.50586,849.76562 592.23242,851.29375 590.44843,852.05664 588.15625,852.05664 585.86406,852.05664 583.4453,850.7832 580.89844,848.23633 580.13437,850.01914 578.09608,853.26681 574.78516,857.97852 571.47422,862.69023 569.43789,866.44649 568.67383,869.24805 572.74882,872.0496 577.46017,874.15195 582.80859,875.55273 588.15702,876.95351 594.84259,878.22695 602.86523,879.37305 610.88787,880.51914 615.91758,881.21992 617.95508,881.47461 617.95508,880.71055 616.80976,877.78125 614.51758,872.6875 612.2254,867.59376 610.06094,861.86327 608.02344,855.49609 605.98594,849.12892 604.9668,843.78085 604.9668,839.45117 Z"
       id="path4491-5-8"
       transform="translate(0,-240)"
       inkscape:connector-curvature="0"
       sodipodi:nodetypes="sccccccssccccccccccsccscccccccccccccccccccccccscsssccsssccsssssccsccccsccscccscsccscccccsccccsscccccccccccccsccscccccsccscccssccsscscccccssccscsccscscscscscscccsccscscccsccssc" />
  </g>
</svg>
