<?xml version="1.0" encoding="UTF-8" standalone="no"?>
<svg
   version="1.1"
   viewBox="0 -240 1200 1200"
   id="svg259"
   sodipodi:docname="globe-settings.svg"
   inkscape:version="1.2.2 (732a01da63, 2022-12-09)"
   xmlns:inkscape="http://www.inkscape.org/namespaces/inkscape"
   xmlns:sodipodi="http://sodipodi.sourceforge.net/DTD/sodipodi-0.dtd"
   xmlns="http://www.w3.org/2000/svg"
   xmlns:svg="http://www.w3.org/2000/svg">
  <defs
     id="defs263" />
  <sodipodi:namedview
     id="namedview261"
     pagecolor="#ffffff"
     bordercolor="#000000"
     borderopacity="0.25"
     inkscape:showpageshadow="2"
     inkscape:pageopacity="0.0"
     inkscape:pagecheckerboard="0"
     inkscape:deskcolor="#d1d1d1"
     showgrid="false"
     inkscape:zoom="0.49909954"
     inkscape:cx="358.64589"
     inkscape:cy="530.95621"
     inkscape:window-width="1920"
     inkscape:window-height="1027"
     inkscape:window-x="1912"
     inkscape:window-y="-8"
     inkscape:window-maximized="1"
     inkscape:current-layer="svg259" />
  <g
     transform="matrix(0.62780192,0,0,-0.6469336,-11.092505,928.17611)"
     id="g257">
    <path
       fill="currentColor"
       d="m 377,1060 q 107,46 223,46 116,0 222.5,-46 106.5,-46 184,-123.5 Q 1084,859 1130,752.5 1176,646 1176,530 1176,414 1130,307.5 1084,201 1006.5,123.5 929,46 822.5,0 716,-46 600,-46 484,-46 377.5,0 271,46 193.5,123.5 116,201 70,307.5 24,414 24,530 24,646 70,752.5 116,859 193.5,936.5 271,1014 377,1060 Z m 250,-29 q -15,-12 -36.5,-20.5 -21.5,-8.5 -35.5,-12 -14,-3.5 -43,-8 -29,-4.5 -39,-6.5 -15,-3 -45.5,0 Q 397,987 382,982 362,975 330.5,955.5 299,936 296,921 293,910 302.5,898.5 312,887 311,880 308,846 283.5,789 259,732 254,710 q -9,-34 5,-93 14,-59 8,-87 0,-9 17,-44.5 17,-35.5 16,-59.5 12,0 23,-5 11,-5 23.5,-15 12.5,-10 19.5,-14 16,-8 33,-15 17,-7 40.5,-15 23.5,-8 34.5,-12 21,-9 52.5,-32 31.5,-23 60,-38 28.5,-15 57.5,-11 7,-15 -3,-34 Q 631,216 618.5,195 606,174 609,157 622,136 632,122.5 642,109 659.5,95 677,81 696,77 696,70 692.5,61 689,52 689,47 q 0,-5 5,-17 104,-2 221,112 30,29 46.5,47 16.5,18 34.5,49 18,31 21,63 -13,8 -37,8.5 -24,0.5 -36,7.5 -15,7 -49.5,15 -34.5,8 -51.5,19 -18,0 -41,-0.5 -23,-0.5 -43,-1.5 -20,-1 -42,-6.5 -22,-5.5 -38,-16.5 -51,-35 -66,-12 -4,1 -3.5,25.5 0.5,24.5 0.5,25.5 -6,13 -26.5,17.5 -20.5,4.5 -24.5,6.5 1,15 -0.5,30.5 -1.5,15.5 -7,28 Q 546,460 533,459 q -13,-1 -31,-21 -23,-25 -42,4 -19,28 -8,58 6,16 22,22 6,-1 26,-1.5 20,-0.5 33.5,-4 Q 547,513 553,503 q 7,-12 18,-24 11,-12 21.5,-20.5 10.5,-8.5 20,-15 Q 622,437 628,433 l 5,-3 q 2,12 7.5,30.5 5.5,18.5 8,34.5 2.5,16 -0.5,32 -3,18 3.5,29 6.5,11 18,22.5 11.5,11.5 15.5,24.5 6,14 10.5,35 4.5,21 8,31 3.5,10 15.5,22.5 12,12.5 34,22.5 -6,18 10,36 8,0 24,-1.5 16,-1.5 24.5,-1.5 8.5,0 20,4.5 11.5,4.5 20.5,15.5 -10,23 -31,42.5 -21,19.5 -37.5,29.5 -16.5,10 -49,27 -32.5,17 -43.5,23 0,1 2,8 2,7 3,11.5 1,4.5 1.5,10.5 0.5,6 -1,9.5 Q 695,932 692,933 723,920 750.5,918.5 778,917 789,921 l 12,5 q 5,28 -9.5,46 -14.5,18 -36.5,24 -22,6 -50,15 -28,9 -41,20 -18,-4 -37,0 z M 613,924 q 0,-17 8,-42 8,-25 17,-45 9,-20 9,-23 -8,1 -39.5,5.5 -31.5,4.5 -52.5,10 -21,5.5 -37,16.5 3,11 16,29.5 13,18.5 16,25.5 10,-10 19,-10 9,0 14,6 5,6 13.5,14.5 8.5,8.5 16.5,12.5 z"
       id="path255" />
  </g>
  <g
     transform="matrix(0.50603081,0,0,-0.52113933,607.03233,396.05439)"
     id="g619">
    <path
       fill="currentColor"
       d="m 1173,594 q 10,-62 0,-129 0,-32 -33,-32 l -6,4 q -85,0 -119,-81 -32,-82 34,-143 22,-20 4,-43 -43,-50 -94,-95 -23,-20 -43,6 -64,65 -144.5,31 Q 691,78 691,-11 q 0,-30 -28,-30 -45,-8 -63,-8 -19,0 -67,8 -29,0 -29,34 7,88 -77,123 -88,36 -145,-35 -20,-18 -44,-3 -53,52 -90,95 -20,26 4,43 63,62 29,144 -35,85 -115,77 -39,0 -39,30 -10,65 0,132 0,29 34,29 91,0 124,79 35,82 -29,144 -28,18 -8,43 61,67 94,94 24,19 44,-8 63,-62 144,-28.5 81,33.5 81,122.5 0,31 26,31 63,10 130,0 30,0 30,-34 -6,-91 78,-125 88,-36 144,34 21,19 43,5 53,-52 91,-95 20,-28 -4,-43 -63,-62 -30,-144 28,-77 119,-77 35,0 35,-32 z M 600,337 q 80,0 138,56.5 58,56.5 58,138.5 0,77 -58,133.5 Q 680,722 600,722 523,722 466.5,665.5 410,609 410,532 410,450 466.5,393.5 523,337 600,337 Z"
       id="path617" />
  </g>
</svg>
