<?xml version="1.0" standalone="no"?>
<!DOCTYPE svg PUBLIC "-//W3C//DTD SVG 1.1//EN" "http://www.w3.org/Graphics/SVG/1.1/DTD/svg11.dtd" >
<svg xmlns="http://www.w3.org/2000/svg" xmlns:xlink="http://www.w3.org/1999/xlink" version="1.1" viewBox="-103 -240 1202 1200">
  <g transform="matrix(1 0 0 -1 0 960)">
   <path fill="currentColor"
d="M269 407q-38 0 -71.5 19t-58.5 50t-39.5 69t-14.5 76t14.5 72t39.5 59t58.5 39.5t71.5 14.5q17 0 33.5 -4t30.5 -9q-2 -15 -4 -29.5t-2 -30.5q0 -60 24 -120.5t67 -107.5q-25 -42 -64 -70t-85 -28zM792 492q48 48 76 111.5t28 129.5q0 17 -2.5 33.5t-5.5 32.5
q11 3 22.5 5t23.5 2q38 0 71.5 -14.5t58 -39.5t39 -59t14.5 -72t-14.5 -76t-39 -69t-58 -50t-71.5 -19q-43 0 -79.5 23.5t-62.5 61.5zM258 289q-72 -57 -112 -129t-40 -144h-209q0 43 25 90.5t72 87.5t114 66.5t150 28.5zM966 288q78 -5 141 -33t107 -67t67.5 -85t23.5 -87
h-188q0 72 -39.5 143.5t-111.5 128.5zM612 478q-50 0 -93 28t-72 70q-25 35 -39 75.5t-14 81.5q0 5 1 10t1 11q4 41 22 77t47 62.5t66.5 42t80.5 15.5q40 0 76 -14t64.5 -38.5t47.5 -58t25 -71.5q2 -9 2.5 -18t0.5 -18q0 -47 -18 -93.5t-49 -83.5q-29 -35 -67.5 -56.5
t-81.5 -21.5zM853 282q47 -25 83.5 -57t62 -67t39 -71.5t13.5 -70.5h-412h-76h-391q0 33 13 69t37.5 71t60.5 66.5t81 56.5q51 28 113 44.5t135 16.5q70 0 130 -16t111 -42z" />
  </g>

</svg>
