<?xml version="1.0" standalone="no"?>
<!DOCTYPE svg PUBLIC "-//W3C//DTD SVG 1.1//EN" "http://www.w3.org/Graphics/SVG/1.1/DTD/svg11.dtd" >
<svg xmlns="http://www.w3.org/2000/svg" xmlns:xlink="http://www.w3.org/1999/xlink" version="1.1" viewBox="-52 -240 1200 1200">
  <g transform="matrix(1 0 0 -1 0 960)">
   <path fill="currentColor"
d="M1262 113h-189v571h189v-571zM616 728l-50 218v16q0 22 21 51l51 48l310 -313q31 -25 31 -64v-476q0 -38 -27 -66.5t-68 -28.5h-427q-65 0 -84 57l-140 336q-13 20 -241 88q-9 5 -16.5 17.5t-22.5 44.5t15 57q7 15 350 15h298z" />
  </g>

</svg>
