<?xml version="1.0" standalone="no"?>
<!DOCTYPE svg PUBLIC "-//W3C//DTD SVG 1.1//EN" "http://www.w3.org/Graphics/SVG/1.1/DTD/svg11.dtd" >
<svg xmlns="http://www.w3.org/2000/svg" xmlns:xlink="http://www.w3.org/1999/xlink" version="1.1" viewBox="-62 -240 1200 1200">
  <g transform="matrix(1 0 0 -1 0 960)">
   <path fill="currentColor"
d="M-62 684h189v-571h-189v571zM882 728q343 0 350 -15q30 -25 15 -57t-22.5 -44.5t-16.5 -17.5q-228 -68 -241 -88l-140 -336q-19 -57 -84 -57h-427q-41 0 -68 28.5t-27 66.5v476q0 39 31 64l310 313l51 -48q21 -29 21 -51v-16l-50 -218h298z" />
  </g>

</svg>
