<?xml version="1.0" encoding="UTF-8" standalone="no"?>
<svg
   version="1.1"
   viewBox="0 -240 1200 1200"
   id="svg1"
   sodipodi:docname="heart-o.svg"
   inkscape:version="1.3.2 (091e20e, 2023-11-25, custom)"
   xmlns:inkscape="http://www.inkscape.org/namespaces/inkscape"
   xmlns:sodipodi="http://sodipodi.sourceforge.net/DTD/sodipodi-0.dtd"
   xmlns="http://www.w3.org/2000/svg"
   xmlns:svg="http://www.w3.org/2000/svg">
  <defs
     id="defs1" />
  <sodipodi:namedview
     id="namedview1"
     pagecolor="#ffffff"
     bordercolor="#000000"
     borderopacity="0.25"
     inkscape:showpageshadow="2"
     inkscape:pageopacity="0.0"
     inkscape:pagecheckerboard="0"
     inkscape:deskcolor="#d1d1d1"
     inkscape:zoom="0.34208333"
     inkscape:cx="114.00731"
     inkscape:cy="381.48599"
     inkscape:window-width="1920"
     inkscape:window-height="1017"
     inkscape:window-x="1912"
     inkscape:window-y="-8"
     inkscape:window-maximized="1"
     inkscape:current-layer="g1" />
  <g
     transform="matrix(1 0 0 -1 0 960)"
     id="g1">
    <path
       id="path1"
       d="M 367.09375 964.0625 C 341.03128 963.1875 312.99997 956.49999 283 944 C 201.66675 912.00003 146.16664 852.99991 116.5 767 C 86.833363 681.00009 90.666704 598.99992 128 521 C 217.33324 342.33351 374.66689 171.99984 600 10 C 828.66644 173.99984 985.33342 344.33351 1070 521 C 1108 598.99992 1112.3333 681.00009 1083 767 C 1053.6667 852.99991 997.66658 911.33336 915 942 C 852.3334 963.99998 797.16662 967.16665 749.5 951.5 C 701.83338 935.83335 664.33331 913.3333 637 884 L 600 841 C 596 844.33333 590.83333 850.00001 584.5 858 C 578.16667 865.99999 564.16665 879.66669 542.5 899 C 520.83335 918.33331 498.66664 932.83334 476 942.5 C 453.33336 952.16666 425.49997 959 392.5 963 C 384.25001 964 375.78124 964.35417 367.09375 964.0625 z M 375.80078 839.83203 C 381.19992 839.5917 386.49489 838.44781 391.82031 837.61523 C 399.18161 836.36256 406.63418 834.86357 413.75781 832.88086 C 422.29003 830.50537 430.66224 827.32514 438.21094 822.64062 C 447.25363 817.08616 455.43484 810.26167 463.3457 803.2207 C 469.42341 797.70901 475.48025 792.16771 481.34961 786.43359 C 486.27257 781.60909 490.92556 776.52215 495.43359 771.31055 C 503.49893 762.14961 511.76587 753.09043 521.19922 745.30469 C 534.77424 733.92585 550.51826 724.91226 567.63867 720.14453 C 602.5433 710.26338 641.86068 717.10888 671.13672 738.61133 C 681.25548 746.01176 690.01048 755.09393 698.02344 764.69141 C 708.96993 777.40261 719.74811 790.2766 731.29297 802.45508 C 734.2344 805.53809 737.49128 808.30384 740.98438 810.74219 C 747.01859 815.0712 753.58407 818.83466 760.16211 822.10352 C 770.04786 827.0188 780.34482 831.12863 790.95312 834.19922 C 792.77118 834.71261 794.75374 835.28238 796.7207 835.66797 C 800.54453 836.45938 804.44385 836.80563 808.33984 836.98242 C 809.21905 837.01842 810.38679 837.049 811.37695 837.0625 C 813.54479 837.0885 815.67724 837.04633 817.78516 836.96094 C 818.41585 836.92224 819.47664 836.87441 820.10547 836.83594 C 832.13287 836.04698 844.16439 833.63836 855.8457 830.48047 C 867.7978 827.21523 879.52106 823.0104 890.62305 817.48633 C 894.02589 815.78779 897.60727 813.8386 900.96875 811.80859 C 917.60688 801.89518 932.17543 788.46063 943.14258 772.47852 C 945.33079 769.30039 947.46239 765.91689 949.37109 762.66406 C 957.9947 747.87999 964.32074 731.84894 969.07812 715.43555 C 969.37819 714.3456 969.74869 713.08011 970.04883 711.96289 C 974.20465 696.82274 977.04148 681.2761 977.7832 665.57617 C 977.8789 663.58829 977.93321 661.35374 977.96875 659.26758 C 978.14076 645.96341 976.81296 632.63776 973.96875 619.63867 C 973.38583 616.97792 972.70778 614.15909 971.98438 611.46289 C 969.9348 603.75797 967.30017 596.02552 964.23633 588.58789 C 962.68275 584.77659 960.92766 580.83629 959.15039 577.03125 C 954.73052 567.64919 949.95464 558.31938 945.10352 549.0957 C 941.21648 541.75354 937.16363 534.36331 933.04688 527.09375 C 918.888 502.23292 903.33703 477.98051 886.81055 454.60156 C 855.60016 410.4558 820.66013 368.94423 783.44141 329.7207 C 765.20092 310.51046 746.39919 291.83466 727.13086 273.65625 C 705.76427 253.51999 683.77199 233.92686 661.35156 214.92188 C 641.30675 197.92144 620.82631 181.3351 600.09961 165.12891 C 599.89388 165.29036 599.68815 165.45182 599.48242 165.61328 C 559.71972 196.96176 520.8676 229.50628 483.76758 263.97852 C 454.67924 291.04048 426.48953 319.17257 399.66406 348.51562 C 382.47139 367.3031 365.77379 386.71599 349.81055 406.5293 C 332.66355 427.83489 316.23419 449.77988 300.78125 472.3125 C 279.47292 503.37683 259.98412 535.70946 242.8418 569.25977 C 239.60548 575.58788 236.49211 581.98849 233.9082 588.61523 C 225.05053 610.94203 220.44844 635.01655 221.01758 659.05469 C 221.06468 660.93976 221.14442 663.0712 221.26367 665.05078 C 221.48834 668.95485 221.83633 672.95728 222.29688 676.89453 C 222.56307 679.17215 222.89557 681.66691 223.24219 683.94531 C 224.09879 689.68575 225.2306 695.48167 226.52344 701.07617 C 227.92238 707.0769 229.51785 712.90544 231.35742 718.7793 C 232.18623 721.427 233.07324 724.10729 233.98633 726.74219 C 235.32923 730.54619 236.79182 734.51123 238.3418 738.31641 C 239.37148 740.82821 240.52986 743.55952 241.6543 746.03516 C 247.75011 759.51304 255.31755 772.38888 264.74219 783.81836 C 265.69045 784.95943 266.7999 786.25985 267.83594 787.44141 C 279.12781 800.23932 292.84464 810.81898 307.86719 818.88281 C 311.32107 820.75027 314.95607 822.55191 318.44531 824.16797 C 330.30762 829.60303 342.58218 834.18846 355.20312 837.52344 C 361.88911 839.25278 368.79503 840.24776 375.80078 839.83203 z " />
    <g
       id="g2"
       style="fill:#ff2424;fill-opacity:1" />
  </g>
</svg>
