<?xml version="1.0" standalone="no"?>
<!DOCTYPE svg PUBLIC "-//W3C//DTD SVG 1.1//EN" "http://www.w3.org/Graphics/SVG/1.1/DTD/svg11.dtd" >
<svg xmlns="http://www.w3.org/2000/svg" xmlns:xlink="http://www.w3.org/1999/xlink" version="1.1" viewBox="0 -240 1200 1200">
  <g transform="matrix(1 0 0 -1 0 960)">
   <path fill="currentColor"
d="M601 1072q236 0 403 -169.5t167 -405.5t-167 -405t-403 -169q-237 0 -404.5 169t-167.5 405t167.5 405.5t404.5 169.5zM685 894q-46 0 -74 -31.5t-28 -62.5q-7 -76 77 -76q42 0 71.5 27.5t29.5 66.5q0 76 -76 76zM522 119q113 0 247 135l-24 31q-63 -46 -93 -46
q-17 0 -3 49l53 209q32 127 -27 127q-40 0 -118 -39t-146 -97l19 -33q74 42 99 42q10 0 0 -42l-50 -201q-31 -135 43 -135z" />
  </g>

</svg>
