<?xml version="1.0" standalone="no"?>
<!DOCTYPE svg PUBLIC "-//W3C//DTD SVG 1.1//EN" "http://www.w3.org/Graphics/SVG/1.1/DTD/svg11.dtd" >
<svg xmlns="http://www.w3.org/2000/svg" xmlns:xlink="http://www.w3.org/1999/xlink" version="1.1" viewBox="0 -240 1200 1200">
  <g transform="matrix(1 0 0 -1 0 960)">
   <path fill="currentColor"
d="M836 955q24 5 53 14.5t60 21t62.5 25t60.5 26.5q69 31 141 66q-10 -75 -24 -140.5t-33 -138.5q-29 -106 -70 -205t-101 -191q-43 -69 -96.5 -126.5t-122.5 -102.5q-55 -38 -116 -60.5t-128 -31.5q-92 -13 -182 -1.5t-178 38.5q-2 0 -6 2h-3q-26 -48 -35.5 -100
t-10.5 -106h-104q0 59 9.5 116t35.5 111q5 12 8 18q4 2 5 4q0 1 5.5 10t18.5 24.5t35.5 36t55.5 44.5q43 26 99 52.5t117 51t124.5 47.5t123.5 43q140 47 289 89q-127 6 -270 -18q-61 -10 -132 -28t-148.5 -46t-160.5 -68t-167 -94q0 48 10.5 104t40.5 109q35 69 87 122.5
t118 95.5q57 37 117.5 63t126.5 46q71 20 141.5 40.5t143.5 36.5z" />
  </g>

</svg>
