<?xml version="1.0" standalone="no"?>
<!DOCTYPE svg PUBLIC "-//W3C//DTD SVG 1.1//EN" "http://www.w3.org/Graphics/SVG/1.1/DTD/svg11.dtd" >
<svg xmlns="http://www.w3.org/2000/svg" xmlns:xlink="http://www.w3.org/1999/xlink" version="1.1" viewBox="0 -240 1200 1200">
  <g transform="matrix(1 0 0 -1 0 960)">
   <path fill="currentColor"
d="M150 1080q62 0 106 -44t44 -106q0 -39 -20 -74l696 -695q35 19 74 19q62 0 106 -44t44 -106t-44 -106t-106 -44q-66 0 -110 48q-2 3 -5 6q-2 3 -5 6q-2 3 -4 5l-4 8q-2 2 -3 5q-3 4 -5 8q-1 3 -2 5q-2 5 -3 10q-9 24 -9 49t8 49q3 6 6 13l-702 702q-6 -3 -13 -6
q-24 -8 -49 -8q-24 0 -46 8h-3q-3 1 -6 3q-5 2 -11 4q-1 1 -3 2q-4 2 -9 5q-2 1 -4 3q-4 2 -8 5q-2 2 -5 4q-4 4 -9 8l-1 1q-45 44 -45 107q0 62 44 106t106 44zM150 1005q-31 0 -53 -22t-22 -53t22 -53t53 -22t53 22t22 53t-22 53t-53 22zM1050 105q-31 0 -53 -22t-22 -53
t22 -53t53 -22t53 22t22 53q0 15 -6 29t-16 24t-24 16t-29 6zM1159 789h-418q-16 0 -28.5 12t-12.5 29t12.5 29t28.5 12h418q18 0 29.5 -12t11.5 -29t-11.5 -29t-29.5 -12z" />
  </g>

</svg>
