<?xml version="1.0" standalone="no"?>
<!DOCTYPE svg PUBLIC "-//W3C//DTD SVG 1.1//EN" "http://www.w3.org/Graphics/SVG/1.1/DTD/svg11.dtd" >
<svg xmlns="http://www.w3.org/2000/svg" xmlns:xlink="http://www.w3.org/1999/xlink" version="1.1" viewBox="0 -240 1200 1200">
  <g transform="matrix(1 0 0 -1 0 960)">
   <path fill="currentColor"
d="M150 1080q62 0 106 -44t44 -106q0 -39 -20 -74l696 -695q35 19 74 19q62 0 106 -44t44 -106t-44 -106t-106 -44q-66 0 -110 48q-2 3 -5 6q-2 3 -5 6q-2 3 -4 5l-4 8q-2 2 -3 5q-3 4 -5 8q-1 3 -2 5q-2 5 -3 10q-9 24 -9 49t8 49q3 6 6 13l-702 702q-6 -3 -13 -6
q-24 -8 -49 -8q-24 0 -46 8h-3q-3 1 -6 3q-5 2 -11 4q-1 1 -3 2q-4 2 -9 5q-2 1 -4 3q-4 2 -8 5q-2 2 -5 4q-4 4 -9 8l-1 1q-45 44 -45 107q0 62 44 106t106 44zM150 1005q-31 0 -53 -22t-22 -53t22 -53t53 -22t53 22t22 53t-22 53t-53 22zM1050 105q-31 0 -53 -22t-22 -53
t22 -53t53 -22t53 22t22 53q0 15 -6 29t-16 24t-24 16t-29 6zM1176 994q24 0 24 -24.5t-24 -24.5h-453q-23 0 -23 24.5t23 24.5h67v25q0 25 14.5 43t33.5 18h223q21 0 35 -18t14 -43v-25h66zM814 994h272v25q0 36 -25 36h-223q-24 0 -24 -36v-25zM1164 882l-62 -464h-306
l-61 464h429zM863 452q18 4 18 23l-38 356q-5 22 -23 19q-18 0 -18 -21l39 -359q0 -18 19 -18h3zM970 831q0 19 -20.5 19t-20.5 -19v-359q0 -20 20.5 -20t20.5 20v359zM1097 829q0 21 -17 21q-19 3 -22 -19l-39 -356q0 -19 18 -23h1q21 0 21 18z" />
  </g>

</svg>
