<?xml version="1.0" standalone="no"?>
<!DOCTYPE svg PUBLIC "-//W3C//DTD SVG 1.1//EN" "http://www.w3.org/Graphics/SVG/1.1/DTD/svg11.dtd" >
<svg xmlns="http://www.w3.org/2000/svg" xmlns:xlink="http://www.w3.org/1999/xlink" version="1.1" viewBox="0 -240 1200 1200">
  <g transform="matrix(1 0 0 -1 0 960)">
   <path fill="currentColor"
d="M150 1080q62 0 106 -44t44 -106q0 -39 -20 -74l101 -100l-66 -66l-103 104q-6 -3 -13 -6q-24 -8 -49 -8q-24 0 -46 8q-2 0 -4 1t-5 2q-6 2 -11 5q-1 0 -3 1l-10 6q-1 1 -3 2q-4 2 -8 6q-2 1 -4 3q-56 45 -56 116q0 62 44 106t106 44zM150 1005q-31 0 -53 -22t-22 -53
t22 -53t53 -22t53 22t22 53t-22 53t-53 22zM452 685l70 -70l-65 -66l-71 71zM593 544l71 -71l-66 -66l-71 71zM735 402l70 -70l-65 -66l-71 71zM876 261l100 -100q35 19 74 19q62 0 106 -44t44 -106t-44 -106t-106 -44q-66 0 -111 49q-3 3 -5 7l-5 5q-2 3 -4 6.5t-4 6.5
t-3 6q-2 4 -4 7l-2 6q-2 4 -4 9q-8 23 -8 48q0 24 8 46v3q3 6 6 13l-104 103zM1050 105q-31 0 -53 -22t-22 -53t22 -53t53 -22t53 22t22 53q0 15 -6 29t-16 24t-24 16t-29 6z" />
  </g>

</svg>
