<svg xmlns="http://www.w3.org/2000/svg" viewBox="200 240 700 700">
<path d="M948 264.196c-25.447 4.969-54.76 28.158-66.024 52.227-15.133 32.339-11.982 70.676 7.974 97.028l7.915 10.452-49.146 84.548c-27.031 46.502-49.725 85.117-50.433 85.811-.707.694-7.027.553-14.045-.313-16.206-1.999-36.151.801-49.622 6.968l-10.505 4.809-34.557-29.047c-19.006-15.976-36.196-30.629-38.2-32.562-3.473-3.35-3.49-4.252-.371-19.316 16.031-77.399-64.385-139.587-136.429-105.505-16.597 7.852-35.221 26.422-43.567 43.44-11.63 23.717-13.655 43.932-6.836 68.264 2.157 7.7 4.131 15.025 4.384 16.277.254 1.253-39.588 44.716-88.538 96.586-79.176 83.898-89.552 94.195-94 93.283-32.986-6.763-52.048-5.412-74 5.243-15.774 7.657-35.325 26.465-42.758 41.134-19.909 39.287-12.997 83.502 17.773 113.7 14.758 14.485 28.611 21.735 49.771 26.05 46.416 9.466 95.187-19.708 109.425-65.455 7.024-22.568 4.133-55.29-6.505-73.645l-3.957-6.827 13.815-14.173c11.74-12.044 156.421-165.136 160.439-169.765.76-.876 6.245.352 12.189 2.728 13.459 5.379 41.512 7.412 55.179 3.999 5.296-1.322 14.733-4.685 20.972-7.472l11.343-5.068 37.157 31.406C667.279 636.274 684 650.652 684 650.952c0 .3-1.488 4.483-3.306 9.297-4.946 13.094-4.513 45.376.805 59.963 5.594 15.344 13.248 26.93 25.69 38.884 12.927 12.421 27.176 19.787 46.811 24.198 12.754 2.866 17.396 3.025 31 1.065 69.188-9.968 105.929-85.554 70.325-144.679l-6.817-11.32 50.445-86.68L949.399 455l17.612-.449c28.983-.738 48.227-8.195 67.378-26.108 47.42-44.356 37.88-121.677-19.031-154.238-18.26-10.448-44.868-14.401-67.358-10.009m33.537 60.899c15.167 6.338 22.463 17.098 22.463 33.13 0 13.851-7.13 26.23-18.429 31.994-10.524 5.369-28.801 4.614-37.098-1.532-18.384-13.619-21.178-38.992-6.008-54.565 11.633-11.941 24.811-14.985 39.072-9.027M576.706 476.08C586.66 482.9 592 493.302 592 505.872c0 27.592-26.49 43.993-51.501 31.886-25.474-12.332-26.069-50.122-1.004-63.733 10.335-5.612 27.398-4.67 37.211 2.055M790 657.077c12.116 6.162 18 16.784 18 32.496 0 13.455-4.639 22.329-15.5 29.648-17.416 11.737-42.005 5.14-51.858-13.912-4.126-7.98-4.126-24.638 0-32.618 4.054-7.839 14.048-16.337 21.012-17.867 2.94-.645 6.246-1.472 7.346-1.837 3.229-1.069 15.586 1.337 21 4.09M274.46 799.181c15.264 9.868 20.104 31.679 10.622 47.86-11.821 20.17-36.64 24.005-54.406 8.406-12.924-11.348-16.135-27.039-8.682-42.435 9.543-19.712 33.572-26.046 52.466-13.831" fill-rule="evenodd"/></svg>
