<?xml version="1.0" standalone="no"?>
<!DOCTYPE svg PUBLIC "-//W3C//DTD SVG 1.1//EN" "http://www.w3.org/Graphics/SVG/1.1/DTD/svg11.dtd" >
<svg xmlns="http://www.w3.org/2000/svg" xmlns:xlink="http://www.w3.org/1999/xlink" version="1.1" viewBox="0 -240 1200 1200">
  <g transform="matrix(1 0 0 -1 0 960)">
   <path fill="currentColor"
d="M909 1080q123 0 197 -98l8 59q3 25 25 22q8 0 17 -10q4 -5 4 -16l-17 -144l-142 32q-10 0 -16 9t-2 17q4 23 29 18l51 -12q-61 74 -154 74q-82 0 -140.5 -58.5t-58.5 -139.5h-49q0 103 72.5 175t175.5 72zM1108 833h50q0 -103 -73 -175.5t-176 -72.5q-121 0 -196 94
l-5 -58q-3 -24 -28 -20q-9 0 -14 9q-8 7 -5 16l17 145l142 -31q23 -7 18 -28q-2 -10 -10.5 -16t-17.5 -2l-53 12q60 -72 152 -72q84 0 141.5 58.5t57.5 140.5zM40 769l157 -40l121 -32v-817l-182 48l-96 24v817zM607 742q-14 -104 -11 -145q10 -36 47 -54t73 -6h1v-578h-1
l-309 -79v812zM1081 566v-679l-157 40l-121 32v575q68 -24 142.5 -15.5t135.5 47.5z" />
  </g>

</svg>
