<?xml version="1.0" encoding="UTF-8" standalone="no"?>
<svg
   xmlns:dc="http://purl.org/dc/elements/1.1/"
   xmlns:cc="http://creativecommons.org/ns#"
   xmlns:rdf="http://www.w3.org/1999/02/22-rdf-syntax-ns#"
   xmlns:svg="http://www.w3.org/2000/svg"
   xmlns="http://www.w3.org/2000/svg"
   xmlns:sodipodi="http://sodipodi.sourceforge.net/DTD/sodipodi-0.dtd"
   xmlns:inkscape="http://www.inkscape.org/namespaces/inkscape"
   version="1.1"
   viewBox="0 -240 1200 1200"
   id="svg6"
   sodipodi:docname="map-edit.svg"
   inkscape:version="0.92.1 r15371">
  <metadata
     id="metadata12">
    <rdf:RDF>
      <cc:Work
         rdf:about="">
        <dc:format>image/svg+xml</dc:format>
        <dc:type
           rdf:resource="http://purl.org/dc/dcmitype/StillImage" />
        <dc:title />
      </cc:Work>
    </rdf:RDF>
  </metadata>
  <defs
     id="defs10" />
  <sodipodi:namedview
     pagecolor="#ffffff"
     bordercolor="#666666"
     borderopacity="1"
     objecttolerance="10"
     gridtolerance="10"
     guidetolerance="10"
     inkscape:pageopacity="0"
     inkscape:pageshadow="2"
     inkscape:window-width="1920"
     inkscape:window-height="1017"
     id="namedview8"
     showgrid="false"
     inkscape:zoom="0.19666667"
     inkscape:cx="71.306233"
     inkscape:cy="107.71274"
     inkscape:window-x="-8"
     inkscape:window-y="-8"
     inkscape:window-maximized="1"
     inkscape:current-layer="layer2"
     showguides="false" />
  <g
     inkscape:groupmode="layer"
     id="layer2"
     inkscape:label="glyph">
    <path
       style="fill:currentColor"
       d="M 901.29492 120 C 890.07836 120 879.03355 120.86226 868.16211 122.58789 C 859.18886 122.58789 854.70312 127.93785 854.70312 138.63672 C 854.70312 169.35286 840.72466 190.49104 812.76953 202.05273 C 784.8144 213.61443 759.96554 208.69658 738.22266 187.29883 C 731.32016 177.98045 723.72832 176.60083 715.44531 183.1582 C 704.05619 192.47658 687.83388 208.69693 666.78125 231.82031 C 659.87875 240.44844 661.26033 247.86978 670.92383 254.08203 C 693.01184 275.47979 698.01493 300.32865 685.93555 328.62891 C 674.54641 355.89379 653.14857 369.52539 621.74219 369.52539 C 610.00793 369.52539 604.14062 374.53044 604.14062 384.53906 C 600.68937 407.66244 600.68937 430.43991 604.14062 452.87305 C 604.14062 463.2268 610.87215 468.4043 624.33203 468.4043 C 651.94204 465.6433 671.78585 478.92999 683.86523 508.26562 C 695.59949 536.56588 690.59445 561.41474 668.85156 582.8125 C 660.56856 588.67963 659.87875 596.10097 666.78125 605.07422 C 679.55088 619.9146 695.08142 636.3074 713.37305 654.25391 C 721.65605 659.43079 729.24984 658.91343 736.15234 652.70117 C 755.82448 628.19729 780.84579 622.15753 811.2168 634.58203 C 840.2073 646.66141 853.494 667.88681 851.07812 698.25781 C 851.07813 709.99207 856.08317 715.85938 866.0918 715.85938 C 882.6578 718.62038 894.21996 720 900.77734 720 C 906.98959 720 917.85999 718.62038 933.39062 715.85938 C 943.05412 715.85938 947.88672 710.68188 947.88672 700.32812 C 947.88672 669.61199 961.77797 648.3866 989.56055 636.65234 C 1017.3431 624.91809 1042.2772 630.26804 1064.3652 652.70117 C 1071.2678 661.67443 1078.6891 662.70914 1086.627 655.80664 C 1104.2284 640.27601 1120.4487 623.88321 1135.2891 606.62695 C 1141.5013 598.68907 1140.8115 591.26773 1133.2188 584.36523 C 1110.4405 563.3126 1104.5732 538.6362 1115.6172 510.33594 C 1127.3515 482.3808 1147.8871 468.4043 1177.2227 468.4043 L 1180.3281 470.47461 C 1191.7173 470.47461 1197.4121 464.9522 1197.4121 453.9082 C 1200.8633 430.78482 1200.8633 408.52471 1197.4121 387.12695 C 1197.4121 376.08295 1191.3724 370.56055 1179.293 370.56055 C 1147.8866 370.56055 1127.351 357.27385 1117.6875 330.69922 C 1106.2984 302.39896 1111.4759 277.5501 1133.2188 256.15234 C 1141.5018 250.97547 1142.1916 243.55413 1135.2891 233.89062 C 1122.1743 219.05025 1106.4713 202.65744 1088.1797 184.71094 C 1080.5869 179.87919 1073.1656 180.74145 1065.918 187.29883 C 1046.591 211.45759 1021.7421 217.32489 991.37109 204.90039 C 962.38058 193.16614 948.92143 171.59584 950.99219 140.18945 C 950.99219 128.4552 945.81469 122.58789 935.46094 122.58789 C 923.89925 120.86226 912.51149 120 901.29492 120 z M 900.77734 320.86328 C 928.38735 320.86328 952.19954 330.61176 972.2168 350.11133 C 992.23405 369.6109 1002.2441 392.64803 1002.2441 419.22266 C 1002.2441 447.52292 992.23405 471.42425 972.2168 490.92383 C 952.19954 510.42339 928.38735 520.17188 900.77734 520.17188 C 874.20271 520.17188 851.16559 510.42339 831.66602 490.92383 C 812.16645 471.42425 802.41602 447.52292 802.41602 419.22266 C 802.41602 392.64803 812.16645 369.6109 831.66602 350.11133 C 851.16559 330.61176 874.20271 320.86328 900.77734 320.86328 z M 0 431 L 0 1248 L 96 1272 L 278 1320 L 278 503 L 157 471 L 0 431 z M 510.81445 472.2793 L 367 508 L 367 1320 L 676 1241 L 677 1241 L 677 742.88867 C 651.13913 730.17261 630.67635 707.8323 611.14453 687.03906 C 573.01802 656.30341 555.88329 600.63986 573.70703 554.45703 C 556.17723 545.73863 540.0436 533.38983 529.01953 517.0332 C 520.05299 503.21485 514.33545 488.05192 510.81445 472.2793 z M 764.51953 746.37891 C 763.68541 746.67393 762.84095 746.94397 762 747.22266 L 762 1241 L 883 1273 L 1040 1313 L 1040 749.96875 C 1038.131 749.3185 1036.2722 748.63311 1034.4375 747.87109 C 1025.623 763.96432 1014.0882 780.76446 997.85352 790.99023 C 961.8788 814.38264 917.03281 817.66169 875.34961 814.25195 C 829.67094 815.03832 783.48276 788.54984 764.51953 746.37891 z "
       transform="translate(0,-240)"
       id="path4612-9-6" />
  </g>
</svg>
