<?xml version="1.0" encoding="UTF-8" standalone="no"?>
<svg
   version="1.1"
   viewBox="0 -240 1201 1200"
   id="svg6"
   sodipodi:docname="map-context.svg"
   inkscape:version="1.1 (c68e22c387, 2021-05-23)"
   xmlns:inkscape="http://www.inkscape.org/namespaces/inkscape"
   xmlns:sodipodi="http://sodipodi.sourceforge.net/DTD/sodipodi-0.dtd"
   xmlns="http://www.w3.org/2000/svg"
   xmlns:svg="http://www.w3.org/2000/svg">
  <defs
     id="defs10" />
  <sodipodi:namedview
     id="namedview8"
     pagecolor="#ffffff"
     bordercolor="#666666"
     borderopacity="1.0"
     inkscape:pageshadow="2"
     inkscape:pageopacity="0.0"
     inkscape:pagecheckerboard="0"
     showgrid="false"
     inkscape:zoom="0.34666667"
     inkscape:cx="898.55769"
     inkscape:cy="690.86538"
     inkscape:window-width="1920"
     inkscape:window-height="1017"
     inkscape:window-x="3832"
     inkscape:window-y="-8"
     inkscape:window-maximized="1"
     inkscape:current-layer="svg6" />
  <path
     id="path2"
     d="M 75 313 L 75 1130 L 171 1154 L 353 1202 L 353 385 L 232 353 L 75 313 z M 619.51758 339.76172 L 442 385 L 442 1061 L 442 1202 L 752 1123 L 752 457.47461 C 709.60017 450.66963 670.43346 426.18487 645.57812 391.20312 C 634.59846 375.32975 626.33462 357.7867 619.51758 339.76172 z M 1120.2402 375.33789 C 1122.1598 377.25426 1124.0804 379.16957 1126 381.08594 L 1126 378 L 1123 376 L 1120.2402 375.33789 z M 835 496.72461 L 835 1121 L 838 1123 L 967 1154 L 1126 1197 L 1126 636.11133 C 1100.7158 661.64229 1075.4331 687.17465 1050.1484 712.70508 C 978.43263 640.71127 906.71619 568.71805 835 496.72461 z "
     transform="translate(0,-240)" />
  <path
     fill="currentColor"
     d="m 765.8307,62.359356 71.8834,-75.27048 -84.6793,-79.41034 q 12.7959,-19.946676 69.0606,-2.63447 56.2647,17.3122 69.0607,50.43121 18.0649,49.6785205 -9.597,109.1422 -27.6619,59.463674 -92.3945,64.732614 -26.721,2.63447 -46.6677,-9.03246 -19.9467,-11.66692 -29.7318,-31.237254 -9.7852,-19.57032 -15.4305,-39.70518 -5.6453,-20.13485 -6.7743,-34.05989 -1.1291,-13.9250395 0.3763,-15.05408953 z M 1126,268.22412 l -76.0232,76.77589 -197.2086,-197.96136 -9.0325,-3.38717 q 33.8717,-17.31221 54.1947,-48.925814 11.2906,-17.31221 18.065,-43.65688 l 10.9142,18.44127 z"
     id="path3468"
     style="stroke-width:0.376352" />
</svg>
