<?xml version="1.0" encoding="UTF-8" standalone="no"?>
<svg
   version="1.1"
   viewBox="0 -240 1200 1200"
   id="svg6"
   sodipodi:docname="map-view.svg"
   inkscape:version="1.1 (c68e22c387, 2021-05-23)"
   xmlns:inkscape="http://www.inkscape.org/namespaces/inkscape"
   xmlns:sodipodi="http://sodipodi.sourceforge.net/DTD/sodipodi-0.dtd"
   xmlns="http://www.w3.org/2000/svg"
   xmlns:svg="http://www.w3.org/2000/svg"
   xmlns:rdf="http://www.w3.org/1999/02/22-rdf-syntax-ns#"
   xmlns:cc="http://creativecommons.org/ns#"
   xmlns:dc="http://purl.org/dc/elements/1.1/">
  <metadata
     id="metadata12">
    <rdf:RDF>
      <cc:Work
         rdf:about="">
        <dc:format>image/svg+xml</dc:format>
        <dc:type
           rdf:resource="http://purl.org/dc/dcmitype/StillImage" />
      </cc:Work>
    </rdf:RDF>
  </metadata>
  <defs
     id="defs10" />
  <sodipodi:namedview
     pagecolor="#ffffff"
     bordercolor="#666666"
     borderopacity="1"
     objecttolerance="10"
     gridtolerance="10"
     guidetolerance="10"
     inkscape:pageopacity="0"
     inkscape:pageshadow="2"
     inkscape:window-width="1920"
     inkscape:window-height="1017"
     id="namedview8"
     showgrid="false"
     inkscape:zoom="0.19666667"
     inkscape:cx="856.77965"
     inkscape:cy="790.67796"
     inkscape:window-x="1912"
     inkscape:window-y="-8"
     inkscape:window-maximized="1"
     inkscape:current-layer="layer2"
     showguides="false"
     inkscape:pagecheckerboard="0" />
  <g
     inkscape:groupmode="layer"
     id="layer2"
     inkscape:label="glyph">
    <path
       id="path835"
       style="stroke-width:0.437"
       d="M 206.53516 120.00781 C 204.83516 120.05212 203.1419 120.27136 201.45312 120.66406 L 27.966797 157.46094 L 83.332031 325.25586 C 87.908831 344.12224 99.603512 350.49608 118.41602 344.37891 C 137.48962 338.78979 143.84472 326.80205 137.48242 308.41406 L 117.20703 247.46875 L 208.13086 299.96484 L 241.94922 241.38867 L 151.02539 188.89258 L 214.06445 175.76758 C 233.08835 172.22493 240.21169 160.86854 235.43359 141.69727 C 234.95669 135.00784 230.47563 129.21376 221.98633 124.3125 C 216.78665 121.31047 211.63516 119.8749 206.53516 120.00781 z M 305.78125 278.24219 L 271.95898 336.82422 L 376.90234 397.41211 L 410.72461 338.83008 L 305.78125 278.24219 z M 474.55664 375.68359 L 440.73438 434.26562 L 546.71484 495.45312 L 580.53711 436.87109 L 474.55664 375.68359 z M 644.36914 473.72461 L 610.54688 532.30664 L 666.20312 564.43945 C 676.56256 556.46934 687.07401 548.69452 697.83398 541.29492 C 707.60276 534.54282 717.54087 528.01711 727.67969 521.82422 L 644.36914 473.72461 z M 900.21875 529.6875 C 850.40083 529.6875 800.72776 545.70926 751.20117 577.75586 C 701.6746 609.80253 664.23854 640.97679 638.89258 671.27539 L 600 720.21875 C 604.36999 725.1714 609.90481 731.79857 616.60547 740.10156 C 623.30612 748.40455 637.36438 763.55515 658.77734 785.55078 C 680.1903 807.54641 701.89304 827.06446 723.88867 844.10742 C 745.8843 861.1504 773.05269 876.44521 805.39062 889.99219 C 837.72857 903.53916 869.33746 910.3125 900.21875 910.3125 C 949.74534 910.3125 999.3453 894.36188 1049.0176 862.46094 C 1098.6898 830.55999 1136.1989 799.46073 1161.5449 769.16211 L 1200 720.21875 C 1195.9213 715.26609 1190.5326 708.63894 1183.832 700.33594 C 1177.1314 692.03294 1163.0732 676.88232 1141.6602 654.88672 C 1120.2472 632.89112 1098.4714 613.37308 1076.3301 596.33008 C 1054.1887 579.28708 1027.1665 563.91916 995.26562 550.22656 C 963.36462 536.5339 931.68268 529.6875 900.21875 529.6875 z M 900.4375 601.79102 C 932.92109 601.79102 960.67021 613.37227 983.68555 636.5332 C 1006.7008 659.6942 1018.209 687.58949 1018.209 720.21875 C 1018.209 752.84802 1006.7008 780.67025 983.68555 803.68555 C 960.67021 826.70085 932.92109 838.20898 900.4375 838.20898 C 867.95388 838.20898 840.05857 826.70085 816.75195 803.68555 C 793.44532 780.67025 781.79102 752.84802 781.79102 720.21875 C 781.79102 687.58949 793.44532 659.6942 816.75195 636.5332 C 840.05857 613.37227 867.95388 601.79102 900.4375 601.79102 z M 900.21875 641.55859 C 878.66012 641.55859 860.15939 649.27808 844.71875 664.71875 C 829.27811 680.15935 821.55859 698.66009 821.55859 720.21875 C 821.55859 741.77738 829.27811 760.20307 844.71875 775.49805 C 860.15939 790.79302 878.66012 798.44141 900.21875 798.44141 C 921.77734 798.44141 940.20305 790.79302 955.49805 775.49805 C 970.79305 760.20307 978.44141 741.77738 978.44141 720.21875 C 978.44141 708.2741 976.40289 698.36796 972.32422 690.50195 C 967.37155 710.31261 954.11531 720.21875 932.55664 720.21875 C 921.77736 720.21875 912.45388 716.21283 904.58789 708.20117 C 896.72191 700.18951 892.78906 690.35639 892.78906 678.70312 C 892.78906 663.84513 899.3451 651.46393 912.45508 641.55859 L 900.21875 641.55859 z M 667.08789 875.04883 L 610.54688 907.69336 L 644.36914 966.27539 L 727.48047 918.29102 C 708.59444 907.44674 690.80916 894.76068 673.99023 880.94531 C 671.6404 879.03562 669.40379 876.99728 667.08789 875.04883 z M 546.71484 944.54688 L 440.73438 1005.7344 L 474.55664 1064.3164 L 580.53711 1003.1289 L 546.71484 944.54688 z M 376.90234 1042.5879 L 271.95898 1103.1758 L 305.78125 1161.7578 L 410.72461 1101.1699 L 376.90234 1042.5879 z M 105.64062 1093.375 C 94.200435 1093.4713 86.764631 1100.5944 83.332031 1114.7441 L 27.966797 1282.5391 L 201.45312 1319.3359 C 208.20822 1320.9066 215.05343 1319.6902 221.98633 1315.6875 C 230.47563 1310.7863 234.95669 1304.9922 235.43359 1298.3027 C 240.21169 1279.1315 233.08835 1267.7751 214.06445 1264.2324 L 151.02539 1251.1074 L 241.94922 1198.6113 L 208.13086 1140.0352 L 117.20703 1192.5312 L 137.48242 1131.5859 C 143.84472 1113.1979 137.48962 1101.2102 118.41602 1095.6211 C 113.71289 1094.0918 109.45403 1093.3429 105.64062 1093.375 z "
       transform="translate(0,-240)" />
  </g>
</svg>
