<?xml version="1.0" encoding="UTF-8" standalone="no"?>
<svg
   xmlns:dc="http://purl.org/dc/elements/1.1/"
   xmlns:cc="http://creativecommons.org/ns#"
   xmlns:rdf="http://www.w3.org/1999/02/22-rdf-syntax-ns#"
   xmlns:svg="http://www.w3.org/2000/svg"
   xmlns="http://www.w3.org/2000/svg"
   xmlns:sodipodi="http://sodipodi.sourceforge.net/DTD/sodipodi-0.dtd"
   xmlns:inkscape="http://www.inkscape.org/namespaces/inkscape"
   version="1.1"
   viewBox="0 -240 1200 1200"
   id="svg6"
   sodipodi:docname="maps-catalog.svg"
   inkscape:version="0.92.1 r15371">
  <metadata
     id="metadata12">
    <rdf:RDF>
      <cc:Work
         rdf:about="">
        <dc:format>image/svg+xml</dc:format>
        <dc:type
           rdf:resource="http://purl.org/dc/dcmitype/StillImage" />
        <dc:title></dc:title>
      </cc:Work>
    </rdf:RDF>
  </metadata>
  <defs
     id="defs10" />
  <sodipodi:namedview
     pagecolor="#ffffff"
     bordercolor="#666666"
     borderopacity="1"
     objecttolerance="10"
     gridtolerance="10"
     guidetolerance="10"
     inkscape:pageopacity="0"
     inkscape:pageshadow="2"
     inkscape:window-width="1920"
     inkscape:window-height="1017"
     id="namedview8"
     showgrid="false"
     inkscape:zoom="0.27812867"
     inkscape:cx="-1020.6463"
     inkscape:cy="573.91895"
     inkscape:window-x="-8"
     inkscape:window-y="-8"
     inkscape:window-maximized="1"
     inkscape:current-layer="layer2"
     showguides="false" />
  <g
     inkscape:groupmode="layer"
     id="layer2"
     inkscape:label="glyph">
    <path
       inkscape:connector-curvature="0"
       style="fill:currentColor"
       d="M 599.55078,-120.00002 C 593.46823,-119.13108 588.68864,-116.74226 585.21289,-112.83205 581.73715,-108.92184 580,-104.36012 580,-99.146495 V 209.32615 L 662.11523,12.511707 C 663.56346,2.374117 668.26914,-6.023723 676.23438,-12.685563 684.19962,-19.347403 693.54095,-22.679703 704.25781,-22.679703 H 1093.9746 V -25.285173 C 1093.9746,-28.760913 1094.1205,-32.309143 1094.4102,-35.929703 1094.6998,-39.550263 1094.5539,-43.388343 1093.9746,-47.443373 1093.9746,-49.760533 1093.6128,-51.789483 1092.8887,-53.527353 1092.1645,-55.265223 1091.3689,-56.856473 1090.5,-58.304703 1087.8932,-62.649383 1084.8507,-65.401983 1081.375,-66.560563 1077.8993,-67.719143 1073.8453,-68.298843 1069.2109,-68.298843 H 791.15039 C 790.5711,-68.298843 789.84746,-68.370813 788.97852,-68.515633 788.10958,-68.660453 787.09608,-69.168193 785.9375,-70.037123 777.82743,-70.037123 771.74449,-73.367473 767.68945,-80.029313 766.53087,-81.767183 765.80722,-83.504323 765.51758,-85.242205 765.22793,-86.980065 764.79413,-89.007075 764.21484,-91.324235 763.9252,-93.641405 763.7793,-95.960195 763.7793,-98.277355 763.7793,-100.59452 763.48944,-102.76547 762.91016,-104.79299 759.14476,-114.93057 751.32467,-120.00002 739.44922,-120.00002 H 603.02734 Z M 718.5957,34.669907 718.16016,35.539047 609.97852,291.00584 H 1070.5137 L 1071.3828,289.26951 1180,34.669907 H 1102.6641 Z M 19.999989,190.99998 V 1008 L 115.99999,1032 297.99999,1080 V 262.99998 L 176.99999,230.99998 Z M 506.37305,232.45701 C 506.19592,232.46003 506.76464,232.78551 508.39453,233.6074 508.39453,234.94488 508.3851,236.31203 508.38281,237.65623 L 516.29688,235.67771 C 511.61666,234.33476 506.80275,232.44969 506.37305,232.45701 Z M 516.29688,235.67771 C 522.03468,237.32414 527.5717,238.14933 524.57422,233.6074 Z M 508.38281,237.65623 387,267.99998 V 1080 L 696,1001 H 697 V 422.99998 359.00584 H 507.31445 C 507.31445,318.96318 508.31597,276.92992 508.38281,237.65623 Z M 782.9375,359.00584 V 958.45698 L 783,958.47268 V 1001 L 904,1033 1061,1073 V 393.99998 C 1060.9793,394.01328 1060.9582,394.02574 1060.9375,394.03904 V 359.00584 Z"
       id="path4497-3-3" />
  </g>
</svg>
