<?xml version="1.0" encoding="UTF-8" standalone="no"?>
<svg
   version="1.1"
   viewBox="0 -240 1200 1200"
   id="svg6"
   sodipodi:docname="model-plus.svg"
   inkscape:version="1.1 (c68e22c387, 2021-05-23)"
   xmlns:inkscape="http://www.inkscape.org/namespaces/inkscape"
   xmlns:sodipodi="http://sodipodi.sourceforge.net/DTD/sodipodi-0.dtd"
   xmlns="http://www.w3.org/2000/svg"
   xmlns:svg="http://www.w3.org/2000/svg"
   xmlns:rdf="http://www.w3.org/1999/02/22-rdf-syntax-ns#"
   xmlns:cc="http://creativecommons.org/ns#"
   xmlns:dc="http://purl.org/dc/elements/1.1/">
  <metadata
     id="metadata12">
    <rdf:RDF>
      <cc:Work
         rdf:about="">
        <dc:format>image/svg+xml</dc:format>
        <dc:type
           rdf:resource="http://purl.org/dc/dcmitype/StillImage" />
      </cc:Work>
    </rdf:RDF>
  </metadata>
  <defs
     id="defs10">
    <inkscape:perspective
       sodipodi:type="inkscape:persp3d"
       inkscape:vp_x="0 : 600 : 1"
       inkscape:vp_y="0 : 1000 : 0"
       inkscape:vp_z="1200 : 600 : 1"
       inkscape:persp3d-origin="600 : 400 : 1"
       id="perspective1649" />
  </defs>
  <sodipodi:namedview
     pagecolor="#ffffff"
     bordercolor="#666666"
     borderopacity="1"
     objecttolerance="10"
     gridtolerance="10"
     guidetolerance="10"
     inkscape:pageopacity="0"
     inkscape:pageshadow="2"
     inkscape:window-width="1920"
     inkscape:window-height="1017"
     id="namedview8"
     showgrid="false"
     inkscape:zoom="0.27812867"
     inkscape:cx="965.38052"
     inkscape:cy="1094.817"
     inkscape:window-x="3832"
     inkscape:window-y="-8"
     inkscape:window-maximized="1"
     inkscape:current-layer="layer2"
     showguides="false"
     inkscape:pagecheckerboard="0" />
  <g
     inkscape:groupmode="layer"
     id="layer2"
     inkscape:label="glyph">
    <path
       id="path823"
       d="M 950 120 C 938.66667 120 928.83333 124 920.5 132 C 912.16667 140 908 149.33333 908 160 L 908 330 L 741 330 C 729.66666 330 720 333.66667 712 341 C 704 348.33333 700 357.83333 700 369.5 C 700 381.16667 704 391 712 399 C 720 407 729.66666 411 741 411 L 908 411 L 908 580 C 908 591.33333 912.16667 600.83333 920.5 608.5 C 928.83333 616.16667 938.66667 620 950 620 C 961.33333 620 971 616.16667 979 608.5 C 987 600.83333 991 591.33333 991 580 L 991 411 L 1160 411 C 1170.6667 411 1180 407 1188 399 C 1196 391 1200 381.16667 1200 369.5 C 1200 357.83333 1196 348.33333 1188 341 C 1180 333.66667 1170.6667 330 1160 330 L 991 330 L 991 160 C 991 149.33333 987 140 979 132 C 971 124 961.33333 120 950 120 z M 238.70898 520 L 0 758.70898 L 497.65039 758.70898 L 736.35938 520 L 238.70898 520 z M 800 583.64062 L 561.29102 822.34961 L 561.29102 1320 L 800 1081.291 L 800 583.64062 z M 0 852.32227 L 0 1320 L 467.67773 1320 L 467.67773 852.32227 L 0 852.32227 z "
       transform="translate(0,-240)" />
  </g>
</svg>
