<?xml version="1.0" standalone="no"?>
<!DOCTYPE svg PUBLIC "-//W3C//DTD SVG 1.1//EN" "http://www.w3.org/Graphics/SVG/1.1/DTD/svg11.dtd" >
<svg xmlns="http://www.w3.org/2000/svg" xmlns:xlink="http://www.w3.org/1999/xlink" version="1.1" viewBox="0 -240 1200 1200">
  <g transform="matrix(1 0 0 -1 0 960)">
   <path fill="currentColor"
d="M689 396q-35 -39 -89 -39t-91 36.5t-37 91.5t37 91t91 36t91 -36t37 -91t-39 -89zM689 821q-35 -41 -89 -41t-91 37t-37 91.5t37 93.5t91 39t91 -39t37 -93.5t-39 -87.5zM689 -34q-35 -36 -89 -36t-91 38t-37 93t37 91.5t91 36.5t91 -36.5t37 -91.5t-39 -95z" />
  </g>

</svg>
