<?xml version="1.0" standalone="no"?>
<!DOCTYPE svg PUBLIC "-//W3C//DTD SVG 1.1//EN" "http://www.w3.org/Graphics/SVG/1.1/DTD/svg11.dtd" >
<svg xmlns="http://www.w3.org/2000/svg" xmlns:xlink="http://www.w3.org/1999/xlink" version="1.1" viewBox="0 -240 1200 1200">
  <g transform="matrix(1 0 0 -1 0 960)">
   <path fill="currentColor"
d="M810 90q-17 -19 -53 -19q-29 0 -50 23q-49 51 6 101l117 107h-374v175h374l-117 109q-55 49 -6 102q48 56 103 5l339 -303zM903 732v99q0 45 -31 76t-71 31h-92v-158h-420v158h-92q-40 0 -69.5 -31t-29.5 -76v-816q0 -44 29.5 -76t69.5 -32h604q40 0 71 32t31 76h45
q0 -61 -44 -104.5t-103 -43.5h-604q-60 0 -103.5 43.5t-43.5 104.5v816q0 61 43.5 104t103.5 43h166q8 54 46.5 86.5t89 32.5t89.5 -32.5t47 -86.5h166q59 0 103 -43t44 -104v-99h-45zM570 978q-21 55 -71.5 55t-71.5 -55h143z" />
  </g>

</svg>
