<?xml version="1.0" standalone="no"?>
<!DOCTYPE svg PUBLIC "-//W3C//DTD SVG 1.1//EN" "http://www.w3.org/Graphics/SVG/1.1/DTD/svg11.dtd" >
<svg xmlns="http://www.w3.org/2000/svg" xmlns:xlink="http://www.w3.org/1999/xlink" version="1.1" viewBox="0 -240 1200 1200">
  <g transform="matrix(1 0 0 -1 0 960)">
   <path fill="currentColor"
d="M0 805l275 275l634 -635l291 -565l-554 283zM679 253l14 -13l232 -118q4 9 13 18q12 10 19 15l-117 231l-16 17q-12 -5 -23.5 -12t-20 -18t-12.5 -25.5t-1 -34.5q-19 2 -33 -3t-24.5 -13.5t-18 -20t-12.5 -23.5zM180 899l522 -521q5 15 15 29q8 12 22 23.5t35 18.5
l-521 521z" />
  </g>

</svg>
