<?xml version="1.0" standalone="no"?>
<!DOCTYPE svg PUBLIC "-//W3C//DTD SVG 1.1//EN" "http://www.w3.org/Graphics/SVG/1.1/DTD/svg11.dtd" >
<svg xmlns="http://www.w3.org/2000/svg" xmlns:xlink="http://www.w3.org/1999/xlink" version="1.1" viewBox="0 -240 1200 1200">
  <g transform="matrix(1 0 0 -1 0 960)">
   <path fill="currentColor"
d="M72 671q0 119 85 204t204.5 85t204.5 -85t85 -204q0 -248 -290 -671q-289 423 -289 671zM435 561q32 29 32 72.5t-30.5 74.5t-73.5 31t-74 -31t-31 -74.5t31 -74t74 -30.5t72 32zM773 949q-12 12 -11.5 29t12.5 29t28.5 12t28.5 -12l118 -119l120 120q12 12 29 11.5
t29 -12.5t12 -29t-12 -29l-119 -119l119 -120q11 -11 11.5 -27.5t-11.5 -29t-29 -12t-28 11.5l-120 119l-119 -119q-12 -13 -29 -12.5t-29 13t-12.5 29t11.5 29.5l120 119z" />
  </g>

</svg>
