<?xml version="1.0" standalone="no"?>
<!DOCTYPE svg PUBLIC "-//W3C//DTD SVG 1.1//EN" "http://www.w3.org/Graphics/SVG/1.1/DTD/svg11.dtd" >
<svg xmlns="http://www.w3.org/2000/svg" xmlns:xlink="http://www.w3.org/1999/xlink" version="1.1" viewBox="0 -240 1200 1200">
  <g transform="matrix(1 0 0 -1 0 960)">
   <path fill="currentColor"
d="M599.5 1080q149.5 0 256 -106.5t106.5 -254.5q0 -311 -363 -839q-361 528 -361 839q0 148 106 254.5t255.5 106.5zM598 1011q-93 0 -172 -58.5t-105 -146.5q-25 -82 -1 -199q30 -151 142 -368q53 -101 138 -232q185 284 257 510q47 150 29 260q-16 84 -80.5 148
t-149.5 80q-29 6 -58 6zM603 874q70 0 126.5 -47.5t69.5 -115.5q12 -60 -15 -119t-79 -91q-38 -24 -83.5 -29t-87.5 10q-27 10 -51 27t-42 40t-28 50q-19 49 -10.5 104.5t43.5 95.5q28 35 68.5 55t84.5 20h4zM601 804q-54 0 -92.5 -39t-38.5 -93.5t38.5 -92.5t92.5 -38
t91 40q40 36 40 90.5t-38.5 93.5t-92.5 39z" />
  </g>

</svg>
