<?xml version="1.0" standalone="no"?>
<!DOCTYPE svg PUBLIC "-//W3C//DTD SVG 1.1//EN" "http://www.w3.org/Graphics/SVG/1.1/DTD/svg11.dtd" >
<svg xmlns="http://www.w3.org/2000/svg" xmlns:xlink="http://www.w3.org/1999/xlink" version="1.1" viewBox="0 -240 1200 1200">
  <g transform="matrix(1 0 0 -1 0 960)">
   <path fill="currentColor"
d="M150 1080h3h1v0h4q29 -2 55.5 -14t45.5 -32t30 -47t11 -57q0 -10 -2 -21v-2v-1q-4 -26 -17 -50l695 -695q35 19 74 19q62 0 106 -44t44 -106t-44 -106t-106 -44q-66 0 -110 48q-2 3 -5 6q-2 3 -5 6q-2 3 -4 5l-4 8q-2 2 -3 5q-3 4 -5 8q-1 3 -2 5q-2 5 -3 10q-9 24 -9 49
t8 49q3 6 6 13l-680 679l51 -191l3 -11l65 -240q39 -1 73 -20q54 -32 70 -92t-15 -113.5t-91 -69.5t-114 15q-56 33 -71 97q-1 3 -1 6q-1 5 -1 9q-1 3 -1 6q0 5 -1 9v6q1 5 1 9v6l2 10q5 25 17 47q13 21 32 38q5 4 11 8l-69 256l-60 225q-11 1 -21 4q-21 5 -39 15
q-21 12 -37 30q0 1 -1 1.5t-2 2.5q-1 1 -2 3q-1 0 -2 2q-8 11 -14.5 23.5t-10.5 26.5v0q-5 18 -6 37v4v0v4v8q1 1 1 3v4v1q1 1 1 3v1v2v1l1 1v2v1q1 2 1 3v1q0 1 1 2v1q0 2 1 3v1q0 1 1 3q5 16 13 30q23 40 65 60l1 1h0.5h1.5q24 12 51 14h1h3h1h2.5h2.5h1zM149 1005h-1h-3
h-1h-3q-2 -1 -3 -1h-1q-3 0 -7 -1q-1 -1 -3 -1.5t-3 -0.5l-1 -1h-1l-1 -1q-2 0 -4 -1q-12 -6 -21.5 -16.5t-15 -23.5t-5.5 -28q0 -31 22 -53t53 -22h8q1 0 3 1h1h1.5h2.5v1q33 7 49 35q16 27 8 57.5t-35 45.5q-15 9 -32 10h-1h-3h-3zM350 254q-9 0 -18 -3q-30 -8 -46 -35
t-7.5 -57t35.5 -45.5t57 -7.5t45.5 35t7.5 57t-35 46q-18 10 -39 10zM1050 105q-31 0 -53 -22t-22 -53t22 -53t53 -22t53 22t22 53q0 15 -6 29t-16 24t-24 16t-29 6zM1176 994q24 0 24 -24.5t-24 -24.5h-453q-23 0 -23 24.5t23 24.5h67v25q0 25 14.5 43t33.5 18h223
q21 0 35 -18t14 -43v-25h66zM814 994h272v25q0 36 -25 36h-223q-24 0 -24 -36v-25zM1164 882l-62 -464h-306l-61 464h429zM863 452q18 4 18 23l-38 356q-5 22 -23 19q-18 0 -18 -21l39 -359q0 -18 19 -18h3zM970 831q0 19 -20.5 19t-20.5 -19v-359q0 -20 20.5 -20t20.5 20
v359zM1097 829q0 21 -17 21q-19 3 -22 -19l-39 -356q0 -19 18 -23h1q21 0 21 18z" />
  </g>

</svg>
