<?xml version="1.0" standalone="no"?>
<!DOCTYPE svg PUBLIC "-//W3C//DTD SVG 1.1//EN" "http://www.w3.org/Graphics/SVG/1.1/DTD/svg11.dtd" >
<svg xmlns="http://www.w3.org/2000/svg" xmlns:xlink="http://www.w3.org/1999/xlink" version="1.1" viewBox="0 -240 1200 1200">
  <g transform="matrix(1 0 0 -1 0 960)">
   <path fill="currentColor"
d="M150 1080q62 0 106 -44t44 -106q0 -39 -20 -74l696 -695q35 19 74 19q62 0 106 -44t44 -106t-44 -106t-106 -44q-30 0 -59.5 14t-51.5 37.5t-32 52.5h-615q-14 -43 -55.5 -73.5t-86.5 -30.5q-62 0 -106 44t-44 106q0 45 30.5 87t73.5 56v615q-43 14 -73.5 55.5
t-30.5 86.5q0 62 44 106t106 44zM150 1005q-31 0 -53 -22t-22 -53t22 -53t53 -22q20 0 37.5 10t27.5 27.5t10 37.5q0 31 -22 53t-53 22zM212 794q-8 -4 -16 -7v-615q30 -9 58.5 -37.5t38.5 -58.5h615q2 8 6 16zM150 105q-31 0 -53 -22t-22 -53t22 -53t53 -22q20 0 37.5 10
t27.5 27.5t10 37.5q0 31 -22 53t-53 22zM1050 105q-31 0 -53 -22t-22 -53t22 -53t53 -22t53 22t22 53q0 20 -10 37.5t-27.5 27.5t-37.5 10zM1176 994q24 0 24 -24.5t-24 -24.5h-453q-23 0 -23 24.5t23 24.5h67v25q0 25 14.5 43t33.5 18h223q21 0 35 -18t14 -43v-25h66z
M814 994h272v25q0 36 -25 36h-223q-24 0 -24 -36v-25zM1164 882l-62 -464h-306l-61 464h429zM863 452q18 4 18 23l-38 356q-5 22 -23 19q-18 0 -18 -21l39 -359q0 -18 19 -18h3zM970 831q0 19 -20.5 19t-20.5 -19v-359q0 -20 20.5 -20t20.5 20v359zM1097 829q0 21 -17 21
q-19 3 -22 -19l-39 -356q0 -19 18 -23h1q21 0 21 18z" />
  </g>

</svg>
