<?xml version="1.0" standalone="no"?>
<!DOCTYPE svg PUBLIC "-//W3C//DTD SVG 1.1//EN" "http://www.w3.org/Graphics/SVG/1.1/DTD/svg11.dtd" >
<svg xmlns="http://www.w3.org/2000/svg" xmlns:xlink="http://www.w3.org/1999/xlink" version="1.1" viewBox="0 -240 1200 1200">
  <g transform="matrix(1 0 0 -1 0 960)">
   <path fill="currentColor"
d="M150 1080h3h1v0h4q59 -3 100.5 -46.5t41.5 -103.5q0 -10 -2 -21v-2v-1q-4 -26 -17 -50l100 -100l-66 -66l-81 81l17 -61l-90 -24l-26 95q-10 1 -20 3v0q-21 5 -40 16q-21 12 -37 30q0 1 -1 2q-2 2 -4 5q-4 4 -7 9q-1 2 -2 3q-2 3 -3 5q-3 4 -4 8q-1 0 -1 0.5v0.5
q0 1 -1 1q-3 7 -6 15v1q-1 1 -1 2l-2 6v1q-5 16 -6 33v4v4v0v4v8q1 1 1 3v1v3v1q1 1 1 3v1v2l1 2v2v1q1 2 1 3v1q0 1 1 2v1q0 2 1 3v1q0 1 1 3q5 16 13 30q23 40 65 60l1 0.5l2 0.5q24 12 51 14h1h3h1h2.5h2.5h1zM149 1005h-1h-3h-1h-3q-2 -1 -3 -1h-1q-3 0 -7 -1
q-1 -1 -3 -1.5t-3 -0.5l-1 -1h-1l-1 -1q-2 0 -4 -1q-12 -6 -21.5 -16.5t-15 -23.5t-5.5 -28q0 -31 22 -53t53 -22h8q1 0 3 1h1h1.5h2.5v1q33 7 49 35q16 27 8 57.5t-35 45.5q-15 9 -32 10h-1h-3h-3zM452 685l70 -70l-65 -66l-71 71zM276 613l9 -33l3 -11l14 -53l-89 -24
l-18 64l-8 33zM593 544l71 -71l-66 -66l-71 71zM328 420l25 -91q39 -1 73 -20q54 -32 70 -92t-15 -113.5t-91 -69.5t-114 15q-56 33 -71 97q-1 3 -1 6q-1 5 -1 9q-1 3 -1 6q0 5 -1 9v6q1 5 1 9v6l2 10q5 25 17 47q13 21 32 38q5 4 11 8l-26 96zM735 402l70 -70l-65 -66
l-71 71zM876 261l100 -100q35 19 74 19q62 0 106 -44t44 -106t-44 -106t-106 -44q-52 0 -93 32q-6 5 -11 10q0 1 -1 1q-5 5 -9 10l-2 2q-4 5 -7 10q-2 2 -3 4q-3 4 -5 8q-2 3 -3.5 6.5t-2.5 6.5q-2 5 -4 9q-9 25 -9 51q0 25 8 49q3 7 6 13l-104 103zM350 254q-9 0 -18 -3
q-30 -8 -46 -35t-7.5 -57t35.5 -45.5t57 -7.5t45.5 35t7.5 57t-35 46q-18 10 -39 10zM1050 105q-31 0 -53 -22t-22 -53t22 -53t53 -22t53 22t22 53t-22 53t-53 22z" />
  </g>

</svg>
