<?xml version="1.0" encoding="UTF-8" standalone="no"?>
<svg
   version="1.1"
   viewBox="0 -240 1200 1200"
   id="svg6"
   sodipodi:docname="polyline-3d.svg"
   inkscape:version="1.1 (c68e22c387, 2021-05-23)"
   xmlns:inkscape="http://www.inkscape.org/namespaces/inkscape"
   xmlns:sodipodi="http://sodipodi.sourceforge.net/DTD/sodipodi-0.dtd"
   xmlns="http://www.w3.org/2000/svg"
   xmlns:svg="http://www.w3.org/2000/svg"
   xmlns:rdf="http://www.w3.org/1999/02/22-rdf-syntax-ns#"
   xmlns:cc="http://creativecommons.org/ns#"
   xmlns:dc="http://purl.org/dc/elements/1.1/">
  <metadata
     id="metadata12">
    <rdf:RDF>
      <cc:Work
         rdf:about="">
        <dc:format>image/svg+xml</dc:format>
        <dc:type
           rdf:resource="http://purl.org/dc/dcmitype/StillImage" />
      </cc:Work>
    </rdf:RDF>
  </metadata>
  <defs
     id="defs10" />
  <sodipodi:namedview
     pagecolor="#ffffff"
     bordercolor="#666666"
     borderopacity="1"
     objecttolerance="10"
     gridtolerance="10"
     guidetolerance="10"
     inkscape:pageopacity="0"
     inkscape:pageshadow="2"
     inkscape:window-width="1920"
     inkscape:window-height="1017"
     id="namedview8"
     showgrid="false"
     inkscape:zoom="0.39333334"
     inkscape:cx="1379.2373"
     inkscape:cy="860.59321"
     inkscape:window-x="1912"
     inkscape:window-y="-8"
     inkscape:window-maximized="1"
     inkscape:current-layer="layer2"
     showguides="false"
     inkscape:pagecheckerboard="0" />
  <g
     inkscape:groupmode="layer"
     id="layer2"
     inkscape:label="glyph">
    <path
       fill="currentColor"
       d="m 716.49996,-120 q 50.5,0 81.5,32.499999 25.49999,26.499998 25.49999,59.999997 0,47.499998 -51.99999,75.499992 30.99999,7 49.5,29.999998 18.5,23.000004 18.5,55.499994 0,47.5 -34.75001,80.99999 -34.74999,33.5 -86.24998,33.5 -49,0 -81,-27.99999 -32.5,-28.5 -37.5,-73.49999 l 67,-8.50001 q 3,25.5 16.99999,39.25 14,13.75 34,13.75 21.50001,0 36,-16.5 14.5,-15.99999 14.5,-43.49999 0,-26.5 -13.99999,-41.750005 -14.00001,-15.250002 -34.00001,-15.250002 -13.5,0 -31.5,5.500003 l 7.5,-56.499992 q 28.00001,0.999999 42.5,-12 15,-12.9999997 15,-34.499998 0,-17.999999 -10.74999,-28.999999 -10.75002,-10.999999 -28.75001,-10.999999 -18,0 -30.5,12.499999 -12.49999,12.5 -14.99999,35.999998 l -64,-10.999999 q 7,-32.499999 20,-51.999998 13.5,-19.499999 37.5,-30.499998 23.99999,-11.5 53.99999,-11.5 z m 181.49999,1.5 H 1031 q 44.9999,0 68.4999,7 31.5,9 54.2501,32.999998 22.7499,23.999999 34.2499,58.499997 Q 1200,14.499994 1200,64.999988 q 0,44.500002 -11,77.000002 -13.5,38.99999 -38.5001,63.49999 -19,18.50001 -51.4999,29.00001 -24,7.49998 -64,7.49998 H 897.99995 Z m 72.49993,60.999997 V 180.99998 h 54.50002 q 30.5001,0 44.0001,-3.5 17.4999,-4 28.9999,-15 12,-10.5 19.5,-34.5 7.5,-24.49999 7.5,-66.249993 0,-41.749993 -7.5,-63.9999921 -7.5,-22.2499989 -20.7499,-34.7499989 -13.2501,-12.499999 -33.75,-16.999999 -15,-3.5 -59.5,-3.5 z"
       id="path835"
       style="stroke-width:0.5" />
    <path
       fill="currentColor"
       d="m 124.99999,79.99997 h 2.5 0.8333 v 0 h 3.3334 q 24.1666,1.66667 46.25,11.66667 22.0833,10 37.9166,26.66666 15.8334,16.66667 25,39.16667 9.1667,22.5 9.1667,47.5 0,8.33333 -1.6667,17.5 v 1.66667 0.83333 q -3.3333,21.66667 -14.1666,41.66667 L 813.33329,845.8333 Q 842.49999,830 874.99999,830 q 51.6667,0 88.3333,36.6667 36.6667,36.6666 36.6667,88.3333 0,51.6667 -36.6667,88.3333 -36.6666,36.6667 -88.3333,36.6667 -55,0 -91.6667,-40 -1.6666,-2.5 -4.1666,-5 -1.6667,-2.5 -4.1667,-5 -1.6667,-2.5 -3.3333,-4.1667 l -3.3334,-6.6666 q -1.6666,-1.6667 -2.5,-4.1667 -2.5,-3.3333 -4.1666,-6.6667 -0.8334,-2.5 -1.6667,-4.1666 -1.6667,-4.1667 -2.5,-8.3334 -7.5,-20 -7.5,-40.8333 0,-20.8333 6.6667,-40.8333 2.5,-5 5,-10.8334 l -566.6667,-565.83333 42.5,159.16667 2.5,9.16666 54.1667,200.00003 q 32.5,0.83333 60.8333,16.66667 45,26.66666 58.3333,76.6667 13.3334,50 -12.5,94.5833 -25.8333,44.5833 -75.8333,57.9167 -50,13.3333 -95,-12.5 -46.6667,-27.5 -59.1667,-80.8334 -0.8333,-2.5 -0.8333,-5 -0.8333,-4.1666 -0.8333,-7.5 -0.8334,-2.5 -0.8334,-5 0,-4.1666 -0.8333,-7.5 v -5 q 0.8333,-4.1666 0.8333,-7.5 v -5 l 1.6667,-8.3333 q 4.1667,-20.8333 14.1667,-39.16667 10.8333,-17.5 26.6666,-31.66667 4.1667,-3.33333 9.1667,-6.66666 l -57.5,-213.33336 -50,-187.5 q -9.1667,-0.83334 -17.499996,-3.33334 -17.5,-4.16666 -32.5,-12.5 -17.5,-10 -30.8333,-25 0,-0.83333 -0.8334,-1.25 -0.8333,-0.41666 -1.6666,-2.08333 -0.8334,-0.83333 -1.6667,-2.5 -0.8333,0 -1.6667,-1.66667 -6.6666,-9.16666 -12.0833,-19.58333 Q 8.3332937,250.8333 4.9999937,239.16664 v 0 q -4.16669995,-15 -4.9999999500003,-30.83334 v -3.33333 0 -3.33333 -6.66667 Q 0.83329375,194.16664 0.83329375,192.49997 v -3.33333 -0.83334 q 0.83339995,-0.83333 0.83339995,-2.5 v -0.83333 -1.66667 -0.83333 l 0.8333,-0.83333 v -1.66667 -0.83333 q 0.8333,-1.66667 0.8333,-2.5 v -0.83334 q 0,-0.83333 0.8334,-1.66666 v -0.83334 q 0,-1.66666 0.8333,-2.5 v -0.83333 q 0,-0.83333 0.8333,-2.5 4.1667,-13.33333 10.8334003,-25 19.1666,-33.33333 54.1666,-50 l 0.8334,-0.83333 h 0.4166 1.25 q 20,-10 42.499996,-11.66667 h 0.8334 2.5 0.8333 2.0833 2.0834 z m -0.8333,62.5 h -0.8334 -2.5 -0.8333 -2.5 q -1.6667,0.83333 -2.5,0.83333 h -0.8333 q -2.5,0 -5.8334,0.83334 -0.8333,0.83333 -2.5,1.25 -1.6666,0.41666 -2.5,0.41666 l -0.8333,0.83334 h -0.8333 l -0.8334,0.83333 q -1.666596,0 -3.333296,0.83333 -10,5 -17.9167,13.75 -7.9166,8.75 -12.5,19.58334 -4.5833,10.83333 -4.5833,23.33333 0,25.83333 18.3333,44.16667 18.3334,18.33333 44.166696,18.33333 h 6.6667 q 0.8333,0 2.5,-0.83333 h 0.8333 1.25 2.0833 v -0.83334 q 27.5,-5.83333 40.8334,-29.16666 13.3333,-22.5 6.6666,-47.91667 -6.6666,-25.41667 -29.1666,-37.91667 -12.5,-7.5 -26.6667,-8.33333 h -0.8333 -2.5 z m 167.5,625.83336 q -7.5,0 -15,2.5 -25,6.66667 -38.3334,29.16667 -13.3333,22.5 -6.25,47.5 7.0834,25 29.5834,37.9167 22.5,12.9166 47.5,6.25 25,-6.6667 37.9166,-29.1667 12.9167,-22.5 6.25,-47.5 -6.6666,-25 -29.1666,-38.33334 -15,-8.33333 -32.5,-8.33333 z M 874.99999,892.5 q -25.8333,0 -44.1667,18.3333 -18.3333,18.3334 -18.3333,44.1667 0,25.8333 18.3333,44.1667 18.3334,18.3333 44.1667,18.3333 25.8333,0 44.1667,-18.3333 18.3333,-18.3334 18.3333,-44.1667 0,-12.5 -5,-24.1667 -5,-11.6666 -13.3333,-20 -8.3334,-8.3333 -20,-13.3333 -11.6667,-5 -24.1667,-5 z"
       id="path1531"
       style="stroke-width:0.833333" />
  </g>
</svg>
