<?xml version="1.0" encoding="UTF-8" standalone="no"?>
<svg
   version="1.1"
   viewBox="0 -240 1200 1200"
   id="svg6"
   sodipodi:docname="polygon-3d.svg"
   inkscape:version="1.1 (c68e22c387, 2021-05-23)"
   xmlns:inkscape="http://www.inkscape.org/namespaces/inkscape"
   xmlns:sodipodi="http://sodipodi.sourceforge.net/DTD/sodipodi-0.dtd"
   xmlns="http://www.w3.org/2000/svg"
   xmlns:svg="http://www.w3.org/2000/svg"
   xmlns:rdf="http://www.w3.org/1999/02/22-rdf-syntax-ns#"
   xmlns:cc="http://creativecommons.org/ns#"
   xmlns:dc="http://purl.org/dc/elements/1.1/">
  <metadata
     id="metadata12">
    <rdf:RDF>
      <cc:Work
         rdf:about="">
        <dc:format>image/svg+xml</dc:format>
        <dc:type
           rdf:resource="http://purl.org/dc/dcmitype/StillImage" />
      </cc:Work>
    </rdf:RDF>
  </metadata>
  <defs
     id="defs10" />
  <sodipodi:namedview
     pagecolor="#ffffff"
     bordercolor="#666666"
     borderopacity="1"
     objecttolerance="10"
     gridtolerance="10"
     guidetolerance="10"
     inkscape:pageopacity="0"
     inkscape:pageshadow="2"
     inkscape:window-width="1920"
     inkscape:window-height="1017"
     id="namedview8"
     showgrid="false"
     inkscape:zoom="0.39333334"
     inkscape:cx="1379.2373"
     inkscape:cy="860.59321"
     inkscape:window-x="1912"
     inkscape:window-y="-8"
     inkscape:window-maximized="1"
     inkscape:current-layer="layer2"
     showguides="false"
     inkscape:pagecheckerboard="0" />
  <g
     inkscape:groupmode="layer"
     id="layer2"
     inkscape:label="glyph">
    <path
       fill="currentColor"
       d="m 716.49996,-120 q 50.5,0 81.5,32.499999 25.49999,26.499998 25.49999,59.999997 0,47.499998 -51.99999,75.499992 30.99999,7 49.5,29.999998 18.5,23.000004 18.5,55.499994 0,47.5 -34.75001,80.99999 -34.74999,33.5 -86.24998,33.5 -49,0 -81,-27.99999 -32.5,-28.5 -37.5,-73.49999 l 67,-8.50001 q 3,25.5 16.99999,39.25 14,13.75 34,13.75 21.50001,0 36,-16.5 14.5,-15.99999 14.5,-43.49999 0,-26.5 -13.99999,-41.750005 -14.00001,-15.250002 -34.00001,-15.250002 -13.5,0 -31.5,5.500003 l 7.5,-56.499992 q 28.00001,0.999999 42.5,-12 15,-12.9999997 15,-34.499998 0,-17.999999 -10.74999,-28.999999 -10.75002,-10.999999 -28.75001,-10.999999 -18,0 -30.5,12.499999 -12.49999,12.5 -14.99999,35.999998 l -64,-10.999999 q 7,-32.499999 20,-51.999998 13.5,-19.499999 37.5,-30.499998 23.99999,-11.5 53.99999,-11.5 z m 181.49999,1.5 H 1031 q 44.9999,0 68.4999,7 31.5,9 54.2501,32.999998 22.7499,23.999999 34.2499,58.499997 Q 1200,14.499994 1200,64.999988 q 0,44.500002 -11,77.000002 -13.5,38.99999 -38.5001,63.49999 -19,18.50001 -51.4999,29.00001 -24,7.49998 -64,7.49998 H 897.99995 Z m 72.49993,60.999997 V 180.99998 h 54.50002 q 30.5001,0 44.0001,-3.5 17.4999,-4 28.9999,-15 12,-10.5 19.5,-34.5 7.5,-24.49999 7.5,-66.249993 0,-41.749993 -7.5,-63.9999921 -7.5,-22.2499989 -20.7499,-34.7499989 -13.2501,-12.499999 -33.75,-16.999999 -15,-3.5 -59.5,-3.5 z"
       id="path835"
       style="stroke-width:0.5" />
    <path
       fill="currentColor"
       d="m 124.99999,79.99998 q 51.6667,0 88.3333,36.66667 36.6667,36.66666 36.6667,88.33333 0,32.5 -16.6667,61.66667 l 580,579.16666 q 29.1667,-15.83334 61.6667,-15.83334 51.6667,0 88.3333,36.66667 36.6667,36.66666 36.6667,88.33336 0,51.6667 -36.6667,88.3333 -36.6666,36.6667 -88.3333,36.6667 -25,0 -49.5833,-11.6667 -24.5834,-11.6666 -42.9167,-31.25 -18.3333,-19.5833 -26.6667,-43.75 h -512.5 q -11.6666,35.8334 -46.25,61.25 Q 162.49999,1080 124.99999,1080 73.333294,1080 36.666694,1043.3333 -6.2500003e-6,1006.6667 -6.2500003e-6,955 q 0,-37.5 25.4167002500003,-72.5 25.4166,-35.00003 61.25,-46.66669 v -512.5 q -35.8334,-11.66666 -61.25,-46.25 Q -6.2500003e-6,242.49998 -6.2500003e-6,204.99998 q 0,-51.66667 36.6667002500003,-88.33333 36.6666,-36.66667 88.333296,-36.66667 z m 0,62.5 q -25.833296,0 -44.166696,18.33333 -18.3333,18.33334 -18.3333,44.16667 0,25.83333 18.3333,44.16667 18.3334,18.33333 44.166696,18.33333 16.6667,0 31.25,-8.33333 14.5833,-8.33334 22.9167,-22.91667 8.3333,-14.58333 8.3333,-31.25 0,-25.83333 -18.3333,-44.16667 -18.3334,-18.33333 -44.1667,-18.33333 z m 51.6667,175.83333 q -6.6667,3.33334 -13.3334,5.83334 v 512.49999 q 25,7.5 48.75,31.25 23.75,23.75006 32.0834,48.75006 h 512.5 q 1.6666,-6.6667 5,-13.3334 z M 124.99999,892.5 q -25.833296,0 -44.166696,18.3333 -18.3333,18.3334 -18.3333,44.1667 0,25.8333 18.3333,44.1667 18.3334,18.3333 44.166696,18.3333 16.6667,0 31.25,-8.3333 14.5833,-8.3334 22.9167,-22.9167 8.3333,-14.5833 8.3333,-31.25 0,-25.8333 -18.3333,-44.1667 Q 150.83329,892.5 124.99999,892.5 Z m 750,0 q -25.8333,0 -44.1667,18.3333 -18.3333,18.3334 -18.3333,44.1667 0,25.8333 18.3333,44.1667 18.3334,18.3333 44.1667,18.3333 25.8333,0 44.1667,-18.3333 18.3333,-18.3334 18.3333,-44.1667 0,-16.6667 -8.3333,-31.25 -8.3334,-14.5833 -22.9167,-22.9167 -14.5833,-8.3333 -31.25,-8.3333 z"
       id="path1250"
       style="stroke-width:0.833333" />
  </g>
</svg>
