<?xml version="1.0" standalone="no"?>
<!DOCTYPE svg PUBLIC "-//W3C//DTD SVG 1.1//EN" "http://www.w3.org/Graphics/SVG/1.1/DTD/svg11.dtd" >
<svg xmlns="http://www.w3.org/2000/svg" xmlns:xlink="http://www.w3.org/1999/xlink" version="1.1" viewBox="0 -240 1200 1200">
  <g transform="matrix(1 0 0 -1 0 960)">
   <path fill="currentColor"
d="M150 1080q62 0 106 -44t44 -106q0 -39 -20 -74l101 -100l-66 -66l-103 104q-8 -4 -16 -7v-7h-92v8q-43 14 -73.5 55.5t-30.5 86.5q0 62 44 106t106 44v0zM150 1005q-31 0 -53 -22t-22 -53t22 -53t53 -22q20 0 37.5 10t27.5 27.5t10 37.5q0 31 -22 53t-53 22zM104 730h92
v-100h-92v100zM452 685l70 -70l-65 -66l-71 71zM593 544l71 -71l-66 -66l-71 71zM104 530h92v-100h-92v100zM735 402l70 -70l-65 -66l-71 71zM104 330h92v-100h-92v100zM876 261l100 -100q35 19 74 19q62 0 106 -44t44 -106t-44 -106t-106 -44q-30 0 -59.5 14t-51.5 37.5
t-32 52.5h-7v92h8q2 8 6 16l-104 103zM104 180h92v-8q30 -9 58.5 -37.5t38.5 -58.5h7v-92h-8q-14 -43 -55.5 -73.5t-86.5 -30.5q-62 0 -106 44t-44 106q0 45 30.5 87t73.5 56v7zM150 105q-31 0 -53 -22t-22 -53t22 -53t53 -22q20 0 37.5 10t27.5 27.5t10 37.5q0 31 -22 53
t-53 22zM1050 105q-31 0 -53 -22t-22 -53t22 -53t53 -22t53 22t22 53q0 20 -10 37.5t-27.5 27.5t-37.5 10zM350 76h100v-92h-100v92zM550 76h100v-92h-100v92zM750 76h100v-92h-100v92z" />
  </g>

</svg>
