<?xml version="1.0" encoding="UTF-8" standalone="no"?>
<svg
   xmlns:dc="http://purl.org/dc/elements/1.1/"
   xmlns:cc="http://creativecommons.org/ns#"
   xmlns:rdf="http://www.w3.org/1999/02/22-rdf-syntax-ns#"
   xmlns:svg="http://www.w3.org/2000/svg"
   xmlns="http://www.w3.org/2000/svg"
   xmlns:sodipodi="http://sodipodi.sourceforge.net/DTD/sodipodi-0.dtd"
   xmlns:inkscape="http://www.inkscape.org/namespaces/inkscape"
   version="1.1"
   viewBox="0 -240 1200 1200"
   id="svg6"
   sodipodi:docname="preview.svg"
   inkscape:version="0.92.1 r15371">
  <metadata
     id="metadata12">
    <rdf:RDF>
      <cc:Work
         rdf:about="">
        <dc:format>image/svg+xml</dc:format>
        <dc:type
           rdf:resource="http://purl.org/dc/dcmitype/StillImage" />
        <dc:title />
      </cc:Work>
    </rdf:RDF>
  </metadata>
  <defs
     id="defs10" />
  <sodipodi:namedview
     pagecolor="#ffffff"
     bordercolor="#666666"
     borderopacity="1"
     objecttolerance="10"
     gridtolerance="10"
     guidetolerance="10"
     inkscape:pageopacity="0"
     inkscape:pageshadow="2"
     inkscape:window-width="1920"
     inkscape:window-height="1017"
     id="namedview8"
     showgrid="false"
     inkscape:zoom="0.39333334"
     inkscape:cx="613.71788"
     inkscape:cy="291.02273"
     inkscape:window-x="-8"
     inkscape:window-y="-8"
     inkscape:window-maximized="1"
     inkscape:current-layer="layer2"
     showguides="true" />
  <g
     inkscape:groupmode="layer"
     id="layer2"
     inkscape:label="glyph">
    <path
       style="fill:currentColor"
       d="M 189.77539 120 C 145.29629 120 104.38994 136.3333 67.056641 169 C 24.390041 206.3333 2.3900406 251 1.0566406 303 L 1.0566406 658.5 L 1.0566406 1014 C -4.2766594 1064 10.556641 1109.8333 45.556641 1151.5 C 80.556641 1193.1667 123.05667 1216 173.05664 1220 L 280.54883 1220.4355 C 249.26281 1192.9186 211.95977 1158.3976 187.93359 1127 C 161.93359 1131 158.72334 1124.5 136.05664 1107.5 C 113.39007 1090.5 100.72334 1069 98.056641 1043 L 98.056641 688 L 98.056641 333 C 94.056641 305.6666 100.22334 279.8333 116.55664 255.5 C 132.89001 231.1666 154.72334 217.6666 182.05664 215 L 390.55664 215 L 599.05664 215 L 599.05664 357 C 596.39004 380.3333 599.39004 402 608.05664 422 C 616.72334 442 631.05664 455.66658 651.05664 463 C 663.05664 466.3333 676.22334 468.3333 690.55664 469 C 704.89004 469.6666 720.89004 469.6666 738.55664 469 C 756.22324 468.3333 769.72334 468.3333 779.05664 469 C 785.05664 469.6666 791.05664 469.6666 797.05664 469 C 803.05664 468.3333 809.05664 468.1666 815.05664 468.5 C 821.05664 468.8333 825.39004 470.3333 828.05664 473 L 828.05664 607.20703 C 861.09154 617.63815 893.22883 631.08353 924.05664 646.78516 L 924.05664 439 L 662.05664 121 L 209.05664 121 C 202.55664 120.3334 196.12959 120 189.77539 120 z M 681.06641 661.12305 C 594.82979 661.12305 508.84556 688.86013 423.11328 744.33398 C 337.38086 799.80782 272.57593 853.76874 228.70117 906.2168 L 161.37695 990.94141 C 168.94155 999.5147 178.52396 1010.9867 190.12305 1025.3594 C 201.72214 1039.7322 226.05457 1065.956 263.12109 1104.0312 C 300.18776 1142.1065 337.7589 1175.8964 375.83398 1205.3984 C 413.90934 1234.9004 460.93601 1261.3738 516.91406 1284.8242 C 572.89226 1308.2743 627.60981 1320 681.06641 1320 C 766.7987 1320 852.65624 1292.3897 938.64062 1237.168 C 1024.6253 1181.9463 1089.555 1128.112 1133.4297 1075.6641 L 1200 990.94141 C 1192.9397 982.36825 1183.6108 970.89224 1172.0117 956.51953 C 1160.4128 942.1467 1136.0784 915.92289 1099.0117 877.84766 C 1061.9452 839.77245 1024.2473 805.98629 985.91992 776.48438 C 947.5924 746.98231 900.81947 720.38024 845.59766 696.67773 C 790.37599 672.97535 735.53158 661.12305 681.06641 661.12305 z M 681.44531 785.93945 C 737.67567 785.93945 785.71049 805.98567 825.55078 846.07812 C 865.3912 886.17058 885.31055 934.45901 885.31055 990.94141 C 885.31055 1047.4239 865.3912 1095.5835 825.55078 1135.4238 C 785.71049 1175.2641 737.67567 1195.1836 681.44531 1195.1836 C 625.21507 1195.1836 576.92666 1175.2641 536.58203 1135.4238 C 496.23754 1095.5835 476.06641 1047.4239 476.06641 990.94141 C 476.06641 934.45901 496.23754 886.17058 536.58203 846.07812 C 576.92666 805.98567 625.21507 785.93945 681.44531 785.93945 z M 681.06641 854.77539 C 643.74757 854.77539 611.72426 868.14083 584.99609 894.86914 C 558.26779 921.59744 544.90234 953.62271 544.90234 990.94141 C 544.90234 1028.2602 558.26779 1060.1567 584.99609 1086.6328 C 611.72426 1113.1089 643.74757 1126.3457 681.06641 1126.3457 C 718.38511 1126.3457 750.28167 1113.1089 776.75781 1086.6328 C 803.23408 1060.1567 816.47461 1028.2602 816.47461 990.94141 C 816.47461 970.26482 812.94322 953.11828 805.88281 939.50195 C 797.30965 973.79487 774.36362 990.94141 737.04492 990.94141 C 718.38556 990.94141 702.24718 984.00522 688.63086 970.13672 C 675.01454 956.26823 668.20703 939.24842 668.20703 919.07617 C 668.20703 893.35642 679.55225 871.92185 702.24609 854.77539 L 681.06641 854.77539 z "
       transform="translate(0,-240)"
       id="path4483-4" />
  </g>
</svg>
