<?xml version="1.0" standalone="no"?>
<!DOCTYPE svg PUBLIC "-//W3C//DTD SVG 1.1//EN" "http://www.w3.org/Graphics/SVG/1.1/DTD/svg11.dtd" >
<svg xmlns="http://www.w3.org/2000/svg" xmlns:xlink="http://www.w3.org/1999/xlink" version="1.1" viewBox="0 -240 1200 1200">
  <g transform="matrix(1 0 0 -1 0 960)">
   <path fill="currentColor"
d="M1005 898q169 -169 169 -405t-169.5 -405t-405 -169t-405 169t-169.5 405t169.5 405.5t405 169.5t405.5 -170zM332 687q0 -26 21 -45q20 -22 51 -22q53 0 71 57q19 64 49 93q27 29 89 29q52 0 83 -29q32 -29 32 -73q0 -26 -8 -44q-9 -22 -29 -33q-26 -25 -51 -48t-60 -59
q-27 -32 -39 -58q-14 -41 -14 -83q0 -39 16 -55q23 -19 50 -19q53 0 68 58q4 30 8 38q0 4 7 20q3 8 19 23q6 11 28 31q68 65 93 86q31 32 47 61q18 37 18 82q0 57 -34 108q-31 48 -93 82q-63 30 -141 30q-81 0 -151 -35q-65 -37 -96 -91q-34 -49 -34 -104zM601 84
q34 0 56 23q24 25 24 58.5t-24.5 59t-55.5 25.5q-35 0 -60 -25q-24 -22 -24 -59q0 -34 24 -59q22 -23 60 -23z" />
  </g>

</svg>
