<?xml version="1.0" standalone="no"?>
<!DOCTYPE svg PUBLIC "-//W3C//DTD SVG 1.1//EN" "http://www.w3.org/Graphics/SVG/1.1/DTD/svg11.dtd" >
<svg xmlns="http://www.w3.org/2000/svg" xmlns:xlink="http://www.w3.org/1999/xlink" version="1.1" viewBox="-66 -240 1200 1200">
  <g transform="matrix(1 0 0 -1 0 960)">
   <path fill="currentColor"
d="M1004 408q19 0 31 -18l232 -203l-232 -206q-31 -33 -65 2q-32 34 0 74l81 73h-223l-193 183l76 85l163 -154h182l-86 78q-32 31 0 68q17 18 34 18zM874 676l-575 -546h-365v114h319l575 546h223l-81 75q-32 39 0 72q13 16 33 16t32 -11l232 -208l-232 -202q-31 -42 -65 0
q-32 36 0 69l86 75h-182zM253 676h-319v114h365l190 -181l-80 -83z" />
  </g>

</svg>
