<?xml version="1.0" standalone="no"?>
<!DOCTYPE svg PUBLIC "-//W3C//DTD SVG 1.1//EN" "http://www.w3.org/Graphics/SVG/1.1/DTD/svg11.dtd" >
<svg xmlns="http://www.w3.org/2000/svg" xmlns:xlink="http://www.w3.org/1999/xlink" version="1.1" viewBox="0 -240 1200 1200">
  <g transform="matrix(1 0 0 -1 0 960)">
   <path fill="currentColor"
d="M1148 46q51 0 51 -52v-61q0 -19 -15 -36t-36 -17h-1094q-19 0 -36 17t-17 36v61q0 52 53 52h1094zM1148 734q51 0 51 -50v-63q0 -47 -51 -47h-1094q-53 0 -53 47v63q0 50 53 50h1094zM1148 1080q21 0 36 -17t15 -35v-62q0 -52 -51 -52h-1094q-53 0 -53 52v62q0 18 17 35
t36 17h1094zM858 401q-10 10 -9.5 23t10 23t22.5 10t23 -10l95 -95l95 96q10 9 23.5 9t23 -9.5t10 -23.5t-9.5 -23l-95 -96l95 -95q9 -9 9.5 -22.5t-9.5 -23t-23.5 -9.5t-22.5 9l-95 95l-96 -95q-9 -10 -22.5 -9.5t-23.5 10t-10 23t9 23.5l96 95z" />
  </g>

</svg>
