<?xml version="1.0" standalone="no"?>
<!DOCTYPE svg PUBLIC "-//W3C//DTD SVG 1.1//EN" "http://www.w3.org/Graphics/SVG/1.1/DTD/svg11.dtd" >
<svg xmlns="http://www.w3.org/2000/svg" xmlns:xlink="http://www.w3.org/1999/xlink" version="1.1" viewBox="-13 -240 1200 1200">
  <g transform="matrix(1 0 0 -1 0 960)">
   <path fill="currentColor"
d="M297 92q-78 -46 -163.5 -30t-124.5 84q-22 40 -22 83q0 38 7 50q41 128 196 174q4 0 54.5 13t112 33t78.5 30l5 5q-5 0 -5 2q-17 11 -78.5 31.5t-112 32.5t-54.5 12q-152 42 -196 175q-7 16 -7 51q0 43 22 83q39 68 124.5 85.5t163.5 -32.5q96 -53 118 -141
q15 -57 -9 -114l182 -102q439 239 446 243q31 21 71 10.5t60.5 -21.5t27.5 -19l20 -20l-480 -276l480 -276l-20 -21q-7 -8 -27.5 -19t-60.5 -23.5t-71 12.5q-7 4 -446 243l-182 -100q24 -59 9 -118q-22 -86 -118 -140zM153 722q50 -26 97 -20t71 40q13 26 7 68
q-18 57 -72 85q-48 29 -96.5 21t-70.5 -41q-10 -15 -10 -37q0 -8 1 -15t1 -13q19 -56 72 -88zM89 194q22 -38 70.5 -44.5t96.5 22.5q54 28 72 86q6 40 -7 66q-24 35 -71 40.5t-97 -18.5q-53 -33 -72 -88q0 -7 -1 -14t-1 -15q0 -18 10 -35z" />
  </g>

</svg>
