<?xml version="1.0" standalone="no"?>
<!DOCTYPE svg PUBLIC "-//W3C//DTD SVG 1.1//EN" "http://www.w3.org/Graphics/SVG/1.1/DTD/svg11.dtd" >
<svg xmlns="http://www.w3.org/2000/svg" xmlns:xlink="http://www.w3.org/1999/xlink" version="1.1" viewBox="-1 -240 1200 1200">
  <g transform="matrix(1 0 0 -1 0 960)">
   <path fill="currentColor"
d="M600 1081q163 0 301.5 -80.5t219 -219t80.5 -301.5t-81 -302q-11 -18 -23 -37q-23 22 -44 39q-6 3 -17 7.5t-17 6.5q16 31 25 65q11 26 22 56q24 68 29 120h-61q-14 41 -40 74l-12 16h113q-5 52 -29 119.5t-53 110.5h-370v-138q-47 -19 -86 -51v189h-370
q-29 -43 -53 -110.5t-29 -119.5h411q-35 -41 -53 -90h-358q5 -52 29 -119.5t53 -110.5h286q23 -50 59 -87h-272q52 -49 139 -88t158 -45v111q38 -31 86 -49v-62q71 6 158 45q3 2 9 4q8 2 17 5q30 8 58 22q18 -49 53 -78q-18 -12 -36 -23q-139 -81 -302 -81t-301.5 80.5
t-219 219t-80.5 301.5t80.5 301.5t219 219t301.5 80.5zM643 975v-133h297q-52 49 -139 88t-158 45zM557 975q-71 -6 -158 -45t-139 -88h297v133zM749 580q49 0 94 -19.5t80 -55.5q37 -35 55 -80t18 -93t-18 -93.5t-55 -81.5q-35 -36 -80 -54.5t-94 -18.5q-51 0 -95.5 18.5
t-78.5 54.5q-37 36 -55.5 81.5t-18.5 93.5t18.5 93t55.5 80q34 36 78.5 55.5t95.5 19.5zM749 513q-38 0 -70.5 -14t-56.5 -41q-27 -26 -40.5 -59t-13.5 -68t13.5 -68t40.5 -59q24 -26 56.5 -39t70.5 -13q36 0 68.5 13t58.5 39t39 59t13 68t-13 68t-39 59q-26 27 -58.5 41
t-68.5 14zM976 152l55 -23l169 -169l-80 -80l-169 170l-23 55z" />
  </g>

</svg>
