<?xml version="1.0" standalone="no"?>
<!DOCTYPE svg PUBLIC "-//W3C//DTD SVG 1.1//EN" "http://www.w3.org/Graphics/SVG/1.1/DTD/svg11.dtd" >
<svg xmlns="http://www.w3.org/2000/svg" xmlns:xlink="http://www.w3.org/1999/xlink" version="1.1" viewBox="-5 -240 1200 1200">
  <g transform="matrix(1 0 0 -1 0 960)">
   <path fill="currentColor"
d="M424 230q-88 0 -165.5 31.5t-136.5 93.5q-63 63 -95 142t-32 161.5t32 160.5t95 140q59 62 136.5 95.5t165.5 33.5q85 0 162.5 -33.5t139.5 -95.5q63 -62 94.5 -140t31.5 -160.5t-31.5 -161.5t-94.5 -142q-62 -62 -139.5 -93.5t-162.5 -31.5zM424 972q-66 0 -122 -24.5
t-98 -70.5q-47 -45 -70.5 -102.5t-23.5 -117.5t23.5 -117.5t70.5 -102.5q42 -45 98 -67.5t122 -22.5q62 0 118.5 22.5t101.5 67.5t67.5 102.5t22.5 117.5t-22.5 117.5t-67.5 102.5q-45 46 -101.5 70.5t-118.5 24.5zM1205 15l-293 292l-95 40l-83 -82l40 -95l292 -294z" />
  </g>

</svg>
