<?xml version="1.0" standalone="no"?>
<!DOCTYPE svg PUBLIC "-//W3C//DTD SVG 1.1//EN" "http://www.w3.org/Graphics/SVG/1.1/DTD/svg11.dtd" >
<svg xmlns="http://www.w3.org/2000/svg" xmlns:xlink="http://www.w3.org/1999/xlink" version="1.1" viewBox="0 -240 1200 1200">
  <g transform="matrix(1 0 0 -1 0 960)">
   <path fill="currentColor"
d="M1146 766v-580q0 -108 -74 -181.5t-182 -73.5h-578q-106 0 -180 73.5t-74 181.5v580q0 104 74 179t180 75h578q108 0 182 -75t74 -179zM142 186q0 -71 49 -120.5t121 -49.5h578q74 0 122.5 49.5t48.5 120.5v580q0 71 -48.5 120.5t-122.5 49.5h-578q-72 0 -121 -49.5
t-49 -120.5v-580zM728 292l-272 153q8 22 8 32.5t-8 32.5l272 155q34 -36 80 -36t78.5 33t32.5 77q0 51 -32.5 84t-78.5 33t-79.5 -33t-33.5 -84q0 -19 3 -30l-264 -153q-35 32 -84 32q-47 0 -79.5 -32.5t-32.5 -77t32.5 -79t79.5 -34.5q49 0 84 35l264 -154q-3 -10 -3 -30
q0 -50 33.5 -82.5t79.5 -32.5t78.5 32.5t32.5 82.5q0 46 -32.5 78.5t-78.5 32.5t-80 -35z" />
  </g>

</svg>
