<?xml version="1.0" standalone="no"?>
<!DOCTYPE svg PUBLIC "-//W3C//DTD SVG 1.1//EN" "http://www.w3.org/Graphics/SVG/1.1/DTD/svg11.dtd" >
<svg xmlns="http://www.w3.org/2000/svg" xmlns:xlink="http://www.w3.org/1999/xlink" version="1.1" viewBox="-21 -240 1200 1200">
  <g transform="matrix(1 0 0 -1 0 960)">
   <path fill="currentColor"
d="M887 409h119l167 -472h-131l-31 91h-130l-24 -91h-132zM988 117l-39 144l-44 -144h83zM748 607l218 263h-210v113h360v-95l-206 -265h209v-114h-371v98zM-21 62l59 112l99 -116l25 -54l-11 54v1039h65h65v-1039l-10 -54l25 54l99 116l59 -112l-238 -252z" />
  </g>

</svg>
