<?xml version="1.0" encoding="UTF-8" standalone="no"?>
<svg
   xmlns:dc="http://purl.org/dc/elements/1.1/"
   xmlns:cc="http://creativecommons.org/ns#"
   xmlns:rdf="http://www.w3.org/1999/02/22-rdf-syntax-ns#"
   xmlns:svg="http://www.w3.org/2000/svg"
   xmlns="http://www.w3.org/2000/svg"
   xmlns:sodipodi="http://sodipodi.sourceforge.net/DTD/sodipodi-0.dtd"
   xmlns:inkscape="http://www.inkscape.org/namespaces/inkscape"
   version="1.1"
   viewBox="0 -240 1200 1200"
   id="svg6"
   sodipodi:docname="story-webpage-section.svg"
   inkscape:version="0.92.1 r15371">
  <metadata
     id="metadata12">
    <rdf:RDF>
      <cc:Work
         rdf:about="">
        <dc:format>image/svg+xml</dc:format>
        <dc:type
           rdf:resource="http://purl.org/dc/dcmitype/StillImage" />
        <dc:title></dc:title>
      </cc:Work>
    </rdf:RDF>
  </metadata>
  <defs
     id="defs10" />
  <sodipodi:namedview
     pagecolor="#ffffff"
     bordercolor="#666666"
     borderopacity="1"
     objecttolerance="10"
     gridtolerance="10"
     guidetolerance="10"
     inkscape:pageopacity="0"
     inkscape:pageshadow="2"
     inkscape:window-width="1920"
     inkscape:window-height="1017"
     id="namedview8"
     showgrid="false"
     inkscape:zoom="0.27812867"
     inkscape:cx="324.54982"
     inkscape:cy="578.57067"
     inkscape:window-x="-8"
     inkscape:window-y="-8"
     inkscape:window-maximized="1"
     inkscape:current-layer="layer2"
     showguides="false" />
  <g
     inkscape:groupmode="layer"
     id="layer2"
     inkscape:label="glyph">
    <path
       style="fill:currentColor;stroke-width:0.82593369"
       d="M 116.00195 121.18945 L 116.00195 852.14258 L 1083.998 852.14258 L 1083.998 121.18945 L 116.00195 121.18945 z M 144.54297 151.75 L 145.73633 151.75 L 1055.0898 151.75 L 1055.0898 427.61133 L 1055.0898 822.45703 L 144.54297 822.45703 L 144.54297 151.75 z M 656.10742 224.46289 C 649.8116 224.46289 643.97739 225.94546 638.60742 228.9082 C 633.23746 231.87094 628.79364 235.94411 625.27539 241.12891 C 621.75714 246.3137 619.81371 252.05379 619.44336 258.34961 C 612.40685 290.93974 581.11191 438.33663 525.56055 700.53906 C 524.07917 704.24249 523.33984 708.13131 523.33984 712.20508 C 523.33984 718.87124 525.00481 724.98198 528.33789 730.53711 C 531.67098 736.09225 536.11673 740.53606 541.67188 743.86914 C 547.22702 747.20222 553.33775 748.86914 560.00391 748.86914 C 564.81836 748.86914 569.44652 747.94351 573.89062 746.0918 C 578.33474 744.24008 582.22356 741.64753 585.55664 738.31445 C 588.88972 734.98137 591.48227 731.09254 593.33398 726.64844 C 595.1857 722.20432 596.29568 717.57422 596.66602 712.75977 L 689.4375 276.12695 C 691.28921 271.3125 692.40114 266.31175 692.77148 261.12695 C 692.77148 251.12771 689.15917 242.51854 681.9375 235.29688 C 674.71582 228.0752 666.10667 224.46289 656.10742 224.46289 z M 632.2207 288.90234 C 633.33173 289.64303 634.34954 290.38431 635.27539 291.125 C 636.20124 291.86568 637.21904 292.42067 638.33008 292.79102 C 637.21904 292.42067 636.10907 291.86568 634.99805 291.125 C 634.25737 290.38431 633.33173 289.64303 632.2207 288.90234 z M 461.67773 335.56641 C 456.86328 335.56641 451.1232 337.41767 444.45703 341.12109 L 433.3457 349.45508 C 361.49928 406.11747 314.28035 443.33684 291.68945 461.11328 C 282.06055 465.18705 275.02418 472.31559 270.58008 482.5 C 266.13596 492.68442 265.21033 503.14679 267.80273 513.88672 C 270.39513 524.62665 276.13522 532.58864 285.02344 537.77344 C 297.61508 546.66166 315.30011 560.08722 338.07617 578.04883 C 360.85223 596.01043 373.9052 606.47281 377.23828 609.43555 C 382.05273 613.13897 388.90475 618.41624 397.79297 625.26758 C 406.68119 632.11891 414.64318 638.41399 421.67969 644.1543 C 428.71619 649.8946 435.38191 655.35622 441.67773 660.54102 C 452.04732 667.94786 463.62162 669.52261 476.39844 665.26367 C 489.17525 661.00473 497.60006 652.95057 501.67383 641.09961 C 505.37725 631.47071 505.09878 621.56333 500.83984 611.37891 C 496.72279 601.53378 490.09026 594.55281 480.95508 590.41797 L 473.34375 584.43555 C 469.26998 581.47281 466.86177 579.62154 466.12109 578.88086 C 453.89979 569.99264 436.12259 556.84555 412.79102 539.43945 C 389.45944 522.03336 372.60982 509.44126 362.24023 501.66406 C 368.90639 496.84961 386.40513 483.79664 414.73633 462.50195 C 443.06752 441.20727 464.82573 424.81851 480.00977 413.33789 C 492.60141 408.1531 500.28493 398.15354 503.0625 383.33984 C 505.84007 368.52614 502.04537 356.49098 491.67578 347.23242 C 483.89859 339.45523 474.63837 335.75075 463.89844 336.12109 C 463.15775 335.75075 462.41841 335.56641 461.67773 335.56641 z M 738.32227 335.56641 C 737.58158 335.56641 736.84224 335.75075 736.10156 336.12109 C 725.36163 335.75075 716.10141 339.45523 708.32422 347.23242 C 697.95463 356.49098 694.15993 368.52614 696.9375 383.33984 C 699.71507 398.15354 707.39859 408.1531 719.99023 413.33789 C 735.17427 424.81851 756.93248 441.20727 785.26367 462.50195 C 813.59487 483.79664 831.09361 496.84961 837.75977 501.66406 C 827.39018 509.44126 810.54056 522.03336 787.20898 539.43945 C 763.87741 556.84555 746.10021 569.99264 733.87891 578.88086 L 726.65625 584.43555 C 723.32317 586.65761 721.28755 588.14018 720.54688 588.88086 C 719.41006 589.8282 718.80883 590.38476 718.73828 590.55664 C 709.7608 594.70839 703.2292 601.64392 699.1582 611.37891 C 694.89926 621.56333 694.62275 631.47071 698.32617 641.09961 C 702.39994 652.95057 710.82475 661.00473 723.60156 665.26367 C 736.37838 669.52261 747.95268 667.94786 758.32227 660.54102 C 764.61809 655.35622 771.28381 649.8946 778.32031 644.1543 C 785.35682 638.41399 793.31881 632.11891 802.20703 625.26758 C 811.09525 618.41624 817.94727 613.13897 822.76172 609.43555 C 829.79823 603.51007 839.33301 595.73242 851.36914 586.10352 C 863.40527 576.47462 874.60893 567.67916 884.97852 559.7168 C 895.3481 551.75443 905.34766 544.4396 914.97656 537.77344 C 923.86478 532.58864 929.60487 524.62665 932.19727 513.88672 C 934.78967 503.14679 933.86404 492.68442 929.41992 482.5 C 924.97582 472.31559 917.93945 465.18705 908.31055 461.11328 C 891.2748 447.78095 844.05586 410.56158 766.6543 349.45508 C 756.65505 340.56686 747.21049 335.93675 738.32227 335.56641 z M 424.45703 368.3418 C 424.08669 370.19351 423.90234 372.23108 423.90234 374.45312 L 423.90234 372.23047 L 423.90234 370.00781 L 424.45703 368.3418 z M 775.54297 368.3418 L 776.09766 370.00781 L 776.09766 372.23047 L 776.09766 374.45312 C 776.09766 372.23107 775.91332 370.19351 775.54297 368.3418 z M 423.90234 379.45117 L 424.45703 383.33984 L 425.01367 387.22852 L 426.67969 391.11719 L 428.3457 394.45117 L 427.79102 394.45117 C 427.42067 393.71049 427.05003 392.59855 426.67969 391.11719 L 426.125 390.5625 L 425.01367 387.22852 C 424.64333 385.3768 424.45703 384.08052 424.45703 383.33984 C 424.08669 381.85847 423.90234 380.5622 423.90234 379.45117 z M 776.09766 379.45117 C 776.09766 380.5622 775.91332 381.85847 775.54297 383.33984 C 775.54297 384.08052 775.35667 385.3768 774.98633 387.22852 L 773.875 390.5625 L 773.32031 391.11719 C 772.94997 392.59855 772.57933 393.71049 772.20898 394.45117 L 771.6543 394.45117 L 773.32031 391.11719 L 774.98633 387.22852 L 775.54297 383.33984 L 776.09766 379.45117 z M 448.3457 413.33789 C 450.19742 414.07858 452.41933 414.81986 455.01172 415.56055 C 453.53035 415.1902 452.60276 415.00391 452.23242 415.00391 C 451.12139 414.63357 449.82707 414.07858 448.3457 413.33789 z M 751.6543 413.33789 C 750.17292 414.07858 748.87665 414.63357 747.76562 415.00391 C 747.3953 415.00391 746.46965 415.1902 744.98828 415.56055 C 747.58068 414.81986 749.80258 414.07858 751.6543 413.33789 z M 577.7793 680.54102 C 578.89032 680.91136 579.81595 681.46635 580.55664 682.20703 C 579.44561 681.46635 578.51998 680.91136 577.7793 680.54102 z M 0 968.80859 L 0 1085.4766 L 1200 1085.4766 L 1200 968.80859 L 0 968.80859 z M 0.00390625 1202.1426 L 0.00390625 1318.8105 L 915.25391 1318.8105 L 915.25391 1202.1426 L 0.00390625 1202.1426 z "
       transform="translate(0,-240)"
       id="path4483-6-7" />
  </g>
</svg>
