<?xml version="1.0" encoding="UTF-8" standalone="no"?>
<svg
   xmlns:dc="http://purl.org/dc/elements/1.1/"
   xmlns:cc="http://creativecommons.org/ns#"
   xmlns:rdf="http://www.w3.org/1999/02/22-rdf-syntax-ns#"
   xmlns:svg="http://www.w3.org/2000/svg"
   xmlns="http://www.w3.org/2000/svg"
   xmlns:sodipodi="http://sodipodi.sourceforge.net/DTD/sodipodi-0.dtd"
   xmlns:inkscape="http://www.inkscape.org/namespaces/inkscape"
   version="1.1"
   viewBox="0 -240 1200 1200"
   id="svg6"
   sodipodi:docname="story-paragraph-section.svg"
   inkscape:version="0.92.1 r15371">
  <metadata
     id="metadata12">
    <rdf:RDF>
      <cc:Work
         rdf:about="">
        <dc:format>image/svg+xml</dc:format>
        <dc:type
           rdf:resource="http://purl.org/dc/dcmitype/StillImage" />
        <dc:title />
      </cc:Work>
    </rdf:RDF>
  </metadata>
  <defs
     id="defs10" />
  <sodipodi:namedview
     pagecolor="#ffffff"
     bordercolor="#666666"
     borderopacity="1"
     objecttolerance="10"
     gridtolerance="10"
     guidetolerance="10"
     inkscape:pageopacity="0"
     inkscape:pageshadow="2"
     inkscape:window-width="1920"
     inkscape:window-height="1017"
     id="namedview8"
     showgrid="false"
     inkscape:zoom="0.39333334"
     inkscape:cx="328.6224"
     inkscape:cy="265.5481"
     inkscape:window-x="-8"
     inkscape:window-y="-8"
     inkscape:window-maximized="1"
     inkscape:current-layer="layer2"
     showguides="false" />
  <g
     inkscape:groupmode="layer"
     id="layer2"
     inkscape:label="glyph">
    <path
       style="fill:currentColor;stroke-width:1.02388811"
       d="M 294.49233,-45.004845 C 256.57632,-45.004845 227.09705,-35.494475 206.05464,-16.474845 185.21077,2.342625 174.78823,25.408855 174.78823,52.724299 174.78823,64.460209 177.27094,75.993316 182.23378,87.323947 187.39512,98.654894 194.93856,109.78527 204.86421,120.71157 186.00545,131.63771 172.10773,145.59947 163.17464,162.59589 154.24154,179.59232 149.77696,198.00246 149.77696,217.83154 149.77696,241.90953 156.62595,263.66097 170.32336,283.08541 184.02077,302.50983 213.50005,326.99468 258.76106,356.53615 304.22059,385.87496 330.71936,404.28827 338.26284,411.77478 345.60784,419.26132 349.28275,427.7585 349.28275,437.26839 349.28275,447.18292 345.41118,455.57974 337.66918,462.45915 329.92715,469.54102 319.50462,473.08008 306.40277,473.08008 291.11724,473.08008 278.41171,468.42716 268.28753,459.11973 258.36187,450.01447 251.61429,436.35795 248.04106,418.14744 L 166.45216,428.1625 C 170.81946,461.54822 184.91383,488.25751 208.73542,508.2889 232.55701,528.32029 264.31925,538.33695 304.02191,538.33695 345.31265,538.33695 376.97351,528.21978 399.00847,507.9859 421.04344,487.75218 432.06208,462.65989 432.06208,432.71395 432.06208,418.34786 429.08464,404.79201 423.12925,392.04466 417.17385,379.09514 408.14016,366.95491 396.03086,355.62395 414.09556,342.67444 427.59383,328.30977 436.52694,312.52744 445.65856,296.54264 450.22453,279.13936 450.22453,260.32204 450.22453,242.7185 446.45439,226.73684 438.91087,212.37107 431.5659,197.80282 419.25674,183.13325 401.98608,168.36252 390.86935,158.65031 368.04243,142.46112 333.50113,119.79937 298.95984,97.137642 278.60947,82.773141 272.45558,76.702865 263.32395,67.59777 258.76106,58.087558 258.76106,48.172863 258.76106,40.888813 262.13484,34.414218 268.8843,28.748895 275.63374,22.881095 285.46016,19.946015 298.36353,19.946015 312.25944,19.946015 323.07835,23.890965 330.82035,31.78214 338.76088,39.673303 343.12714,51.105725 343.9212,66.078777 L 425.80693,57.278901 C 421.83667,26.928325 408.63647,2.342625 386.20446,-16.474845 363.971,-35.494475 333.40094,-45.004845 294.49233,-45.004845 Z M 599.99844,-45.004845 V 71.662878 H 1199.9969 V -45.004845 Z M 251.31549,159.8625 332.60755,219.95575 C 353.0544,235.13096 365.56019,246.26134 370.126,253.34336 374.69181,260.42493 376.97481,267.30529 376.97481,273.98252 376.97481,280.86208 374.79014,288.04434 370.42283,295.5307 366.25405,302.8149 359.8014,310.50375 351.06686,318.59708 L 265.90669,259.41286 C 239.10741,241.00034 225.70746,221.57701 225.70746,201.14082 225.70746,192.64268 228.2885,184.64877 233.44985,177.1624 238.61119,169.67588 244.56605,163.9094 251.31549,159.8625 Z M 599.99844,188.33077 V 304.99849 H 1199.9969 V 188.33077 Z M 599.99844,421.66622 V 538.33395 H 1199.9969 V 421.66622 Z M -3.075e-5,655.00166 V 771.66939 H 1200 V 655.00166 Z M 0.00305625,888.33712 V 1005.0048 L 915.25424,1005.0048 V 888.33712 Z"
       id="path4483-6"
       inkscape:connector-curvature="0"
       sodipodi:nodetypes="scsccsssccscscccsscscccsccscscsccccsccccccccscccscccccccccccccccccccccc" />
  </g>
</svg>
