<?xml version="1.0" standalone="no"?>
<!DOCTYPE svg PUBLIC "-//W3C//DTD SVG 1.1//EN" "http://www.w3.org/Graphics/SVG/1.1/DTD/svg11.dtd" >
<svg xmlns="http://www.w3.org/2000/svg" xmlns:xlink="http://www.w3.org/1999/xlink" version="1.1" viewBox="0 -240 1220 1200">
  <g transform="matrix(1 0 0 -1 0 960)">
   <path fill="currentColor"
d="M110 1026h1000q41 0 70.5 -29.5t29.5 -70.5v-100q0 -41 -29.5 -70.5t-70.5 -29.5h-1000q-41 0 -70.5 29.5t-29.5 70.5v100q0 41 29.5 70.5t70.5 29.5zM1110 926h-200v-100h200v100zM110 626h1000q41 0 70.5 -29.5t29.5 -70.5v-100q0 -41 -29.5 -70.5t-70.5 -29.5h-1000
q-41 0 -70.5 29.5t-29.5 70.5v100q0 41 29.5 70.5t70.5 29.5zM1110 526h-500v-100h500v100zM110 226h1000q41 0 70.5 -29.5t29.5 -70.5v-100q0 -41 -29.5 -70.5t-70.5 -29.5h-1000q-41 0 -70.5 29.5t-29.5 70.5v100q0 41 29.5 70.5t70.5 29.5zM1110 126h-300v-100h300v100z
" />
  </g>

</svg>
