<?xml version="1.0" standalone="no"?>
<!DOCTYPE svg PUBLIC "-//W3C//DTD SVG 1.1//EN" "http://www.w3.org/Graphics/SVG/1.1/DTD/svg11.dtd" >
<svg xmlns="http://www.w3.org/2000/svg" xmlns:xlink="http://www.w3.org/1999/xlink" version="1.1" viewBox="0 -240 1200 1200">
  <g transform="matrix(1 0 0 -1 0 960)">
   <path fill="currentColor"
d="M1196 1078q2 -3 3 -7.5t1 -8.5v-12v-11l-203 -203l103 -102q31 -22 35.5 -61t-19.5 -69q-37 -40 -109.5 -111.5t-88.5 -88.5q-71 71 -212.5 212t-211.5 212l159 160q19 22 40.5 36.5t49 21t52.5 -10.5q27 -23 73.5 -70.5t57.5 -57.5l172 172h76q16 5 22 -1zM479 672
l35.5 -35.5l35.5 -35.5l-171 -170l142 -141l170 170l71 -71l-170 -170l70 -71l-159 -159q-19 -23 -40.5 -37.5t-49 -21t-52.5 10.5q-27 23 -73.5 70.5t-57.5 57.5l-172 -172q-4 -7 -8.5 -11t-12 -5.5t-11 -2t-14.5 0t-12 0.5v101l159 160l-103 103q-30 22 -35 61t19 68
q37 40 109.5 112t88.5 88q35 -35 71 -70z" />
  </g>

</svg>
