<?xml version="1.0" standalone="no"?>
<!DOCTYPE svg PUBLIC "-//W3C//DTD SVG 1.1//EN" "http://www.w3.org/Graphics/SVG/1.1/DTD/svg11.dtd" >
<svg xmlns="http://www.w3.org/2000/svg" xmlns:xlink="http://www.w3.org/1999/xlink" version="1.1" viewBox="0 -240 1200 1200">
  <g transform="matrix(1 0 0 -1 0 960)">
   <path fill="currentColor"
d="M846 688q-25 20 -62 35q-16 10 -65 30q-24 8 -70 17v-119l9 -4h13l15 -5l14 -4q61 -18 112 -43q54 -21 90 -56q35 -25 59 -76q18 -43 18 -115q0 -77 -27 -133q-21 -53 -72 -85q-47 -38 -98 -52q-39 -14 -116 -22v-158h-103v159q-104 11 -181 35q-85 29 -161 70l110 223
q9 -4 34.5 -17t39.5 -24q4 0 33.5 -13.5t46.5 -20.5q54 -18 92 -24v120q-23 3 -82 24q-74 28 -104 41q-42 29 -70 57q-35 30 -45 72q-11 38 -11 88q0 79 21 126q21 52 63 93q51 44 95 60q75 31 119 31v133h103v-133q57 -12 81 -14q14 -7 39.5 -13t41.5 -10l69 -31l59 -27z
M525 733q0 -21 14.5 -35t37.5 -24v99q-52 -6 -52 -40zM704 325q0 19 -16 34q-4 2 -17 10t-22 12v-98q27 3 39 14q16 13 16 28z" />
  </g>

</svg>
