<?xml version="1.0" standalone="no"?>
<!DOCTYPE svg PUBLIC "-//W3C//DTD SVG 1.1//EN" "http://www.w3.org/Graphics/SVG/1.1/DTD/svg11.dtd" >
<svg xmlns="http://www.w3.org/2000/svg" xmlns:xlink="http://www.w3.org/1999/xlink" version="1.1" viewBox="0 -240 1200 1200">
  <g transform="matrix(1 0 0 -1 0 960)">
   <path fill="currentColor"
d="M536 1080v-204h128v204h-128zM536 1080h128v-204h-128v204zM536 748v-204h128v204h-128zM536 748h128v-204h-128v204zM536 416v-204h128v204h-128zM536 416h128v-204h-128v204zM536 84v-204h128v204h-128zM536 84h128v-204h-128v204zM536 748v-204h128v204h-128zM536 748
h128v-204h-128v204zM536 416v-204h128v204h-128zM536 416h128v-204h-128v204zM536 84v-204h128v204h-128zM536 84h128v-204h-128v204zM536 416v-204h128v204h-128zM536 416h128v-204h-128v204zM536 84v-204h128v204h-128zM536 84h128v-204h-128v204zM536 84v-204h128v204
h-128zM536 84h128v-204h-128v204zM536 1080h128v-204h-128v204zM536 748h128v-204h-128v204zM536 416h128v-204h-128v204zM536 84h128v-204h-128v204z" />
  </g>

</svg>
