<?xml version="1.0" encoding="UTF-8" standalone="no"?>
<svg
   xmlns:dc="http://purl.org/dc/elements/1.1/"
   xmlns:cc="http://creativecommons.org/ns#"
   xmlns:rdf="http://www.w3.org/1999/02/22-rdf-syntax-ns#"
   xmlns:svg="http://www.w3.org/2000/svg"
   xmlns="http://www.w3.org/2000/svg"
   xmlns:sodipodi="http://sodipodi.sourceforge.net/DTD/sodipodi-0.dtd"
   xmlns:inkscape="http://www.inkscape.org/namespaces/inkscape"
   version="1.1"
   viewBox="0 -240 1200 1200"
   id="svg6"
   sodipodi:docname="webpage.svg"
   inkscape:version="0.92.1 r15371">
  <metadata
     id="metadata12">
    <rdf:RDF>
      <cc:Work
         rdf:about="">
        <dc:format>image/svg+xml</dc:format>
        <dc:type
           rdf:resource="http://purl.org/dc/dcmitype/StillImage" />
        <dc:title></dc:title>
      </cc:Work>
    </rdf:RDF>
  </metadata>
  <defs
     id="defs10" />
  <sodipodi:namedview
     pagecolor="#ffffff"
     bordercolor="#666666"
     borderopacity="1"
     objecttolerance="10"
     gridtolerance="10"
     guidetolerance="10"
     inkscape:pageopacity="0"
     inkscape:pageshadow="2"
     inkscape:window-width="1920"
     inkscape:window-height="1017"
     id="namedview8"
     showgrid="false"
     inkscape:zoom="0.39333334"
     inkscape:cx="768.96312"
     inkscape:cy="637.33447"
     inkscape:window-x="-8"
     inkscape:window-y="-8"
     inkscape:window-maximized="1"
     inkscape:current-layer="layer2"
     showguides="false" />
  <g
     inkscape:groupmode="layer"
     id="layer2"
     inkscape:label="glyph">
    <path
       sodipodi:nodetypes="ccccccccccccsssccssssssscccsscccccsccccscscsscscscccscscsccscccscscsccccscscsscsccsccccccccccccccccccccccccccccccccccccccccccccccc"
       inkscape:connector-curvature="0"
       style="fill:currentColor;stroke-width:1.02388895"
       d="M -1.125e-5,26.92801 V 933.07199 H 1200 V 26.92801 Z M 35.381539,64.813146 H 36.860839 1164.1632 V 406.79141 896.27158 H 35.381539 Z M 669.5549,154.95346 C 661.75016,154.95346 654.51765,156.79137 647.86059,160.4642 641.20367,164.13703 635.69468,169.18644 631.33325,175.6139 626.97171,182.04136 624.56252,189.1572 624.10347,196.96197 615.3805,237.36312 576.58489,420.08729 507.71923,745.13297 505.8829,749.72402 504.96629,754.54489 504.96629,759.59504 504.96629,767.8589 507.03034,775.43423 511.1623,782.32079 515.29426,789.20735 520.80548,794.71623 527.69212,798.84816 534.57864,802.9801 542.15392,805.04654 550.41784,805.04654 556.38625,805.04654 562.12359,803.89906 567.63283,801.60354 573.14206,799.30802 577.96303,796.09409 582.09487,791.96216 586.22683,787.83022 589.44081,783.00934 591.73631,777.5001 594.03182,771.99084 595.40786,766.25102 595.86691,760.28267 L 710.87337,219.00008 C 713.16888,213.03173 714.54727,206.83243 715.00645,200.40497 715.00645,188.00916 710.52837,177.33659 701.57582,168.38409 692.62326,159.43155 681.95078,154.95346 669.5549,154.95346 Z M 639.94316,234.83741 C 641.32044,235.75562 642.58218,236.67457 643.73,237.59278 644.87769,238.51099 646.13943,239.19899 647.51683,239.65811 646.13943,239.19899 644.76352,238.51099 643.38611,237.59278 642.46801,236.67457 641.32044,235.75562 639.94316,234.83741 Z M 428.52535,292.68567 C 422.55706,292.68567 415.44121,294.98063 407.17729,299.57166 L 393.40289,309.9031 C 304.33674,380.14602 245.80067,426.28593 217.79531,448.32293 205.85848,453.37307 197.13576,462.21014 191.62652,474.8355 186.11729,487.46086 184.96972,500.4308 188.18345,513.74482 191.39718,527.05883 198.51304,536.92911 209.53151,543.35657 225.14112,554.37507 247.06477,571.0184 275.29972,593.28495 303.53455,615.55149 319.71602,628.52143 323.84798,632.19427 329.81627,636.7853 338.31052,643.3274 349.32912,651.82083 360.34759,660.31425 370.21788,668.1181 378.94085,675.23422 387.66382,682.35032 395.92712,689.12095 403.73186,695.54842 416.58679,704.73049 430.93515,706.68266 446.77423,701.40296 462.61343,696.12327 473.05744,686.13873 478.1075,671.4474 482.69863,659.51069 482.35338,647.22877 477.07361,634.6034 471.96987,622.39864 463.74773,613.74451 452.42305,608.61866 L 442.98752,601.2024 C 437.93733,597.52957 434.95195,595.2346 434.03372,594.3164 418.88329,583.2979 396.84534,566.99978 367.92175,545.42188 338.99816,523.844 318.11014,508.23389 305.25522,498.59269 313.51913,492.62434 335.21183,476.44291 370.33329,450.04442 405.45476,423.64595 432.42785,403.32922 451.25119,389.09699 466.86067,382.66954 476.38571,370.27334 479.82903,351.90917 483.27235,333.54501 478.56816,318.62533 465.71323,307.14772 456.07204,297.50654 444.5924,292.91419 431.2783,293.37329 430.36019,292.91419 429.44358,292.68567 428.52535,292.68567 Z M 771.47462,292.68567 C 770.55639,292.68567 769.63977,292.91419 768.72167,293.37329 755.40757,292.91419 743.92793,297.50654 734.28674,307.14772 721.43181,318.62533 716.72761,333.54501 720.17093,351.90917 723.61425,370.27334 733.13929,382.66954 748.74878,389.09699 767.57212,403.32922 794.54521,423.64595 829.66667,450.04442 864.78814,476.44291 886.4808,492.62434 894.7448,498.59269 881.88982,508.23389 861.0018,523.844 832.07821,545.42188 803.15462,566.99978 781.11668,583.2979 765.96625,594.3164 L 757.01257,601.2024 C 752.88061,603.95703 750.35713,605.79494 749.43891,606.71314 748.02964,607.88753 747.28423,608.57749 747.19683,608.79056 736.06765,613.93738 727.97059,622.53518 722.92388,634.6034 717.64423,647.22877 717.30146,659.51069 721.89247,671.4474 726.94253,686.13873 737.38667,696.12327 753.22574,701.40296 769.06481,706.68266 783.41318,704.73049 796.26811,695.54842 804.07285,689.12095 812.33615,682.35032 821.05912,675.23422 829.78209,668.1181 839.65238,660.31425 850.67085,651.82083 861.68945,643.3274 870.1837,636.7853 876.15199,632.19427 884.875,624.8486 896.695,615.20685 911.6159,603.27014 926.5368,591.33344 940.4256,580.42993 953.2806,570.5592 966.1355,560.68845 978.5318,551.62044 990.4685,543.35657 1001.4869,536.92911 1008.6028,527.05883 1011.8165,513.74482 1015.0302,500.4308 1013.8827,487.46086 1008.3734,474.8355 1002.8642,462.21014 994.1415,453.37307 982.2047,448.32293 961.0859,431.79518 902.5499,385.65527 806.59708,309.9031 794.20132,298.8846 782.49309,293.14477 771.47462,292.68567 Z M 382.3838,333.31648 C 381.92475,335.612 381.69615,338.13793 381.69615,340.89253 V 338.13717 335.38179 Z M 817.61617,333.31648 818.30382,335.38179 V 338.13717 340.89253 C 818.30382,338.13791 818.07522,335.612 817.61617,333.31648 Z M 381.69615,347.08849 382.3838,351.90917 383.07392,356.72987 385.13922,361.55056 387.20452,365.68361 H 386.51687 C 386.05782,364.7654 385.59827,363.38696 385.13922,361.55056 L 384.45157,360.86292 383.07392,356.72987 C 382.61475,354.43434 382.3838,352.82738 382.3838,351.90917 381.92475,350.07276 381.69615,348.4658 381.69615,347.08849 Z M 818.30382,347.08849 C 818.30382,348.4658 818.07522,350.07276 817.61617,351.90917 817.61617,352.82738 817.38522,354.43434 816.92604,356.72987 L 815.54839,360.86292 814.86075,361.55056 C 814.40169,363.38696 813.94215,364.7654 813.4831,365.68361 H 812.79545 L 814.86075,361.55056 816.92604,356.72987 817.61617,351.90917 Z M 411.99801,389.09699 C 414.29352,390.01521 417.04795,390.93415 420.26168,391.85237 418.42535,391.39325 417.27543,391.16231 416.81625,391.16231 415.43898,390.70321 413.83446,390.01521 411.99801,389.09699 Z M 788.00196,389.09699 C 786.1655,390.01521 784.55851,390.70321 783.18123,391.16231 782.72218,391.16231 781.57474,391.39325 779.73829,391.85237 782.95202,390.93415 785.70645,390.01521 788.00196,389.09699 Z M 572.45355,720.34191 C 573.83083,720.80101 574.97827,721.48901 575.8965,722.40722 574.51922,721.48901 573.37177,720.80101 572.45355,720.34191 Z"
       id="path4483-6-7" />
  </g>
</svg>
