<?xml version="1.0" encoding="UTF-8" standalone="no"?>
<svg
   version="1.1"
   viewBox="0 -240 1200 1200"
   id="svg6"
   sodipodi:docname="widgets.svg"
   inkscape:version="1.3.2 (091e20e, 2023-11-25, custom)"
   xmlns:inkscape="http://www.inkscape.org/namespaces/inkscape"
   xmlns:sodipodi="http://sodipodi.sourceforge.net/DTD/sodipodi-0.dtd"
   xmlns="http://www.w3.org/2000/svg"
   xmlns:svg="http://www.w3.org/2000/svg"
   xmlns:rdf="http://www.w3.org/1999/02/22-rdf-syntax-ns#"
   xmlns:cc="http://creativecommons.org/ns#"
   xmlns:dc="http://purl.org/dc/elements/1.1/">
  <metadata
     id="metadata12">
    <rdf:RDF>
      <cc:Work
         rdf:about="">
        <dc:format>image/svg+xml</dc:format>
        <dc:type
           rdf:resource="http://purl.org/dc/dcmitype/StillImage" />
      </cc:Work>
    </rdf:RDF>
  </metadata>
  <defs
     id="defs10" />
  <sodipodi:namedview
     pagecolor="#ffffff"
     bordercolor="#666666"
     borderopacity="1"
     objecttolerance="10"
     gridtolerance="10"
     guidetolerance="10"
     inkscape:pageopacity="0"
     inkscape:pageshadow="2"
     inkscape:window-width="1920"
     inkscape:window-height="1017"
     id="namedview8"
     showgrid="false"
     inkscape:zoom="0.39333334"
     inkscape:cx="974.99999"
     inkscape:cy="626.69491"
     inkscape:window-x="-8"
     inkscape:window-y="-8"
     inkscape:window-maximized="1"
     inkscape:current-layer="layer2"
     showguides="true"
     inkscape:showpageshadow="2"
     inkscape:pagecheckerboard="0"
     inkscape:deskcolor="#d1d1d1" />
  <g
     inkscape:groupmode="layer"
     id="layer2"
     inkscape:label="glyph">
    <path
       id="rect1"
       style="fill:#000000;fill-opacity:1;stroke-width:75.1151;stroke-linecap:round;stroke-linejoin:round"
       d="M 64 -120 C 28.54407 -120 0 -91.45593 0 -56 L 0 352 C 0 387.45592 28.54407 416 64 416 L 627.52539 416 C 662.98133 416 691.52539 387.45592 691.52539 352 L 691.52539 -56 C 691.52539 -91.45593 662.98133 -120 627.52539 -120 L 64 -120 z M 883.52539 -120 C 848.06947 -120 819.52539 -91.45593 819.52539 -56 L 819.52539 352 C 819.52539 387.45592 848.06947 416 883.52539 416 L 1136 416 C 1171.456 416 1200 387.45592 1200 352 L 1200 -56 C 1200 -91.45593 1171.456 -120 1136 -120 L 883.52539 -120 z M 615.39258 -44.007812 C 615.44248 83.948307 615.50739 211.9052 615.49219 339.86133 C 559.18799 339.88753 502.88426 339.91861 446.58008 339.94141 C 323.08775 339.96511 199.5939 340.02236 76.101562 340.00586 C 76.069004 212.025 76.036456 84.043364 76.003906 -43.9375 L 569.83203 -43.992188 C 585.01886 -43.997386 600.20575 -44.002614 615.39258 -44.007812 z M 1123.877 -43.986328 C 1123.881 -33.030356 1123.8906 -22.075114 1123.8906 -11.119141 C 1123.95 105.87059 1123.9761 222.86183 1123.9941 339.85156 C 1047.8811 339.93644 971.76743 339.98294 895.6543 339.96484 C 895.6404 312.26894 895.62718 284.57287 895.61328 256.87695 C 895.57238 156.6252 895.50549 56.372841 895.55859 -43.878906 L 1068.3672 -43.970703 C 1086.8704 -43.975913 1105.3737 -43.981128 1123.877 -43.986328 z M 64 544 C 28.544075 544 -9.4738937e-15 572.54408 0 608 L 0 1016 C 0 1051.456 28.544075 1080 64 1080 L 316.47461 1080 C 351.93057 1080 380.47461 1051.456 380.47461 1016 L 380.47461 608 C 380.47461 572.54408 351.93057 544 316.47461 544 L 64 544 z M 572.47461 544 C 537.01867 544 508.47461 572.54407 508.47461 608 L 508.47461 1016 C 508.47461 1051.456 537.01867 1080 572.47461 1080 L 1136 1080 C 1171.4559 1080 1200 1051.456 1200 1016 L 1200 608 C 1200 572.54407 1171.4559 544 1136 544 L 572.47461 544 z M 1123.8672 619.99219 C 1123.9172 747.94831 1123.9816 875.90523 1123.9668 1003.8613 C 1067.6626 1003.8873 1011.3589 1003.9184 955.05469 1003.9414 C 831.56236 1003.9654 708.06851 1004.0229 584.57617 1004.0059 C 584.54357 876.02503 584.51112 748.04336 584.47852 620.0625 L 1078.3066 620.00781 C 1093.4934 620.00281 1108.6804 619.99739 1123.8672 619.99219 z M 304.35156 620.01367 C 304.35156 630.96964 304.36523 641.92488 304.36523 652.88086 C 304.42423 769.87059 304.45125 886.86179 304.46875 1003.8516 C 228.35573 1003.9366 152.24202 1003.9829 76.128906 1003.9648 C 76.115006 976.26898 76.101791 948.57287 76.087891 920.87695 C 76.046991 820.6252 75.980113 720.37284 76.033203 620.12109 L 248.8418 620.0293 C 267.34498 620.0243 285.84828 620.01887 304.35156 620.01367 z " />
  </g>
</svg>
