<?xml version="1.0" standalone="no"?>
<!DOCTYPE svg PUBLIC "-//W3C//DTD SVG 1.1//EN" "http://www.w3.org/Graphics/SVG/1.1/DTD/svg11.dtd" >
<svg xmlns="http://www.w3.org/2000/svg" xmlns:xlink="http://www.w3.org/1999/xlink" version="1.1" viewBox="0 -240 1200 1200">
  <g transform="matrix(1 0 0 -1 0 960)">
   <path fill="currentColor"
d="M484 314q-58 0 -109.5 20.5t-90.5 61.5q-41 42 -62 94t-21 106.5t21 106t62 92.5q39 41 90.5 63t109.5 22q56 0 107 -22t92 -63q42 -41 62.5 -92.5t20.5 -106t-20.5 -106.5t-62.5 -94q-41 -41 -92 -61.5t-107 -20.5zM484 803q-44 0 -81 -16t-64 -46q-31 -30 -46.5 -68
t-15.5 -77.5t15.5 -77.5t46.5 -68q27 -29 64 -44t81 -15q41 0 78 15t67 44.5t44.5 67.5t14.5 77.5t-14.5 77.5t-44.5 68t-67 46t-78 16zM999 172l-91 -92l-193 194l-27 63l55 54l63 -27zM0 1080h351l-100 -100h-151v-151l-100 -100v351zM849 1080h351v-351l-100 100v151
h-151zM0 231l100 -100v-151h151l100 -100h-351v351zM1200 231v-351h-351l100 100h151v151z" />
  </g>

</svg>
