<?xml version="1.0" standalone="no"?>
<!DOCTYPE svg PUBLIC "-//W3C//DTD SVG 1.1//EN" "http://www.w3.org/Graphics/SVG/1.1/DTD/svg11.dtd" >
<svg xmlns="http://www.w3.org/2000/svg" xmlns:xlink="http://www.w3.org/1999/xlink" version="1.1" viewBox="-5 -240 1200 1200">
  <g transform="matrix(1 0 0 -1 0 960)">
   <path fill="currentColor"
d="M424 230q-88 0 -165.5 32t-136.5 93q-63 61 -95 139.5t-32 161t32 162t95 142.5q59 61 136.5 92.5t165.5 31.5q85 0 162.5 -31.5t139.5 -92.5q63 -63 94.5 -142.5t31.5 -162t-31.5 -161t-94.5 -139.5q-62 -61 -139.5 -93t-162.5 -32zM424 968q-66 0 -122 -22.5t-98 -68.5
q-47 -45 -70.5 -102.5t-23.5 -117.5t23.5 -117t70.5 -102q42 -46 98 -68.5t122 -22.5q62 0 118.5 22.5t101.5 68.5q45 45 67.5 102t22.5 117t-22.5 117.5t-67.5 102.5q-45 46 -101.5 68.5t-118.5 22.5zM1205 11l-293 297l-95 35l-83 -79l40 -95l292 -297zM601 627h-341
q-14 0 -22 8.5t-8 21.5q0 14 8 22t22 8h341q13 0 21.5 -8t8.5 -22q0 -13 -8.5 -21.5t-21.5 -8.5zM428 459q-13 0 -21.5 8t-8.5 18v345q0 10 8.5 17.5t21.5 7.5t22 -7.5t9 -17.5v-345q0 -10 -9 -18t-22 -8z" />
  </g>

</svg>
