<?xml version="1.0" encoding="iso-8859-1"?>
<!-- Generator: Adobe Illustrator 19.0.0, SVG Export Plug-In . SVG Version: 6.00 Build 0)  -->
<svg
    version="1.1"
    id="Capa_1"
    xmlns="http://www.w3.org/2000/svg"
    xmlns:xlink="http://www.w3.org/1999/xlink"
    x="0px"
    y="0px"
    width="64px"
    height="64px"
	viewBox="0 0 60 60"
    style="enable-background:new 0 0 60 60;"
    xml:space="preserve">
     <path d="M44.18,20l9.668-15.47c0.193-0.309,0.203-0.697,0.027-1.015C53.698,3.197,53.363,3,53,3H8V1c0-0.553-0.447-1-1-1
    	S6,0.447,6,1v3v29v3v23c0,0.553,0.447,1,1,1s1-0.447,1-1V37h45c0.363,0,0.698-0.197,0.875-0.516
    	c0.176-0.317,0.166-0.706-0.027-1.015L44.18,20z M8,35v-2V5h43.195l-9.043,14.47c-0.203,0.324-0.203,0.736,0,1.061L51.195,35H8z"/>
</svg>
