<svg version="1.1" id="Capa_1" xmlns="http://www.w3.org/2000/svg" xmlns:xlink="http://www.w3.org/1999/xlink" x="0px" y="0px"
	 viewBox="0 0 95.999 95.999" style="enable-background:new 0 0 95.999 95.999;" xml:space="preserve">
<g>
	<path d="M47.998,58.392c11.951,0,21.955-4.061,22.561-9.362c-1.777-4.985-3.715-10.421-5.619-15.764
		c-1.322,3.811-8.623,6.498-16.941,6.498c-8.316,0-15.617-2.688-16.941-6.497c-1.904,5.342-3.84,10.777-5.617,15.763
		C26.045,54.331,36.047,58.392,47.998,58.392z M47.998,24.866c5.617,0,10.836-1.739,12.363-4.439
		c-2.105-5.913-3.914-10.986-5.057-14.187c-0.759-2.133-4.201-3.241-7.306-3.241s-6.547,1.108-7.307,3.241
		c-1.141,3.201-2.949,8.274-5.057,14.187C37.162,23.127,42.383,24.866,47.998,24.866z M91.902,63.331l-18.777-7.563l2.162,6.033
		C75.178,68.195,62.766,73.29,47.998,73.29c-14.766,0-27.18-5.095-27.287-11.489l2.16-6.033L4.096,63.331
		c-5.264,2.121-5.484,6.049-0.49,8.726l35.312,18.935c4.994,2.677,13.168,2.677,18.162,0l35.312-18.935
		C97.387,69.38,97.166,65.452,91.902,63.331z" fill="param(fill)" fill-opacity="param(fill-opacity)" stroke="param(outline)" stroke-opacity="param(outline-opacity)" stroke-width="param(outline-width)"/>
</g>
</svg>
