<?xml version="1.0" encoding="UTF-8" standalone="no"?>
<!-- Created with Inkscape (http://www.inkscape.org/) -->

<svg
   xmlns:dc="http://purl.org/dc/elements/1.1/"
   xmlns:cc="http://creativecommons.org/ns#"
   xmlns:rdf="http://www.w3.org/1999/02/22-rdf-syntax-ns#"
   xmlns:svg="http://www.w3.org/2000/svg"
   xmlns="http://www.w3.org/2000/svg"
   xmlns:xlink="http://www.w3.org/1999/xlink"
   xmlns:sodipodi="http://sodipodi.sourceforge.net/DTD/sodipodi-0.dtd"
   xmlns:inkscape="http://www.inkscape.org/namespaces/inkscape"
   version="1.1"
   id="svg373"
   width="50"
   height="50"
   viewBox="0 0 50 50"
   sodipodi:docname="keycloak.svg"
   inkscape:version="0.92.5 (2060ec1f9f, 2020-04-08)">
  <metadata
     id="metadata379">
    <rdf:RDF>
      <cc:Work
         rdf:about="">
        <dc:format>image/svg+xml</dc:format>
        <dc:type
           rdf:resource="http://purl.org/dc/dcmitype/StillImage" />
        <dc:title></dc:title>
      </cc:Work>
    </rdf:RDF>
  </metadata>
  <defs
     id="defs377" />
  <sodipodi:namedview
     pagecolor="#ffffff"
     bordercolor="#666666"
     borderopacity="1"
     objecttolerance="10"
     gridtolerance="10"
     guidetolerance="10"
     inkscape:pageopacity="0"
     inkscape:pageshadow="2"
     inkscape:window-width="1880"
     inkscape:window-height="1016"
     id="namedview375"
     showgrid="false"
     inkscape:zoom="2.973384"
     inkscape:cx="-52.140986"
     inkscape:cy="-0.14384502"
     inkscape:window-x="40"
     inkscape:window-y="27"
     inkscape:window-maximized="1"
     inkscape:current-layer="svg373" />
  <g
     id="g383"
     inkscape:transform-center-x="-1.4769654"
     inkscape:transform-center-y="0.82457773"
     transform="matrix(0.25,0,0,0.25,0.14058234,-0.09978662)">
    <path
       style="fill:#d0d1d1"
       d="M 53.5,182.05687 C 51.517014,181.24745 29,143.22473 29,140.68563 29,139.98737 26.66828,135.38496 23.8184,130.45804 12.290236,110.52796 8.0209965,102.39548 8.0107593,100.34607 7.9988283,97.957575 11.548525,91.418987 23.893206,71.090388 26.701943,66.465101 29,61.637684 29,60.362794 29,56.6925 51.055819,18.936716 53.8151,17.883594 c 3.054775,-1.165903 89.36212,-1.146914 92.43222,0.02034 1.67431,0.636573 5.29683,6.034403 12.24768,18.25 5.42859,9.540338 10.71865,18.58357 11.75568,20.09607 l 1.88551,2.75 H 186.06809 200 V 99.980952 140.9619 l -2.63631,0.66167 c -1.44998,0.36392 -7.41248,0.42763 -13.25,0.14158 -5.83753,-0.28605 -11.1635,-0.31696 -11.83549,-0.0687 -0.67199,0.24828 -6.27733,9.23957 -12.45632,19.98067 -7.89978,13.7324 -11.93467,19.79545 -13.5933,20.42606 -2.93771,1.11692 -89.985303,1.07343 -92.72858,-0.0463 z"
       id="path397"
       inkscape:connector-curvature="0" />
    <path
       style="fill:#a1a1a1"
       d="M 50.339887,176.75 C 43.28691,165.58691 30.10121,141.64526 30.579753,140.87096 30.875807,140.39193 37.139919,140 44.5,140 c 7.890626,0 13.636951,-0.41257 14.003344,-1.00541 0.341757,-0.55298 -3.62059,-8.09048 -8.805217,-16.75 C 35.968688,99.313255 36.568105,100.75575 38.898471,96.255214 c 1.069441,-2.065368 6.005102,-10.70062 10.968136,-19.18945 4.963034,-8.48883 8.796822,-15.80133 8.519529,-16.25 C 58.108842,60.367094 51.833524,60 44.440983,60 32.235478,60 31,59.836873 31,58.22531 31,56.666916 43.490932,34.103082 50.500792,22.998746 L 53.025089,19 h 47.290131 47.29014 l 11.19732,19.554073 C 164.96121,49.308813 170,58.533813 170,59.054073 170,59.603699 164.12148,60 155.96862,60 c -10.82883,0 -14.14915,0.306882 -14.54734,1.344544 -0.50916,1.326858 5.90595,12.994247 14.10621,25.655456 8.02004,12.382945 8.00253,12.31471 4.69625,18.29669 -1.58175,2.86182 -5.70675,10.37831 -9.16666,16.70331 -3.45991,6.325 -6.68817,11.9275 -7.17391,12.45 -0.48574,0.5225 -0.88317,1.76 -0.88317,2.75 0,1.64444 1.16667,1.8 13.5,1.8 11.10895,0 13.5,0.25609 13.5,1.44593 0,0.79526 -5.03879,10.24526 -11.19732,21 L 147.60536,181 H 100.31522 53.025089 Z m 61.131843,-44.5 c 2.13801,-3.7125 6.93782,-11.952 10.66625,-18.30999 3.72843,-6.35799 7.05563,-12.28098 7.39379,-13.1622 0.61002,-1.589705 -19.59909,-38.48105 -21.91888,-40.012497 -1.44711,-0.955326 -13.795261,-0.955326 -15.170539,0 C 90.695285,61.978898 70,98.525022 70,100.39661 c 0,0.95309 3.071178,6.99126 6.824841,13.41814 3.753662,6.42689 8.572162,14.72275 10.707776,18.43525 L 91.415553,139 H 99.5 h 8.08445 z"
       id="path395"
       inkscape:connector-curvature="0" />
    <path
       style="fill:#30c4e7"
       d="M 42.704449,161.41431 C 36.81034,151.19218 32.242171,142.41718 32.552961,141.91431 32.863751,141.41144 39.166476,141 46.559017,141 53.951558,141 60,140.70957 60,140.3546 c 0,-0.35496 -2.998889,-5.86746 -6.664198,-12.25 -3.665308,-6.38253 -8.644069,-15.3264 -11.063912,-19.87527 l -4.399715,-8.270675 2.872101,-5.229328 C 42.323931,91.853197 47.302692,83.14718 51.808188,75.382621 56.313685,67.618063 60,60.755563 60,60.132621 60,59.345304 55.90223,59 46.559017,59 39.166476,59 32.863751,58.588562 32.552961,58.085693 c -0.31079,-0.502869 4.257379,-9.277869 10.151488,-19.5 L 53.42101,20 h 46.6378 46.6378 l 10.72783,18.623871 c 5.9003,10.243128 10.34693,19.004757 9.8814,19.470285 -0.46552,0.465527 -7.02148,0.972286 -14.56879,1.126129 L 139.01468,59.5 144.6134,69 c 3.0793,5.225 6.9779,11.75 8.66355,14.5 5.75452,9.388038 8.68681,14.998856 8.70493,16.65659 0.0149,1.36185 -11.29598,21.80098 -19.83351,35.83983 -1.12459,1.84925 -1.81648,3.73157 -1.53753,4.18293 C 140.8898,140.63071 147.16648,141 154.55902,141 163.1848,141 168,141.37202 168,142.03845 c 0,0.57115 -4.78908,9.34615 -10.6424,19.5 L 146.71519,180 H 100.0681 53.42101 Z m 76.350411,-40.05405 c 6.20316,-10.80186 11.27847,-20.21881 11.27847,-20.92655 0,-0.707745 -5.1375,-10.304395 -11.41666,-21.32589 L 107.5,59.068737 l -7.5,0.01644 -7.5,0.01644 -11.25,19.82333 C 75.0625,89.827769 70,99.516975 70,100.45651 c 0,0.93953 2.781267,6.50867 6.180594,12.37586 3.399326,5.8672 8.387417,14.60513 11.084646,19.41763 l 4.904053,8.75 h 7.803545 7.803542 z"
       id="path393"
       inkscape:connector-curvature="0" />
    <path
       style="fill:#05b5df"
       d="M 42.704449,161.41431 C 36.81034,151.19218 32.242171,142.41718 32.552961,141.91431 32.863751,141.41144 39.180599,141 46.590402,141 57.384063,141 60.172467,140.71413 60.614483,139.56226 61.162258,138.13478 53.142358,123.54261 46.015779,113 41.578317,106.4355 38.998477,101.57861 39.004129,99.79966 39.0064,99.084847 43.726872,90.4 49.494067,80.5 55.261261,70.6 59.984403,61.7125 59.989938,60.75 59.999025,59.169633 58.69712,59 46.559017,59 39.166476,59 32.863751,58.588562 32.552961,58.085693 c -0.31079,-0.502869 4.257379,-9.277869 10.151488,-19.5 L 53.42101,20 h 46.6378 46.6378 l 10.68264,18.545425 c 5.87545,10.199984 10.41715,18.974984 10.09268,19.5 C 167.14163,58.579857 160.55827,59 152.51437,59 h -14.36759 l -3.15016,-5.5059 c -1.73258,-3.028246 -3.98602,-5.953246 -5.00765,-6.5 -2.26674,-1.213124 -9.98335,-1.283894 -11.838,-0.108568 -1.03919,0.658557 1.94657,6.619125 13,25.952373 8.9258,15.611854 14.93513,25.10968 15.89976,25.129781 0.86432,0.01801 2.51847,-1.959562 3.73701,-4.467686 1.20245,-2.475 2.60364,-4.5 3.11377,-4.5 1.10203,0 6.2073,8.845239 6.34895,11 0.0542,0.825 -4.79179,9.96977 -10.76893,20.3217 -8.79289,15.2286 -10.59205,18.996 -9.42453,19.73469 0.79365,0.50214 7.4055,0.91988 14.693,0.9283 8.48392,0.01 13.25,0.38885 13.25,1.05376 0,0.57115 -4.78908,9.34615 -10.6424,19.5 L 146.71519,180 H 100.0681 53.42101 Z m 45.361098,-14.87646 3.082645,-5.46215 8.65826,-0.28785 L 108.46471,140.5 119.19395,122 c 5.90108,-10.175 11.24909,-19.46864 11.88446,-20.65254 1.01606,-1.893226 -0.21412,-4.572271 -10.21159,-22.238475 L 109.5,59.02305 100.11741,59.261525 90.734814,59.5 l -11.63396,20 -11.63396,20 -6.233447,0.297717 C 56.503471,100.02363 55,100.45575 55,101.58932 c 0,1.14279 20.86669,38.21808 27.377764,48.64397 1.669374,2.67309 2.339227,2.23788 5.687783,-3.69544 z"
       id="path391"
       inkscape:connector-curvature="0" />
    <path
       style="fill:#058cab"
       d="m 42.664859,161.34565 c -5.915883,-10.2599 -10.398111,-19.00613 -9.960505,-19.43608 0.437605,-0.42995 7.269031,-0.87927 15.180945,-0.99848 l 14.385299,-0.21675 3.478375,6.19285 3.478374,6.19285 7.629881,-0.29002 7.629882,-0.29002 3.277903,-5.5 3.277904,-5.5 8.718064,-0.5 8.718069,-0.5 11.57019,-20 11.57019,-20 6.33871,-0.30157 c 3.4863,-0.16586 6.71226,0.072 7.16881,0.52852 0.45655,0.45655 -5.51127,11.84225 -13.26181,25.30157 -7.75054,13.45931 -14.31402,25.03398 -14.58551,25.72148 -0.36649,0.92809 1.31228,1.25 6.51882,1.25 h 7.01242 l 3.83395,-6.55403 c 3.12437,-5.34102 4.20607,-6.45402 5.84456,-6.01366 1.10584,0.29721 7.74812,0.54653 14.76062,0.55404 8.13931,0.009 12.75,0.38918 12.75,1.0521 0,0.57115 -4.78908,9.34615 -10.6424,19.5 L 146.71519,180 H 100.0681 53.42101 Z M 42.100155,106.87352 C 40.405392,103.91808 39.016403,100.825 39.013513,100 39.010623,99.175 43.726872,90.4 49.494067,80.5 55.261261,70.6 59.984403,61.7125 59.989938,60.75 59.999025,59.169633 58.69712,59 46.559017,59 39.166476,59 32.863751,58.588562 32.552961,58.085693 c -0.31079,-0.502869 4.257379,-9.277869 10.151488,-19.5 L 53.42101,20 h 46.6378 46.6378 l 10.68264,18.545425 c 5.87545,10.199984 10.41715,18.974984 10.09268,19.5 C 167.14163,58.579857 160.55827,59 152.51437,59 h -14.36759 l -3.15016,-5.5059 C 131.37659,47.16694 129.68463,46 124.13084,46 c -6.29256,0 -8.3894,1.331933 -11.63084,7.388012 l -3,5.604995 -9.598126,0.0035 L 90.303749,59 88.497406,54.994247 C 86.103226,49.684906 84.329494,48.220109 82.553854,50.085903 81.813681,50.863656 76.168235,60.275 70.008419,71 54.407297,98.163478 47.831052,109.27286 46.405124,110.87352 c -1.004593,1.12769 -1.775072,0.41179 -4.304969,-4 z"
       id="path389"
       inkscape:connector-curvature="0" />
    <path
       style="fill:#29798b"
       d="m 42.664859,161.34565 c -5.915883,-10.2599 -10.398111,-19.01213 -9.960505,-19.4494 0.437605,-0.43728 7.041079,-0.86569 14.674386,-0.95202 l 13.878741,-0.15698 3.671574,6.35638 3.671574,6.35637 7.635693,0.29091 7.635693,0.29091 3.813992,-6.52175 3.813993,-6.52176 8.05,-0.0191 c 4.98298,-0.0119 8.59609,-0.4954 9.48333,-1.26916 0.78834,-0.6875 1.12262,-0.85678 0.74285,-0.37618 -0.73114,0.92526 2.16123,7.2476 5.45229,11.91801 1.88035,2.66845 2.28238,2.77894 9.09673,2.5 l 7.12944,-0.29183 3.77527,-6.5 c 2.0764,-3.575 4.22411,-6.455 4.77268,-6.4 0.54858,0.055 7.07241,0.1675 14.49741,0.25 8.57029,0.0952 13.5,0.5292 13.5,1.18845 0,0.57115 -4.78908,9.34615 -10.6424,19.5 L 146.71519,180 H 100.0681 53.42101 Z M 60,60.059017 C 60,59.366188 55.352366,59 46.559017,59 39.166476,59 32.863751,58.588562 32.552961,58.085693 c -0.31079,-0.502869 4.257379,-9.277869 10.151488,-19.5 L 53.42101,20 h 46.6378 46.6378 l 10.68264,18.545425 c 5.87545,10.199984 10.41715,18.974984 10.09268,19.5 C 167.1417,58.579747 160.56633,59 152.53644,59 h -14.34552 l -3.23064,-5.75 c -1.77685,-3.1625 -3.73231,-6.080609 -4.34546,-6.484687 -0.61315,-0.404078 -3.92732,-0.741578 -7.36482,-0.75 -7.13085,-0.01747 -8.3081,0.775205 -12.24828,8.247105 L 108.50343,59 100.00172,58.988135 91.5,58.97627 88.210798,52.988135 84.921595,47 h -7.874732 -7.874731 l -3.610421,6.456035 C 62.031141,59.769285 60,62.180698 60,60.059017 Z"
       id="path387"
       inkscape:connector-curvature="0" />
    <path
       style="fill:#4d4e4f"
       d="M 42.704449,161.41431 C 36.81034,151.19218 32.242171,142.41718 32.552961,141.91431 32.863751,141.41144 39.146627,141 46.514907,141 H 59.91178 L 64,148 l 4.08822,7 h 8.411232 8.411233 l 4.158623,-7 4.158624,-7 h 6.910648 6.91066 l 2.72538,4.61263 c 5.70514,9.65578 5.45784,9.49963 14.5323,9.17615 l 8.10075,-0.28878 3.66869,-6.5 3.66868,-6.5 14.12748,-0.27746 C 163.38007,141.03582 168,141.29366 168,142.011 c 0,0.58625 -4.78908,9.3736 -10.6424,19.52745 L 146.71519,180 H 100.0681 53.42101 Z M 32.570095,58.113416 C 32.249881,57.595299 36.81034,48.807824 42.704449,38.585693 L 53.42101,20 h 46.6378 46.6378 l 10.68264,18.545425 c 5.87545,10.199984 10.41715,18.974984 10.09268,19.5 C 167.14484,58.574665 160.91264,59 153.48509,59 H 140.08822 L 136,52 131.91178,45 h -7.88446 c -8.96796,0 -9.26815,0.181838 -14.0247,8.495414 L 106.85322,59 h -6.83205 -6.832042 l -3.825033,-6.538792 c -2.21781,-3.791288 -4.686574,-6.755025 -5.875417,-7.053406 -1.127711,-0.283037 -4.945891,-0.378081 -8.484843,-0.211208 -7.020282,0.33103 -6.116917,-0.391897 -12.522747,10.021453 L 60.462177,58.5 46.80724,58.777724 C 39.015363,58.9362 32.902318,58.650965 32.570095,58.113416 Z"
       id="path385"
       inkscape:connector-curvature="0" />
  </g>
</svg>
